<svg width="373" height="251" viewBox="0 0 373 251" fill="none" xmlns="http://www.w3.org/2000/svg">
<path d="M339.332 129.347C331.623 131.199 328.067 148.666 326.543 170.377C325.02 192.087 326.162 215.701 326.162 215.701" stroke="#E6D4BE" stroke-width="1.28983" stroke-miterlimit="10"/>
<path d="M330.352 211.893C333.018 184.469 337.731 140.422 335.303 118.577C333.78 104.865 323.417 98.9857 316.601 106.306" stroke="#E6D4BE" stroke-width="1.28983" stroke-miterlimit="10"/>
<path d="M336.569 83.009C330.732 78.9659 322.353 91.5353 320.068 125.433C317.782 159.332 324.258 208.084 324.258 208.084" stroke="#E6D4BE" stroke-width="1.28983" stroke-miterlimit="10"/>
<path d="M336.57 83.0087C326.33 80.4484 319.417 92.7371 327.866 101.954C336.314 111.171 350.651 120.386 350.651 120.386C350.651 120.386 356.539 108.098 357.307 95.2974C358.075 82.4969 351.358 77.2752 343.994 77.889C337.85 78.4007 336.57 83.0087 336.57 83.0087Z" fill="#E6D4BE"/>
<path d="M303.544 142.148C312.248 131.396 314.041 132.932 322.489 126.531C330.938 120.131 331.45 113.986 327.61 109.122C323.77 104.258 316.602 106.306 316.602 106.306C316.602 106.306 316.09 101.441 308.409 101.441C300.729 101.441 294.841 110.402 296.377 123.97C297.913 137.539 303.544 142.148 303.544 142.148Z" fill="#E6D4BE"/>
<path d="M339.332 129.347C333.451 127.043 314.633 127.043 321.396 143.683C328.159 160.324 339.82 164.537 344.733 174.361C347.456 179.807 347.257 186.711 347.257 186.711C347.257 186.711 356.582 181.465 365.5 162.629C373.034 146.719 370.095 128.464 357.562 123.971C342.566 118.595 339.332 129.347 339.332 129.347Z" fill="#E6D4BE"/>
<path d="M346.102 249.31H313.536L309.033 192.333H350.606L346.102 249.31Z" fill="#E6D4BE"/>
<path d="M204.227 128.12H208.379L195.758 248.88H191.605L204.227 128.12Z" fill="#9C745B"/>
<path d="M270.039 176.457H264.698V233.601H270.039V176.457Z" fill="#6C273E"/>
<path d="M267.794 214.288H266.943C264.807 214.288 263.075 216.02 263.075 218.156V235.529C263.075 236.544 263.899 237.367 264.914 237.367H269.823C270.838 237.367 271.661 236.544 271.661 235.529V218.156C271.661 216.02 269.93 214.288 267.794 214.288Z" fill="#6C273E"/>
<path d="M267.368 235.43C266.74 235.43 266.231 235.938 266.231 236.566V243.898C266.231 244.526 266.74 245.034 267.368 245.034C267.995 245.034 268.504 244.526 268.504 243.898V236.566C268.504 235.938 267.995 235.43 267.368 235.43Z" fill="#6C273E"/>
<path d="M274.462 182.118H260.275C258.311 182.118 256.536 180.945 255.767 179.137L253.868 174.672C252.493 171.441 254.864 167.855 258.376 167.855H276.362C279.873 167.855 282.244 171.441 280.87 174.672L278.971 179.137C278.2 180.945 276.426 182.118 274.462 182.118Z" fill="#6C273E"/>
<path d="M294.045 246.159C294.045 248.28 292.325 250 290.204 250C288.083 250 286.363 248.28 286.363 246.159C286.363 244.038 288.083 242.318 290.204 242.318C292.325 242.318 294.045 244.038 294.045 246.159Z" fill="#6C273E"/>
<path d="M271.209 246.159C271.209 248.28 269.489 250 267.368 250C265.247 250 263.527 248.28 263.527 246.159C263.527 244.038 265.247 242.318 267.368 242.318C269.489 242.318 271.209 244.038 271.209 246.159Z" fill="#6C273E"/>
<path d="M240.691 246.159C240.691 248.28 242.411 250 244.532 250C246.653 250 248.373 248.28 248.373 246.159C248.373 244.038 246.653 242.318 244.532 242.318C242.41 242.318 240.691 244.038 240.691 246.159Z" fill="#6C273E"/>
<path d="M245.993 247.777L243.725 246.751C247.894 237.53 256.943 231.803 267.34 231.803C267.341 231.803 267.342 231.803 267.344 231.803C277.737 231.804 286.782 237.532 290.948 246.751L288.679 247.777C284.921 239.461 276.746 234.293 267.343 234.291H267.34C257.934 234.291 249.755 239.459 245.993 247.777Z" fill="#6C273E"/>
<path d="M323.101 62.0389C318.883 53.9542 304.646 53.0752 304.646 53.0752L270.057 61.7247C270.057 61.7247 255.63 86.9044 252.841 99.9423C250.725 109.831 225.907 147.361 215.902 164.347C212.716 169.756 215.24 170.176 217.01 170.997C235.933 179.771 293.303 170.997 293.303 170.997C300.483 170.997 307.753 163.815 309.258 156.795C310.957 148.873 312.603 136.586 312.641 118.651C312.722 81.3677 331.764 78.6426 323.101 62.0389Z" fill="#6C273E"/>
<path d="M298.214 159.962C301.968 158.663 304.733 155.455 305.385 151.536C306.68 143.759 307.743 133.02 307.774 118.651C307.854 81.3675 322.474 72.7074 317.491 60.8056C311.809 47.2355 274.471 52.7567 262.156 60.8056C251.886 67.5183 250.762 86.9042 247.973 99.9429C245.62 110.94 242.479 150.68 241.553 162.853C260.883 164.078 280.095 166.233 298.214 159.962Z" fill="#5C2135"/>
<path d="M252.111 219.44L255.306 235.457C255.306 235.457 253.169 239.007 250.189 240.419C247.56 241.665 246.201 242.593 243.431 242.746C241.395 242.86 240.937 248.765 240.937 248.765H258.596L273.821 242.397C273.821 242.397 273.679 238.798 272.412 234.785C271.144 230.771 267.244 216.559 267.244 216.559L252.111 219.44Z" fill="#272C34"/>
<path d="M206.925 219.614L206.502 235.456C206.502 235.456 202.855 238.888 197.033 241.498C193.291 243.176 184.829 248.765 189.377 248.765H208.827L225.937 248.844C225.937 248.844 226.149 242.639 224.881 238.625C223.614 234.611 221.29 231.443 221.079 225.739C220.867 220.036 220.656 216.867 220.656 216.867L206.925 219.614Z" fill="#272C34"/>
<path d="M268.47 140.602L262.43 126.256H242.043C242.043 126.256 228.83 130.786 214.107 134.939C199.383 139.091 190.477 140.601 187.079 149.662C183.682 158.723 189.344 176.844 193.497 189.302C197.65 201.761 205.578 224.79 205.578 224.79C205.578 224.79 215.239 227.432 221.28 225.168C221.28 225.168 218.666 178.647 216.258 166.652C216.258 166.652 236.381 166.274 244.686 165.519C252.991 164.764 265.449 147.398 268.47 140.602Z" fill="#323945"/>
<path d="M254.208 135.695C250.055 137.582 228.408 147.884 224.383 151.551C219.602 155.906 220.608 162.876 222.873 167.029C225.138 171.181 234.199 189.303 239.484 200.251C244.77 211.198 251.565 226.3 251.565 226.3C251.565 226.3 257.983 227.809 268.554 222.524C268.554 222.524 263.975 200.229 261.333 188.149C258.69 176.068 254.744 164.617 254.744 164.617C254.744 164.617 274.217 165.896 283.278 164.008C292.339 162.12 296.113 159.856 295.736 147.019C295.358 134.184 292.716 125.878 292.716 125.878L255.718 126.256L254.208 135.695Z" fill="#323945"/>
<path d="M255.718 126.257L254.209 135.695C250.056 137.582 228.409 147.884 224.384 151.551C219.603 155.907 220.609 162.876 222.874 167.029C225.139 171.182 234.2 189.303 239.485 200.251" stroke="#272C34" stroke-width="0.816145" stroke-miterlimit="10"/>
<path d="M251.121 157.84C251.121 157.84 256.141 166.834 259.278 180.847" stroke="#272C34" stroke-width="0.816145" stroke-miterlimit="10"/>
<path d="M265.123 22.1221C264.705 24.0114 265.939 38.1977 267.591 41.179C268.288 42.4383 278.367 45.5511 278.367 45.5511C278.367 45.5511 270.236 71.2499 264.945 72.1787C259.654 73.1074 243.771 49.0589 243.771 49.0589C243.771 49.0589 251.202 46.1453 251.634 45.2483C252.81 42.8073 251.15 27.6367 251.15 27.6367L265.123 22.1221Z" fill="#E8B3A0"/>
<path d="M251.635 45.2485C251.551 45.4232 251.197 45.6753 250.689 45.9667C252.969 46.1773 255.379 45.9585 257.996 45.1138C262.235 43.7452 264.632 40.9499 266.528 37.5776C265.458 32.2669 264.803 23.5742 265.125 22.123L251.151 27.6385C251.151 27.6369 252.811 42.8074 251.635 45.2485Z" fill="#D49684"/>
<path d="M263.861 38.3277C262.085 39.8629 258.959 43.4955 253.217 44.4774C251.022 44.8528 247.787 44.0725 246.513 42.9006C244.091 40.6717 240.609 34.0046 240.999 30.283C241.204 28.2948 240.961 25.6489 241.346 23.2339C241.681 21.134 241.546 18.3787 241.867 17.0598C242.934 12.6722 245.381 8.06996 249.103 7.31339C259.234 5.251 272.579 15.2284 272.091 18.3354C271.63 21.2638 269.892 26.2667 269.117 30.0797C268.533 32.9509 266.862 35.7348 263.861 38.3277Z" fill="#E7B2A1"/>
<path d="M251.348 15.4606L254.875 15.6499L259.617 10.9457L258.776 16.3608L260.471 16.6514C260.471 16.6514 260.925 13.7124 263.113 11.1815L262.868 16.8913C262.868 16.8913 265.438 18.8019 267.53 19.5617C269.621 20.3216 270.095 20.8104 270.095 20.8104L267.047 9.48561L260.276 6.16309L251.518 6.93923L247.831 11.9699L251.348 15.4606Z" fill="#D49684"/>
<path d="M242.451 16.918C242.885 15.0302 245.793 9.92605 245.793 9.92605L244.48 9.20214C242.373 8.04077 241.928 10.9381 240.472 13.3049L241.767 20.5612C242.439 18.7478 242.243 17.8214 242.451 16.918Z" fill="#2A2D33"/>
<path d="M265.608 12.9689C266.576 15.4092 268.126 15.3659 269.801 17.0888C271.476 18.8125 270.38 29.1367 270.38 29.1367C270.38 29.1367 273.107 26.7879 274.531 23.2629C274.921 22.2982 276.492 19.982 276.994 17.3165C278.024 11.85 276.846 10.2307 275.138 8.97714C273.352 7.66641 270.945 8.1463 270.945 8.1463L265.608 12.9689Z" fill="#2A2D33"/>
<path d="M269.719 25.5453C270.474 24.8417 272.461 23.4282 273.288 24.4378C274.116 25.4473 273.608 30.5197 271.677 32.6376C269.87 34.6216 267.487 33.9287 267.487 33.9287L268.537 27.1906L269.719 25.5453Z" fill="#E7B2A1"/>
<path d="M268.597 14.582C268.597 14.582 267.471 19.5687 268.045 21.1471C269.1 24.0509 268.323 29.9427 268.323 29.9427L270.758 24.7773L272.766 20.393L268.597 14.582Z" fill="#2A2D33"/>
<path d="M270.3 26.8682C271.008 25.5216 272.466 25.4546 272.565 26.4275C272.665 27.4003 272.137 27.6125 272.137 27.6125C272.137 27.6125 271.347 27.6582 270.809 28.4703C269.681 30.1744 269.617 32.2221 269.617 32.2221C269.617 32.2221 268.582 30.1328 270.3 26.8682Z" fill="#D49684"/>
<path d="M261.995 10.0245C263.371 11.6046 262.398 16.166 261.688 16.9169C261.688 16.9169 267.872 19.269 270.118 18.2586C272.144 17.3486 272.875 14.4848 272.875 14.4848L270.647 9.68908L264.958 8.00293L261.995 10.0245Z" fill="#2A2D33"/>
<path d="M271.34 4.55351C270.709 3.5219 267.22 0.0328783 259.183 0.000232531C253.327 -0.0234357 248.644 1.76393 246.525 3.4256C242.82 6.33107 241.456 9.62585 240.471 13.3042C240.471 13.3042 242.942 14.2762 242.946 14.273C243.059 14.1628 245.178 15.2458 251.347 15.4596C252.546 13.6127 255.292 11.5348 255.292 11.5348C254.226 13.0063 253.705 14.4509 253.451 15.5894C255.509 15.8212 258.774 16.359 258.774 16.359C259.672 13.585 262.867 10.8386 263.11 11.179L270.46 11.7511L272.496 10.3253C272.496 10.3253 272.995 7.26148 271.34 4.55351Z" fill="#2A2D33"/>
<path d="M254.039 19.9077C254.039 19.9077 254.296 18.9398 255.173 18.4248C255.173 18.4248 259.082 18.5219 261.707 21.8151C261.707 21.8151 261.027 21.7481 260.771 21.6771C260.119 21.4968 256.666 19.6368 254.039 19.9077Z" fill="#2A2D33"/>
<path d="M249.126 19.4331C249.126 19.4331 249.42 18.3852 248.97 17.5919C248.97 17.5919 246.974 16.8696 243.257 18.5109C243.257 18.5109 243.369 18.994 244.058 18.923C244.749 18.8512 247.529 18.1085 249.126 19.4331Z" fill="#2A2D33"/>
<path d="M251.203 24.4375C250.657 25.0317 250.153 25.6576 249.656 26.2885C249.154 26.9161 248.683 27.565 248.212 28.2146L247.867 28.7068L247.695 28.9532C247.638 29.0585 247.582 29.1662 247.532 29.274C247.507 29.3948 247.474 29.5188 247.474 29.6404C247.492 29.7596 247.487 29.8926 247.545 29.993C247.624 30.215 247.771 30.3839 247.927 30.5153C248.562 31.0393 248.923 31.1862 249.69 31.3086C249.69 31.3086 250.186 31.2441 249.865 31.0507C249.54 30.8712 248.433 30.4966 248.202 30.2395C247.973 29.9799 247.847 29.6886 247.969 29.4111C248.011 29.3425 248.047 29.2732 248.083 29.2021L248.26 28.9598L248.612 28.475C249.072 27.8221 249.53 27.1683 249.959 26.4934C250.391 25.8217 250.818 25.1451 251.203 24.4375Z" fill="#D49684"/>
<path d="M295.165 98.239C295.823 94.1665 289.298 49.6294 288.623 49.0467C287.375 47.971 278.632 45.21 273.326 43.6006C270.549 49.2989 266.541 52.8728 259.815 53.1593C255.623 53.338 249.95 51.2601 247.365 47.5401C238.718 50.0122 236.312 51.3156 236.312 51.3156C236.312 51.3156 233.401 60.2744 234.463 62.0365C235.526 63.8067 236.203 87.2921 235.913 99.4608C235.776 105.213 233.123 122.188 232.597 129.836C241.8 135.145 259.96 133.549 262.136 133.81C264.615 134.107 275.726 134.589 282.666 136.642C290.802 139.048 294.733 143.021 295.165 142.56C296.867 140.737 294.114 104.764 295.165 98.239Z" fill="#447C68"/>
<path d="M276.619 44.6282C273.813 43.8455 272.242 43.2432 272.242 43.2432C270.074 48.766 264.259 53.2311 257.283 52.6786C249.684 52.0763 248.555 46.8097 248.555 46.8097C247.342 47.2643 245.911 47.7442 244.702 48.3604C245.615 50.4016 248.546 53.1046 250.511 54.1836C252.669 55.3686 257.046 56.1644 259.54 55.9897C263.828 55.6885 271.353 55.1613 276.619 44.6282Z" fill="white"/>
<path d="M256.878 24.9567C256.683 25.8839 256.055 26.5368 255.475 26.4152C254.896 26.2936 254.584 25.4431 254.778 24.5152C254.973 23.588 255.601 22.9343 256.181 23.0567C256.761 23.1783 257.073 24.0288 256.878 24.9567Z" fill="#2A2D33"/>
<path d="M247.471 23.0249C247.276 23.952 246.649 24.6058 246.069 24.4833C245.49 24.3617 245.178 23.5113 245.372 22.5834C245.567 21.6562 246.195 21.0033 246.774 21.1249C247.355 21.2473 247.666 22.0978 247.471 23.0249Z" fill="#2A2D33"/>
<path d="M248.439 109.824C246.796 109.436 242.438 109.689 239.87 109.952C237.303 110.214 236.379 110.177 235.216 110.289C234.053 110.402 233.742 111.182 234.695 111.676C235.647 112.17 236.939 112.875 240.511 112.463C244.083 112.051 248.857 111.976 248.857 111.976C248.857 111.976 249.317 110.031 248.439 109.824Z" fill="#E7B2A1"/>
<path d="M236.62 111.198C238.564 110.824 240.575 110.47 242.568 110.519C244.737 110.574 246.708 111.062 248.397 111.984C247.118 112.015 243.417 112.126 240.51 112.462C236.938 112.874 235.647 112.169 234.694 111.675C234.553 111.602 234.448 111.521 234.36 111.438C235.073 111.423 235.794 111.357 236.62 111.198Z" fill="#D38576"/>
<path d="M231.04 120.041C231.04 120.041 230.945 120.007 230.821 119.936L231.04 120.041Z" fill="#E7B2A1"/>
<path d="M229.912 117.21C229.98 116.709 231.753 115.167 232.913 114.276C234.488 113.068 235.861 112.426 237.891 111.795C239.721 111.226 245.054 109.747 246.346 109.699C248.925 109.604 251.157 110.52 252.697 110.853C254.148 111.167 257.267 112.776 259.034 112.776C261.461 112.776 271.657 110.446 271.657 110.446L270.368 118.992C270.368 118.992 266.099 119.633 264.671 119.806C260.861 120.265 258.535 121.809 255.029 121.997C251.523 122.185 250.145 120.745 248.643 120.619C247.14 120.494 244.635 120.933 243.321 121.433C242.006 121.934 240.027 123.171 239.04 123.171C238.052 123.171 237.77 121.981 237.77 121.981C237.77 121.981 236.342 122.356 235.38 122.857C234.42 123.358 233.042 122.544 233.105 121.605C233.105 121.605 232.228 122.419 231.54 122.168C230.851 121.918 230.538 121.167 231.038 120.04C231.038 120.04 233.213 118.039 234.236 117.242C235.26 116.446 237.05 115.416 237.483 115.165C237.915 114.914 240.508 114.301 240.508 114.301C240.508 114.301 238.853 114.469 237.651 114.644C236.889 114.755 236.558 114.936 235.987 115.294C234.776 116.053 233.901 116.64 232.426 117.511C231.663 117.964 229.777 118.21 229.912 117.21Z" fill="#E7B2A1"/>
<path d="M263.792 111.453C266.049 110.888 269.797 117.328 269.9 121.595C269.9 121.595 294.17 116.798 304.33 113.129C314.489 109.46 315.9 106.355 314.772 100.993C313.643 95.6312 304.831 67.3053 303.421 62.7895C302.01 58.2738 299.815 53.5818 294.171 50.7596C288.526 47.9373 282.6 46.8086 282.6 46.8086C282.6 46.8086 282.882 62.8948 283.729 67.9745C284.575 73.0542 292.759 96.4775 292.759 96.4775L263.792 111.453Z" fill="#447C68"/>
<path d="M301.105 99.8216C301.105 99.8216 297.181 95.8225 292.759 96.4778" stroke="#396958" stroke-width="0.878253" stroke-miterlimit="10" stroke-linecap="round" stroke-linejoin="round"/>
<path d="M236.312 51.3154C232.377 53.2954 229.898 55.8059 227.59 58.2323C219.79 66.4321 211.533 79.0505 207.344 85.2238C201.916 93.2236 197.916 98.6518 197.916 102.08C197.916 105.509 200.488 113.223 200.488 113.223C200.488 113.223 204.202 109.509 208.488 108.938C212.773 108.366 218.924 111.056 218.924 111.056C218.924 111.056 218.639 104.416 218.924 102.702C219.21 100.988 227.046 93.138 230.76 89.9958C234.474 86.8528 242.248 80.9447 242.248 80.9447L236.312 51.3154Z" fill="#447C68"/>
<path d="M230.339 121.098H218.386L206.435 79.2764H215.522L230.339 121.098Z" fill="#B7ACAC"/>
<path d="M226.908 121.098H174.186L162.233 79.2764H214.956L226.908 121.098Z" fill="#D1CBCB"/>
<path d="M226.805 120.149H173.709V123.269H226.805V120.149Z" fill="#D1CBCB"/>
<path d="M253.561 120.149H226.805V123.269H253.561V120.149Z" fill="#B7ACAC"/>
<path d="M247.893 33.3581C249.651 34.2836 255.018 33.6356 256.684 32.4326C256.684 32.4326 254.857 35.4883 251.687 35.3014C248.248 35.099 247.893 33.3581 247.893 33.3581Z" fill="#2A2D33"/>
<path d="M236.165 70.9121C236.165 70.9121 237.346 92.7113 236.345 101.469" stroke="#396958" stroke-width="0.878253" stroke-miterlimit="10"/>
<path d="M283.728 67.9756C284.574 73.0553 292.759 96.4786 292.759 96.4786L263.792 111.453C266.049 110.888 269.797 117.328 269.9 121.595C269.9 121.595 294.17 116.798 304.33 113.129" stroke="#396958" stroke-width="0.878253" stroke-miterlimit="10" stroke-linecap="round" stroke-linejoin="round"/>
<path d="M198.061 128.12H193.908L206.53 248.88H210.682L198.061 128.12Z" fill="#B48669"/>
<path d="M325.598 128.12H321.445L334.066 248.88H338.219L325.598 128.12Z" fill="#9C745B"/>
<path d="M123.74 128.12H127.893L115.272 248.88H111.119L123.74 128.12Z" fill="#B48669"/>
<path d="M344.642 123.377H156.06V129.657H344.642V123.377Z" fill="#9C745B"/>
<path d="M189.337 123.377H96.9219V129.657H189.337V123.377Z" fill="#B48669"/>
<path d="M0 249.512H372.843" stroke="#E8D6CC" stroke-width="1.73088" stroke-miterlimit="10"/>
<path d="M130.482 121.321L183.205 121.336L189.747 77.8065L138.781 77.791L130.482 121.321Z" fill="#F4F4F4"/>
<path opacity="0.8" d="M130.482 121.321L144.836 121.325L167.313 77.794L153.436 77.7891L130.482 121.321Z" fill="white"/>
<path opacity="0.8" d="M149.195 121.321L157.256 121.325L179.731 77.794L172.149 77.7891L149.195 121.321Z" fill="white"/>
<path d="M189.146 77.7969L179.751 121.331H183.182L190.366 78.9052C190.464 78.3257 190.017 77.7969 189.43 77.7969H189.146Z" fill="#B7ACAC"/>
<path d="M110.501 120.383H182.164C183.005 120.383 183.687 121.064 183.687 121.906V121.979C183.687 122.821 183.005 123.502 182.164 123.502H110.501C109.66 123.502 108.979 122.821 108.979 121.979V121.906C108.979 121.064 109.661 120.383 110.501 120.383Z" fill="#B7ACAC"/>
<path d="M89.488 44.3522C90.4396 39.3411 90.5384 33.7529 90.5384 33.7529L95.2394 34.3569L108.188 36.0128C108.212 36.9498 108.02 39.4333 107.809 42.4408C107.714 43.7768 107.615 45.2246 107.523 46.6815C107.48 47.5727 107.557 48.4794 107.393 49.3388C107.087 50.9287 107.173 51.1947 106.881 52.5618C106.209 55.7007 111.689 63.8556 111.646 64.5795C111.646 64.5795 88.3985 51.5963 83.8525 49.955C83.8525 49.955 88.9894 46.9761 89.488 44.3522Z" fill="#EBB6A4"/>
<path d="M119.406 29.1996C117.843 30.0754 117.089 31.3339 117.137 31.8774C117.176 32.4112 117.33 38.3698 116.977 39.4814C116.625 40.6012 115.744 41.8123 113.126 42.2171C112.781 42.2637 112.444 42.302 112.117 42.3412C110.554 42.5469 108.654 43.039 107.571 46.5533C107.561 46.5958 107.542 46.6382 107.523 46.6806C106.912 48.0314 104.2 45.1251 101.732 42.3314C100.184 40.5963 98.7301 38.8987 97.9377 38.3005C96.7689 37.4215 95.8973 35.9965 95.2395 34.356C93.3509 29.6959 93.2383 23.3348 93.2383 23.3348L95.6361 13.3868L109.168 8.46875L115.694 10.0374C116.039 10.2308 116.853 13.5868 116.853 13.5868C116.853 13.5868 117.536 20.107 117.549 21.7401C117.563 23.3642 118.11 24.9573 118.844 25.9824C119.568 27.0165 120.968 28.3247 119.406 29.1996Z" fill="#EBB6A4"/>
<path d="M105.145 29.812C106.286 28.8147 106.407 26.3736 106.155 25.0253C105.902 23.6762 104.815 21.3257 106.667 19.6673C108.519 18.0089 104.065 13.3267 104.065 13.3267C104.065 13.3267 109.046 10.8269 111.906 10.4604C114.766 10.0948 116.851 13.5862 116.851 13.5862C116.851 13.5862 118.599 11.8732 118.544 9.81239C118.482 7.47985 115.821 4.77188 107.712 3.53624C101.31 2.56013 92.8446 2.97064 90.0485 3.83657C85.2406 5.32522 83.1953 7.62104 84.1315 12.2673C84.1315 12.2673 81.5663 13.5642 80.1968 16.4444C78.4503 20.117 78.6894 26.07 82.5065 30.1401C85.5165 33.3492 86.9496 35.2059 88.1224 37.1704C89.3107 39.1609 89.8224 41.9432 89.8224 41.9432C89.8224 41.9432 95.1731 42.1489 98.1806 39.0899C100.459 36.7713 100.904 30.9889 100.904 30.9889L101.577 24.7584L105.145 29.812Z" fill="#4E2100"/>
<path d="M103.517 25.3906C101.499 23.1405 98.2507 23.6742 98.6359 26.9739C98.9558 29.7243 100.238 30.2271 102.291 32.447C103.685 33.9528 104.896 33.1742 104.955 32.4037C105.124 30.2238 104.772 26.7878 103.517 25.3906Z" fill="#E7B2A1"/>
<path d="M103.898 30.2857C104.109 30.8554 104.24 31.2692 104.45 31.6919C104.624 31.5042 104.286 31.0309 104.083 30.0376C103.793 28.6208 104.142 30.0237 103.676 28.6494C103.211 27.275 102.845 26.4417 101.84 26.0034C100.766 25.5358 99.8262 26.3046 99.8262 26.3046C102.032 27.1109 103.291 28.6477 103.898 30.2857Z" fill="#D38576"/>
<path d="M117.259 32.7757C117.259 32.7757 115.627 32.8663 114.728 32.499C114.728 32.499 115.14 34.976 117.228 34.6569L117.259 32.7757Z" fill="white"/>
<path d="M115.023 17.2612C115.576 17.0245 116.182 16.8809 116.721 17.1518C116.978 17.2808 116.943 18.1075 116.943 18.1075C116.476 17.7598 115.951 17.6823 115.343 17.9059C114.651 18.1614 114.269 18.6437 114.269 18.6437C114.201 18.0431 114.47 17.4987 115.023 17.2612Z" fill="#4E2100"/>
<path d="M115.89 21.558C115.946 22.3129 116.263 22.9046 116.598 22.8793C116.933 22.854 117.159 22.2223 117.102 21.4674C117.045 20.7125 116.728 20.1208 116.393 20.1453C116.059 20.1706 115.833 20.8023 115.89 21.558Z" fill="#4E2100"/>
<path d="M107.571 46.554C107.56 46.5965 107.541 46.6389 107.522 46.6814C107.511 46.9091 107.501 47.1335 107.49 47.3612C107.374 47.0233 107.26 46.6789 107.147 46.3214C106.45 44.0991 105.107 42.5182 104.199 40.4321C103.676 39.2291 103.478 37.9364 103.363 36.6289C104.185 38.4481 105.249 39.8257 107.65 40.8525C108.819 41.3519 110.797 42.2236 112.116 42.3427C110.546 42.2007 108.653 43.0405 107.571 46.554Z" fill="#D38576"/>
<path d="M90.6382 207.557L82.6081 211.448L69.3115 229.391L84.291 248.687H99.2706C99.2706 248.687 98.8682 244.984 97.0906 243.714C95.3131 242.445 90.6382 239.292 90.6382 239.292L89.0296 232.265L100.155 215.335L90.6382 207.557Z" fill="#272C34"/>
<path d="M116.92 218.325L109.838 226.588C109.838 226.588 106.533 237.683 106.533 238.628C106.533 239.572 105.116 245.238 105.353 246.654C105.589 248.071 105.353 249.723 106.769 249.723C108.186 249.723 139.583 248.306 139.583 248.306C139.583 248.306 139.819 244.765 134.861 242.641C131.072 241.016 124.946 236.975 124.474 236.267C124.002 235.558 127.071 218.561 127.071 218.561L116.92 218.325Z" fill="#272C34"/>
<path d="M105.722 171.348L82.6084 211.449C82.6084 211.449 86.1937 223.799 100.138 224.596C100.138 224.596 122.847 194.634 130.018 187.065C137.19 179.495 135.197 168.34 135.197 168.34L105.722 171.348Z" fill="#4E514E"/>
<path d="M62.9463 144.382C72.5376 142.638 91.4648 133.396 92.7731 132.088C94.0806 130.78 127.402 134.194 136.31 136.684C146.946 139.656 151.448 143.511 152.32 150.05C153.191 156.589 145.344 183.183 140.549 197.57C135.753 211.957 130.848 226.352 130.848 226.352C130.848 226.352 119.281 232.253 109.838 226.588C109.838 226.588 117.443 179.695 118.315 173.155C118.315 173.155 101.748 174.9 86.4896 170.976C71.2302 167.053 62.9463 144.382 62.9463 144.382Z" fill="#4E514E"/>
<path d="M83.2119 51.8972C83.8542 50.291 84.8181 45.1518 90.5997 44.5095C96.382 43.8672 106.018 45.4733 107.624 46.758C109.231 48.0426 109.552 59.6065 109.552 59.6065L83.2119 51.8972Z" fill="#CF9636"/>
<path d="M62.8652 147.906C79.1726 146.307 101.049 131.941 101.049 131.941C101.049 131.941 103.015 125.636 105.837 117.167C108.66 108.698 111.17 103.052 113.051 95.2104C114.933 87.3689 119.638 62.9033 118.697 59.1392C117.756 55.3752 114.305 52.8664 110.228 51.2977C106.15 49.7291 87.33 47.2203 77.293 49.1023C67.2561 50.9843 63.1778 66.6674 58.787 76.0775C54.3953 85.4877 45.6128 128.459 44.986 134.732C44.3592 141.005 46.8688 149.473 62.8652 147.906Z" fill="#EBAB3E"/>
<path d="M109.837 226.588L118.314 173.156" stroke="#444644" stroke-width="1.2447" stroke-miterlimit="10"/>
<path d="M82.9209 176.457H77.5801V233.601H82.9209V176.457Z" fill="#6C273E"/>
<path d="M80.6761 214.288H79.8257C77.6899 214.288 75.958 216.02 75.958 218.156V235.529C75.958 236.544 76.7807 237.367 77.7968 237.367H82.7059C83.7212 237.367 84.5439 236.544 84.5439 235.529V218.156C84.5439 216.02 82.812 214.288 80.6761 214.288Z" fill="#6C273E"/>
<path d="M80.2503 235.43C79.6227 235.43 79.1143 235.938 79.1143 236.566V243.898C79.1143 244.526 79.6227 245.034 80.2503 245.034C80.8771 245.034 81.3864 244.526 81.3864 243.898V236.566C81.3856 235.938 80.8771 235.43 80.2503 235.43Z" fill="#6C273E"/>
<path d="M87.3433 182.118H73.1562C71.1917 182.118 69.4166 180.945 68.6478 179.137L66.7487 174.672C65.3743 171.441 67.7452 167.855 71.257 167.855H89.2424C92.7543 167.855 95.1252 171.441 93.7508 174.672L91.8516 179.137C91.0828 180.945 89.3077 182.118 87.3433 182.118Z" fill="#6C273E"/>
<path d="M106.928 246.159C106.928 248.28 105.208 250 103.087 250C100.966 250 99.2461 248.28 99.2461 246.159C99.2461 244.038 100.966 242.318 103.087 242.318C105.208 242.318 106.928 244.038 106.928 246.159Z" fill="#6C273E"/>
<path d="M84.0917 246.159C84.0917 248.28 82.3721 250 80.2509 250C78.1298 250 76.4102 248.28 76.4102 246.159C76.4102 244.038 78.1298 242.318 80.2509 242.318C82.3721 242.318 84.0917 244.038 84.0917 246.159Z" fill="#6C273E"/>
<path d="M53.5732 246.159C53.5732 248.28 55.2929 250 57.414 250C59.5352 250 61.2548 248.28 61.2548 246.159C61.2548 244.038 59.5352 242.318 57.414 242.318C55.2929 242.318 53.5732 244.038 53.5732 246.159Z" fill="#6C273E"/>
<path d="M58.8753 247.777L56.6064 246.751C60.7761 237.53 69.8247 231.803 80.2216 231.803C80.2232 231.803 80.224 231.803 80.2257 231.803C90.6193 231.804 99.6638 237.532 103.83 246.751L101.561 247.777C97.803 239.461 89.6276 234.293 80.2248 234.291H80.2216C70.8155 234.291 62.6369 239.459 58.8753 247.777Z" fill="#6C273E"/>
<path d="M98.5326 165.721C80.8932 169.548 75.9694 147.821 74.3437 122.355C73.7193 112.569 73.3031 101.743 73.7936 86.5981C74.24 72.8265 65.9088 62.8319 50.6094 63.6889C50.6094 63.6889 61.9538 99.7984 63.684 119.261C65.4142 138.724 61.7457 153.754 72.3343 165.106C82.9213 176.458 98.5326 165.721 98.5326 165.721Z" fill="#5C2135"/>
<path d="M90.6221 163.46C77.4307 161.811 70.4829 134.751 68.3136 114.504C67.2975 105.018 64.0427 85.2918 63.6771 78.5578C63.309 71.7618 61.3388 63.9578 49.4255 63.5734C36.8536 63.1678 22.6217 63.9611 16.8197 63.9709C5.76507 63.9896 5.07379 70.5841 7.1468 75.7356C11.8682 87.4709 9.65808 135.245 18.3353 154.046C27.0126 172.847 39.3013 177.186 73.288 177.186C107.274 177.186 124.779 175.772 128.805 173.485C133.169 171.007 136.698 163.886 130.394 163.46C126.005 163.163 96.4069 164.183 90.6221 163.46Z" fill="#6C273E"/>
<path d="M129.608 115.118C126.944 114.408 125.435 114.585 124.725 116.006C124.014 117.427 122.771 118.936 122.771 119.646C122.771 120.357 124.902 120.356 125.524 120.179C126.146 120.001 127.122 120.623 128.01 120.445C128.898 120.268 132.361 120.001 132.361 120.001L129.608 115.118Z" fill="#EBB6A4"/>
<path d="M100.798 64.2605C101.544 57.1625 111.309 51.2969 111.309 51.2969C111.309 51.2969 119.237 53.5405 123.954 60.8303C128.671 68.1201 137.247 87.417 141.107 95.5646C144.967 103.712 147.036 109.61 147.893 113.469C148.751 117.329 147.968 124.295 136.391 123.438C124.813 122.58 117.523 102.426 110.233 92.5628C102.942 82.6997 99.9399 72.4081 100.798 64.2605Z" fill="#EBAB3E"/>
<path d="M116.814 102.985C116.814 102.985 108.109 86.9327 105.807 79.2568" stroke="#CF9636" stroke-width="1.14987" stroke-miterlimit="10"/>
</svg>