<svg width="192" height="40" viewBox="0 0 192 40" fill="none" xmlns="http://www.w3.org/2000/svg">
<path d="M3.40234 0.567376H16.7357C25.2463 0.567376 30.6364 7.37589 30.6364 16.7376C30.6364 21.844 28.9343 26.383 25.53 29.2199C23.2605 31.2057 20.1399 32.3404 16.1683 32.3404H3.40234V0.567376ZM15.7428 26.8085C21.8421 26.8085 24.1116 23.1206 24.1116 16.8794C24.1116 10.6383 21.4165 6.24113 15.8846 6.24113H9.78532V26.9504H15.7428V26.8085ZM31.6293 20.9929C31.6293 14.1844 36.452 8.93617 43.5442 8.93617C50.6364 8.93617 55.4591 14.1844 55.4591 20.9929C55.4591 27.8014 50.6364 33.0496 43.5442 33.0496C36.452 33.0496 31.6293 27.6596 31.6293 20.9929ZM49.2179 20.9929C49.2179 16.5957 47.0903 13.4752 43.4023 13.4752C39.7144 13.4752 37.5867 16.4539 37.5867 20.9929C37.5867 25.5319 39.5726 28.3688 43.4023 28.3688C47.2321 28.3688 49.2179 25.3901 49.2179 20.9929ZM56.5938 20.9929C56.5938 14.1844 60.991 8.93617 67.9414 8.93617C73.8988 8.93617 77.4449 12.3404 78.296 17.305H72.3385C71.913 15.3191 70.3527 13.7589 68.225 13.7589C64.5371 13.7589 62.6931 16.5957 62.6931 20.9929C62.6931 25.2482 64.3953 28.2269 68.0832 28.2269C70.4945 28.2269 72.1967 26.9504 72.6222 24.3972H78.5797C78.1541 29.2199 74.4662 33.0496 68.3669 33.0496C61.1328 32.9078 56.5938 27.6596 56.5938 20.9929ZM94.4662 32.3404V29.6454H94.3243C92.764 31.773 91.0619 32.9078 87.7995 32.9078C82.6931 32.9078 79.8562 29.6454 79.8562 24.6808V9.50354H85.8137V23.6879C85.8137 26.383 86.9484 27.8014 89.6435 27.8014C92.4804 27.8014 94.1825 25.6738 94.1825 22.695V9.50354H100.282V32.1986H94.4662V32.3404ZM129.643 0.70922H135.743V6.38298H129.643V0.70922ZM129.643 9.50354H135.743V32.1986H129.643V9.50354ZM138.154 32.9078H144.112C144.537 34.3262 145.956 35.461 148.651 35.461C152.055 35.461 153.757 33.7589 153.757 30.7801V28.2269H153.615C152.339 29.7872 150.495 30.922 147.658 30.922C142.551 30.922 137.587 26.9504 137.587 20C137.587 13.1915 141.7 8.93617 147.374 8.93617C150.211 8.93617 152.339 10.0709 153.615 11.9149H153.757V9.50354H159.573V30.4965C159.573 33.7589 158.58 35.8865 156.878 37.4468C155.034 39.2908 152.055 40 148.651 40C142.693 40 138.863 37.4468 138.154 32.9078ZM154.182 19.8582C154.182 16.5957 152.339 13.7589 148.792 13.7589C145.672 13.7589 143.686 16.1702 143.686 20C143.686 23.8298 145.672 26.0993 148.792 26.0993C152.622 26.0993 154.182 23.2624 154.182 19.8582ZM168.225 12.6241C169.927 10.2128 172.055 8.93617 175.034 8.93617C179.714 8.93617 182.835 12.4823 182.835 17.4468V32.3404H176.736V18.4397C176.736 16.0284 175.317 14.3262 172.764 14.3262C170.069 14.3262 168.083 16.4539 168.083 19.5745V32.4823H162.268V9.78723H168.225V12.6241ZM115.885 13.1915C111.204 12.1986 109.076 11.3475 109.076 8.79433C109.076 6.52482 111.346 5.10638 114.75 5.10638C117.87 5.10638 120.282 6.52482 120.849 9.50354H127.09C126.381 3.40425 121.842 0 114.75 0C107.658 0 102.551 3.26241 102.551 9.50354C102.551 16.1702 107.8 17.5887 113.473 18.8652C118.296 20 121.275 20.5674 121.275 23.6879C121.275 26.6667 118.438 27.8014 115.175 27.8014C110.636 27.8014 108.509 26.2411 108.083 22.4113H101.842C102.126 29.078 106.948 32.9078 115.601 32.9078C122.693 32.9078 127.941 29.3617 127.941 22.8369C127.8 16.1702 122.409 14.6099 115.885 13.1915ZM185.388 13.7589C184.112 13.7589 182.977 12.6241 182.977 11.3475C182.977 10.0709 184.112 8.93617 185.388 8.93617C186.665 8.93617 187.8 10.0709 187.8 11.3475C187.8 12.6241 186.665 13.7589 185.388 13.7589ZM185.388 9.3617C184.253 9.3617 183.402 10.2128 183.402 11.3475C183.402 12.4823 184.253 13.3333 185.388 13.3333C186.523 13.3333 187.374 12.4823 187.374 11.3475C187.374 10.2128 186.523 9.3617 185.388 9.3617Z" fill="black"/>
<path d="M184.539 10.0713H185.39C185.674 10.0713 185.958 10.0713 186.099 10.2131C186.241 10.355 186.383 10.4968 186.383 10.7805C186.383 11.206 186.099 11.3479 185.958 11.4897L186.525 12.4826H185.958L185.532 11.6316H184.965V12.4826H184.539V10.0713ZM184.965 10.4968V11.206H185.39C185.532 11.206 185.816 11.206 185.816 10.7805C185.816 10.7805 185.816 10.4968 185.674 10.4968H184.965Z" fill="black"/>
</svg>