<svg width="182" height="220" viewBox="0 0 182 220" fill="none" xmlns="http://www.w3.org/2000/svg">
<g opacity="0.5">
<path d="M152.997 183.96V131.602H28.1523V183.96L90.5749 219.999L152.997 183.96Z" fill="url(#paint0_linear_386_13906)"/>
</g>
<path d="M0 115.825L16.2698 141.464L0 167.104H31.3105C32.7765 167.104 33.967 166.062 33.967 164.778V115.825H0Z" fill="url(#paint1_linear_386_13906)"/>
<path d="M0 115.825L1.77468 118.537H33.967V115.825H0Z" fill="url(#paint2_linear_386_13906)"/>
<path d="M31.3105 164.392H1.77468L0 167.104H31.3105C32.7765 167.104 33.967 166.062 33.967 164.778V162.066C33.967 163.351 32.7765 164.392 31.3105 164.392Z" fill="url(#paint3_linear_386_13906)"/>
<path d="M181.151 115.825L164.881 141.464L181.151 167.104H149.84C148.374 167.104 147.184 166.062 147.184 164.778V115.825H181.151Z" fill="url(#paint4_linear_386_13906)"/>
<path d="M181.151 115.825L179.376 118.537H147.184V115.825H181.151Z" fill="url(#paint5_linear_386_13906)"/>
<path d="M149.84 164.392H179.376L181.151 167.104H149.84C148.374 167.104 147.184 166.062 147.184 164.778V162.066C147.184 163.351 148.374 164.392 149.84 164.392Z" fill="url(#paint6_linear_386_13906)"/>
<path d="M26.4339 137.753C23.9096 137.753 21.8594 139.346 21.8594 141.313C21.8594 143.281 23.9096 144.874 26.4339 144.874H40.94C42.406 144.874 43.591 145.915 43.591 147.2V137.753H26.4339Z" fill="url(#paint7_linear_386_13906)"/>
<path d="M154.718 137.753C157.242 137.753 159.292 139.346 159.292 141.313C159.292 143.281 157.242 144.874 154.718 144.874H140.212C138.746 144.874 137.561 145.915 137.561 147.2V137.753H154.718Z" fill="url(#paint8_linear_386_13906)"/>
<path d="M146.451 167.845V34.8486H34.7012V167.845L90.5761 200.098L146.451 167.845Z" fill="url(#paint9_linear_386_13906)"/>
<path d="M28.1523 28.3018V171.599L90.5749 207.666L152.997 171.621V28.3238L28.1523 28.3018ZM146.45 167.846L90.5749 200.099L34.6999 167.846V34.8493H146.45V167.846Z" fill="url(#paint10_linear_386_13906)"/>
<path d="M148.088 168.787V33.2061H33.0645V168.787L90.5763 201.994L148.088 168.787ZM34.7014 34.8595H146.451V167.845L90.5763 200.098L34.7014 167.845V34.8595Z" fill="url(#paint11_linear_386_13906)"/>
<path d="M28.1523 28.3018V171.599L90.5749 207.666L152.997 171.621V28.3238L28.1523 28.3018ZM151.361 170.679L90.5749 205.776L29.7892 170.679V29.9387H151.361V170.679Z" fill="url(#paint12_linear_386_13906)"/>
<path d="M146.451 34.8545H34.7012V64.5556H146.451V34.8545Z" fill="url(#paint13_linear_386_13906)" style="mix-blend-mode:multiply"/>
<path opacity="0.6" d="M152.997 137.753H28.1523V151.702H152.997V137.753Z" fill="url(#paint14_linear_386_13906)" style="mix-blend-mode:multiply"/>
<path d="M90.5761 178.053L96.3686 174.515L94.7924 181.117L99.9511 185.538L93.183 186.078L90.5761 192.344L87.9692 186.078L81.2012 185.538L86.3599 181.117L84.7836 174.515L90.5761 178.053Z" fill="url(#paint15_linear_386_13906)"/>
<path d="M70.8504 174.994L74.7801 172.591L73.7164 177.072L77.2106 180.07L72.6196 180.439L70.8504 184.694L69.0813 180.439L64.4902 180.07L67.99 177.072L66.9208 172.591L70.8504 174.994Z" fill="url(#paint16_linear_386_13906)"/>
<path d="M110.301 174.994L106.366 172.591L107.435 177.072L103.936 180.07L108.532 180.439L110.301 184.694L112.07 180.439L116.661 180.07L113.162 177.072L114.231 172.591L110.301 174.994Z" fill="url(#paint17_linear_386_13906)"/>
<path d="M110.592 0H70.5571L42.2559 28.3012V68.3308L70.5571 96.6375H110.592L138.893 68.3308V28.3012L110.592 0Z" fill="url(#paint18_linear_386_13906)"/>
<path d="M75.0779 85.7299L53.1699 63.8164V32.8256L75.0779 10.9121H106.069L127.982 32.8256V63.8164L106.069 85.7299H75.0779Z" fill="url(#paint19_linear_386_13906)"/>
<path d="M110.592 0H70.5571L42.2559 28.3012V68.3308L70.5571 96.6375H110.592L138.893 68.3308V28.3012L110.592 0ZM132.346 65.6192L107.875 90.09H73.2742L48.8034 65.6192V31.0129L73.2742 6.54759H107.875L132.346 31.0129V65.6192Z" fill="url(#paint20_linear_386_13906)"/>
<path d="M72.5977 4.91113L47.168 30.3464V66.3085L72.5977 91.7383H108.554L133.984 66.3085V30.3464L108.554 4.92217L72.5977 4.91113ZM132.347 65.6196L107.876 90.0904H73.2756L48.8049 65.6196V31.0133L73.2756 6.54805H107.876L132.347 31.0133V65.6196Z" fill="url(#paint21_linear_386_13906)"/>
<path d="M110.592 0H70.5571L42.2559 28.3012V68.3308L70.5571 96.6375H110.592L138.893 68.3308V28.3012L110.592 0ZM137.256 67.6529L109.914 95.0006H71.2405L43.8928 67.6529V28.9791L71.2405 1.63688H109.914L137.256 28.9791V67.6529Z" fill="url(#paint22_linear_386_13906)"/>
<path d="M154.716 104.048H26.4319C23.9077 104.048 21.8574 105.646 21.8574 107.614V158.87C21.8574 156.903 23.9077 155.31 26.4319 155.31H154.716C157.24 155.31 159.291 156.903 159.291 158.87V107.614C159.291 105.646 157.262 104.048 154.716 104.048Z" fill="url(#paint23_linear_386_13906)"/>
<path d="M154.716 152.697H26.4319C23.9077 152.697 21.8574 154.29 21.8574 156.258V158.892C21.8574 156.925 23.9077 155.332 26.4319 155.332H154.716C157.24 155.332 159.291 156.925 159.291 158.892V156.258C159.291 154.296 157.262 152.697 154.716 152.697Z" fill="url(#paint24_linear_386_13906)"/>
<path d="M154.716 104.048H26.4319C23.9077 104.048 21.8574 105.646 21.8574 107.614V110.248C21.8574 108.281 23.9077 106.688 26.4319 106.688H154.716C157.24 106.688 159.291 108.281 159.291 110.248V107.614C159.291 105.646 157.262 104.048 154.716 104.048Z" fill="url(#paint25_linear_386_13906)"/>
<path d="M66.5361 115.566V124.969H64.7559V115.566H66.5361Z" fill="#3D5281"/>
<path d="M70.2219 115.567V124.969H68.4473V115.567H70.2219ZM71.2526 124.969H69.2244V123.575H71.2361C71.7212 123.593 72.2007 123.466 72.6139 123.211C72.9936 122.953 73.2858 122.586 73.4516 122.158C73.6557 121.632 73.7531 121.07 73.7382 120.505V120.02C73.7437 119.578 73.69 119.136 73.5784 118.708C73.483 118.362 73.3201 118.038 73.0989 117.755C72.8942 117.498 72.6292 117.295 72.3273 117.165C71.9938 117.027 71.6354 116.96 71.2746 116.967H69.1693V115.567H71.2857C71.8756 115.559 72.4613 115.666 73.0107 115.881C73.5198 116.086 73.98 116.396 74.361 116.79C74.7482 117.194 75.0467 117.675 75.2374 118.201C75.4496 118.79 75.5541 119.411 75.546 120.037V120.505C75.5536 121.129 75.449 121.748 75.2374 122.335C75.048 122.862 74.7494 123.343 74.361 123.746C73.977 124.141 73.5128 124.449 72.9997 124.65C72.4438 124.869 71.8503 124.978 71.2526 124.969Z" fill="#3D5281"/>
<path d="M82.1259 115.566V124.969H80.3457V115.566H82.1259ZM86.5626 115.566V116.966H81.6023V115.566H86.5626ZM85.9288 119.424V120.786H81.5803V119.424H85.9288ZM86.5791 123.552V124.947H81.5803V123.552H86.5791Z" fill="#3D5281"/>
<path d="M89.3785 119.414V124.969H87.6699V117.981H89.2793L89.3785 119.414ZM89.1249 121.222H88.5738C88.5707 120.767 88.6301 120.315 88.7502 119.877C88.8667 119.491 89.0535 119.131 89.3013 118.813C89.5277 118.512 89.8223 118.268 90.1611 118.102C90.5339 117.93 90.941 117.845 91.3516 117.854C91.6458 117.85 91.9386 117.896 92.2169 117.992C92.4753 118.08 92.7094 118.227 92.9003 118.422C93.1043 118.638 93.2553 118.898 93.3412 119.182C93.4498 119.54 93.5019 119.911 93.4955 120.285V124.947H91.7925V120.456C91.8053 120.193 91.7582 119.931 91.6547 119.689C91.5733 119.516 91.4325 119.377 91.2579 119.298C91.0603 119.218 90.8481 119.18 90.6351 119.188C90.3978 119.18 90.1625 119.233 89.9517 119.342C89.7605 119.447 89.5978 119.596 89.4777 119.778C89.3514 119.974 89.26 120.19 89.2076 120.417C89.1458 120.682 89.118 120.955 89.1249 121.227V121.222ZM93.3743 120.907L92.6688 121.034C92.6716 120.616 92.7328 120.201 92.8507 119.8C92.9573 119.433 93.1311 119.089 93.3632 118.786C93.5885 118.494 93.8793 118.26 94.212 118.102C94.5772 117.931 94.9771 117.846 95.3804 117.854C95.6986 117.848 96.0155 117.897 96.3174 117.997C96.5883 118.089 96.8325 118.246 97.0283 118.455C97.2404 118.687 97.3969 118.964 97.4858 119.265C97.5999 119.659 97.6538 120.068 97.6456 120.478V124.969H95.9261V120.472C95.9375 120.204 95.8905 119.937 95.7883 119.689C95.7045 119.522 95.5639 119.389 95.3914 119.315C95.1963 119.24 94.9885 119.205 94.7797 119.21C94.5682 119.205 94.3584 119.25 94.1679 119.342C93.9945 119.427 93.8435 119.552 93.727 119.706C93.6019 119.87 93.5118 120.057 93.4624 120.257C93.4023 120.469 93.3726 120.688 93.3743 120.907Z" fill="#3D5281"/>
<path d="M103.25 120.715V121.729H102.176C101.938 121.726 101.702 121.752 101.47 121.806C101.291 121.849 101.123 121.928 100.974 122.038C100.85 122.134 100.75 122.259 100.682 122.401C100.614 122.55 100.58 122.712 100.583 122.875C100.582 123.039 100.624 123.201 100.704 123.344C100.787 123.483 100.907 123.595 101.051 123.669C101.223 123.751 101.412 123.791 101.603 123.785C101.876 123.79 102.147 123.728 102.391 123.603C102.597 123.497 102.777 123.344 102.914 123.156C103.029 123.011 103.098 122.834 103.113 122.649L103.603 123.388C103.533 123.581 103.443 123.765 103.333 123.939C103.204 124.143 103.048 124.328 102.87 124.49C102.428 124.887 101.849 125.098 101.255 125.08C100.835 125.088 100.419 124.996 100.043 124.81C99.7001 124.64 99.4076 124.383 99.1941 124.066C98.9884 123.747 98.881 123.376 98.8854 122.997C98.8772 122.658 98.947 122.323 99.0894 122.015C99.2301 121.726 99.4426 121.478 99.7066 121.293C100.012 121.082 100.354 120.931 100.715 120.847C101.169 120.742 101.633 120.692 102.099 120.698L103.25 120.715ZM103.013 123.471V120.252C103.018 120.039 102.974 119.828 102.887 119.635C102.809 119.464 102.677 119.325 102.512 119.238C102.316 119.133 102.095 119.084 101.873 119.094C101.668 119.09 101.465 119.13 101.277 119.21C101.118 119.278 100.982 119.391 100.886 119.535C100.796 119.679 100.748 119.845 100.748 120.015H99.0397C99.0385 119.728 99.1086 119.446 99.2437 119.194C99.3926 118.922 99.5951 118.684 99.8389 118.494C100.114 118.279 100.426 118.116 100.759 118.014C101.152 117.895 101.561 117.837 101.972 117.843C102.457 117.835 102.939 117.925 103.388 118.108C103.787 118.274 104.128 118.554 104.369 118.913C104.622 119.316 104.747 119.787 104.728 120.263V123.311C104.723 123.61 104.747 123.909 104.799 124.204C104.835 124.427 104.903 124.645 105.003 124.848V124.959H103.25C103.157 124.742 103.094 124.514 103.063 124.281C103.03 124.016 103.015 123.749 103.019 123.482L103.013 123.471Z" fill="#3D5281"/>
<path d="M106.256 116.151C106.254 116.034 106.275 115.917 106.32 115.808C106.364 115.698 106.431 115.6 106.515 115.518C106.716 115.357 106.966 115.27 107.223 115.27C107.481 115.27 107.73 115.357 107.932 115.518C108.016 115.6 108.082 115.698 108.127 115.808C108.171 115.917 108.193 116.034 108.191 116.151C108.193 116.268 108.171 116.384 108.127 116.493C108.082 116.601 108.016 116.698 107.932 116.78C107.733 116.946 107.482 117.037 107.223 117.037C106.964 117.037 106.714 116.946 106.515 116.78C106.431 116.698 106.365 116.601 106.32 116.493C106.275 116.384 106.254 116.268 106.256 116.151ZM108.08 117.981V124.97H106.372V117.981H108.08Z" fill="#3D5281"/>
<path d="M111.519 115.049V124.969H109.805V115.049H111.519Z" fill="#3D5281"/>
<path d="M117.19 115.566L113.635 125.774H112.34L115.889 115.566H117.19Z" fill="#3D5281"/>
<path d="M66.5361 115.566V124.969H64.7559V115.566H66.5361Z" fill="#3D5281"/>
<path d="M70.2219 115.567V124.969H68.4473V115.567H70.2219ZM71.2526 124.969H69.2244V123.575H71.2361C71.7212 123.593 72.2007 123.466 72.6139 123.211C72.9936 122.953 73.2858 122.586 73.4516 122.158C73.6557 121.632 73.7531 121.07 73.7382 120.505V120.02C73.7437 119.578 73.69 119.136 73.5784 118.708C73.483 118.362 73.3201 118.038 73.0989 117.755C72.8942 117.498 72.6292 117.295 72.3273 117.165C71.9938 117.027 71.6354 116.96 71.2746 116.967H69.1693V115.567H71.2857C71.8756 115.559 72.4613 115.666 73.0107 115.881C73.5198 116.086 73.98 116.396 74.361 116.79C74.7482 117.194 75.0467 117.675 75.2374 118.201C75.4496 118.79 75.5541 119.411 75.546 120.037V120.505C75.5536 121.129 75.449 121.748 75.2374 122.335C75.048 122.862 74.7494 123.343 74.361 123.746C73.977 124.141 73.5128 124.449 72.9997 124.65C72.4438 124.869 71.8503 124.978 71.2526 124.969Z" fill="#3D5281"/>
<path d="M82.1259 115.566V124.969H80.3457V115.566H82.1259ZM86.5626 115.566V116.966H81.6023V115.566H86.5626ZM85.9288 119.424V120.786H81.5803V119.424H85.9288ZM86.5791 123.552V124.947H81.5803V123.552H86.5791Z" fill="#3D5281"/>
<path d="M89.3785 119.414V124.969H87.6699V117.981H89.2793L89.3785 119.414ZM89.1249 121.222H88.5738C88.5707 120.767 88.6301 120.315 88.7502 119.877C88.8667 119.491 89.0535 119.131 89.3013 118.813C89.5277 118.512 89.8223 118.268 90.1611 118.102C90.5339 117.93 90.941 117.845 91.3516 117.854C91.6458 117.85 91.9386 117.896 92.2169 117.992C92.4753 118.08 92.7094 118.227 92.9003 118.422C93.1043 118.638 93.2553 118.898 93.3412 119.182C93.4498 119.54 93.5019 119.911 93.4955 120.285V124.947H91.7925V120.456C91.8053 120.193 91.7582 119.931 91.6547 119.689C91.5733 119.516 91.4325 119.377 91.2579 119.298C91.0603 119.218 90.8481 119.18 90.6351 119.188C90.3978 119.18 90.1625 119.233 89.9517 119.342C89.7605 119.447 89.5978 119.596 89.4777 119.778C89.3514 119.974 89.26 120.19 89.2076 120.417C89.1458 120.682 89.118 120.955 89.1249 121.227V121.222ZM93.3743 120.907L92.6688 121.034C92.6716 120.616 92.7328 120.201 92.8507 119.8C92.9573 119.433 93.1311 119.089 93.3632 118.786C93.5885 118.494 93.8793 118.26 94.212 118.102C94.5772 117.931 94.9771 117.846 95.3804 117.854C95.6986 117.848 96.0155 117.897 96.3174 117.997C96.5883 118.089 96.8325 118.246 97.0283 118.455C97.2404 118.687 97.3969 118.964 97.4858 119.265C97.5999 119.659 97.6538 120.068 97.6456 120.478V124.969H95.9261V120.472C95.9375 120.204 95.8905 119.937 95.7883 119.689C95.7045 119.522 95.5639 119.389 95.3914 119.315C95.1963 119.24 94.9885 119.205 94.7797 119.21C94.5682 119.205 94.3584 119.25 94.1679 119.342C93.9945 119.427 93.8435 119.552 93.727 119.706C93.6019 119.87 93.5118 120.057 93.4624 120.257C93.4023 120.469 93.3726 120.688 93.3743 120.907Z" fill="#3D5281"/>
<path d="M103.25 120.715V121.729H102.176C101.938 121.726 101.702 121.752 101.47 121.806C101.291 121.849 101.123 121.928 100.974 122.038C100.85 122.134 100.75 122.259 100.682 122.401C100.614 122.55 100.58 122.712 100.583 122.875C100.582 123.039 100.624 123.201 100.704 123.344C100.787 123.483 100.907 123.595 101.051 123.669C101.223 123.751 101.412 123.791 101.603 123.785C101.876 123.79 102.147 123.728 102.391 123.603C102.597 123.497 102.777 123.344 102.914 123.156C103.029 123.011 103.098 122.834 103.113 122.649L103.603 123.388C103.533 123.581 103.443 123.765 103.333 123.939C103.204 124.143 103.048 124.328 102.87 124.49C102.428 124.887 101.849 125.098 101.255 125.08C100.835 125.088 100.419 124.996 100.043 124.81C99.7001 124.64 99.4076 124.383 99.1941 124.066C98.9884 123.747 98.881 123.376 98.8854 122.997C98.8772 122.658 98.947 122.323 99.0894 122.015C99.2301 121.726 99.4426 121.478 99.7066 121.293C100.012 121.082 100.354 120.931 100.715 120.847C101.169 120.742 101.633 120.692 102.099 120.698L103.25 120.715ZM103.013 123.471V120.252C103.018 120.039 102.974 119.828 102.887 119.635C102.809 119.464 102.677 119.325 102.512 119.238C102.316 119.133 102.095 119.084 101.873 119.094C101.668 119.09 101.465 119.13 101.277 119.21C101.118 119.278 100.982 119.391 100.886 119.535C100.796 119.679 100.748 119.845 100.748 120.015H99.0397C99.0385 119.728 99.1086 119.446 99.2437 119.194C99.3926 118.922 99.5951 118.684 99.8389 118.494C100.114 118.279 100.426 118.116 100.759 118.014C101.152 117.895 101.561 117.837 101.972 117.843C102.457 117.835 102.939 117.925 103.388 118.108C103.787 118.274 104.128 118.554 104.369 118.913C104.622 119.316 104.747 119.787 104.728 120.263V123.311C104.723 123.61 104.747 123.909 104.799 124.204C104.835 124.427 104.903 124.645 105.003 124.848V124.959H103.25C103.157 124.742 103.094 124.514 103.063 124.281C103.03 124.016 103.015 123.749 103.019 123.482L103.013 123.471Z" fill="#3D5281"/>
<path d="M106.256 116.151C106.254 116.034 106.275 115.917 106.32 115.808C106.364 115.698 106.431 115.6 106.515 115.518C106.716 115.357 106.966 115.27 107.223 115.27C107.481 115.27 107.73 115.357 107.932 115.518C108.016 115.6 108.082 115.698 108.127 115.808C108.171 115.917 108.193 116.034 108.191 116.151C108.193 116.268 108.171 116.384 108.127 116.493C108.082 116.601 108.016 116.698 107.932 116.78C107.733 116.946 107.482 117.037 107.223 117.037C106.964 117.037 106.714 116.946 106.515 116.78C106.431 116.698 106.365 116.601 106.32 116.493C106.275 116.384 106.254 116.268 106.256 116.151ZM108.08 117.981V124.97H106.372V117.981H108.08Z" fill="#3D5281"/>
<path d="M111.519 115.049V124.969H109.805V115.049H111.519Z" fill="#3D5281"/>
<path d="M117.19 115.566L113.635 125.774H112.34L115.889 115.566H117.19Z" fill="#3D5281"/>
<path d="M42.3511 136.521V144.849H40.6426V135.176H42.2244L42.3511 136.521ZM46.8429 138.599V138.737C46.8469 139.213 46.7857 139.688 46.6611 140.147C46.5532 140.542 46.3779 140.915 46.143 141.25C45.9223 141.562 45.6316 141.819 45.2942 141.999C44.9322 142.181 44.531 142.272 44.1258 142.264C43.7438 142.271 43.3657 142.186 43.0235 142.016C42.7018 141.848 42.4242 141.606 42.2133 141.31C41.9825 140.984 41.8058 140.623 41.6898 140.241C41.5516 139.806 41.452 139.36 41.3921 138.907V138.472C41.4504 137.999 41.55 137.533 41.6898 137.078C41.8023 136.684 41.9792 136.311 42.2133 135.975C42.4244 135.664 42.7113 135.413 43.047 135.244C43.3827 135.075 43.7559 134.995 44.1313 135.011C44.5365 135.002 44.9381 135.087 45.3053 135.259C45.6432 135.428 45.936 135.676 46.1595 135.981C46.4096 136.311 46.5964 136.685 46.7107 137.083C46.8228 137.58 46.8673 138.09 46.8429 138.599ZM45.1289 138.737V138.599C45.1308 138.31 45.1031 138.022 45.0462 137.739C44.9979 137.493 44.9105 137.257 44.7872 137.039C44.6797 136.846 44.5239 136.685 44.3352 136.571C44.1303 136.455 43.8978 136.398 43.6629 136.405C43.4303 136.397 43.1988 136.44 42.9849 136.532C42.8026 136.615 42.6436 136.742 42.522 136.901C42.397 137.067 42.3019 137.254 42.2409 137.452C42.1717 137.688 42.1273 137.93 42.1086 138.174V139.277C42.1399 139.571 42.2161 139.859 42.3346 140.131C42.4375 140.377 42.6075 140.589 42.8251 140.743C43.0787 140.902 43.3746 140.981 43.6739 140.969C43.9103 140.975 44.1437 140.914 44.3463 140.792C44.5354 140.674 44.691 140.509 44.7982 140.313C44.922 140.092 45.0077 139.851 45.0517 139.602C45.1045 139.316 45.1303 139.027 45.1289 138.737Z" fill="#3D5281"/>
<path d="M49.7574 132.25V142.171H48.0488V132.25H49.7574ZM49.4873 138.423H48.9858C48.9802 137.967 49.0453 137.514 49.1787 137.078C49.298 136.694 49.4846 136.333 49.7298 136.014C49.9579 135.717 50.2498 135.474 50.5841 135.303C50.9264 135.134 51.3044 135.049 51.6864 135.055C52.0064 135.049 52.3251 135.098 52.6288 135.199C52.9061 135.29 53.1562 135.449 53.3563 135.662C53.5714 135.897 53.7314 136.178 53.8248 136.483C53.9388 136.882 53.9927 137.296 53.9846 137.712V142.171H52.2706V137.701C52.2819 137.438 52.2329 137.176 52.1273 136.935C52.0424 136.759 51.9006 136.617 51.725 136.532C51.5082 136.447 51.2766 136.406 51.0437 136.412C50.8108 136.417 50.5814 136.47 50.3691 136.565C50.1747 136.669 50.0083 136.819 49.8841 137.001C49.7525 137.196 49.6556 137.412 49.5975 137.64C49.5291 137.894 49.4921 138.155 49.4873 138.417V138.423Z" fill="#3D5281"/>
<path d="M55.1644 138.742V138.605C55.1588 138.124 55.2333 137.645 55.3848 137.188C55.5223 136.782 55.7397 136.407 56.0241 136.086C56.3079 135.765 56.6576 135.51 57.0493 135.336C57.4872 135.154 57.9582 135.064 58.4326 135.072C58.9125 135.063 59.3889 135.153 59.8325 135.336C60.2267 135.508 60.5785 135.764 60.8632 136.086C61.1476 136.407 61.365 136.782 61.5025 137.188C61.6514 137.646 61.7259 138.124 61.723 138.605V138.742C61.7254 139.222 61.6509 139.698 61.5025 140.153C61.362 140.558 61.1449 140.933 60.8632 141.256C60.5797 141.578 60.2275 141.832 59.8325 142C59.3947 142.183 58.9237 142.273 58.4492 142.264C57.973 142.272 57.5002 142.182 57.0603 142C56.6629 141.834 56.3086 141.579 56.0241 141.256C55.7424 140.933 55.5253 140.558 55.3848 140.153C55.2337 139.699 55.1592 139.222 55.1644 138.742ZM56.8729 138.605V138.742C56.8705 139.031 56.9001 139.32 56.9611 139.602C57.0148 139.849 57.1079 140.085 57.2367 140.302C57.358 140.5 57.5266 140.665 57.7272 140.782C57.9493 140.899 58.1979 140.958 58.4492 140.953C58.6951 140.958 58.9382 140.899 59.1546 140.782C59.3552 140.665 59.5238 140.5 59.6452 140.302C59.7784 140.087 59.8734 139.85 59.9262 139.602C59.9872 139.32 60.0168 139.031 60.0144 138.742V138.605C60.0168 138.319 59.9872 138.035 59.9262 137.756C59.8722 137.507 59.7772 137.268 59.6452 137.05C59.5224 136.852 59.3543 136.686 59.1546 136.565C58.9338 136.444 58.6846 136.383 58.4326 136.389C58.1841 136.383 57.9386 136.444 57.7217 136.565C57.5237 136.686 57.3574 136.852 57.2367 137.05C57.1063 137.271 57.0114 137.511 56.9556 137.761C56.8968 138.039 56.8691 138.321 56.8729 138.605Z" fill="#3D5281"/>
<path d="M64.6269 136.659V142.17H62.9238V135.176H64.5221L64.6269 136.659ZM64.3568 138.406H63.8497C63.8502 137.937 63.9208 137.471 64.0592 137.023C64.1745 136.637 64.3614 136.276 64.6103 135.959C64.8468 135.67 65.1442 135.437 65.4811 135.275C65.8266 135.116 66.203 135.035 66.5834 135.038C66.8921 135.033 67.1995 135.08 67.4928 135.176C67.7592 135.268 67.9993 135.423 68.1928 135.628C68.4032 135.86 68.5578 136.137 68.6447 136.438C68.7594 136.84 68.8133 137.256 68.8045 137.673V142.17H67.085V137.673C67.0973 137.414 67.0502 137.156 66.9472 136.918C66.8636 136.744 66.721 136.605 66.5448 136.527C66.3422 136.444 66.1244 136.404 65.9055 136.411C65.6666 136.404 65.4299 136.458 65.2166 136.565C65.0226 136.672 64.855 136.821 64.7261 137.001C64.5909 137.195 64.4902 137.411 64.4284 137.64C64.3678 137.894 64.3437 138.156 64.3568 138.417V138.406Z" fill="#3D5281"/>
<path d="M73.4899 142.291C73.0016 142.301 72.5162 142.213 72.0625 142.032C71.6465 141.878 71.2699 141.633 70.9602 141.316C70.6593 140.999 70.4267 140.624 70.2767 140.214C70.1197 139.789 70.0413 139.338 70.0453 138.885V138.626C70.039 138.128 70.1173 137.632 70.2767 137.16C70.4194 136.741 70.6421 136.354 70.9326 136.019C71.2175 135.703 71.5671 135.451 71.9577 135.281C72.7984 134.947 73.735 134.947 74.5757 135.281C74.9441 135.436 75.2708 135.676 75.5291 135.981C75.7855 136.307 75.973 136.682 76.0803 137.083C76.2129 137.536 76.2779 138.006 76.2732 138.478V139.194H70.7948V138.015H74.5922V137.888C74.588 137.632 74.5356 137.38 74.4379 137.144C74.3503 136.921 74.1988 136.729 74.0025 136.593C73.7712 136.45 73.5026 136.379 73.2309 136.389C72.9995 136.383 72.7709 136.44 72.5695 136.554C72.3775 136.668 72.2181 136.829 72.1065 137.022C71.9741 137.242 71.8808 137.482 71.831 137.733C71.7667 138.034 71.7353 138.341 71.7373 138.648V138.907C71.7366 139.184 71.7774 139.459 71.8585 139.723C71.9331 139.962 72.0549 140.183 72.2168 140.373C72.3661 140.555 72.5545 140.7 72.7679 140.798C73.0058 140.902 73.2632 140.955 73.523 140.952C73.8597 140.956 74.193 140.884 74.4985 140.743C74.7942 140.593 75.0523 140.378 75.2536 140.114L76.1134 141.007C75.9673 141.236 75.7891 141.442 75.5843 141.619C75.316 141.828 75.0141 141.991 74.6914 142.099C74.3043 142.229 73.8983 142.294 73.4899 142.291Z" fill="#3D5281"/>
<path d="M81.8782 135.177L83.5316 140.887L83.5867 142.165H82.4845L80.1035 135.177H81.8782ZM83.0687 140.876L84.7221 135.177H86.5023L84.0828 142.171H82.9805L83.0687 140.876Z" fill="#3D5281"/>
<path d="M90.4311 142.292C89.9428 142.301 89.4574 142.213 89.0037 142.033C88.5877 141.878 88.2111 141.634 87.9014 141.316C87.6005 140.999 87.3679 140.624 87.218 140.214C87.0609 139.789 86.9825 139.339 86.9865 138.886V138.627C87.0017 138.142 87.0967 137.664 87.2676 137.21C87.4102 136.791 87.6329 136.403 87.9234 136.069C88.2083 135.752 88.5579 135.501 88.9485 135.331C89.7892 134.997 90.7258 134.997 91.5665 135.331C91.9349 135.486 92.2616 135.726 92.52 136.031C92.7763 136.357 92.9638 136.732 93.0711 137.133C93.2037 137.586 93.2687 138.056 93.264 138.527V139.244H87.7856V138.064H91.583V137.938C91.5788 137.682 91.5264 137.43 91.4287 137.194C91.3411 136.971 91.1896 136.779 90.9933 136.642C90.762 136.499 90.4934 136.428 90.2217 136.438C89.9903 136.433 89.7617 136.49 89.5603 136.604C89.3684 136.718 89.2089 136.879 89.0974 137.072C88.9649 137.291 88.8716 137.532 88.8218 137.783C88.7575 138.084 88.7261 138.391 88.7281 138.698V138.957C88.7274 139.234 88.7682 139.509 88.8493 139.773C88.9239 140.012 89.0457 140.233 89.2076 140.423C89.3569 140.605 89.5453 140.75 89.7587 140.848C89.9966 140.952 90.254 141.005 90.5138 141.002C90.8505 141.006 91.1838 140.934 91.4893 140.792C91.7851 140.643 92.0431 140.428 92.2444 140.164L93.1042 141.057C92.9405 141.294 92.7417 141.504 92.5144 141.68C92.2462 141.889 91.9443 142.051 91.6216 142.159C91.2346 142.268 90.8325 142.312 90.4311 142.292Z" fill="#3D5281"/>
<path d="M96.1146 136.604V142.17H94.4336V135.176H96.0429L96.1146 136.604ZM98.2365 135.132V136.719L97.9168 136.681C97.7956 136.681 97.6853 136.681 97.5806 136.681C97.3467 136.676 97.1136 136.711 96.8917 136.785C96.7046 136.848 96.5347 136.954 96.3957 137.094C96.2622 137.232 96.1606 137.398 96.098 137.579C96.0233 137.788 95.9842 138.008 95.9823 138.229L95.613 138.185C95.6088 137.77 95.6551 137.355 95.7508 136.951C95.8286 136.6 95.9606 136.263 96.1421 135.953C96.3031 135.684 96.5261 135.457 96.7925 135.292C97.0653 135.134 97.3759 135.054 97.6909 135.06C97.7936 135.053 97.8968 135.053 97.9995 135.06C98.0816 135.073 98.1614 135.097 98.2365 135.132Z" fill="#3D5281"/>
<path d="M99.1509 133.352C99.147 133.235 99.1681 133.117 99.2127 133.008C99.2574 132.899 99.3246 132.8 99.4099 132.719C99.6111 132.558 99.8608 132.471 100.118 132.471C100.376 132.471 100.625 132.558 100.826 132.719C100.911 132.801 100.977 132.9 101.022 133.009C101.066 133.118 101.088 133.235 101.085 133.352C101.089 133.469 101.067 133.586 101.022 133.694C100.978 133.802 100.911 133.9 100.826 133.981C100.628 134.147 100.377 134.238 100.118 134.238C99.8592 134.238 99.6084 134.147 99.4099 133.981C99.3244 133.901 99.2571 133.803 99.2124 133.695C99.1677 133.586 99.1467 133.47 99.1509 133.352ZM100.975 135.182V142.171H99.2666V135.177L100.975 135.182Z" fill="#3D5281"/>
<path d="M106.257 135.176V136.405H102.068V135.176H106.257ZM104.841 142.17H103.121V134.531C103.107 134.07 103.212 133.613 103.424 133.203C103.623 132.85 103.925 132.565 104.289 132.387C104.704 132.192 105.159 132.095 105.618 132.106C105.778 132.106 105.938 132.117 106.097 132.139C106.251 132.163 106.404 132.194 106.555 132.233L106.522 133.528C106.433 133.504 106.343 133.489 106.252 133.484C106.145 133.478 106.038 133.478 105.932 133.484C105.727 133.478 105.523 133.519 105.337 133.605C105.179 133.683 105.049 133.808 104.967 133.964C104.882 134.135 104.839 134.324 104.841 134.515V142.17Z" fill="#3D5281"/>
<path d="M108.433 135.177L110.014 140.324L110.29 142.127L109.116 142.342L106.592 135.177H108.433ZM109.353 141.388L111.227 135.177H113.057L110.251 143.223C110.185 143.396 110.103 143.58 110.003 143.775C109.897 143.986 109.762 144.181 109.601 144.353C109.422 144.541 109.209 144.692 108.973 144.8C108.684 144.923 108.372 144.983 108.058 144.976C107.919 144.977 107.781 144.966 107.644 144.943L107.264 144.86V143.582H107.413H107.567C107.777 143.588 107.986 143.558 108.185 143.494C108.342 143.444 108.48 143.348 108.581 143.218C108.696 143.07 108.782 142.902 108.835 142.722L109.353 141.388Z" fill="#3D5281"/>
<path d="M116.86 138.742V138.605C116.854 138.124 116.929 137.645 117.08 137.188C117.216 136.781 117.433 136.406 117.719 136.086C118.003 135.765 118.353 135.51 118.745 135.336C119.183 135.154 119.654 135.064 120.128 135.072C120.608 135.063 121.084 135.153 121.528 135.336C121.921 135.509 122.273 135.765 122.558 136.086C122.841 136.408 123.058 136.783 123.198 137.188C123.345 137.646 123.417 138.124 123.413 138.605V138.742C123.417 139.221 123.344 139.698 123.198 140.153C123.055 140.557 122.838 140.931 122.558 141.256C122.275 141.578 121.923 141.832 121.528 142C121.088 142.183 120.615 142.274 120.139 142.264C119.663 142.271 119.19 142.181 118.75 142C118.355 141.832 118.003 141.578 117.719 141.256C117.436 140.934 117.219 140.559 117.08 140.153C116.929 139.699 116.854 139.222 116.86 138.742ZM118.563 138.605V138.742C118.562 139.032 118.593 139.32 118.656 139.602C118.707 139.85 118.801 140.086 118.932 140.302C119.052 140.501 119.221 140.666 119.422 140.782C119.644 140.894 119.888 140.953 120.136 140.953C120.384 140.953 120.629 140.894 120.85 140.782C121.051 140.665 121.219 140.5 121.34 140.302C121.474 140.087 121.569 139.85 121.622 139.602C121.683 139.32 121.712 139.031 121.71 138.742V138.605C121.712 138.319 121.683 138.035 121.622 137.756C121.568 137.507 121.473 137.268 121.34 137.05C121.218 136.852 121.05 136.686 120.85 136.565C120.629 136.444 120.38 136.383 120.128 136.389C119.879 136.383 119.634 136.444 119.417 136.565C119.219 136.686 119.053 136.852 118.932 137.05C118.811 137.272 118.727 137.512 118.684 137.761C118.612 138.037 118.571 138.32 118.563 138.605Z" fill="#3D5281"/>
<path d="M126.324 136.659V142.17H124.615V135.176H126.219L126.324 136.659ZM126.054 138.406H125.547C125.544 137.937 125.615 137.47 125.756 137.023C125.871 136.637 126.058 136.276 126.307 135.959C126.542 135.669 126.84 135.435 127.178 135.275C127.524 135.116 127.9 135.035 128.28 135.038C128.589 135.033 128.896 135.08 129.19 135.176C129.456 135.268 129.696 135.423 129.89 135.628C130.1 135.86 130.255 136.137 130.342 136.438C130.456 136.84 130.51 137.256 130.501 137.673V142.17H128.782V137.673C128.794 137.414 128.747 137.156 128.644 136.918C128.56 136.744 128.418 136.605 128.242 136.527C128.039 136.444 127.821 136.404 127.602 136.411C127.372 136.401 127.143 136.45 126.937 136.553C126.73 136.657 126.554 136.81 126.423 137.001C126.288 137.196 126.186 137.412 126.12 137.64C126.064 137.895 126.041 138.156 126.054 138.417V138.406Z" fill="#3D5281"/>
<path d="M133.845 132.25V142.171H132.131V132.25H133.845Z" fill="#3D5281"/>
<path d="M136.597 135.177L138.178 140.324L138.46 142.127L137.28 142.342L134.756 135.177H136.597ZM137.523 141.388L139.396 135.177H141.221L138.421 143.223C138.355 143.396 138.272 143.58 138.173 143.775C138.065 143.986 137.928 144.181 137.765 144.353C137.588 144.543 137.375 144.695 137.137 144.8C136.848 144.923 136.536 144.983 136.222 144.976C136.083 144.977 135.945 144.966 135.809 144.943L135.428 144.86V143.582H135.583H135.731C135.942 143.588 136.153 143.558 136.354 143.494C136.51 143.441 136.647 143.345 136.751 143.218C136.864 143.069 136.95 142.901 137.005 142.722L137.523 141.388Z" fill="#3D5281"/>
<path d="M42.3511 136.521V144.849H40.6426V135.176H42.2244L42.3511 136.521ZM46.8429 138.599V138.737C46.8469 139.213 46.7857 139.688 46.6611 140.147C46.5532 140.542 46.3779 140.915 46.143 141.25C45.9223 141.562 45.6316 141.819 45.2942 141.999C44.9322 142.181 44.531 142.272 44.1258 142.264C43.7438 142.271 43.3657 142.186 43.0235 142.016C42.7018 141.848 42.4242 141.606 42.2133 141.31C41.9825 140.984 41.8058 140.623 41.6898 140.241C41.5516 139.806 41.452 139.36 41.3921 138.907V138.472C41.4504 137.999 41.55 137.533 41.6898 137.078C41.8023 136.684 41.9792 136.311 42.2133 135.975C42.4244 135.664 42.7113 135.413 43.047 135.244C43.3827 135.075 43.7559 134.995 44.1313 135.011C44.5365 135.002 44.9381 135.087 45.3053 135.259C45.6432 135.428 45.936 135.676 46.1595 135.981C46.4096 136.311 46.5964 136.685 46.7107 137.083C46.8228 137.58 46.8673 138.09 46.8429 138.599ZM45.1289 138.737V138.599C45.1308 138.31 45.1031 138.022 45.0462 137.739C44.9979 137.493 44.9105 137.257 44.7872 137.039C44.6797 136.846 44.5239 136.685 44.3352 136.571C44.1303 136.455 43.8978 136.398 43.6629 136.405C43.4303 136.397 43.1988 136.44 42.9849 136.532C42.8026 136.615 42.6436 136.742 42.522 136.901C42.397 137.067 42.3019 137.254 42.2409 137.452C42.1717 137.688 42.1273 137.93 42.1086 138.174V139.277C42.1399 139.571 42.2161 139.859 42.3346 140.131C42.4375 140.377 42.6075 140.589 42.8251 140.743C43.0787 140.902 43.3746 140.981 43.6739 140.969C43.9103 140.975 44.1437 140.914 44.3463 140.792C44.5354 140.674 44.691 140.509 44.7982 140.313C44.922 140.092 45.0077 139.851 45.0517 139.602C45.1045 139.316 45.1303 139.027 45.1289 138.737Z" fill="#3D5281"/>
<path d="M49.7574 132.25V142.171H48.0488V132.25H49.7574ZM49.4873 138.423H48.9858C48.9802 137.967 49.0453 137.514 49.1787 137.078C49.298 136.694 49.4846 136.333 49.7298 136.014C49.9579 135.717 50.2498 135.474 50.5841 135.303C50.9264 135.134 51.3044 135.049 51.6864 135.055C52.0064 135.049 52.3251 135.098 52.6288 135.199C52.9061 135.29 53.1562 135.449 53.3563 135.662C53.5714 135.897 53.7314 136.178 53.8248 136.483C53.9388 136.882 53.9927 137.296 53.9846 137.712V142.171H52.2706V137.701C52.2819 137.438 52.2329 137.176 52.1273 136.935C52.0424 136.759 51.9006 136.617 51.725 136.532C51.5082 136.447 51.2766 136.406 51.0437 136.412C50.8108 136.417 50.5814 136.47 50.3691 136.565C50.1747 136.669 50.0083 136.819 49.8841 137.001C49.7525 137.196 49.6556 137.412 49.5975 137.64C49.5291 137.894 49.4921 138.155 49.4873 138.417V138.423Z" fill="#3D5281"/>
<path d="M55.1644 138.742V138.605C55.1588 138.124 55.2333 137.645 55.3848 137.188C55.5223 136.782 55.7397 136.407 56.0241 136.086C56.3079 135.765 56.6576 135.51 57.0493 135.336C57.4872 135.154 57.9582 135.064 58.4326 135.072C58.9125 135.063 59.3889 135.153 59.8325 135.336C60.2267 135.508 60.5785 135.764 60.8632 136.086C61.1476 136.407 61.365 136.782 61.5025 137.188C61.6514 137.646 61.7259 138.124 61.723 138.605V138.742C61.7254 139.222 61.6509 139.698 61.5025 140.153C61.362 140.558 61.1449 140.933 60.8632 141.256C60.5797 141.578 60.2275 141.832 59.8325 142C59.3947 142.183 58.9237 142.273 58.4492 142.264C57.973 142.272 57.5002 142.182 57.0603 142C56.6629 141.834 56.3086 141.579 56.0241 141.256C55.7424 140.933 55.5253 140.558 55.3848 140.153C55.2337 139.699 55.1592 139.222 55.1644 138.742ZM56.8729 138.605V138.742C56.8705 139.031 56.9001 139.32 56.9611 139.602C57.0148 139.849 57.1079 140.085 57.2367 140.302C57.358 140.5 57.5266 140.665 57.7272 140.782C57.9493 140.899 58.1979 140.958 58.4492 140.953C58.6951 140.958 58.9382 140.899 59.1546 140.782C59.3552 140.665 59.5238 140.5 59.6452 140.302C59.7784 140.087 59.8734 139.85 59.9262 139.602C59.9872 139.32 60.0168 139.031 60.0144 138.742V138.605C60.0168 138.319 59.9872 138.035 59.9262 137.756C59.8722 137.507 59.7772 137.268 59.6452 137.05C59.5224 136.852 59.3543 136.686 59.1546 136.565C58.9338 136.444 58.6846 136.383 58.4326 136.389C58.1841 136.383 57.9386 136.444 57.7217 136.565C57.5237 136.686 57.3574 136.852 57.2367 137.05C57.1063 137.271 57.0114 137.511 56.9556 137.761C56.8968 138.039 56.8691 138.321 56.8729 138.605Z" fill="#3D5281"/>
<path d="M64.6269 136.659V142.17H62.9238V135.176H64.5221L64.6269 136.659ZM64.3568 138.406H63.8497C63.8502 137.937 63.9208 137.471 64.0592 137.023C64.1745 136.637 64.3614 136.276 64.6103 135.959C64.8468 135.67 65.1442 135.437 65.4811 135.275C65.8266 135.116 66.203 135.035 66.5834 135.038C66.8921 135.033 67.1995 135.08 67.4928 135.176C67.7592 135.268 67.9993 135.423 68.1928 135.628C68.4032 135.86 68.5578 136.137 68.6447 136.438C68.7594 136.84 68.8133 137.256 68.8045 137.673V142.17H67.085V137.673C67.0973 137.414 67.0502 137.156 66.9472 136.918C66.8636 136.744 66.721 136.605 66.5448 136.527C66.3422 136.444 66.1244 136.404 65.9055 136.411C65.6666 136.404 65.4299 136.458 65.2166 136.565C65.0226 136.672 64.855 136.821 64.7261 137.001C64.5909 137.195 64.4902 137.411 64.4284 137.64C64.3678 137.894 64.3437 138.156 64.3568 138.417V138.406Z" fill="#3D5281"/>
<path d="M73.4899 142.291C73.0016 142.301 72.5162 142.213 72.0625 142.032C71.6465 141.878 71.2699 141.633 70.9602 141.316C70.6593 140.999 70.4267 140.624 70.2767 140.214C70.1197 139.789 70.0413 139.338 70.0453 138.885V138.626C70.039 138.128 70.1173 137.632 70.2767 137.16C70.4194 136.741 70.6421 136.354 70.9326 136.019C71.2175 135.703 71.5671 135.451 71.9577 135.281C72.7984 134.947 73.735 134.947 74.5757 135.281C74.9441 135.436 75.2708 135.676 75.5291 135.981C75.7855 136.307 75.973 136.682 76.0803 137.083C76.2129 137.536 76.2779 138.006 76.2732 138.478V139.194H70.7948V138.015H74.5922V137.888C74.588 137.632 74.5356 137.38 74.4379 137.144C74.3503 136.921 74.1988 136.729 74.0025 136.593C73.7712 136.45 73.5026 136.379 73.2309 136.389C72.9995 136.383 72.7709 136.44 72.5695 136.554C72.3775 136.668 72.2181 136.829 72.1065 137.022C71.9741 137.242 71.8808 137.482 71.831 137.733C71.7667 138.034 71.7353 138.341 71.7373 138.648V138.907C71.7366 139.184 71.7774 139.459 71.8585 139.723C71.9331 139.962 72.0549 140.183 72.2168 140.373C72.3661 140.555 72.5545 140.7 72.7679 140.798C73.0058 140.902 73.2632 140.955 73.523 140.952C73.8597 140.956 74.193 140.884 74.4985 140.743C74.7942 140.593 75.0523 140.378 75.2536 140.114L76.1134 141.007C75.9673 141.236 75.7891 141.442 75.5843 141.619C75.316 141.828 75.0141 141.991 74.6914 142.099C74.3043 142.229 73.8983 142.294 73.4899 142.291Z" fill="#3D5281"/>
<path d="M81.8782 135.177L83.5316 140.887L83.5867 142.165H82.4845L80.1035 135.177H81.8782ZM83.0687 140.876L84.7221 135.177H86.5023L84.0828 142.171H82.9805L83.0687 140.876Z" fill="#3D5281"/>
<path d="M90.4311 142.292C89.9428 142.301 89.4574 142.213 89.0037 142.033C88.5877 141.878 88.2111 141.634 87.9014 141.316C87.6005 140.999 87.3679 140.624 87.218 140.214C87.0609 139.789 86.9825 139.339 86.9865 138.886V138.627C87.0017 138.142 87.0967 137.664 87.2676 137.21C87.4102 136.791 87.6329 136.403 87.9234 136.069C88.2083 135.752 88.5579 135.501 88.9485 135.331C89.7892 134.997 90.7258 134.997 91.5665 135.331C91.9349 135.486 92.2616 135.726 92.52 136.031C92.7763 136.357 92.9638 136.732 93.0711 137.133C93.2037 137.586 93.2687 138.056 93.264 138.527V139.244H87.7856V138.064H91.583V137.938C91.5788 137.682 91.5264 137.43 91.4287 137.194C91.3411 136.971 91.1896 136.779 90.9933 136.642C90.762 136.499 90.4934 136.428 90.2217 136.438C89.9903 136.433 89.7617 136.49 89.5603 136.604C89.3684 136.718 89.2089 136.879 89.0974 137.072C88.9649 137.291 88.8716 137.532 88.8218 137.783C88.7575 138.084 88.7261 138.391 88.7281 138.698V138.957C88.7274 139.234 88.7682 139.509 88.8493 139.773C88.9239 140.012 89.0457 140.233 89.2076 140.423C89.3569 140.605 89.5453 140.75 89.7587 140.848C89.9966 140.952 90.254 141.005 90.5138 141.002C90.8505 141.006 91.1838 140.934 91.4893 140.792C91.7851 140.643 92.0431 140.428 92.2444 140.164L93.1042 141.057C92.9405 141.294 92.7417 141.504 92.5144 141.68C92.2462 141.889 91.9443 142.051 91.6216 142.159C91.2346 142.268 90.8325 142.312 90.4311 142.292Z" fill="#3D5281"/>
<path d="M96.1146 136.604V142.17H94.4336V135.176H96.0429L96.1146 136.604ZM98.2365 135.132V136.719L97.9168 136.681C97.7956 136.681 97.6853 136.681 97.5806 136.681C97.3467 136.676 97.1136 136.711 96.8917 136.785C96.7046 136.848 96.5347 136.954 96.3957 137.094C96.2622 137.232 96.1606 137.398 96.098 137.579C96.0233 137.788 95.9842 138.008 95.9823 138.229L95.613 138.185C95.6088 137.77 95.6551 137.355 95.7508 136.951C95.8286 136.6 95.9606 136.263 96.1421 135.953C96.3031 135.684 96.5261 135.457 96.7925 135.292C97.0653 135.134 97.3759 135.054 97.6909 135.06C97.7936 135.053 97.8968 135.053 97.9995 135.06C98.0816 135.073 98.1614 135.097 98.2365 135.132Z" fill="#3D5281"/>
<path d="M99.1509 133.352C99.147 133.235 99.1681 133.117 99.2127 133.008C99.2574 132.899 99.3246 132.8 99.4099 132.719C99.6111 132.558 99.8608 132.471 100.118 132.471C100.376 132.471 100.625 132.558 100.826 132.719C100.911 132.801 100.977 132.9 101.022 133.009C101.066 133.118 101.088 133.235 101.085 133.352C101.089 133.469 101.067 133.586 101.022 133.694C100.978 133.802 100.911 133.9 100.826 133.981C100.628 134.147 100.377 134.238 100.118 134.238C99.8592 134.238 99.6084 134.147 99.4099 133.981C99.3244 133.901 99.2571 133.803 99.2124 133.695C99.1677 133.586 99.1467 133.47 99.1509 133.352ZM100.975 135.182V142.171H99.2666V135.177L100.975 135.182Z" fill="#3D5281"/>
<path d="M106.257 135.176V136.405H102.068V135.176H106.257ZM104.841 142.17H103.121V134.531C103.107 134.07 103.212 133.613 103.424 133.203C103.623 132.85 103.925 132.565 104.289 132.387C104.704 132.192 105.159 132.095 105.618 132.106C105.778 132.106 105.938 132.117 106.097 132.139C106.251 132.163 106.404 132.194 106.555 132.233L106.522 133.528C106.433 133.504 106.343 133.489 106.252 133.484C106.145 133.478 106.038 133.478 105.932 133.484C105.727 133.478 105.523 133.519 105.337 133.605C105.179 133.683 105.049 133.808 104.967 133.964C104.882 134.135 104.839 134.324 104.841 134.515V142.17Z" fill="#3D5281"/>
<path d="M108.433 135.177L110.014 140.324L110.29 142.127L109.116 142.342L106.592 135.177H108.433ZM109.353 141.388L111.227 135.177H113.057L110.251 143.223C110.185 143.396 110.103 143.58 110.003 143.775C109.897 143.986 109.762 144.181 109.601 144.353C109.422 144.541 109.209 144.692 108.973 144.8C108.684 144.923 108.372 144.983 108.058 144.976C107.919 144.977 107.781 144.966 107.644 144.943L107.264 144.86V143.582H107.413H107.567C107.777 143.588 107.986 143.558 108.185 143.494C108.342 143.444 108.48 143.348 108.581 143.218C108.696 143.07 108.782 142.902 108.835 142.722L109.353 141.388Z" fill="#3D5281"/>
<path d="M116.86 138.742V138.605C116.854 138.124 116.929 137.645 117.08 137.188C117.216 136.781 117.433 136.406 117.719 136.086C118.003 135.765 118.353 135.51 118.745 135.336C119.183 135.154 119.654 135.064 120.128 135.072C120.608 135.063 121.084 135.153 121.528 135.336C121.921 135.509 122.273 135.765 122.558 136.086C122.841 136.408 123.058 136.783 123.198 137.188C123.345 137.646 123.417 138.124 123.413 138.605V138.742C123.417 139.221 123.344 139.698 123.198 140.153C123.055 140.557 122.838 140.931 122.558 141.256C122.275 141.578 121.923 141.832 121.528 142C121.088 142.183 120.615 142.274 120.139 142.264C119.663 142.271 119.19 142.181 118.75 142C118.355 141.832 118.003 141.578 117.719 141.256C117.436 140.934 117.219 140.559 117.08 140.153C116.929 139.699 116.854 139.222 116.86 138.742ZM118.563 138.605V138.742C118.562 139.032 118.593 139.32 118.656 139.602C118.707 139.85 118.801 140.086 118.932 140.302C119.052 140.501 119.221 140.666 119.422 140.782C119.644 140.894 119.888 140.953 120.136 140.953C120.384 140.953 120.629 140.894 120.85 140.782C121.051 140.665 121.219 140.5 121.34 140.302C121.474 140.087 121.569 139.85 121.622 139.602C121.683 139.32 121.712 139.031 121.71 138.742V138.605C121.712 138.319 121.683 138.035 121.622 137.756C121.568 137.507 121.473 137.268 121.34 137.05C121.218 136.852 121.05 136.686 120.85 136.565C120.629 136.444 120.38 136.383 120.128 136.389C119.879 136.383 119.634 136.444 119.417 136.565C119.219 136.686 119.053 136.852 118.932 137.05C118.811 137.272 118.727 137.512 118.684 137.761C118.612 138.037 118.571 138.32 118.563 138.605Z" fill="#3D5281"/>
<path d="M126.324 136.659V142.17H124.615V135.176H126.219L126.324 136.659ZM126.054 138.406H125.547C125.544 137.937 125.615 137.47 125.756 137.023C125.871 136.637 126.058 136.276 126.307 135.959C126.542 135.669 126.84 135.435 127.178 135.275C127.524 135.116 127.9 135.035 128.28 135.038C128.589 135.033 128.896 135.08 129.19 135.176C129.456 135.268 129.696 135.423 129.89 135.628C130.1 135.86 130.255 136.137 130.342 136.438C130.456 136.84 130.51 137.256 130.501 137.673V142.17H128.782V137.673C128.794 137.414 128.747 137.156 128.644 136.918C128.56 136.744 128.418 136.605 128.242 136.527C128.039 136.444 127.821 136.404 127.602 136.411C127.372 136.401 127.143 136.45 126.937 136.553C126.73 136.657 126.554 136.81 126.423 137.001C126.288 137.196 126.186 137.412 126.12 137.64C126.064 137.895 126.041 138.156 126.054 138.417V138.406Z" fill="#3D5281"/>
<path d="M133.845 132.25V142.171H132.131V132.25H133.845Z" fill="#3D5281"/>
<path d="M136.597 135.177L138.178 140.324L138.46 142.127L137.28 142.342L134.756 135.177H136.597ZM137.523 141.388L139.396 135.177H141.221L138.421 143.223C138.355 143.396 138.272 143.58 138.173 143.775C138.065 143.986 137.928 144.181 137.765 144.353C137.588 144.543 137.375 144.695 137.137 144.8C136.848 144.923 136.536 144.983 136.222 144.976C136.083 144.977 135.945 144.966 135.809 144.943L135.428 144.86V143.582H135.583H135.731C135.942 143.588 136.153 143.558 136.354 143.494C136.51 143.441 136.647 143.345 136.751 143.218C136.864 143.069 136.95 142.901 137.005 142.722L137.523 141.388Z" fill="#3D5281"/>
<g clip-path="url(#clip0_386_13906)">
<path d="M114.409 38.4688V38.4664L110.31 36.8134C110.501 29.587 110.62 22.556 110.528 19.1138C96.3106 11.9747 80.7777 15.1836 72.7414 18.2335C71.955 18.5306 71.2413 18.8274 70.6057 19.1138C70.547 21.2795 70.6402 28.7971 70.8221 36.8355L66.7846 38.4678L66.7863 38.4709L66.7843 38.4688C66.5448 44.2617 66.5265 49.1532 66.6386 53.2998C66.8547 61.3481 67.55 66.5962 68.0241 70.2299C82.9904 72.5713 98.2223 72.7224 113.165 70.2299C113.267 69.4562 113.47 67.9613 113.694 65.7811C114.237 60.4937 114.883 51.1927 114.409 38.4688Z" fill="#FFEEC9"/>
<path d="M114.408 38.4688V38.4664L110.309 36.8135C110.283 37.789 110.255 38.7684 110.227 39.7425C110.209 40.3816 110.19 41.0177 110.171 41.6509C109.255 42.3024 108.363 42.9137 107.496 43.485C107.379 43.5627 107.261 43.6398 107.144 43.7162C97.0432 50.3169 90.5729 51.6186 90.5729 51.6186C83.4493 49.272 77.9049 46.3609 73.9678 43.8735C73.8494 43.7985 73.7324 43.7241 73.6169 43.6503C72.6162 43.0094 71.7255 42.3993 70.9442 41.8375C70.9001 40.176 70.8593 38.494 70.8221 36.8338L66.7846 38.4661L66.7863 38.4692L66.7843 38.4671C66.5448 44.26 66.5265 49.1516 66.6386 53.2981C66.8547 61.3465 67.55 66.5945 68.0241 70.2282C82.9904 72.5696 98.2223 72.7207 113.165 70.2282C113.267 69.4545 113.47 67.9596 113.694 65.7794C114.236 60.4938 114.882 51.1927 114.408 38.4688Z" fill="#FED273"/>
<path d="M107.577 40.8398C107.757 34.7526 107.903 28.2188 107.903 23.9936C107.903 22.9618 107.895 22.0677 107.876 21.3502L107.873 21.2467L107.782 21.2001C102.31 18.4136 96.6147 17.4287 91.3722 17.4287C83.7055 17.4287 77.0071 19.5313 73.3565 21.197L73.2585 21.2415L73.2557 21.3492C73.2457 21.7267 73.2409 22.2864 73.2409 22.997C73.2409 23.9187 73.2492 25.0951 73.264 26.4533C72.8 24.8768 72.5447 23.2461 72.5048 21.6032C72.4797 20.4749 72.5582 19.3467 72.7391 18.2328C71.9527 18.5299 71.2391 18.8266 70.6034 19.1131C70.5448 21.2788 70.6379 28.7964 70.8198 36.8348C70.8571 38.4943 70.8978 40.1762 70.9419 41.8385C71.7232 42.4003 72.6146 43.0118 73.6146 43.6512C73.7296 43.7251 73.8466 43.7995 73.9656 43.8745C77.9026 46.3618 83.4471 49.274 90.5706 51.6195C90.5706 51.6195 97.0409 50.3168 107.142 43.7171C107.259 43.6408 107.376 43.5637 107.494 43.4859C108.36 42.914 109.252 42.3026 110.169 41.6518C110.188 41.0194 110.207 40.3833 110.225 39.7435C109.368 40.1504 108.482 40.5161 107.577 40.8398ZM107.229 40.962C103.721 42.1677 99.9244 42.7443 96.1692 42.6394C94.4879 43.655 92.5604 44.1904 90.5961 44.1875C85.9537 44.1875 81.996 41.2577 80.4714 37.1454C77.3888 34.6131 74.9532 31.289 73.6215 27.5566C73.5981 25.7276 73.5853 24.1599 73.5853 22.998C73.5853 22.3544 73.5894 21.8351 73.5974 21.4669C77.2269 19.8267 83.838 17.7745 91.3722 17.7745C96.543 17.7745 102.148 18.7407 107.534 21.462C107.551 22.1574 107.559 23.0128 107.559 23.9939C107.559 28.2426 107.411 34.8388 107.229 40.962Z" fill="#FFE7B4"/>
<path d="M101.018 35.8582C101.21 35.05 101.306 34.2223 101.305 33.3919C101.305 27.4782 96.51 22.6836 90.5963 22.6836C86.612 22.6836 83.1349 24.8604 81.2918 28.0904C81.2819 28.0848 81.271 28.0814 81.2597 28.0801C81.2484 28.0789 81.237 28.0799 81.2261 28.0831C81.2152 28.0863 81.2051 28.0917 81.1963 28.0988C81.1875 28.106 81.1802 28.1149 81.1748 28.1249C80.4135 29.4885 79.9565 31.0008 79.8353 32.5578C79.7142 34.1149 79.9317 35.6797 80.4729 37.1446C81.9975 41.257 85.9553 44.1864 90.5977 44.1867C93.0139 44.1876 95.3606 43.3776 97.2618 41.8863C99.1629 40.3951 100.509 38.309 101.083 35.962C101.086 35.951 101.086 35.9395 101.085 35.9282C101.083 35.917 101.079 35.9062 101.073 35.8965C101.067 35.8869 101.059 35.8785 101.049 35.8719C101.04 35.8653 101.03 35.8606 101.018 35.8582Z" fill="#68C5DD"/>
<path d="M101.018 35.8581C100.996 35.8528 100.973 35.8564 100.954 35.8683C100.934 35.8801 100.92 35.8991 100.915 35.9212C100.903 35.9681 100.891 36.0147 100.88 36.0617C98.7508 38.1749 95.7161 39.3641 92.7063 39.2709C91.8958 39.245 91.0905 39.1311 90.3045 38.9314C92.2794 34.7403 94.5356 30.5545 97.2555 26.9301C97.2681 26.9123 97.2735 26.8905 97.2707 26.8689C97.2678 26.8473 97.2569 26.8276 97.2402 26.8138C97.2234 26.7999 97.202 26.7929 97.1803 26.7941C97.1586 26.7953 97.1381 26.8047 97.123 26.8203L97.1179 26.8269C93.6622 31.4317 90.9581 36.9289 88.6288 42.1917C88.4563 41.975 88.1457 41.602 87.7502 41.133C86.3099 39.4321 83.7424 36.4827 82.7006 35.3518C82.6938 35.3445 82.6858 35.3384 82.6768 35.3339C82.8895 34.9327 83.1485 34.5578 83.4484 34.2168C82.232 32.4811 81.4897 30.4251 81.2644 28.3159C81.2844 28.2797 81.3041 28.2438 81.3244 28.2079C81.3355 28.188 81.3383 28.1646 81.3321 28.1427C81.326 28.1208 81.3114 28.1022 81.2917 28.0909C81.2817 28.0854 81.2708 28.082 81.2595 28.0807C81.2482 28.0795 81.2368 28.0805 81.2259 28.0837C81.2151 28.0869 81.2049 28.0923 81.1961 28.0994C81.1873 28.1066 81.18 28.1154 81.1747 28.1254C80.4134 29.4889 79.9565 31.0012 79.8353 32.5581C79.7142 34.115 79.9316 35.6797 80.4728 37.1445C81.9974 41.2569 85.9551 44.1863 90.5975 44.1866C93.0138 44.1875 95.3604 43.3775 97.2616 41.8862C99.1628 40.395 100.508 38.3088 101.083 35.9619C101.086 35.9508 101.086 35.9393 101.084 35.9281C101.083 35.9168 101.079 35.9061 101.073 35.8964C101.066 35.8867 101.059 35.8784 101.049 35.8718C101.04 35.8652 101.029 35.8605 101.018 35.8581Z" fill="#4ABFDD"/>
<path d="M110.172 41.6509C111.532 40.6846 112.944 39.6244 114.407 38.4702V38.4678L110.309 36.8135C110.283 37.789 110.256 38.7684 110.228 39.7425C110.21 40.3816 110.191 41.0177 110.172 41.6509Z" fill="#FBBE4C"/>
<path d="M70.8226 36.835L66.7852 38.4672L66.7869 38.4703C66.8435 38.5259 68.2362 39.8917 70.9444 41.838C70.9006 40.1764 70.8599 38.4945 70.8226 36.835Z" fill="#FBBE4C"/>
<path d="M107.905 23.9936C107.905 22.9618 107.896 22.0677 107.877 21.3502L107.874 21.2467L107.783 21.2001C102.312 18.4136 96.616 17.4287 91.3735 17.4287C83.7068 17.4287 77.0084 19.5313 73.3578 21.197L73.2598 21.2415L73.257 21.3492C73.247 21.7267 73.2422 22.2864 73.2422 22.997C73.2422 23.9187 73.2505 25.0951 73.2653 26.4533C73.3057 30.1195 73.3975 35.1128 73.52 40.0151C73.5507 41.2401 73.5835 42.4593 73.6176 43.6505C73.7327 43.7244 73.8496 43.7988 73.9686 43.8738C73.932 42.6091 73.8968 41.3109 73.8651 40.0065C73.7543 35.5832 73.6691 31.0843 73.6235 27.5555C73.6 25.7266 73.5873 24.1589 73.5873 22.997C73.5873 22.3534 73.5914 21.834 73.5993 21.4658C77.2289 19.8257 83.84 17.7734 91.3742 17.7734C96.5449 17.7734 102.15 18.7397 107.536 21.461C107.553 22.1563 107.561 23.0118 107.561 23.9929C107.561 28.2419 107.413 34.8381 107.231 40.9613C107.216 41.4663 107.201 41.9674 107.185 42.4648C107.172 42.8854 107.159 43.3023 107.146 43.7157C107.263 43.6394 107.38 43.5623 107.498 43.4845C107.525 42.6184 107.552 41.7336 107.579 40.8391C107.758 34.7526 107.905 28.2177 107.905 23.9936Z" fill="#FFFBF1"/>
<path d="M68.3303 42.6673C68.3572 42.7018 72.6176 48.17 90.5408 54.4284C90.5727 54.4396 90.6071 54.4411 90.6399 54.4329C90.6544 54.4284 101.662 51.6305 112.467 42.6942C112.498 42.664 112.517 42.6231 112.519 42.5797C112.522 42.5362 112.508 42.4935 112.48 42.46C112.452 42.4264 112.413 42.4047 112.37 42.399C112.326 42.3932 112.283 42.404 112.247 42.4292C106.876 46.8721 101.45 49.7909 97.3676 51.5981C95.3264 52.5018 93.6217 53.1275 92.4277 53.5271C91.8307 53.7269 91.3618 53.8701 91.0426 53.9632C90.8828 54.0098 90.7603 54.044 90.6782 54.0668L90.6047 54.0864C81.6936 50.971 76.1874 48.0575 72.9123 45.9256C71.2717 44.8579 70.1909 43.9862 69.5218 43.3837C69.1874 43.0828 68.9559 42.8488 68.8085 42.6911C68.735 42.6124 68.6826 42.5531 68.6491 42.5131C68.6322 42.4934 68.6201 42.4785 68.6125 42.4692L68.6039 42.4589L68.6022 42.4565C68.5731 42.4238 68.5327 42.4034 68.4891 42.3994C68.4455 42.3954 68.402 42.4081 68.3675 42.4349C68.3329 42.4618 68.3099 42.5007 68.3029 42.5439C68.296 42.5872 68.3058 42.6314 68.3303 42.6676V42.6673Z" fill="#F59D46"/>
<path d="M83.5788 65.6741C79.0289 64.0371 74.6505 61.7623 71.0637 58.5195C69.3707 56.9877 67.8603 55.2323 66.6387 53.2998C66.8547 61.3482 67.55 66.5962 68.0242 70.2299C82.9904 72.5713 98.2224 72.7225 113.165 70.2299C113.267 69.4562 113.47 67.9613 113.694 65.7811C109.961 67.3516 105.935 68.2478 101.89 68.4976C95.6829 68.8806 89.429 67.7788 83.5788 65.6741Z" fill="#FDCC5F"/>
<path d="M82.7011 35.3527C83.7429 36.4835 86.3103 39.4329 87.7507 41.1342C88.1475 41.6032 88.4578 41.9762 88.6293 42.1929C90.9572 36.9301 93.6613 31.4329 97.1183 26.8281L97.1235 26.8215C96.2214 26.0047 94.7334 24.9336 93.4697 24.9336C91.2008 28.626 89.5703 32.6614 87.9915 36.6985C87.0326 35.4562 86.1885 34.1076 85.3492 32.7808C84.6394 33.1041 83.982 33.611 83.4513 34.2177C83.1514 34.5586 82.8924 34.9335 82.6797 35.3347C82.6878 35.3395 82.695 35.3456 82.7011 35.3527Z" fill="#B3E0F9"/>
<path d="M88.6302 42.1934C88.4577 41.9767 88.1471 41.6037 87.7516 41.1347C86.3113 39.4328 83.7438 36.4834 82.702 35.3525C82.6865 35.3359 82.665 35.3261 82.6423 35.3252C82.6196 35.3243 82.5974 35.3324 82.5806 35.3477C82.5723 35.3553 82.5655 35.3645 82.5608 35.3748C82.556 35.385 82.5533 35.3961 82.5528 35.4073C82.5523 35.4186 82.5541 35.4299 82.558 35.4405C82.5618 35.4511 82.5678 35.4608 82.5754 35.4692C83.2673 36.2201 84.6397 37.7812 85.9037 39.243C86.5356 39.9735 87.1408 40.6789 87.6202 41.2445C88.0995 41.8101 88.4542 42.2393 88.5816 42.4102C88.5905 42.4222 88.6025 42.4318 88.6163 42.4378C88.6301 42.4438 88.6452 42.4461 88.6602 42.4444C88.6751 42.4427 88.6894 42.4371 88.7015 42.4282C88.7136 42.4193 88.7232 42.4074 88.7293 42.3936C89.2355 41.2469 89.7593 40.0891 90.3046 38.9314C92.2795 34.7403 94.5356 30.5545 97.2556 26.9301C97.2681 26.9123 97.2735 26.8905 97.2707 26.8689C97.2678 26.8473 97.2569 26.8276 97.2402 26.8138C97.2234 26.7999 97.2021 26.7929 97.1803 26.7941C97.1586 26.7953 97.1382 26.8047 97.1231 26.8203L97.1179 26.8269C93.6622 31.4327 90.9582 36.9299 88.6302 42.1934Z" fill="#0F89AC"/>
<path d="M101.082 35.9625C101.087 35.9404 101.084 35.917 101.072 35.8976C101.06 35.8782 101.041 35.8643 101.018 35.859C100.996 35.8537 100.973 35.8573 100.954 35.8692C100.934 35.881 100.92 35.9001 100.915 35.9221C100.904 35.9691 100.891 36.0156 100.88 36.0626C99.6972 40.638 95.5424 44.0154 90.597 44.0154C88.755 44.0154 86.9447 43.5365 85.3437 42.6258C83.7428 41.715 82.4061 40.4036 81.4649 38.8203C80.5237 37.237 80.0104 35.4361 79.9752 33.5945C79.9401 31.7529 80.3844 29.9339 81.2646 28.3158C81.2846 28.2796 81.3042 28.2437 81.3246 28.2078C81.3357 28.1879 81.3384 28.1645 81.3323 28.1426C81.3261 28.1206 81.3116 28.1021 81.2918 28.0908C81.2819 28.0853 81.271 28.0818 81.2597 28.0806C81.2484 28.0793 81.237 28.0804 81.2261 28.0836C81.2152 28.0868 81.2051 28.0921 81.1963 28.0993C81.1875 28.1065 81.1802 28.1153 81.1748 28.1253C80.4135 29.4889 79.9565 31.0012 79.8353 32.5583C79.7142 34.1153 79.9317 35.6801 80.4729 37.1451C81.9975 41.2575 85.9553 44.1869 90.5977 44.1872C93.0139 44.1881 95.3606 43.378 97.2618 41.8868C99.1629 40.3956 100.509 38.3094 101.083 35.9625H101.082Z" fill="#0F89AC"/>
</g>
<defs>
<linearGradient id="paint0_linear_386_13906" x1="90.5749" y1="219.999" x2="90.5749" y2="131.629" gradientUnits="userSpaceOnUse">
<stop stop-color="#9AA7C8"/>
<stop offset="0.32" stop-color="#7383AD"/>
<stop offset="0.5" stop-color="#5B6D9C"/>
</linearGradient>
<linearGradient id="paint1_linear_386_13906" x1="0" y1="141.464" x2="33.967" y2="141.464" gradientUnits="userSpaceOnUse">
<stop stop-color="#FFB200"/>
<stop offset="0.2" stop-color="#FFB800"/>
<stop offset="0.35" stop-color="#F3AB00"/>
<stop offset="0.61" stop-color="#D38A00"/>
<stop offset="0.79" stop-color="#BA7000"/>
</linearGradient>
<linearGradient id="paint2_linear_386_13906" x1="0" y1="117.181" x2="33.967" y2="117.181" gradientUnits="userSpaceOnUse">
<stop stop-color="#FFB000"/>
<stop offset="0.04" stop-color="#FFC227"/>
<stop offset="0.09" stop-color="#FFD654"/>
<stop offset="0.14" stop-color="#FFE574"/>
<stop offset="0.18" stop-color="#FFEE88"/>
<stop offset="0.2" stop-color="#FFF18F"/>
<stop offset="0.24" stop-color="#FFEF82"/>
<stop offset="0.3" stop-color="#FFE961"/>
<stop offset="0.39" stop-color="#FFE02B"/>
<stop offset="0.41" stop-color="#FFDE1D"/>
<stop offset="0.57" stop-color="#ECB60E"/>
<stop offset="0.71" stop-color="#DF9C04"/>
<stop offset="0.79" stop-color="#DA9200"/>
</linearGradient>
<linearGradient id="paint3_linear_386_13906" x1="0" y1="164.585" x2="33.967" y2="164.585" gradientUnits="userSpaceOnUse">
<stop stop-color="#D48400"/>
<stop offset="0.05" stop-color="#DA9000"/>
<stop offset="0.15" stop-color="#E3A400"/>
<stop offset="0.22" stop-color="#E6AB00"/>
<stop offset="0.27" stop-color="#DCA000"/>
<stop offset="0.5" stop-color="#B87500"/>
<stop offset="0.68" stop-color="#A15B00"/>
<stop offset="0.79" stop-color="#995100"/>
</linearGradient>
<linearGradient id="paint4_linear_386_13906" x1="181.151" y1="141.464" x2="147.184" y2="141.464" gradientUnits="userSpaceOnUse">
<stop stop-color="#FFB200"/>
<stop offset="0.2" stop-color="#FFB800"/>
<stop offset="0.35" stop-color="#F3AB00"/>
<stop offset="0.61" stop-color="#D38A00"/>
<stop offset="0.79" stop-color="#BA7000"/>
</linearGradient>
<linearGradient id="paint5_linear_386_13906" x1="181.151" y1="117.181" x2="147.184" y2="117.181" gradientUnits="userSpaceOnUse">
<stop stop-color="#FFB000"/>
<stop offset="0.04" stop-color="#FFC227"/>
<stop offset="0.09" stop-color="#FFD654"/>
<stop offset="0.14" stop-color="#FFE574"/>
<stop offset="0.18" stop-color="#FFEE88"/>
<stop offset="0.2" stop-color="#FFF18F"/>
<stop offset="0.24" stop-color="#FFEF82"/>
<stop offset="0.3" stop-color="#FFE961"/>
<stop offset="0.39" stop-color="#FFE02B"/>
<stop offset="0.41" stop-color="#FFDE1D"/>
<stop offset="0.57" stop-color="#ECB60E"/>
<stop offset="0.71" stop-color="#DF9C04"/>
<stop offset="0.79" stop-color="#DA9200"/>
</linearGradient>
<linearGradient id="paint6_linear_386_13906" x1="181.151" y1="164.585" x2="147.184" y2="164.585" gradientUnits="userSpaceOnUse">
<stop stop-color="#D48400"/>
<stop offset="0.05" stop-color="#DA9000"/>
<stop offset="0.15" stop-color="#E3A400"/>
<stop offset="0.22" stop-color="#E6AB00"/>
<stop offset="0.27" stop-color="#DCA000"/>
<stop offset="0.5" stop-color="#B87500"/>
<stop offset="0.68" stop-color="#A15B00"/>
<stop offset="0.79" stop-color="#995100"/>
</linearGradient>
<linearGradient id="paint7_linear_386_13906" x1="21.8594" y1="142.476" x2="43.591" y2="142.476" gradientUnits="userSpaceOnUse">
<stop stop-color="#995100"/>
<stop offset="0.28" stop-color="#BB7000"/>
<stop offset="0.52" stop-color="#D58800"/>
<stop offset="0.74" stop-color="#D68A00"/>
<stop offset="0.82" stop-color="#DB9100"/>
<stop offset="0.87" stop-color="#E49C00"/>
<stop offset="0.91" stop-color="#F0AD00"/>
<stop offset="0.95" stop-color="#FFC100"/>
<stop offset="0.96" stop-color="#F0AC00"/>
<stop offset="0.99" stop-color="#DC9200"/>
<stop offset="1" stop-color="#D58800"/>
</linearGradient>
<linearGradient id="paint8_linear_386_13906" x1="159.287" y1="142.476" x2="137.561" y2="142.476" gradientUnits="userSpaceOnUse">
<stop stop-color="#995100"/>
<stop offset="0.28" stop-color="#BB7000"/>
<stop offset="0.52" stop-color="#D58800"/>
<stop offset="0.74" stop-color="#D68A00"/>
<stop offset="0.82" stop-color="#DB9100"/>
<stop offset="0.87" stop-color="#E49C00"/>
<stop offset="0.91" stop-color="#F0AD00"/>
<stop offset="0.95" stop-color="#FFC100"/>
<stop offset="0.96" stop-color="#F0AC00"/>
<stop offset="0.99" stop-color="#DC9200"/>
<stop offset="1" stop-color="#D58800"/>
</linearGradient>
<linearGradient id="paint9_linear_386_13906" x1="55.1266" y1="25.3249" x2="128.401" y2="182.461" gradientUnits="userSpaceOnUse">
<stop stop-color="#CED6E7"/>
<stop offset="0.66" stop-color="#C1CBDD"/>
<stop offset="1" stop-color="#B9C3D7"/>
</linearGradient>
<linearGradient id="paint10_linear_386_13906" x1="51.9783" y1="17.1907" x2="131.828" y2="188.426" gradientUnits="userSpaceOnUse">
<stop stop-color="#9AA7C6"/>
<stop offset="0.44" stop-color="#7383A9"/>
<stop offset="1" stop-color="#3D5281"/>
</linearGradient>
<linearGradient id="paint11_linear_386_13906" x1="54.3386" y1="23.291" x2="129.261" y2="183.955" gradientUnits="userSpaceOnUse">
<stop stop-color="#5B6D9C"/>
<stop offset="0.36" stop-color="#7383AD"/>
<stop offset="1" stop-color="#9AA7C8"/>
</linearGradient>
<linearGradient id="paint12_linear_386_13906" x1="51.9783" y1="17.1907" x2="131.828" y2="188.426" gradientUnits="userSpaceOnUse">
<stop stop-color="#B7C2D9"/>
<stop offset="0.18" stop-color="#909EBD"/>
<stop offset="0.53" stop-color="#3D5281"/>
<stop offset="1" stop-color="#2E3E67"/>
</linearGradient>
<linearGradient id="paint13_linear_386_13906" x1="90.5761" y1="64.5556" x2="90.5761" y2="34.8545" gradientUnits="userSpaceOnUse">
<stop stop-color="#9AA7C6" stop-opacity="0"/>
<stop offset="0.39" stop-color="#9AA7C6" stop-opacity="0.01"/>
<stop offset="0.53" stop-color="#9AA7C6" stop-opacity="0.04"/>
<stop offset="0.63" stop-color="#9AA7C6" stop-opacity="0.1"/>
<stop offset="0.72" stop-color="#9AA7C6" stop-opacity="0.19"/>
<stop offset="0.79" stop-color="#9AA7C6" stop-opacity="0.3"/>
<stop offset="0.85" stop-color="#9AA7C6" stop-opacity="0.44"/>
<stop offset="0.9" stop-color="#9AA7C6" stop-opacity="0.6"/>
<stop offset="0.95" stop-color="#9AA7C6" stop-opacity="0.78"/>
<stop offset="1" stop-color="#9AA7C6"/>
</linearGradient>
<linearGradient id="paint14_linear_386_13906" x1="90.5749" y1="151.708" x2="90.5749" y2="137.753" gradientUnits="userSpaceOnUse">
<stop stop-color="#BA7000" stop-opacity="0"/>
<stop offset="0.21" stop-color="#BA7000" stop-opacity="0.02"/>
<stop offset="0.36" stop-color="#BA7000" stop-opacity="0.07"/>
<stop offset="0.49" stop-color="#BA7000" stop-opacity="0.15"/>
<stop offset="0.61" stop-color="#BA7000" stop-opacity="0.27"/>
<stop offset="0.72" stop-color="#BA7000" stop-opacity="0.42"/>
<stop offset="0.83" stop-color="#BA7000" stop-opacity="0.61"/>
<stop offset="0.93" stop-color="#BA7000" stop-opacity="0.83"/>
<stop offset="1" stop-color="#BA7000"/>
</linearGradient>
<linearGradient id="paint15_linear_386_13906" x1="85.9631" y1="173.969" x2="93.8279" y2="190.834" gradientUnits="userSpaceOnUse">
<stop stop-color="white"/>
<stop offset="1" stop-color="#E1E8F1"/>
</linearGradient>
<linearGradient id="paint16_linear_386_13906" x1="67.7199" y1="172.222" x2="73.055" y2="183.663" gradientUnits="userSpaceOnUse">
<stop stop-color="white"/>
<stop offset="1" stop-color="#E1E8F1"/>
</linearGradient>
<linearGradient id="paint17_linear_386_13906" x1="107.171" y1="172.222" x2="112.506" y2="183.663" gradientUnits="userSpaceOnUse">
<stop stop-color="white"/>
<stop offset="1" stop-color="#E1E8F1"/>
</linearGradient>
<linearGradient id="paint18_linear_386_13906" x1="68.4903" y1="0.964501" x2="112.659" y2="95.673" gradientUnits="userSpaceOnUse">
<stop stop-color="#CED6E7"/>
<stop offset="0.66" stop-color="#C1CBDD"/>
<stop offset="1" stop-color="#B9C3D7"/>
</linearGradient>
<linearGradient id="paint19_linear_386_13906" x1="73.4796" y1="11.6562" x2="107.673" y2="84.9803" gradientUnits="userSpaceOnUse">
<stop offset="0.11" stop-color="white"/>
<stop offset="0.49" stop-color="#FAFBFD"/>
<stop offset="0.95" stop-color="#EBF0F6"/>
<stop offset="1" stop-color="#E9EEF5"/>
</linearGradient>
<linearGradient id="paint20_linear_386_13906" x1="68.4903" y1="0.964501" x2="112.659" y2="95.673" gradientUnits="userSpaceOnUse">
<stop stop-color="#9AA7C6"/>
<stop offset="0.44" stop-color="#7383A9"/>
<stop offset="1" stop-color="#3D5281"/>
</linearGradient>
<linearGradient id="paint21_linear_386_13906" x1="70.7404" y1="5.77643" x2="110.417" y2="90.862" gradientUnits="userSpaceOnUse">
<stop stop-color="#5B6D9C"/>
<stop offset="0.36" stop-color="#7383AD"/>
<stop offset="1" stop-color="#9AA7C8"/>
</linearGradient>
<linearGradient id="paint22_linear_386_13906" x1="68.4903" y1="0.964501" x2="112.659" y2="95.673" gradientUnits="userSpaceOnUse">
<stop stop-color="#B7C2D9"/>
<stop offset="0.18" stop-color="#909EBD"/>
<stop offset="0.53" stop-color="#3D5281"/>
<stop offset="1" stop-color="#2E3E67"/>
</linearGradient>
<linearGradient id="paint23_linear_386_13906" x1="21.8574" y1="131.473" x2="159.291" y2="131.473" gradientUnits="userSpaceOnUse">
<stop stop-color="#D58800"/>
<stop offset="0.01" stop-color="#DD9A0E"/>
<stop offset="0.03" stop-color="#F0C22C"/>
<stop offset="0.04" stop-color="#FBDA3F"/>
<stop offset="0.05" stop-color="#FFE346"/>
<stop offset="0.1" stop-color="#FFB200"/>
<stop offset="0.9" stop-color="#FFB200"/>
<stop offset="0.95" stop-color="#FFE346"/>
<stop offset="0.96" stop-color="#FBDA3F"/>
<stop offset="0.97" stop-color="#F0C22C"/>
<stop offset="0.99" stop-color="#DD9A0E"/>
<stop offset="1" stop-color="#D58800"/>
</linearGradient>
<linearGradient id="paint24_linear_386_13906" x1="21.8574" y1="155.795" x2="159.291" y2="155.795" gradientUnits="userSpaceOnUse">
<stop stop-color="#CF7400"/>
<stop offset="0.02" stop-color="#E89818"/>
<stop offset="0.04" stop-color="#F9B028"/>
<stop offset="0.05" stop-color="#FFB92E"/>
<stop offset="0.1" stop-color="#DA9200"/>
<stop offset="0.9" stop-color="#DA9200"/>
<stop offset="0.95" stop-color="#FFB92E"/>
<stop offset="0.96" stop-color="#F9B028"/>
<stop offset="0.98" stop-color="#E89818"/>
<stop offset="1" stop-color="#CF7400"/>
</linearGradient>
<linearGradient id="paint25_linear_386_13906" x1="21.8574" y1="107.151" x2="159.291" y2="107.151" gradientUnits="userSpaceOnUse">
<stop stop-color="#FFB710"/>
<stop offset="0.02" stop-color="#FFD046"/>
<stop offset="0.03" stop-color="#FFE26E"/>
<stop offset="0.04" stop-color="#FFED86"/>
<stop offset="0.05" stop-color="#FFF18F"/>
<stop offset="0.1" stop-color="#FFDE1D"/>
<stop offset="0.9" stop-color="#FFDE1D"/>
<stop offset="0.95" stop-color="#FFF18F"/>
<stop offset="0.96" stop-color="#FFED86"/>
<stop offset="0.97" stop-color="#FFE26E"/>
<stop offset="0.98" stop-color="#FFD046"/>
<stop offset="1" stop-color="#FFB000"/>
</linearGradient>
<clipPath id="clip0_386_13906">
<rect width="48" height="57.2382" fill="white" transform="translate(66.5723 14.8047)"/>
</clipPath>
</defs>
</svg>