<svg width="182" height="220" viewBox="0 0 182 220" fill="none" xmlns="http://www.w3.org/2000/svg">
<g clip-path="url(#clip0_386_14388)">
<g opacity="0.5">
<path d="M152.999 183.961V131.603H28.1543V183.961L90.5768 220L152.999 183.961Z" fill="url(#paint0_linear_386_14388)"/>
</g>
<path d="M0.000908637 114.861L16.2541 140.501L-0.015625 166.14H31.2948C31.9543 166.181 32.6031 165.959 33.0997 165.523C33.5964 165.087 33.9005 164.473 33.9458 163.814V114.861H0.000908637Z" fill="url(#paint1_linear_386_14388)"/>
<path d="M0.00195312 114.861L1.77664 117.573H33.9689V114.861H0.00195312Z" fill="url(#paint2_linear_386_14388)"/>
<path d="M31.3124 163.428H1.77664L0.00195312 166.14H31.3124C31.9719 166.181 32.6207 165.959 33.1173 165.523C33.614 165.088 33.9181 164.473 33.9634 163.814V161.103C33.9181 161.762 33.614 162.376 33.1173 162.812C32.6207 163.248 31.9719 163.469 31.3124 163.428Z" fill="url(#paint3_linear_386_14388)"/>
<path d="M181.151 114.861L164.881 140.501L181.151 166.14H149.84C148.374 166.14 147.184 165.098 147.184 163.814V114.861H181.151Z" fill="url(#paint4_linear_386_14388)"/>
<path d="M181.151 114.861L179.376 117.573H147.184V114.861H181.151Z" fill="url(#paint5_linear_386_14388)"/>
<path d="M149.841 163.428H179.394L181.168 166.14H149.858C148.392 166.14 147.201 165.098 147.201 163.814V161.103C147.185 162.387 148.375 163.428 149.841 163.428Z" fill="url(#paint6_linear_386_14388)"/>
<path d="M26.4339 154.367C23.9041 154.367 21.8594 155.96 21.8594 157.928C21.8594 159.895 23.9041 161.488 26.4339 161.488H40.9344C42.4005 161.488 43.591 162.53 43.591 163.814V154.367H26.4339Z" fill="url(#paint7_linear_386_14388)"/>
<path d="M154.718 154.367C157.242 154.367 159.287 155.96 159.287 157.928C159.287 159.895 157.242 161.488 154.718 161.488H140.212C138.746 161.488 137.561 162.53 137.561 163.814V154.367H154.718Z" fill="url(#paint8_linear_386_14388)"/>
<path d="M146.451 167.845V34.8486H34.7012V167.845L90.5761 200.098L146.451 167.845Z" fill="url(#paint9_linear_386_14388)"/>
<path d="M28.1543 28.3018V171.599L90.5768 207.644L152.999 171.599V28.3018H28.1543ZM146.452 167.846L90.5768 200.099L34.7019 167.84V34.8493H146.452V167.846Z" fill="url(#paint10_linear_386_14388)"/>
<path d="M148.088 168.787V33.2061H33.0645V168.787L90.5763 201.994L148.088 168.787ZM34.7014 34.8595H146.451V167.845L90.5763 200.098L34.7014 167.839V34.8595Z" fill="url(#paint11_linear_386_14388)"/>
<path d="M28.1543 28.3018V171.599L90.5768 207.644L152.999 171.599V28.3018H28.1543ZM151.362 170.679L90.5768 205.776L29.7912 170.679V29.9387H151.362V170.679Z" fill="url(#paint12_linear_386_14388)"/>
<path d="M146.451 34.8545H34.7012V64.5556H146.451V34.8545Z" fill="url(#paint13_linear_386_14388)" style="mix-blend-mode:multiply"/>
<path opacity="0.6" d="M152.999 137.753H28.1543V151.702H152.999V137.753Z" fill="url(#paint14_linear_386_14388)" style="mix-blend-mode:multiply"/>
<path d="M90.5761 178.053L96.3686 174.515L94.7924 181.117L99.9511 185.538L93.183 186.078L90.5761 192.344L87.9692 186.078L81.2012 185.538L86.3599 181.117L84.7836 174.515L90.5761 178.053Z" fill="url(#paint15_linear_386_14388)"/>
<path d="M70.8504 174.994L74.7801 172.591L73.7164 177.072L77.2106 180.07L72.6196 180.439L70.8504 184.694L69.0813 180.439L64.4902 180.07L67.99 177.072L66.9208 172.591L70.8504 174.994Z" fill="url(#paint16_linear_386_14388)"/>
<path d="M110.301 174.994L106.366 172.591L107.435 177.072L103.936 180.07L108.532 180.439L110.301 184.694L112.07 180.439L116.661 180.07L113.162 177.072L114.231 172.591L110.301 174.994Z" fill="url(#paint17_linear_386_14388)"/>
<path d="M110.588 0H70.5587L42.252 28.3012V68.3308L70.5587 96.6375H110.588L138.895 68.3308V28.3012L110.588 0Z" fill="url(#paint18_linear_386_14388)"/>
<path d="M75.0779 85.7308L53.1699 63.8174V32.8266L75.0779 10.9131H106.069L127.982 32.8266V63.8174L106.069 85.7308H75.0779Z" fill="url(#paint19_linear_386_14388)"/>
<path d="M110.588 0H70.5587L42.252 28.3012V68.3308L70.5587 96.6375H110.588L138.895 68.3308V28.3012L110.588 0ZM132.347 65.6192L107.877 90.0899H73.2703L48.7995 65.6192V31.0129L73.2703 6.54759H107.877L132.347 31.0129V65.6192Z" fill="url(#paint20_linear_386_14388)"/>
<path d="M72.5919 4.91113L47.1621 30.3464V66.3085L72.5919 91.7383H108.554L133.984 66.3085V30.3464L108.554 4.92217L72.5919 4.91113ZM132.347 65.6196L107.876 90.0904H73.2698L48.799 65.6196V31.0133L73.2698 6.54805H107.876L132.347 31.0133V65.6196Z" fill="url(#paint21_linear_386_14388)"/>
<path d="M110.588 0H70.5587L42.252 28.3012V68.3308L70.5587 96.6375H110.588L138.895 68.3308V28.3012L110.588 0ZM137.258 67.6529L109.91 95.0006H71.2366L43.8889 67.6529V28.9791L71.2366 1.63688H109.91L137.258 28.9791V67.6529Z" fill="url(#paint22_linear_386_14388)"/>
<g clip-path="url(#clip1_386_14388)">
<path d="M113.558 37.8725H113.214V36.3794C113.214 35.8193 112.756 35.361 112.195 35.361H89.442L76.8083 29.2904C76.3035 29.0477 75.692 29.2623 75.4494 29.7671L66.6976 47.9805C66.455 48.4853 66.6696 49.0969 67.1744 49.3394L68.3442 49.9015L68.0604 50.492C67.8178 50.9968 68.0325 51.6083 68.5373 51.8509L75.4449 55.1702V56.5864C75.4449 57.1465 75.9032 57.6047 76.4632 57.6047H76.8078V59.0978C76.8078 59.6579 77.2661 60.1162 77.8261 60.1162H85.738L100.744 67.3268C101.249 67.5694 101.861 67.3549 102.103 66.8501L105.339 60.1162H113.558C114.118 60.1162 114.577 59.6579 114.577 59.0978V38.8908C114.577 38.3308 114.118 37.8725 113.558 37.8725Z" fill="#1B0D1B"/>
<path d="M112.195 35.3611H89.442L76.8083 29.2904C76.3035 29.0477 75.692 29.2623 75.4494 29.7671L66.6976 47.9805C66.455 48.4853 66.6696 49.0969 67.1744 49.3394L68.3442 49.9015L75.4449 53.3135V56.5864C75.4449 57.1465 75.9032 57.6047 76.4633 57.6047H84.3751L99.3812 64.8154C99.886 65.058 100.498 64.8434 100.74 64.3386L103.976 57.6047H112.195C112.756 57.6047 113.214 57.1465 113.214 56.5865V36.3794C113.214 35.8193 112.756 35.3611 112.195 35.3611Z" fill="#13757B"/>
<path d="M112.194 35.3613H76.4617C75.9017 35.3613 75.4434 35.8196 75.4434 36.3797V56.5867C75.4434 57.1468 75.9017 57.6049 76.4617 57.6049H112.194C112.754 57.6049 113.212 57.1468 113.212 56.5867V36.3797C113.212 35.8196 112.754 35.3613 112.194 35.3613Z" fill="#EADADA"/>
<path d="M112.194 35.3613H76.4617C75.9017 35.3613 75.4434 35.8196 75.4434 36.3797V39.7282H113.212V36.3797C113.212 35.8196 112.754 35.3613 112.194 35.3613Z" fill="#ED6D56"/>
<path d="M85.2657 42.2324H78.8015C78.2414 42.2324 77.7832 42.6907 77.7832 43.2507V49.715C77.7832 50.275 78.2414 50.7332 78.8015 50.7332H85.2657C85.8258 50.7332 86.2841 50.275 86.2841 49.715V43.2507C86.2841 42.6906 85.8258 42.2324 85.2657 42.2324Z" fill="#ED6D56"/>
<path d="M88.8234 44.9308H109.729C109.998 44.9308 110.217 44.7114 110.217 44.4433V42.72C110.217 42.4518 109.998 42.2324 109.729 42.2324H88.8234C88.5552 42.2324 88.3359 42.4518 88.3359 42.72V44.4433C88.3359 44.7114 88.5552 44.9308 88.8234 44.9308Z" fill="#D7B4B4"/>
<path d="M88.5548 47.443H109.998C110.118 47.443 110.217 47.3445 110.217 47.2241V46.3126C110.217 46.1923 110.118 46.0938 109.998 46.0938H88.5548C88.4344 46.0938 88.3359 46.1923 88.3359 46.3126V47.2241C88.3359 47.3445 88.4344 47.443 88.5548 47.443Z" fill="#D7B4B4"/>
<path d="M82.0283 47.0528C83.1064 47.0528 83.9805 46.1787 83.9805 45.1006C83.9805 44.0225 83.1064 43.1484 82.0283 43.1484C80.9501 43.1484 80.0762 44.0225 80.0762 45.1006C80.0761 46.1787 80.9501 47.0528 82.0283 47.0528Z" fill="#EADADA"/>
<path d="M82.028 47.3135C80.5444 47.3135 79.3403 48.6068 79.3223 50.2094H84.7338C84.7159 48.6068 83.5116 47.3135 82.028 47.3135Z" fill="#EADADA"/>
<path d="M90.8065 49.2579L90.7562 49.236C90.6504 49.19 90.5261 49.2391 90.4801 49.3449L89.4372 51.7469C89.3912 51.8527 89.4402 51.977 89.5461 52.023L89.5966 52.0449C89.7025 52.0909 89.8266 52.0418 89.8726 51.936L90.9155 49.534C90.9615 49.4281 90.9124 49.3039 90.8065 49.2579Z" fill="#D7B4B4"/>
<path d="M88.3761 52.023L88.4266 52.0449C88.5325 52.0909 88.6566 52.0418 88.7026 51.936L89.7455 49.534C89.7915 49.4282 89.7425 49.3039 89.6366 49.2579L89.5862 49.236C89.4804 49.19 89.3561 49.2391 89.3102 49.3449L88.2672 51.7469C88.2214 51.8527 88.2703 51.977 88.3761 52.023Z" fill="#D7B4B4"/>
<path d="M90.6379 52.023L90.6883 52.0449C90.7941 52.0909 90.9184 52.0418 90.9643 51.936L92.0073 49.534C92.0531 49.4282 92.0042 49.3039 91.8984 49.2579L91.8479 49.236C91.742 49.19 91.6179 49.2391 91.5719 49.3449L90.529 51.7469C90.483 51.8527 90.532 51.977 90.6379 52.023Z" fill="#D7B4B4"/>
<path d="M91.8546 52.023L91.9051 52.0449C92.011 52.0909 92.1351 52.0418 92.1811 51.936L93.224 49.534C93.27 49.4282 93.221 49.3039 93.1151 49.2579L93.0648 49.236C92.9589 49.19 92.8346 49.2391 92.7887 49.3449L91.7457 51.7469C91.6999 51.8527 91.7488 51.977 91.8546 52.023Z" fill="#D7B4B4"/>
<path d="M93.1145 52.023L93.1648 52.0449C93.2707 52.0909 93.395 52.0418 93.4409 51.936L94.4838 49.534C94.5298 49.4282 94.4808 49.3039 94.3749 49.2579L94.3246 49.236C94.2187 49.19 94.0944 49.2391 94.0485 49.3449L93.0055 51.7469C92.9596 51.8527 93.0086 51.977 93.1145 52.023Z" fill="#D7B4B4"/>
<path d="M94.3762 52.023L94.4265 52.0449C94.5324 52.0909 94.6566 52.0418 94.7025 51.936L95.7454 49.534C95.7914 49.4282 95.7424 49.3039 95.6365 49.2579L95.5862 49.236C95.4803 49.19 95.3562 49.2391 95.3102 49.3449L94.2673 51.7469C94.2213 51.8527 94.2703 51.977 94.3762 52.023Z" fill="#D7B4B4"/>
<path d="M95.7258 52.023L95.7761 52.0449C95.882 52.0909 96.0063 52.0418 96.0523 51.936L97.0952 49.534C97.1411 49.4282 97.0921 49.3039 96.9862 49.2579L96.9359 49.236C96.83 49.19 96.7057 49.2391 96.6598 49.3449L95.6169 51.7469C95.5709 51.8527 95.6199 51.977 95.7258 52.023Z" fill="#D7B4B4"/>
<path d="M97.0539 52.023L97.1043 52.0449C97.2102 52.0909 97.3343 52.0418 97.3803 51.936L98.4232 49.534C98.4692 49.4282 98.4201 49.3039 98.3143 49.2579L98.2639 49.236C98.1581 49.19 98.0339 49.2391 97.9879 49.3449L96.945 51.7469C96.899 51.8527 96.948 51.977 97.0539 52.023Z" fill="#D7B4B4"/>
<path d="M98.425 52.023L98.4754 52.0449C98.5812 52.0909 98.7055 52.0418 98.7515 51.936L99.7944 49.534C99.8404 49.4282 99.7913 49.3039 99.6855 49.2579L99.635 49.236C99.5291 49.19 99.405 49.2391 99.359 49.3449L98.3161 51.7469C98.2701 51.8527 98.3192 51.977 98.425 52.023Z" fill="#D7B4B4"/>
<path d="M99.7081 52.023L99.7586 52.0449C99.8645 52.0909 99.9887 52.0418 100.035 51.936L101.078 49.534C101.124 49.4282 101.075 49.3039 100.969 49.2579L100.918 49.236C100.812 49.19 100.688 49.2391 100.642 49.3449L99.5993 51.7469C99.5534 51.8527 99.6023 51.977 99.7081 52.023Z" fill="#D7B4B4"/>
<path d="M101.058 52.023L101.108 52.0449C101.214 52.0909 101.338 52.0418 101.384 51.936L102.427 49.534C102.473 49.4282 102.424 49.3039 102.318 49.2579L102.268 49.236C102.162 49.19 102.038 49.2391 101.992 49.3449L100.949 51.7469C100.903 51.8527 100.952 51.977 101.058 52.023Z" fill="#D7B4B4"/>
<path d="M102.341 52.023L102.391 52.0449C102.497 52.0909 102.621 52.0418 102.667 51.936L103.71 49.534C103.756 49.4282 103.707 49.3039 103.601 49.2579L103.551 49.236C103.445 49.19 103.321 49.2391 103.275 49.3449L102.232 51.7469C102.186 51.8527 102.235 51.977 102.341 52.023Z" fill="#D7B4B4"/>
<path d="M103.712 52.023L103.762 52.0449C103.868 52.0909 103.993 52.0418 104.039 51.936L105.082 49.534C105.127 49.4282 105.078 49.3039 104.973 49.2579L104.922 49.236C104.816 49.19 104.692 49.2391 104.646 49.3449L103.603 51.7469C103.557 51.8527 103.606 51.977 103.712 52.023Z" fill="#D7B4B4"/>
<path d="M104.995 52.023L105.046 52.0449C105.152 52.0909 105.276 52.0418 105.322 51.936L106.365 49.534C106.411 49.4282 106.362 49.3039 106.256 49.2579L106.205 49.236C106.1 49.19 105.975 49.2391 105.929 49.3449L104.886 51.7469C104.841 51.8527 104.889 51.977 104.995 52.023Z" fill="#D7B4B4"/>
<path d="M106.322 52.023L106.372 52.0449C106.478 52.0909 106.602 52.0418 106.648 51.936L107.691 49.534C107.737 49.4282 107.688 49.3039 107.582 49.2579L107.531 49.236C107.426 49.19 107.301 49.2391 107.255 49.3449L106.213 51.7469C106.167 51.8527 106.216 51.977 106.322 52.023Z" fill="#D7B4B4"/>
<path d="M107.488 52.023L107.538 52.0449C107.644 52.0909 107.768 52.0418 107.814 51.936L108.857 49.534C108.903 49.4282 108.854 49.3039 108.748 49.2579L108.697 49.236C108.592 49.19 108.467 49.2391 108.421 49.3449L107.379 51.7469C107.333 51.8527 107.382 51.977 107.488 52.023Z" fill="#D7B4B4"/>
<path d="M110.221 53.1094H78.8015C78.2414 53.1094 77.7832 53.5677 77.7832 54.1278V55.0735C77.7832 55.6336 78.2414 56.0919 78.8015 56.0919H110.221C110.781 56.0919 111.24 55.6336 111.24 55.0735V54.1278C111.24 53.5677 110.781 53.1094 110.221 53.1094Z" fill="#D7B4B4"/>
<path d="M79.5445 55.1627H109.469C109.735 55.1627 109.953 54.9449 109.953 54.6787V54.6393C109.953 54.3731 109.735 54.1553 109.469 54.1553H79.5445C79.2784 54.1553 79.0605 54.3731 79.0605 54.6393V54.6787C79.0605 54.9448 79.2784 55.1627 79.5445 55.1627Z" fill="#EADADA"/>
</g>
<path d="M154.718 103.084H26.4339C23.9041 103.084 21.8594 104.682 21.8594 106.65V157.906C21.8594 155.939 23.9041 154.346 26.4339 154.346H154.718C157.242 154.346 159.287 155.939 159.287 157.906V106.65C159.287 104.682 157.242 103.084 154.718 103.084Z" fill="url(#paint23_linear_386_14388)"/>
<path d="M154.718 151.733H26.4339C23.9041 151.733 21.8594 153.326 21.8594 155.294V157.928C21.8594 155.961 23.9041 154.368 26.4339 154.368H154.718C157.242 154.368 159.287 155.961 159.287 157.928V155.294C159.287 153.332 157.242 151.733 154.718 151.733Z" fill="url(#paint24_linear_386_14388)"/>
<path d="M154.718 103.084H26.4339C23.9041 103.084 21.8594 104.682 21.8594 106.65V109.284C21.8594 107.317 23.9041 105.724 26.4339 105.724H154.718C157.242 105.724 159.287 107.317 159.287 109.284V106.65C159.287 104.682 157.242 103.084 154.718 103.084Z" fill="url(#paint25_linear_386_14388)"/>
<path d="M64.1262 114.603V124.005H62.3516V114.603H64.1262Z" fill="#3D5281"/>
<path d="M67.8137 114.603V124.005H66.0391V114.603H67.8137ZM68.8444 124.005H66.8217V122.611H68.8334C69.3185 122.629 69.7981 122.502 70.2112 122.247C70.5909 121.99 70.8831 121.622 71.049 121.195C71.253 120.668 71.3504 120.106 71.3356 119.541V119.056C71.341 118.614 71.2873 118.173 71.1757 117.744C71.0799 117.399 70.919 117.076 70.7017 116.791C70.4947 116.536 70.2303 116.334 69.9301 116.201C69.5964 116.064 69.2382 115.997 68.8774 116.003H66.7666V114.603H68.8774C69.4656 114.595 70.0495 114.702 70.597 114.917C71.1067 115.121 71.567 115.431 71.9473 115.826C72.3345 116.231 72.633 116.711 72.8236 117.237C73.0359 117.826 73.1404 118.447 73.1323 119.073V119.541C73.1399 120.165 73.0353 120.784 72.8236 121.371C72.6343 121.898 72.3357 122.379 71.9473 122.782C71.564 123.178 71.0996 123.486 70.586 123.686C70.0318 123.905 69.4402 124.013 68.8444 124.005Z" fill="#3D5281"/>
<path d="M83.1748 114.603H84.9495V120.847C84.9708 121.483 84.8102 122.112 84.4865 122.66C84.1788 123.142 83.7387 123.525 83.2189 123.763C82.6452 124.018 82.0224 124.144 81.3946 124.132C80.7615 124.144 80.1333 124.018 79.5538 123.763C79.0336 123.528 78.5944 123.144 78.2917 122.66C77.9699 122.112 77.8112 121.483 77.8342 120.847V114.603H79.6365V120.847C79.6159 121.227 79.6917 121.606 79.8569 121.949C79.9913 122.216 80.2077 122.432 80.4742 122.567C80.7707 122.705 81.0951 122.773 81.4222 122.765C81.7512 122.774 82.0778 122.707 82.3756 122.567C82.6294 122.416 82.8283 122.188 82.9433 121.916C83.1037 121.572 83.1775 121.193 83.1583 120.814L83.1748 114.603Z" fill="#3D5281"/>
<path d="M89.804 117.016V118.246H85.8027V117.016H89.804ZM86.872 115.297H88.586V121.988C88.5775 122.152 88.6057 122.316 88.6687 122.467C88.6934 122.52 88.7286 122.568 88.7722 122.606C88.8158 122.645 88.8668 122.675 88.9222 122.693C89.0501 122.736 89.1843 122.756 89.319 122.754C89.4237 122.76 89.5286 122.76 89.6332 122.754L89.8702 122.715V123.994C89.7141 124.047 89.5536 124.085 89.3907 124.11C89.1903 124.142 88.9874 124.157 88.7844 124.154C88.4385 124.16 88.0952 124.094 87.7758 123.961C87.4881 123.829 87.2532 123.603 87.1089 123.322C86.9333 122.956 86.8501 122.553 86.8664 122.148L86.872 115.297Z" fill="#3D5281"/>
<path d="M90.924 115.187C90.9215 115.069 90.9432 114.952 90.9877 114.843C91.0323 114.734 91.0988 114.635 91.1831 114.553C91.3786 114.381 91.6338 114.292 91.894 114.305C92.1527 114.291 92.4063 114.381 92.5995 114.553C92.6856 114.634 92.7537 114.733 92.7992 114.842C92.8448 114.951 92.8669 115.069 92.8641 115.187C92.8668 115.304 92.8447 115.421 92.7991 115.529C92.7535 115.638 92.6855 115.735 92.5995 115.815C92.4069 115.989 92.1534 116.08 91.894 116.069C91.6331 116.08 91.378 115.989 91.1831 115.815C91.0989 115.734 91.0325 115.636 90.9879 115.528C90.9433 115.42 90.9216 115.304 90.924 115.187ZM92.7538 117.017V124.005H91.0398V117.017H92.7538Z" fill="#3D5281"/>
<path d="M96.1711 114.085V124.006H94.457V114.085H96.1711Z" fill="#3D5281"/>
<path d="M97.8244 115.187C97.8219 115.069 97.8436 114.952 97.8881 114.843C97.9327 114.734 97.9992 114.635 98.0835 114.553C98.2789 114.381 98.5341 114.292 98.7944 114.305C99.0531 114.291 99.3067 114.381 99.4999 114.553C99.5853 114.635 99.6525 114.733 99.6971 114.842C99.7418 114.952 99.7628 115.069 99.7589 115.187C99.7627 115.304 99.7416 115.421 99.697 115.529C99.6523 115.637 99.5851 115.735 99.4999 115.815C99.3073 115.989 99.0538 116.08 98.7944 116.069C98.5335 116.08 98.2784 115.989 98.0835 115.815C97.9993 115.734 97.9329 115.636 97.8883 115.528C97.8437 115.42 97.822 115.304 97.8244 115.187ZM99.6487 117.017V124.005H97.9402V117.017H99.6487Z" fill="#3D5281"/>
<path d="M104.559 117.017V118.246H100.58V117.017H104.559ZM101.627 115.303H103.336V121.994C103.326 122.158 103.356 122.323 103.424 122.473C103.448 122.525 103.483 122.572 103.525 122.611C103.568 122.65 103.618 122.68 103.672 122.699C103.802 122.741 103.938 122.761 104.074 122.76C104.177 122.766 104.28 122.766 104.383 122.76L104.62 122.721V124C104.462 124.053 104.3 124.092 104.135 124.116C103.936 124.148 103.735 124.163 103.534 124.16C103.188 124.167 102.845 124.101 102.526 123.967C102.237 123.833 102.001 123.608 101.853 123.327C101.68 122.961 101.598 122.558 101.616 122.153L101.627 115.303Z" fill="#3D5281"/>
<path d="M106.819 117.017L108.401 122.164L108.677 123.967L107.503 124.181L104.979 117.017H106.819ZM107.745 123.228L109.614 117.017H111.443L108.638 125.063C108.567 125.252 108.485 125.436 108.39 125.614C108.284 125.817 108.148 126.003 107.988 126.166C107.81 126.354 107.596 126.506 107.359 126.612C107.071 126.735 106.759 126.795 106.445 126.788C106.306 126.79 106.168 126.779 106.031 126.755L105.651 126.673V125.394H105.8H105.954C106.163 125.401 106.372 125.371 106.571 125.306C106.728 125.256 106.866 125.16 106.968 125.03C107.083 124.881 107.17 124.713 107.227 124.534L107.745 123.228Z" fill="#3D5281"/>
<path d="M119.594 114.603L116.039 124.81H114.744L118.294 114.603H119.594Z" fill="#3D5281"/>
<path d="M64.1262 114.603V124.005H62.3516V114.603H64.1262Z" fill="#3D5281"/>
<path d="M67.8137 114.603V124.005H66.0391V114.603H67.8137ZM68.8444 124.005H66.8217V122.611H68.8334C69.3185 122.629 69.7981 122.502 70.2112 122.247C70.5909 121.99 70.8831 121.622 71.049 121.195C71.253 120.668 71.3504 120.106 71.3356 119.541V119.056C71.341 118.614 71.2873 118.173 71.1757 117.744C71.0799 117.399 70.919 117.076 70.7017 116.791C70.4947 116.536 70.2303 116.334 69.9301 116.201C69.5964 116.064 69.2382 115.997 68.8774 116.003H66.7666V114.603H68.8774C69.4656 114.595 70.0495 114.702 70.597 114.917C71.1067 115.121 71.567 115.431 71.9473 115.826C72.3345 116.231 72.633 116.711 72.8236 117.237C73.0359 117.826 73.1404 118.447 73.1323 119.073V119.541C73.1399 120.165 73.0353 120.784 72.8236 121.371C72.6343 121.898 72.3357 122.379 71.9473 122.782C71.564 123.178 71.0996 123.486 70.586 123.686C70.0318 123.905 69.4402 124.013 68.8444 124.005Z" fill="#3D5281"/>
<path d="M83.1748 114.603H84.9495V120.847C84.9708 121.483 84.8102 122.112 84.4865 122.66C84.1788 123.142 83.7387 123.525 83.2189 123.763C82.6452 124.018 82.0224 124.144 81.3946 124.132C80.7615 124.144 80.1333 124.018 79.5538 123.763C79.0336 123.528 78.5944 123.144 78.2917 122.66C77.9699 122.112 77.8112 121.483 77.8342 120.847V114.603H79.6365V120.847C79.6159 121.227 79.6917 121.606 79.8569 121.949C79.9913 122.216 80.2077 122.432 80.4742 122.567C80.7707 122.705 81.0951 122.773 81.4222 122.765C81.7512 122.774 82.0778 122.707 82.3756 122.567C82.6294 122.416 82.8283 122.188 82.9433 121.916C83.1037 121.572 83.1775 121.193 83.1583 120.814L83.1748 114.603Z" fill="#3D5281"/>
<path d="M89.804 117.016V118.246H85.8027V117.016H89.804ZM86.872 115.297H88.586V121.988C88.5775 122.152 88.6057 122.316 88.6687 122.467C88.6934 122.52 88.7286 122.568 88.7722 122.606C88.8158 122.645 88.8668 122.675 88.9222 122.693C89.0501 122.736 89.1843 122.756 89.319 122.754C89.4237 122.76 89.5286 122.76 89.6332 122.754L89.8702 122.715V123.994C89.7141 124.047 89.5536 124.085 89.3907 124.11C89.1903 124.142 88.9874 124.157 88.7844 124.154C88.4385 124.16 88.0952 124.094 87.7758 123.961C87.4881 123.829 87.2532 123.603 87.1089 123.322C86.9333 122.956 86.8501 122.553 86.8664 122.148L86.872 115.297Z" fill="#3D5281"/>
<path d="M90.924 115.187C90.9215 115.069 90.9432 114.952 90.9877 114.843C91.0323 114.734 91.0988 114.635 91.1831 114.553C91.3786 114.381 91.6338 114.292 91.894 114.305C92.1527 114.291 92.4063 114.381 92.5995 114.553C92.6856 114.634 92.7537 114.733 92.7992 114.842C92.8448 114.951 92.8669 115.069 92.8641 115.187C92.8668 115.304 92.8447 115.421 92.7991 115.529C92.7535 115.638 92.6855 115.735 92.5995 115.815C92.4069 115.989 92.1534 116.08 91.894 116.069C91.6331 116.08 91.378 115.989 91.1831 115.815C91.0989 115.734 91.0325 115.636 90.9879 115.528C90.9433 115.42 90.9216 115.304 90.924 115.187ZM92.7538 117.017V124.005H91.0398V117.017H92.7538Z" fill="#3D5281"/>
<path d="M96.1711 114.085V124.006H94.457V114.085H96.1711Z" fill="#3D5281"/>
<path d="M97.8244 115.187C97.8219 115.069 97.8436 114.952 97.8881 114.843C97.9327 114.734 97.9992 114.635 98.0835 114.553C98.2789 114.381 98.5341 114.292 98.7944 114.305C99.0531 114.291 99.3067 114.381 99.4999 114.553C99.5853 114.635 99.6525 114.733 99.6971 114.842C99.7418 114.952 99.7628 115.069 99.7589 115.187C99.7627 115.304 99.7416 115.421 99.697 115.529C99.6523 115.637 99.5851 115.735 99.4999 115.815C99.3073 115.989 99.0538 116.08 98.7944 116.069C98.5335 116.08 98.2784 115.989 98.0835 115.815C97.9993 115.734 97.9329 115.636 97.8883 115.528C97.8437 115.42 97.822 115.304 97.8244 115.187ZM99.6487 117.017V124.005H97.9402V117.017H99.6487Z" fill="#3D5281"/>
<path d="M104.559 117.017V118.246H100.58V117.017H104.559ZM101.627 115.303H103.336V121.994C103.326 122.158 103.356 122.323 103.424 122.473C103.448 122.525 103.483 122.572 103.525 122.611C103.568 122.65 103.618 122.68 103.672 122.699C103.802 122.741 103.938 122.761 104.074 122.76C104.177 122.766 104.28 122.766 104.383 122.76L104.62 122.721V124C104.462 124.053 104.3 124.092 104.135 124.116C103.936 124.148 103.735 124.163 103.534 124.16C103.188 124.167 102.845 124.101 102.526 123.967C102.237 123.833 102.001 123.608 101.853 123.327C101.68 122.961 101.598 122.558 101.616 122.153L101.627 115.303Z" fill="#3D5281"/>
<path d="M106.819 117.017L108.401 122.164L108.677 123.967L107.503 124.181L104.979 117.017H106.819ZM107.745 123.228L109.614 117.017H111.443L108.638 125.063C108.567 125.252 108.485 125.436 108.39 125.614C108.284 125.817 108.148 126.003 107.988 126.166C107.81 126.354 107.596 126.506 107.359 126.612C107.071 126.735 106.759 126.795 106.445 126.788C106.306 126.79 106.168 126.779 106.031 126.755L105.651 126.673V125.394H105.8H105.954C106.163 125.401 106.372 125.371 106.571 125.306C106.728 125.256 106.866 125.16 106.968 125.03C107.083 124.881 107.17 124.713 107.227 124.534L107.745 123.228Z" fill="#3D5281"/>
<path d="M119.594 114.603L116.039 124.81H114.744L118.294 114.603H119.594Z" fill="#3D5281"/>
<path d="M36.3164 131.799H39.7335C40.3622 131.782 40.988 131.891 41.5743 132.118C42.0582 132.309 42.4718 132.644 42.7593 133.077C43.0485 133.543 43.1925 134.084 43.1726 134.631C43.1821 135.068 43.0936 135.501 42.9136 135.899C42.7461 136.252 42.4967 136.56 42.1861 136.797C41.8518 137.041 41.4793 137.227 41.0838 137.349L40.5327 137.63H37.5179V136.23H39.7721C40.0863 136.24 40.3983 136.173 40.6815 136.037C40.9181 135.915 41.1107 135.722 41.2326 135.486C41.3567 135.244 41.4191 134.975 41.4145 134.703C41.4212 134.421 41.3607 134.141 41.2381 133.887C41.1187 133.649 40.9254 133.456 40.687 133.336C40.3956 133.201 40.0765 133.137 39.7556 133.149H38.1021V141.207H36.3219L36.3164 131.799ZM41.6074 141.207L39.4028 136.996H41.2822L43.4868 141.124V141.207H41.6074Z" fill="#3D5281"/>
<path d="M47.7299 141.327C47.2416 141.336 46.7564 141.248 46.3025 141.068C45.8963 140.91 45.5296 140.666 45.2277 140.352C44.9267 140.036 44.6957 139.66 44.5498 139.249C44.3883 138.825 44.3079 138.375 44.3128 137.921V137.662C44.3066 137.164 44.3849 136.668 44.5443 136.196C44.6868 135.776 44.9116 135.388 45.2057 135.055C45.4875 134.737 45.8355 134.485 46.2253 134.317C46.6405 134.143 47.087 134.057 47.537 134.063C47.9867 134.054 48.4333 134.139 48.8488 134.311C49.2157 134.466 49.5405 134.706 49.7967 135.011C50.0552 135.336 50.2429 135.712 50.3479 136.113C50.4831 136.566 50.5482 137.036 50.5408 137.508V138.224H45.0679V137.045H48.8653V136.918C48.8583 136.663 48.8061 136.411 48.711 136.174C48.6194 135.952 48.4664 135.761 48.2701 135.623C48.0408 135.48 47.774 135.409 47.504 135.419C47.2708 135.413 47.0403 135.47 46.8371 135.584C46.6451 135.698 46.4857 135.859 46.3741 136.053C46.2434 136.273 46.1503 136.513 46.0985 136.764C46.0362 137.065 46.0067 137.371 46.0104 137.679V137.938C46.0069 138.214 46.0478 138.49 46.1316 138.753C46.202 138.993 46.3223 139.214 46.4844 139.404C46.6348 139.584 46.8229 139.729 47.0355 139.828C47.2751 139.933 47.5344 139.986 47.7961 139.982C48.131 139.986 48.4626 139.915 48.7661 139.773C49.0638 139.624 49.3238 139.409 49.5267 139.145L50.3864 140.038C50.2192 140.273 50.0187 140.483 49.7912 140.66C49.5237 140.871 49.2216 141.033 48.8984 141.14C48.5216 141.265 48.127 141.329 47.7299 141.327Z" fill="#3D5281"/>
<path d="M53.3788 135.695V141.206H51.6758V134.212H53.2796L53.3788 135.695ZM53.1088 137.442H52.6293C52.628 136.973 52.6967 136.507 52.8332 136.059C52.9506 135.673 53.1374 135.313 53.3843 134.995C53.6187 134.706 53.9143 134.473 54.2496 134.312C54.5951 134.152 54.9715 134.071 55.3519 134.075C55.6624 134.07 55.9715 134.116 56.2668 134.212C56.5325 134.306 56.7723 134.461 56.9668 134.664C57.1752 134.898 57.3295 135.174 57.4187 135.474C57.5313 135.876 57.5833 136.292 57.573 136.709V141.206H55.859V136.709C55.8687 136.45 55.8216 136.193 55.7212 135.954C55.6376 135.78 55.495 135.641 55.3188 135.563C55.1142 135.48 54.8946 135.441 54.674 135.447C54.4369 135.441 54.202 135.494 53.9906 135.601C53.794 135.706 53.6242 135.855 53.4946 136.037C53.3617 136.232 53.2612 136.448 53.1969 136.676C53.1308 136.929 53.1011 137.191 53.1088 137.453V137.442Z" fill="#3D5281"/>
<path d="M62.4072 134.212V135.441H58.4004V134.212H62.4072ZM59.4751 132.492H61.1837V139.183C61.1752 139.347 61.2034 139.511 61.2663 139.663C61.2916 139.715 61.327 139.762 61.3705 139.801C61.414 139.84 61.4648 139.869 61.5199 139.889C61.6497 139.931 61.7856 139.951 61.9222 139.949C62.025 139.955 62.1281 139.955 62.2308 139.949L62.4678 139.911V141.189C62.3121 141.243 62.1515 141.282 61.9883 141.305C61.7898 141.338 61.5888 141.352 61.3876 141.349C61.0416 141.356 60.698 141.29 60.379 141.156C60.0899 141.024 59.8533 140.799 59.7066 140.517C59.5329 140.151 59.4515 139.748 59.4696 139.343L59.4751 132.492Z" fill="#3D5281"/>
<path d="M66.8223 131.286H68.5363V139.664L68.3655 141.207H66.8223V131.286ZM73.0226 137.635V137.773C73.0279 138.256 72.9705 138.738 72.8518 139.206C72.7505 139.602 72.5767 139.976 72.3392 140.308C72.1197 140.619 71.8286 140.872 71.4905 141.047C71.1225 141.228 70.7157 141.317 70.3055 141.306C69.9235 141.313 69.5453 141.228 69.2032 141.058C68.8831 140.887 68.609 140.641 68.404 140.341C68.1762 140.003 68.0015 139.631 67.886 139.239C67.7513 138.789 67.6536 138.328 67.5939 137.861V137.492C67.6536 137.024 67.7513 136.561 67.886 136.109C68.0037 135.718 68.1783 135.346 68.404 135.006C68.6083 134.708 68.8803 134.463 69.1977 134.29C69.5395 134.119 69.9179 134.034 70.3 134.042C70.7136 134.031 71.1238 134.12 71.496 134.301C71.8367 134.474 72.13 134.727 72.3502 135.039C72.5858 135.372 72.7577 135.746 72.8573 136.142C72.9795 136.63 73.0351 137.132 73.0226 137.635ZM71.3141 137.773V137.635C71.3135 137.353 71.2896 137.071 71.2424 136.792C71.1996 136.549 71.1217 136.313 71.011 136.092C70.9096 135.896 70.7573 135.73 70.57 135.613C70.3574 135.491 70.1148 135.432 69.8701 135.442C69.6371 135.435 69.4057 135.481 69.1922 135.574C69.01 135.662 68.8499 135.79 68.7237 135.949C68.5988 136.115 68.5036 136.301 68.4426 136.5C68.3738 136.728 68.3295 136.963 68.3104 137.2V138.208C68.3332 138.515 68.4038 138.816 68.5198 139.101C68.6249 139.354 68.7987 139.571 69.0213 139.73C69.2794 139.893 69.5813 139.974 69.8866 139.961C70.1271 139.97 70.3653 139.913 70.5756 139.796C70.762 139.685 70.9145 139.524 71.0165 139.333C71.1285 139.113 71.2048 138.877 71.2424 138.633C71.2939 138.349 71.3198 138.061 71.3196 137.773H71.3141Z" fill="#3D5281"/>
<path d="M74.2503 132.388C74.2478 132.27 74.2694 132.153 74.314 132.044C74.3586 131.935 74.425 131.836 74.5093 131.754C74.7048 131.582 74.96 131.493 75.2203 131.506C75.4788 131.494 75.732 131.583 75.9258 131.754C76.0101 131.836 76.0766 131.935 76.1211 132.044C76.1657 132.153 76.1874 132.27 76.1848 132.388C76.1879 132.505 76.1665 132.621 76.1219 132.73C76.0773 132.838 76.0105 132.936 75.9258 133.016C75.7325 133.189 75.4795 133.28 75.2203 133.27C74.9594 133.281 74.7043 133.19 74.5093 133.016C74.4247 132.936 74.3579 132.838 74.3132 132.73C74.2686 132.621 74.2472 132.505 74.2503 132.388ZM76.0746 134.218V141.206H74.366V134.212L76.0746 134.218Z" fill="#3D5281"/>
<path d="M79.5148 131.286V141.207H77.8008V131.286H79.5148Z" fill="#3D5281"/>
<path d="M82.9429 131.286V141.207H81.2344V131.286H82.9429Z" fill="#3D5281"/>
<path d="M91.0059 141.327C90.5176 141.337 90.0322 141.249 89.5784 141.068C89.1635 140.912 88.7874 140.668 88.4761 140.352C88.1788 140.033 87.9483 139.658 87.7982 139.249C87.6412 138.824 87.5627 138.374 87.5668 137.921V137.662C87.5605 137.164 87.6388 136.668 87.7982 136.196C87.9409 135.777 88.1636 135.389 88.4541 135.055C88.739 134.739 89.0886 134.487 89.4792 134.317C89.8924 134.143 90.3372 134.057 90.7854 134.063C91.2351 134.054 91.6819 134.138 92.0972 134.311C92.4656 134.466 92.7923 134.706 93.0506 135.011C93.307 135.338 93.4945 135.713 93.6018 136.113C93.7344 136.566 93.7994 137.036 93.7947 137.508V138.224H88.3163V137.045H92.1137V136.918C92.1094 136.663 92.0571 136.41 91.9594 136.174C91.8698 135.953 91.7188 135.761 91.524 135.623C91.2926 135.48 91.0241 135.409 90.7524 135.419C90.521 135.413 90.2924 135.47 90.091 135.584C89.899 135.698 89.7396 135.86 89.628 136.053C89.4956 136.272 89.4023 136.513 89.3525 136.764C89.2882 137.064 89.2568 137.371 89.2588 137.679V137.938C89.258 138.214 89.2989 138.489 89.38 138.753C89.4546 138.992 89.5764 139.213 89.7383 139.404C89.8876 139.585 90.076 139.73 90.2894 139.828C90.5273 139.933 90.7847 139.985 91.0445 139.982C91.3812 139.986 91.7145 139.915 92.02 139.773C92.3157 139.623 92.5738 139.408 92.7751 139.145L93.6348 140.038C93.4712 140.274 93.2723 140.484 93.0451 140.66C92.7769 140.87 92.4749 141.032 92.1523 141.14C91.7824 141.262 91.3955 141.325 91.0059 141.327Z" fill="#3D5281"/>
<path d="M98.2865 134.212V135.441H94.2852V134.212H98.2865ZM95.3544 132.492H97.0684V139.183C97.0599 139.347 97.0882 139.511 97.1511 139.663C97.1763 139.715 97.2117 139.762 97.2552 139.801C97.2988 139.84 97.3495 139.869 97.4046 139.889C97.5344 139.931 97.6704 139.952 97.807 139.949C97.9098 139.955 98.0128 139.955 98.1156 139.949L98.3526 139.911V141.189C98.1967 141.243 98.0362 141.281 97.8731 141.305C97.6728 141.338 97.4698 141.353 97.2668 141.349C96.9227 141.355 96.581 141.29 96.2638 141.156C95.9747 141.024 95.7381 140.799 95.5914 140.517C95.4158 140.151 95.3325 139.748 95.3489 139.343L95.3544 132.492Z" fill="#3D5281"/>
<path d="M102.294 139.989C102.517 139.992 102.738 139.943 102.939 139.845C103.125 139.754 103.283 139.615 103.396 139.443C103.514 139.264 103.577 139.056 103.578 138.842H105.188C105.183 139.297 105.043 139.741 104.785 140.115C104.525 140.495 104.169 140.801 103.755 141.003C103.31 141.226 102.819 141.337 102.322 141.328C101.838 141.339 101.356 141.247 100.911 141.058C100.524 140.887 100.183 140.628 99.9132 140.303C99.6464 139.977 99.4443 139.602 99.318 139.2C99.1876 138.757 99.1226 138.296 99.1251 137.834V137.624C99.1226 137.162 99.1876 136.701 99.318 136.257C99.4425 135.855 99.6447 135.48 99.9132 135.155C100.183 134.829 100.524 134.571 100.911 134.4C101.355 134.211 101.834 134.119 102.316 134.13C102.831 134.117 103.341 134.229 103.804 134.455C104.219 134.665 104.567 134.988 104.807 135.386C105.06 135.816 105.191 136.305 105.188 136.803H103.578C103.577 136.569 103.521 136.338 103.413 136.13C103.31 135.935 103.158 135.77 102.972 135.651C102.765 135.525 102.526 135.461 102.283 135.469C102.03 135.459 101.779 135.523 101.561 135.651C101.369 135.772 101.214 135.943 101.115 136.147C101.008 136.367 100.933 136.6 100.894 136.841C100.854 137.108 100.834 137.377 100.834 137.646V137.856C100.834 138.127 100.854 138.398 100.894 138.666C100.932 138.907 101.006 139.141 101.115 139.36C101.216 139.561 101.37 139.731 101.561 139.851C101.788 139.965 102.042 140.012 102.294 139.989Z" fill="#3D5281"/>
<path d="M106.395 140.368C106.392 140.246 106.414 140.126 106.459 140.013C106.505 139.9 106.573 139.798 106.659 139.712C106.755 139.622 106.868 139.552 106.991 139.507C107.114 139.461 107.245 139.441 107.376 139.448C107.507 139.441 107.638 139.461 107.761 139.506C107.885 139.551 107.997 139.622 108.092 139.712C108.179 139.798 108.247 139.9 108.292 140.013C108.338 140.126 108.36 140.246 108.357 140.368C108.36 140.487 108.338 140.606 108.292 140.716C108.247 140.826 108.179 140.925 108.092 141.007C107.997 141.098 107.885 141.168 107.761 141.214C107.638 141.259 107.507 141.279 107.376 141.272C107.245 141.278 107.114 141.258 106.991 141.213C106.868 141.167 106.755 141.097 106.659 141.007C106.573 140.925 106.505 140.826 106.459 140.716C106.414 140.606 106.392 140.487 106.395 140.368Z" fill="#3D5281"/>
<path d="M114.502 134.212L116.155 139.922L116.21 141.2H115.108L112.705 134.212H114.502ZM115.692 139.911L117.346 134.212H119.126L116.701 141.206H115.599L115.692 139.911Z" fill="#3D5281"/>
<path d="M123.049 141.327C122.56 141.337 122.075 141.249 121.621 141.068C121.207 140.911 120.831 140.667 120.519 140.352C120.222 140.033 119.991 139.659 119.841 139.25C119.684 138.825 119.606 138.374 119.61 137.921V137.662C119.618 137.179 119.705 136.701 119.869 136.246C120.011 135.827 120.234 135.439 120.524 135.105C120.808 134.79 121.156 134.538 121.544 134.366C121.959 134.194 122.406 134.107 122.856 134.113C123.305 134.104 123.752 134.189 124.167 134.361C124.534 134.516 124.859 134.756 125.115 135.061C125.374 135.386 125.561 135.761 125.667 136.163C125.799 136.616 125.864 137.086 125.859 137.558V138.274H120.42V137.095H124.217V136.968C124.213 136.712 124.16 136.46 124.063 136.224C123.973 136.001 123.82 135.809 123.622 135.673C123.393 135.53 123.126 135.459 122.856 135.469C122.624 135.463 122.396 135.52 122.194 135.634C122.002 135.749 121.841 135.91 121.726 136.103C121.597 136.323 121.506 136.563 121.456 136.814C121.392 137.114 121.36 137.421 121.362 137.728V137.987C121.359 138.264 121.4 138.54 121.483 138.803C121.556 139.041 121.676 139.263 121.836 139.454C121.988 139.632 122.176 139.777 122.387 139.878C122.627 139.982 122.886 140.034 123.148 140.032C123.485 140.036 123.818 139.964 124.123 139.823C124.419 139.673 124.677 139.458 124.878 139.194L125.738 140.087C125.575 140.324 125.376 140.534 125.149 140.71C124.88 140.919 124.578 141.082 124.256 141.19C123.864 141.301 123.456 141.348 123.049 141.327Z" fill="#3D5281"/>
<path d="M128.736 135.64V141.206H127.033V134.212H128.648L128.736 135.64ZM130.858 134.168V135.755L130.538 135.717C130.417 135.717 130.307 135.717 130.202 135.717C129.968 135.712 129.735 135.747 129.513 135.822C129.326 135.884 129.156 135.99 129.017 136.13C128.882 136.267 128.78 136.433 128.72 136.615C128.645 136.824 128.606 137.044 128.604 137.266L128.235 137.222C128.231 136.806 128.276 136.392 128.367 135.987C128.449 135.637 128.583 135.3 128.764 134.989C128.923 134.719 129.147 134.492 129.414 134.328C129.687 134.17 129.997 134.09 130.313 134.097C130.415 134.089 130.518 134.089 130.621 134.097C130.703 134.109 130.783 134.133 130.858 134.168Z" fill="#3D5281"/>
<path d="M131.768 132.388C131.765 132.27 131.787 132.152 131.833 132.043C131.878 131.934 131.946 131.835 132.032 131.754C132.226 131.582 132.479 131.493 132.738 131.506C132.998 131.493 133.253 131.582 133.449 131.754C133.533 131.837 133.6 131.935 133.644 132.044C133.689 132.153 133.71 132.27 133.708 132.388C133.711 132.505 133.69 132.621 133.645 132.73C133.6 132.838 133.534 132.936 133.449 133.016C133.254 133.19 132.999 133.281 132.738 133.27C132.479 133.281 132.225 133.19 132.032 133.016C131.946 132.936 131.878 132.839 131.832 132.731C131.787 132.622 131.765 132.506 131.768 132.388ZM133.598 134.218V141.206H131.889V134.212L133.598 134.218Z" fill="#3D5281"/>
<path d="M138.878 134.212V135.441H134.689V134.212H138.878ZM137.462 141.206H135.742V133.568C135.728 133.106 135.833 132.649 136.045 132.239C136.243 131.885 136.545 131.6 136.911 131.424C137.325 131.227 137.78 131.131 138.239 131.143C138.399 131.142 138.559 131.153 138.718 131.176C138.871 131.198 139.021 131.23 139.17 131.269V132.564C139.082 132.54 138.991 132.526 138.9 132.52C138.794 132.515 138.687 132.515 138.581 132.52C138.375 132.514 138.172 132.555 137.985 132.642C137.826 132.717 137.697 132.843 137.616 133C137.531 133.171 137.487 133.36 137.489 133.551L137.462 141.206Z" fill="#3D5281"/>
<path d="M141.05 134.212L142.637 139.36L142.913 141.162L141.739 141.377L139.209 134.212H141.05ZM141.976 140.423L143.85 134.212H145.679L142.874 142.259C142.808 142.431 142.725 142.615 142.626 142.81C142.518 143.02 142.383 143.214 142.224 143.388C142.044 143.577 141.828 143.729 141.59 143.835C141.301 143.959 140.989 144.02 140.675 144.011C140.537 144.013 140.398 144.002 140.262 143.978L139.881 143.896V142.617H140.036H140.185C140.396 142.624 140.606 142.594 140.807 142.529C140.964 142.479 141.102 142.383 141.204 142.253C141.317 142.104 141.403 141.936 141.458 141.757L141.976 140.423Z" fill="#3D5281"/>
<path d="M36.3164 131.799H39.7335C40.3622 131.782 40.988 131.891 41.5743 132.118C42.0582 132.309 42.4718 132.644 42.7593 133.077C43.0485 133.543 43.1925 134.084 43.1726 134.631C43.1821 135.068 43.0936 135.501 42.9136 135.899C42.7461 136.252 42.4967 136.56 42.1861 136.797C41.8518 137.041 41.4793 137.227 41.0838 137.349L40.5327 137.63H37.5179V136.23H39.7721C40.0863 136.24 40.3983 136.173 40.6815 136.037C40.9181 135.915 41.1107 135.722 41.2326 135.486C41.3567 135.244 41.4191 134.975 41.4145 134.703C41.4212 134.421 41.3607 134.141 41.2381 133.887C41.1187 133.649 40.9254 133.456 40.687 133.336C40.3956 133.201 40.0765 133.137 39.7556 133.149H38.1021V141.207H36.3219L36.3164 131.799ZM41.6074 141.207L39.4028 136.996H41.2822L43.4868 141.124V141.207H41.6074Z" fill="#3D5281"/>
<path d="M47.7299 141.327C47.2416 141.336 46.7564 141.248 46.3025 141.068C45.8963 140.91 45.5296 140.666 45.2277 140.352C44.9267 140.036 44.6957 139.66 44.5498 139.249C44.3883 138.825 44.3079 138.375 44.3128 137.921V137.662C44.3066 137.164 44.3849 136.668 44.5443 136.196C44.6868 135.776 44.9116 135.388 45.2057 135.055C45.4875 134.737 45.8355 134.485 46.2253 134.317C46.6405 134.143 47.087 134.057 47.537 134.063C47.9867 134.054 48.4333 134.139 48.8488 134.311C49.2157 134.466 49.5405 134.706 49.7967 135.011C50.0552 135.336 50.2429 135.712 50.3479 136.113C50.4831 136.566 50.5482 137.036 50.5408 137.508V138.224H45.0679V137.045H48.8653V136.918C48.8583 136.663 48.8061 136.411 48.711 136.174C48.6194 135.952 48.4664 135.761 48.2701 135.623C48.0408 135.48 47.774 135.409 47.504 135.419C47.2708 135.413 47.0403 135.47 46.8371 135.584C46.6451 135.698 46.4857 135.859 46.3741 136.053C46.2434 136.273 46.1503 136.513 46.0985 136.764C46.0362 137.065 46.0067 137.371 46.0104 137.679V137.938C46.0069 138.214 46.0478 138.49 46.1316 138.753C46.202 138.993 46.3223 139.214 46.4844 139.404C46.6348 139.584 46.8229 139.729 47.0355 139.828C47.2751 139.933 47.5344 139.986 47.7961 139.982C48.131 139.986 48.4626 139.915 48.7661 139.773C49.0638 139.624 49.3238 139.409 49.5267 139.145L50.3864 140.038C50.2192 140.273 50.0187 140.483 49.7912 140.66C49.5237 140.871 49.2216 141.033 48.8984 141.14C48.5216 141.265 48.127 141.329 47.7299 141.327Z" fill="#3D5281"/>
<path d="M53.3788 135.695V141.206H51.6758V134.212H53.2796L53.3788 135.695ZM53.1088 137.442H52.6293C52.628 136.973 52.6967 136.507 52.8332 136.059C52.9506 135.673 53.1374 135.313 53.3843 134.995C53.6187 134.706 53.9143 134.473 54.2496 134.312C54.5951 134.152 54.9715 134.071 55.3519 134.075C55.6624 134.07 55.9715 134.116 56.2668 134.212C56.5325 134.306 56.7723 134.461 56.9668 134.664C57.1752 134.898 57.3295 135.174 57.4187 135.474C57.5313 135.876 57.5833 136.292 57.573 136.709V141.206H55.859V136.709C55.8687 136.45 55.8216 136.193 55.7212 135.954C55.6376 135.78 55.495 135.641 55.3188 135.563C55.1142 135.48 54.8946 135.441 54.674 135.447C54.4369 135.441 54.202 135.494 53.9906 135.601C53.794 135.706 53.6242 135.855 53.4946 136.037C53.3617 136.232 53.2612 136.448 53.1969 136.676C53.1308 136.929 53.1011 137.191 53.1088 137.453V137.442Z" fill="#3D5281"/>
<path d="M62.4072 134.212V135.441H58.4004V134.212H62.4072ZM59.4751 132.492H61.1837V139.183C61.1752 139.347 61.2034 139.511 61.2663 139.663C61.2916 139.715 61.327 139.762 61.3705 139.801C61.414 139.84 61.4648 139.869 61.5199 139.889C61.6497 139.931 61.7856 139.951 61.9222 139.949C62.025 139.955 62.1281 139.955 62.2308 139.949L62.4678 139.911V141.189C62.3121 141.243 62.1515 141.282 61.9883 141.305C61.7898 141.338 61.5888 141.352 61.3876 141.349C61.0416 141.356 60.698 141.29 60.379 141.156C60.0899 141.024 59.8533 140.799 59.7066 140.517C59.5329 140.151 59.4515 139.748 59.4696 139.343L59.4751 132.492Z" fill="#3D5281"/>
<path d="M66.8223 131.286H68.5363V139.664L68.3655 141.207H66.8223V131.286ZM73.0226 137.635V137.773C73.0279 138.256 72.9705 138.738 72.8518 139.206C72.7505 139.602 72.5767 139.976 72.3392 140.308C72.1197 140.619 71.8286 140.872 71.4905 141.047C71.1225 141.228 70.7157 141.317 70.3055 141.306C69.9235 141.313 69.5453 141.228 69.2032 141.058C68.8831 140.887 68.609 140.641 68.404 140.341C68.1762 140.003 68.0015 139.631 67.886 139.239C67.7513 138.789 67.6536 138.328 67.5939 137.861V137.492C67.6536 137.024 67.7513 136.561 67.886 136.109C68.0037 135.718 68.1783 135.346 68.404 135.006C68.6083 134.708 68.8803 134.463 69.1977 134.29C69.5395 134.119 69.9179 134.034 70.3 134.042C70.7136 134.031 71.1238 134.12 71.496 134.301C71.8367 134.474 72.13 134.727 72.3502 135.039C72.5858 135.372 72.7577 135.746 72.8573 136.142C72.9795 136.63 73.0351 137.132 73.0226 137.635ZM71.3141 137.773V137.635C71.3135 137.353 71.2896 137.071 71.2424 136.792C71.1996 136.549 71.1217 136.313 71.011 136.092C70.9096 135.896 70.7573 135.73 70.57 135.613C70.3574 135.491 70.1148 135.432 69.8701 135.442C69.6371 135.435 69.4057 135.481 69.1922 135.574C69.01 135.662 68.8499 135.79 68.7237 135.949C68.5988 136.115 68.5036 136.301 68.4426 136.5C68.3738 136.728 68.3295 136.963 68.3104 137.2V138.208C68.3332 138.515 68.4038 138.816 68.5198 139.101C68.6249 139.354 68.7987 139.571 69.0213 139.73C69.2794 139.893 69.5813 139.974 69.8866 139.961C70.1271 139.97 70.3653 139.913 70.5756 139.796C70.762 139.685 70.9145 139.524 71.0165 139.333C71.1285 139.113 71.2048 138.877 71.2424 138.633C71.2939 138.349 71.3198 138.061 71.3196 137.773H71.3141Z" fill="#3D5281"/>
<path d="M74.2503 132.388C74.2478 132.27 74.2694 132.153 74.314 132.044C74.3586 131.935 74.425 131.836 74.5093 131.754C74.7048 131.582 74.96 131.493 75.2203 131.506C75.4788 131.494 75.732 131.583 75.9258 131.754C76.0101 131.836 76.0766 131.935 76.1211 132.044C76.1657 132.153 76.1874 132.27 76.1848 132.388C76.1879 132.505 76.1665 132.621 76.1219 132.73C76.0773 132.838 76.0105 132.936 75.9258 133.016C75.7325 133.189 75.4795 133.28 75.2203 133.27C74.9594 133.281 74.7043 133.19 74.5093 133.016C74.4247 132.936 74.3579 132.838 74.3132 132.73C74.2686 132.621 74.2472 132.505 74.2503 132.388ZM76.0746 134.218V141.206H74.366V134.212L76.0746 134.218Z" fill="#3D5281"/>
<path d="M79.5148 131.286V141.207H77.8008V131.286H79.5148Z" fill="#3D5281"/>
<path d="M82.9429 131.286V141.207H81.2344V131.286H82.9429Z" fill="#3D5281"/>
<path d="M91.0059 141.327C90.5176 141.337 90.0322 141.249 89.5784 141.068C89.1635 140.912 88.7874 140.668 88.4761 140.352C88.1788 140.033 87.9483 139.658 87.7982 139.249C87.6412 138.824 87.5627 138.374 87.5668 137.921V137.662C87.5605 137.164 87.6388 136.668 87.7982 136.196C87.9409 135.777 88.1636 135.389 88.4541 135.055C88.739 134.739 89.0886 134.487 89.4792 134.317C89.8924 134.143 90.3372 134.057 90.7854 134.063C91.2351 134.054 91.6819 134.138 92.0972 134.311C92.4656 134.466 92.7923 134.706 93.0506 135.011C93.307 135.338 93.4945 135.713 93.6018 136.113C93.7344 136.566 93.7994 137.036 93.7947 137.508V138.224H88.3163V137.045H92.1137V136.918C92.1094 136.663 92.0571 136.41 91.9594 136.174C91.8698 135.953 91.7188 135.761 91.524 135.623C91.2926 135.48 91.0241 135.409 90.7524 135.419C90.521 135.413 90.2924 135.47 90.091 135.584C89.899 135.698 89.7396 135.86 89.628 136.053C89.4956 136.272 89.4023 136.513 89.3525 136.764C89.2882 137.064 89.2568 137.371 89.2588 137.679V137.938C89.258 138.214 89.2989 138.489 89.38 138.753C89.4546 138.992 89.5764 139.213 89.7383 139.404C89.8876 139.585 90.076 139.73 90.2894 139.828C90.5273 139.933 90.7847 139.985 91.0445 139.982C91.3812 139.986 91.7145 139.915 92.02 139.773C92.3157 139.623 92.5738 139.408 92.7751 139.145L93.6348 140.038C93.4712 140.274 93.2723 140.484 93.0451 140.66C92.7769 140.87 92.4749 141.032 92.1523 141.14C91.7824 141.262 91.3955 141.325 91.0059 141.327Z" fill="#3D5281"/>
<path d="M98.2865 134.212V135.441H94.2852V134.212H98.2865ZM95.3544 132.492H97.0684V139.183C97.0599 139.347 97.0882 139.511 97.1511 139.663C97.1763 139.715 97.2117 139.762 97.2552 139.801C97.2988 139.84 97.3495 139.869 97.4046 139.889C97.5344 139.931 97.6704 139.952 97.807 139.949C97.9098 139.955 98.0128 139.955 98.1156 139.949L98.3526 139.911V141.189C98.1967 141.243 98.0362 141.281 97.8731 141.305C97.6728 141.338 97.4698 141.353 97.2668 141.349C96.9227 141.355 96.581 141.29 96.2638 141.156C95.9747 141.024 95.7381 140.799 95.5914 140.517C95.4158 140.151 95.3325 139.748 95.3489 139.343L95.3544 132.492Z" fill="#3D5281"/>
<path d="M102.294 139.989C102.517 139.992 102.738 139.943 102.939 139.845C103.125 139.754 103.283 139.615 103.396 139.443C103.514 139.264 103.577 139.056 103.578 138.842H105.188C105.183 139.297 105.043 139.741 104.785 140.115C104.525 140.495 104.169 140.801 103.755 141.003C103.31 141.226 102.819 141.337 102.322 141.328C101.838 141.339 101.356 141.247 100.911 141.058C100.524 140.887 100.183 140.628 99.9132 140.303C99.6464 139.977 99.4443 139.602 99.318 139.2C99.1876 138.757 99.1226 138.296 99.1251 137.834V137.624C99.1226 137.162 99.1876 136.701 99.318 136.257C99.4425 135.855 99.6447 135.48 99.9132 135.155C100.183 134.829 100.524 134.571 100.911 134.4C101.355 134.211 101.834 134.119 102.316 134.13C102.831 134.117 103.341 134.229 103.804 134.455C104.219 134.665 104.567 134.988 104.807 135.386C105.06 135.816 105.191 136.305 105.188 136.803H103.578C103.577 136.569 103.521 136.338 103.413 136.13C103.31 135.935 103.158 135.77 102.972 135.651C102.765 135.525 102.526 135.461 102.283 135.469C102.03 135.459 101.779 135.523 101.561 135.651C101.369 135.772 101.214 135.943 101.115 136.147C101.008 136.367 100.933 136.6 100.894 136.841C100.854 137.108 100.834 137.377 100.834 137.646V137.856C100.834 138.127 100.854 138.398 100.894 138.666C100.932 138.907 101.006 139.141 101.115 139.36C101.216 139.561 101.37 139.731 101.561 139.851C101.788 139.965 102.042 140.012 102.294 139.989Z" fill="#3D5281"/>
<path d="M106.395 140.368C106.392 140.246 106.414 140.126 106.459 140.013C106.505 139.9 106.573 139.798 106.659 139.712C106.755 139.622 106.868 139.552 106.991 139.507C107.114 139.461 107.245 139.441 107.376 139.448C107.507 139.441 107.638 139.461 107.761 139.506C107.885 139.551 107.997 139.622 108.092 139.712C108.179 139.798 108.247 139.9 108.292 140.013C108.338 140.126 108.36 140.246 108.357 140.368C108.36 140.487 108.338 140.606 108.292 140.716C108.247 140.826 108.179 140.925 108.092 141.007C107.997 141.098 107.885 141.168 107.761 141.214C107.638 141.259 107.507 141.279 107.376 141.272C107.245 141.278 107.114 141.258 106.991 141.213C106.868 141.167 106.755 141.097 106.659 141.007C106.573 140.925 106.505 140.826 106.459 140.716C106.414 140.606 106.392 140.487 106.395 140.368Z" fill="#3D5281"/>
<path d="M114.502 134.212L116.155 139.922L116.21 141.2H115.108L112.705 134.212H114.502ZM115.692 139.911L117.346 134.212H119.126L116.701 141.206H115.599L115.692 139.911Z" fill="#3D5281"/>
<path d="M123.049 141.327C122.56 141.337 122.075 141.249 121.621 141.068C121.207 140.911 120.831 140.667 120.519 140.352C120.222 140.033 119.991 139.659 119.841 139.25C119.684 138.825 119.606 138.374 119.61 137.921V137.662C119.618 137.179 119.705 136.701 119.869 136.246C120.011 135.827 120.234 135.439 120.524 135.105C120.808 134.79 121.156 134.538 121.544 134.366C121.959 134.194 122.406 134.107 122.856 134.113C123.305 134.104 123.752 134.189 124.167 134.361C124.534 134.516 124.859 134.756 125.115 135.061C125.374 135.386 125.561 135.761 125.667 136.163C125.799 136.616 125.864 137.086 125.859 137.558V138.274H120.42V137.095H124.217V136.968C124.213 136.712 124.16 136.46 124.063 136.224C123.973 136.001 123.82 135.809 123.622 135.673C123.393 135.53 123.126 135.459 122.856 135.469C122.624 135.463 122.396 135.52 122.194 135.634C122.002 135.749 121.841 135.91 121.726 136.103C121.597 136.323 121.506 136.563 121.456 136.814C121.392 137.114 121.36 137.421 121.362 137.728V137.987C121.359 138.264 121.4 138.54 121.483 138.803C121.556 139.041 121.676 139.263 121.836 139.454C121.988 139.632 122.176 139.777 122.387 139.878C122.627 139.982 122.886 140.034 123.148 140.032C123.485 140.036 123.818 139.964 124.123 139.823C124.419 139.673 124.677 139.458 124.878 139.194L125.738 140.087C125.575 140.324 125.376 140.534 125.149 140.71C124.88 140.919 124.578 141.082 124.256 141.19C123.864 141.301 123.456 141.348 123.049 141.327Z" fill="#3D5281"/>
<path d="M128.736 135.64V141.206H127.033V134.212H128.648L128.736 135.64ZM130.858 134.168V135.755L130.538 135.717C130.417 135.717 130.307 135.717 130.202 135.717C129.968 135.712 129.735 135.747 129.513 135.822C129.326 135.884 129.156 135.99 129.017 136.13C128.882 136.267 128.78 136.433 128.72 136.615C128.645 136.824 128.606 137.044 128.604 137.266L128.235 137.222C128.231 136.806 128.276 136.392 128.367 135.987C128.449 135.637 128.583 135.3 128.764 134.989C128.923 134.719 129.147 134.492 129.414 134.328C129.687 134.17 129.997 134.09 130.313 134.097C130.415 134.089 130.518 134.089 130.621 134.097C130.703 134.109 130.783 134.133 130.858 134.168Z" fill="#3D5281"/>
<path d="M131.768 132.388C131.765 132.27 131.787 132.152 131.833 132.043C131.878 131.934 131.946 131.835 132.032 131.754C132.226 131.582 132.479 131.493 132.738 131.506C132.998 131.493 133.253 131.582 133.449 131.754C133.533 131.837 133.6 131.935 133.644 132.044C133.689 132.153 133.71 132.27 133.708 132.388C133.711 132.505 133.69 132.621 133.645 132.73C133.6 132.838 133.534 132.936 133.449 133.016C133.254 133.19 132.999 133.281 132.738 133.27C132.479 133.281 132.225 133.19 132.032 133.016C131.946 132.936 131.878 132.839 131.832 132.731C131.787 132.622 131.765 132.506 131.768 132.388ZM133.598 134.218V141.206H131.889V134.212L133.598 134.218Z" fill="#3D5281"/>
<path d="M138.878 134.212V135.441H134.689V134.212H138.878ZM137.462 141.206H135.742V133.568C135.728 133.106 135.833 132.649 136.045 132.239C136.243 131.885 136.545 131.6 136.911 131.424C137.325 131.227 137.78 131.131 138.239 131.143C138.399 131.142 138.559 131.153 138.718 131.176C138.871 131.198 139.021 131.23 139.17 131.269V132.564C139.082 132.54 138.991 132.526 138.9 132.52C138.794 132.515 138.687 132.515 138.581 132.52C138.375 132.514 138.172 132.555 137.985 132.642C137.826 132.717 137.697 132.843 137.616 133C137.531 133.171 137.487 133.36 137.489 133.551L137.462 141.206Z" fill="#3D5281"/>
<path d="M141.05 134.212L142.637 139.36L142.913 141.162L141.739 141.377L139.209 134.212H141.05ZM141.976 140.423L143.85 134.212H145.679L142.874 142.259C142.808 142.431 142.725 142.615 142.626 142.81C142.518 143.02 142.383 143.214 142.224 143.388C142.044 143.577 141.828 143.729 141.59 143.835C141.301 143.959 140.989 144.02 140.675 144.011C140.537 144.013 140.398 144.002 140.262 143.978L139.881 143.896V142.617H140.036H140.185C140.396 142.624 140.606 142.594 140.807 142.529C140.964 142.479 141.102 142.383 141.204 142.253C141.317 142.104 141.403 141.936 141.458 141.757L141.976 140.423Z" fill="#3D5281"/>
</g>
<defs>
<linearGradient id="paint0_linear_386_14388" x1="90.5768" y1="220" x2="90.5768" y2="131.63" gradientUnits="userSpaceOnUse">
<stop stop-color="#9AA7C8"/>
<stop offset="0.32" stop-color="#7383AD"/>
<stop offset="0.5" stop-color="#5B6D9C"/>
</linearGradient>
<linearGradient id="paint1_linear_386_14388" x1="0.000909308" y1="140.501" x2="33.9624" y2="140.501" gradientUnits="userSpaceOnUse">
<stop stop-color="#FFB200"/>
<stop offset="0.2" stop-color="#FFB800"/>
<stop offset="0.35" stop-color="#F3AB00"/>
<stop offset="0.61" stop-color="#D38A00"/>
<stop offset="0.79" stop-color="#BA7000"/>
</linearGradient>
<linearGradient id="paint2_linear_386_14388" x1="0.00195312" y1="116.217" x2="33.9689" y2="116.217" gradientUnits="userSpaceOnUse">
<stop stop-color="#FFB000"/>
<stop offset="0.04" stop-color="#FFC227"/>
<stop offset="0.09" stop-color="#FFD654"/>
<stop offset="0.14" stop-color="#FFE574"/>
<stop offset="0.18" stop-color="#FFEE88"/>
<stop offset="0.2" stop-color="#FFF18F"/>
<stop offset="0.24" stop-color="#FFEF82"/>
<stop offset="0.3" stop-color="#FFE961"/>
<stop offset="0.39" stop-color="#FFE02B"/>
<stop offset="0.41" stop-color="#FFDE1D"/>
<stop offset="0.57" stop-color="#ECB60E"/>
<stop offset="0.71" stop-color="#DF9C04"/>
<stop offset="0.79" stop-color="#DA9200"/>
</linearGradient>
<linearGradient id="paint3_linear_386_14388" x1="0.00195312" y1="163.621" x2="33.9634" y2="163.621" gradientUnits="userSpaceOnUse">
<stop stop-color="#D48400"/>
<stop offset="0.05" stop-color="#DA9000"/>
<stop offset="0.15" stop-color="#E3A400"/>
<stop offset="0.22" stop-color="#E6AB00"/>
<stop offset="0.27" stop-color="#DCA000"/>
<stop offset="0.5" stop-color="#B87500"/>
<stop offset="0.68" stop-color="#A15B00"/>
<stop offset="0.79" stop-color="#995100"/>
</linearGradient>
<linearGradient id="paint4_linear_386_14388" x1="181.145" y1="140.501" x2="147.184" y2="140.501" gradientUnits="userSpaceOnUse">
<stop stop-color="#FFB200"/>
<stop offset="0.2" stop-color="#FFB800"/>
<stop offset="0.35" stop-color="#F3AB00"/>
<stop offset="0.61" stop-color="#D38A00"/>
<stop offset="0.79" stop-color="#BA7000"/>
</linearGradient>
<linearGradient id="paint5_linear_386_14388" x1="181.145" y1="116.217" x2="147.184" y2="116.217" gradientUnits="userSpaceOnUse">
<stop stop-color="#FFB000"/>
<stop offset="0.04" stop-color="#FFC227"/>
<stop offset="0.09" stop-color="#FFD654"/>
<stop offset="0.14" stop-color="#FFE574"/>
<stop offset="0.18" stop-color="#FFEE88"/>
<stop offset="0.2" stop-color="#FFF18F"/>
<stop offset="0.24" stop-color="#FFEF82"/>
<stop offset="0.3" stop-color="#FFE961"/>
<stop offset="0.39" stop-color="#FFE02B"/>
<stop offset="0.41" stop-color="#FFDE1D"/>
<stop offset="0.57" stop-color="#ECB60E"/>
<stop offset="0.71" stop-color="#DF9C04"/>
<stop offset="0.79" stop-color="#DA9200"/>
</linearGradient>
<linearGradient id="paint6_linear_386_14388" x1="181.146" y1="163.621" x2="147.185" y2="163.621" gradientUnits="userSpaceOnUse">
<stop stop-color="#D48400"/>
<stop offset="0.05" stop-color="#DA9000"/>
<stop offset="0.15" stop-color="#E3A400"/>
<stop offset="0.22" stop-color="#E6AB00"/>
<stop offset="0.27" stop-color="#DCA000"/>
<stop offset="0.5" stop-color="#B87500"/>
<stop offset="0.68" stop-color="#A15B00"/>
<stop offset="0.79" stop-color="#995100"/>
</linearGradient>
<linearGradient id="paint7_linear_386_14388" x1="21.8594" y1="159.09" x2="43.591" y2="159.09" gradientUnits="userSpaceOnUse">
<stop stop-color="#995100"/>
<stop offset="0.28" stop-color="#BB7000"/>
<stop offset="0.52" stop-color="#D58800"/>
<stop offset="0.74" stop-color="#D68A00"/>
<stop offset="0.82" stop-color="#DB9100"/>
<stop offset="0.87" stop-color="#E49C00"/>
<stop offset="0.91" stop-color="#F0AD00"/>
<stop offset="0.95" stop-color="#FFC100"/>
<stop offset="0.96" stop-color="#F0AC00"/>
<stop offset="0.99" stop-color="#DC9200"/>
<stop offset="1" stop-color="#D58800"/>
</linearGradient>
<linearGradient id="paint8_linear_386_14388" x1="159.287" y1="159.09" x2="137.555" y2="159.09" gradientUnits="userSpaceOnUse">
<stop stop-color="#995100"/>
<stop offset="0.28" stop-color="#BB7000"/>
<stop offset="0.52" stop-color="#D58800"/>
<stop offset="0.74" stop-color="#D68A00"/>
<stop offset="0.82" stop-color="#DB9100"/>
<stop offset="0.87" stop-color="#E49C00"/>
<stop offset="0.91" stop-color="#F0AD00"/>
<stop offset="0.95" stop-color="#FFC100"/>
<stop offset="0.96" stop-color="#F0AC00"/>
<stop offset="0.99" stop-color="#DC9200"/>
<stop offset="1" stop-color="#D58800"/>
</linearGradient>
<linearGradient id="paint9_linear_386_14388" x1="55.1266" y1="25.3249" x2="128.401" y2="182.461" gradientUnits="userSpaceOnUse">
<stop stop-color="#CED6E7"/>
<stop offset="0.66" stop-color="#C1CBDD"/>
<stop offset="1" stop-color="#B9C3D7"/>
</linearGradient>
<linearGradient id="paint10_linear_386_14388" x1="51.9802" y1="17.1907" x2="131.824" y2="188.426" gradientUnits="userSpaceOnUse">
<stop stop-color="#9AA7C6"/>
<stop offset="0.44" stop-color="#7383A9"/>
<stop offset="1" stop-color="#3D5281"/>
</linearGradient>
<linearGradient id="paint11_linear_386_14388" x1="54.3386" y1="23.291" x2="129.256" y2="183.955" gradientUnits="userSpaceOnUse">
<stop stop-color="#5B6D9C"/>
<stop offset="0.36" stop-color="#7383AD"/>
<stop offset="1" stop-color="#9AA7C8"/>
</linearGradient>
<linearGradient id="paint12_linear_386_14388" x1="51.9802" y1="17.1907" x2="131.824" y2="188.426" gradientUnits="userSpaceOnUse">
<stop stop-color="#B7C2D9"/>
<stop offset="0.18" stop-color="#909EBD"/>
<stop offset="0.53" stop-color="#3D5281"/>
<stop offset="1" stop-color="#2E3E67"/>
</linearGradient>
<linearGradient id="paint13_linear_386_14388" x1="90.5761" y1="64.5556" x2="90.5761" y2="34.8545" gradientUnits="userSpaceOnUse">
<stop stop-color="#9AA7C6" stop-opacity="0"/>
<stop offset="0.39" stop-color="#9AA7C6" stop-opacity="0.01"/>
<stop offset="0.53" stop-color="#9AA7C6" stop-opacity="0.04"/>
<stop offset="0.63" stop-color="#9AA7C6" stop-opacity="0.1"/>
<stop offset="0.72" stop-color="#9AA7C6" stop-opacity="0.19"/>
<stop offset="0.79" stop-color="#9AA7C6" stop-opacity="0.3"/>
<stop offset="0.85" stop-color="#9AA7C6" stop-opacity="0.44"/>
<stop offset="0.9" stop-color="#9AA7C6" stop-opacity="0.6"/>
<stop offset="0.95" stop-color="#9AA7C6" stop-opacity="0.78"/>
<stop offset="1" stop-color="#9AA7C6"/>
</linearGradient>
<linearGradient id="paint14_linear_386_14388" x1="90.5768" y1="151.708" x2="90.5768" y2="137.753" gradientUnits="userSpaceOnUse">
<stop stop-color="#BA7000" stop-opacity="0"/>
<stop offset="0.21" stop-color="#BA7000" stop-opacity="0.02"/>
<stop offset="0.36" stop-color="#BA7000" stop-opacity="0.07"/>
<stop offset="0.49" stop-color="#BA7000" stop-opacity="0.15"/>
<stop offset="0.61" stop-color="#BA7000" stop-opacity="0.27"/>
<stop offset="0.72" stop-color="#BA7000" stop-opacity="0.42"/>
<stop offset="0.83" stop-color="#BA7000" stop-opacity="0.61"/>
<stop offset="0.93" stop-color="#BA7000" stop-opacity="0.83"/>
<stop offset="1" stop-color="#BA7000"/>
</linearGradient>
<linearGradient id="paint15_linear_386_14388" x1="85.9575" y1="173.969" x2="93.8224" y2="190.834" gradientUnits="userSpaceOnUse">
<stop stop-color="white"/>
<stop offset="1" stop-color="#E1E8F1"/>
</linearGradient>
<linearGradient id="paint16_linear_386_14388" x1="67.7199" y1="172.222" x2="73.055" y2="183.663" gradientUnits="userSpaceOnUse">
<stop stop-color="white"/>
<stop offset="1" stop-color="#E1E8F1"/>
</linearGradient>
<linearGradient id="paint17_linear_386_14388" x1="107.165" y1="172.222" x2="112.506" y2="183.663" gradientUnits="userSpaceOnUse">
<stop stop-color="white"/>
<stop offset="1" stop-color="#E1E8F1"/>
</linearGradient>
<linearGradient id="paint18_linear_386_14388" x1="68.4919" y1="0.964502" x2="112.655" y2="95.673" gradientUnits="userSpaceOnUse">
<stop stop-color="#CED6E7"/>
<stop offset="0.66" stop-color="#C1CBDD"/>
<stop offset="1" stop-color="#B9C3D7"/>
</linearGradient>
<linearGradient id="paint19_linear_386_14388" x1="73.4796" y1="11.6571" x2="107.673" y2="84.9813" gradientUnits="userSpaceOnUse">
<stop offset="0.11" stop-color="white"/>
<stop offset="0.49" stop-color="#FAFBFD"/>
<stop offset="0.95" stop-color="#EBF0F6"/>
<stop offset="1" stop-color="#E9EEF5"/>
</linearGradient>
<linearGradient id="paint20_linear_386_14388" x1="68.4919" y1="0.964502" x2="112.655" y2="95.673" gradientUnits="userSpaceOnUse">
<stop stop-color="#9AA7C6"/>
<stop offset="0.44" stop-color="#7383A9"/>
<stop offset="1" stop-color="#3D5281"/>
</linearGradient>
<linearGradient id="paint21_linear_386_14388" x1="70.7345" y1="5.77643" x2="110.411" y2="90.862" gradientUnits="userSpaceOnUse">
<stop stop-color="#5B6D9C"/>
<stop offset="0.36" stop-color="#7383AD"/>
<stop offset="1" stop-color="#9AA7C8"/>
</linearGradient>
<linearGradient id="paint22_linear_386_14388" x1="68.4919" y1="0.964502" x2="112.655" y2="95.673" gradientUnits="userSpaceOnUse">
<stop stop-color="#B7C2D9"/>
<stop offset="0.18" stop-color="#909EBD"/>
<stop offset="0.53" stop-color="#3D5281"/>
<stop offset="1" stop-color="#2E3E67"/>
</linearGradient>
<linearGradient id="paint23_linear_386_14388" x1="21.8594" y1="130.509" x2="159.287" y2="130.509" gradientUnits="userSpaceOnUse">
<stop stop-color="#D58800"/>
<stop offset="0.01" stop-color="#DD9A0E"/>
<stop offset="0.03" stop-color="#F0C22C"/>
<stop offset="0.04" stop-color="#FBDA3F"/>
<stop offset="0.05" stop-color="#FFE346"/>
<stop offset="0.1" stop-color="#FFB200"/>
<stop offset="0.9" stop-color="#FFB200"/>
<stop offset="0.95" stop-color="#FFE346"/>
<stop offset="0.96" stop-color="#FBDA3F"/>
<stop offset="0.97" stop-color="#F0C22C"/>
<stop offset="0.99" stop-color="#DD9A0E"/>
<stop offset="1" stop-color="#D58800"/>
</linearGradient>
<linearGradient id="paint24_linear_386_14388" x1="21.8594" y1="154.831" x2="159.287" y2="154.831" gradientUnits="userSpaceOnUse">
<stop stop-color="#CF7400"/>
<stop offset="0.02" stop-color="#E89818"/>
<stop offset="0.04" stop-color="#F9B028"/>
<stop offset="0.05" stop-color="#FFB92E"/>
<stop offset="0.1" stop-color="#DA9200"/>
<stop offset="0.9" stop-color="#DA9200"/>
<stop offset="0.95" stop-color="#FFB92E"/>
<stop offset="0.96" stop-color="#F9B028"/>
<stop offset="0.98" stop-color="#E89818"/>
<stop offset="1" stop-color="#CF7400"/>
</linearGradient>
<linearGradient id="paint25_linear_386_14388" x1="21.8594" y1="106.187" x2="159.287" y2="106.187" gradientUnits="userSpaceOnUse">
<stop stop-color="#FFB710"/>
<stop offset="0.02" stop-color="#FFD046"/>
<stop offset="0.03" stop-color="#FFE26E"/>
<stop offset="0.04" stop-color="#FFED86"/>
<stop offset="0.05" stop-color="#FFF18F"/>
<stop offset="0.1" stop-color="#FFDE1D"/>
<stop offset="0.9" stop-color="#FFDE1D"/>
<stop offset="0.95" stop-color="#FFF18F"/>
<stop offset="0.96" stop-color="#FFED86"/>
<stop offset="0.97" stop-color="#FFE26E"/>
<stop offset="0.98" stop-color="#FFD046"/>
<stop offset="1" stop-color="#FFB000"/>
</linearGradient>
<clipPath id="clip0_386_14388">
<rect width="181.15" height="220" fill="white"/>
</clipPath>
<clipPath id="clip1_386_14388">
<rect width="48" height="38.264" fill="white" transform="translate(66.5762 29.1895)"/>
</clipPath>
</defs>
</svg>