<svg width="250" height="250" viewBox="0 0 250 250" fill="none" xmlns="http://www.w3.org/2000/svg">
<g clip-path="url(#clip0_385_13293)">
<path d="M250.002 125.001C250.002 55.9645 194.037 0 125.001 0C55.9645 0 0 55.9645 0 125.001C0 156.576 11.7177 185.407 31.0355 207.409C31.0955 207.478 31.1607 207.543 31.2119 207.612C32.1276 208.65 33.0611 209.672 34.0121 210.678C34.2472 210.924 34.4823 211.168 34.7175 211.41C35.712 212.447 36.7154 213.475 37.7434 214.477L37.9938 214.72C38.5193 215.231 39.0483 215.738 39.5809 216.24L39.8524 216.494C42.2154 218.693 44.66 220.801 47.1863 222.816L47.2428 222.862C47.8188 223.318 48.399 223.77 48.9832 224.218L49.3518 224.5C49.9137 224.928 50.4798 225.351 51.0499 225.771L51.4326 226.05C52.0251 226.482 52.6176 226.91 53.2171 227.332L53.2418 227.348C55.2121 228.732 57.2241 230.06 59.2779 231.331L59.5441 231.497C60.1378 231.864 60.7362 232.225 61.3393 232.58L61.8506 232.883C62.4384 233.226 63.0262 233.566 63.614 233.902L64.1166 234.182C64.7338 234.535 65.351 234.87 65.977 235.203L66.0722 235.255C68.1447 236.366 70.252 237.418 72.3939 238.411L72.8647 238.631C73.4713 238.91 74.0832 239.182 74.6951 239.451C74.912 239.548 75.1307 239.644 75.3493 239.737C75.9501 239.999 76.5549 240.256 77.1638 240.508L77.7881 240.763C78.4247 241.023 79.063 241.282 79.7049 241.53L79.8389 241.582C82.0079 242.43 84.2092 243.214 86.4428 243.934L87.0776 244.14C87.6983 244.338 88.3214 244.529 88.9468 244.715C89.1989 244.793 89.4529 244.867 89.7068 244.943C90.3298 245.124 90.9547 245.3 91.5813 245.472L92.2866 245.66C92.9485 245.84 93.6115 246.017 94.2757 246.189L94.3533 246.207C95.6547 246.537 96.9684 246.838 98.2856 247.126L98.8482 247.249C98.9998 247.281 99.1515 247.318 99.3049 247.35C100.446 247.588 101.597 247.806 102.747 248.014C103.038 248.066 103.331 248.111 103.629 248.163C104.66 248.341 105.696 248.506 106.738 248.658C107.124 248.714 107.508 248.771 107.896 248.824C109.206 249 110.518 249.176 111.841 249.309L111.978 249.325C112.955 249.426 113.935 249.514 114.918 249.591C115.018 249.591 115.115 249.61 115.216 249.617C116.136 249.69 117.062 249.746 117.99 249.794L118.469 249.824C119.379 249.871 120.294 249.903 121.21 249.929C121.386 249.929 121.562 249.945 121.739 249.951C122.825 249.978 123.916 249.992 125.011 249.993C126.385 249.993 127.752 249.963 129.115 249.919L129.7 249.896C130.901 249.85 132.097 249.788 133.289 249.709C133.416 249.7 133.541 249.697 133.666 249.69C133.934 249.67 134.195 249.64 134.463 249.621C135.445 249.547 136.424 249.462 137.401 249.367C137.805 249.326 138.207 249.288 138.607 249.245C139.912 249.102 141.213 248.949 142.506 248.767L142.647 248.748C145.557 248.338 148.432 247.828 151.274 247.219L151.326 247.209C153.465 246.75 155.581 246.238 157.675 245.671C159.768 245.104 161.842 244.486 163.896 243.816L163.982 243.788C166.703 242.895 169.382 241.913 172.02 240.839L172.129 240.795C176.251 239.116 180.279 237.217 184.198 235.106C184.978 234.687 185.754 234.258 186.525 233.821C188.065 232.949 189.585 232.044 191.085 231.107L191.179 231.049C192.563 230.183 193.924 229.286 195.272 228.367C195.675 228.092 196.072 227.808 196.473 227.529C197.049 227.127 197.631 226.734 198.201 226.323C198.664 225.988 199.119 225.641 199.578 225.299C199.804 225.122 200.033 224.963 200.257 224.794C201.49 223.863 202.705 222.91 203.902 221.934C204.143 221.736 204.383 221.535 204.623 221.336C205.857 220.32 207.065 219.291 208.254 218.229C208.291 218.196 208.33 218.164 208.367 218.129C210.441 216.27 212.453 214.344 214.403 212.35C214.507 212.241 214.612 212.133 214.718 212.026C216.616 210.072 218.447 208.057 220.213 205.982C220.345 205.827 220.476 205.672 220.606 205.515C221.312 204.678 222.005 203.826 222.691 202.971C222.84 202.784 222.996 202.604 223.144 202.415C223.292 202.226 223.454 202.006 223.613 201.803C224.083 201.201 224.546 200.596 225.001 199.987C225.187 199.737 225.38 199.491 225.567 199.239C226.225 198.347 226.871 197.446 227.506 196.536C227.573 196.441 227.644 196.347 227.711 196.25C242.26 175.343 250.041 150.473 250.002 125.001Z" fill="#F9C7C3"/>
<path d="M227.698 196.257L221.065 193.517L177.257 175.418L158.918 167.835L151.467 127.662C151.605 127.224 151.728 126.78 151.852 126.332C156.477 126.732 162.055 124.431 166.423 119.843C172.868 113.075 174.233 103.914 169.47 99.3789C167.237 97.2628 164.051 96.5398 160.635 97.06L162.848 92.7627C163.806 90.7654 164.609 88.6973 165.25 86.5767C166.627 87.1516 168.058 87.5887 169.521 87.8816C175.924 89.1812 181.633 87.6718 182.275 84.51C182.87 81.5775 178.888 78.2553 173.194 76.7512C178.308 73.205 181.045 68.3857 179.343 65.7812C177.579 63.0797 171.714 63.7868 166.244 67.3682C166.068 67.4881 165.892 67.6151 165.715 67.7385C161.674 52.9261 147.44 41.9931 132.082 37.9603C129.403 37.2687 126.65 36.8969 123.883 36.8529C122.923 33.2096 121.149 29.8318 118.693 26.9744C116.238 24.117 113.166 21.8546 109.708 20.3579C106.251 18.8612 102.499 18.1693 98.7347 18.3345C94.9708 18.4996 91.2936 19.5175 87.9805 21.3112C84.6675 23.105 81.8051 25.6278 79.6093 28.6893C77.4136 31.7507 75.9418 35.2709 75.3052 38.9843C74.6685 42.6976 74.8835 46.507 75.934 50.1251C76.9845 53.7431 78.843 57.0754 81.3694 59.8703C79.4915 63.1019 78.059 66.5725 77.1108 70.1879L65.1321 115.891C63.1833 123.327 64.2683 131.233 68.1484 137.869C72.0285 144.505 78.3858 149.328 85.8219 151.277L91.7998 152.843C91.5793 153.64 91.8721 154.571 92.9036 154.837C93.1576 154.904 93.415 154.961 93.6707 155.022L97.8711 177.677L80.3043 185.49L68.9093 190.558L31.0283 207.411C31.0883 207.48 31.1535 207.545 31.2047 207.614C32.1204 208.652 33.0539 209.674 34.0049 210.68C34.24 210.926 34.4751 211.17 34.7103 211.412C35.7048 212.449 36.7082 213.477 37.7362 214.478L37.9866 214.722C38.5121 215.233 39.0411 215.74 39.5737 216.242L39.8452 216.496C42.2082 218.695 44.6528 220.802 47.1791 222.817L47.2356 222.863C47.8116 223.319 48.3918 223.771 48.976 224.219L49.3446 224.501C49.9065 224.929 50.4725 225.353 51.0427 225.773L51.4254 226.051C52.0179 226.483 52.6104 226.912 53.2099 227.333L53.2346 227.349C55.2049 228.734 57.2169 230.062 59.2706 231.333L59.5369 231.499C60.1306 231.865 60.729 232.226 61.332 232.581L61.8434 232.885C62.4312 233.228 63.019 233.568 63.6068 233.904L64.1094 234.184C64.7266 234.537 65.3437 234.872 65.9697 235.205L66.065 235.256C68.1375 236.367 70.2448 237.419 72.3867 238.413L72.8575 238.633C73.4641 238.912 74.076 239.183 74.6879 239.453C74.9048 239.55 75.1235 239.645 75.3421 239.739C75.9428 240.001 76.5477 240.258 77.1566 240.509L77.7809 240.765C78.4175 241.024 79.0558 241.284 79.6977 241.532L79.8317 241.583C82.0054 242.431 84.209 243.214 86.4426 243.934L87.0774 244.14C87.6981 244.338 88.3212 244.529 88.9466 244.715C89.1988 244.793 89.4527 244.867 89.7066 244.943C90.3297 245.124 90.9545 245.3 91.5811 245.472L92.2865 245.66C92.9483 245.84 93.6113 246.016 94.2755 246.189L94.3531 246.207C95.6545 246.537 96.9682 246.838 98.2855 247.126L98.848 247.249C98.9996 247.281 99.1513 247.318 99.3047 247.35C100.446 247.588 101.597 247.806 102.747 248.014C103.038 248.066 103.331 248.111 103.629 248.162C104.66 248.341 105.696 248.506 106.737 248.658C107.124 248.714 107.508 248.771 107.896 248.824C109.206 249 110.518 249.176 111.841 249.309L111.978 249.325C112.955 249.426 113.935 249.514 114.918 249.591C115.018 249.591 115.115 249.61 115.216 249.617C116.136 249.69 117.062 249.746 117.99 249.794L118.469 249.824C119.379 249.871 120.294 249.903 121.209 249.929C121.386 249.929 121.562 249.945 121.738 249.951C122.827 249.978 123.918 249.992 125.011 249.993C126.385 249.993 127.752 249.963 129.115 249.919L129.7 249.896C130.9 249.85 132.097 249.788 133.289 249.709C133.416 249.7 133.541 249.697 133.666 249.69C133.934 249.67 134.195 249.64 134.463 249.621C135.445 249.547 136.424 249.462 137.401 249.367C137.805 249.326 138.207 249.288 138.607 249.245C139.912 249.102 141.213 248.949 142.506 248.767L142.647 248.748C145.556 248.338 148.432 247.828 151.273 247.219L151.326 247.208C153.465 246.75 155.581 246.237 157.674 245.671C159.768 245.104 161.842 244.486 163.896 243.816L163.982 243.788C166.702 242.895 169.382 241.912 172.02 240.839L172.129 240.795C176.251 239.116 180.279 237.217 184.197 235.106C184.978 234.687 185.754 234.258 186.525 233.821C188.065 232.949 189.585 232.044 191.085 231.107L191.179 231.049C192.563 230.183 193.924 229.285 195.272 228.367C195.675 228.092 196.072 227.808 196.472 227.529C197.049 227.127 197.631 226.734 198.2 226.323C198.664 225.988 199.119 225.641 199.578 225.298C199.803 225.122 200.033 224.963 200.257 224.794C201.49 223.863 202.705 222.91 203.901 221.934C204.143 221.736 204.383 221.535 204.623 221.336C205.857 220.32 207.065 219.291 208.254 218.229C208.291 218.196 208.329 218.164 208.366 218.129C210.441 216.27 212.453 214.344 214.402 212.35C214.506 212.241 214.612 212.133 214.718 212.026C216.615 210.072 218.447 208.057 220.213 205.982C220.345 205.827 220.476 205.672 220.606 205.515C221.311 204.677 222.004 203.826 222.69 202.971C222.84 202.784 222.995 202.604 223.144 202.415C223.292 202.226 223.454 202.006 223.613 201.803C224.083 201.201 224.545 200.596 225 199.987C225.187 199.736 225.379 199.491 225.566 199.239C226.225 198.347 226.871 197.446 227.506 196.536C227.573 196.441 227.644 196.347 227.711 196.25L227.698 196.257Z" fill="#DC814A"/>
<path d="M227.698 196.257L221.065 193.517L177.257 175.418L158.918 167.835L160.78 177.886C160.78 177.906 160.792 177.925 160.796 177.944C161.644 182.519 148.672 188.759 131.821 191.875C114.971 194.991 100.622 193.833 99.7738 189.262C99.7152 188.91 99.7321 188.549 99.8232 188.204L97.8711 177.682L80.3043 185.495L68.9093 190.563L31.0283 207.411C31.0883 207.479 31.1535 207.545 31.2047 207.613C32.1204 208.651 33.0539 209.674 34.0049 210.68C34.24 210.926 34.4751 211.169 34.7103 211.412C35.7048 212.449 36.7082 213.477 37.7362 214.478L37.9866 214.722C38.5121 215.233 39.0411 215.74 39.5737 216.242L39.8452 216.496C42.2082 218.695 44.6528 220.802 47.1791 222.817L47.2356 222.863C47.8116 223.319 48.3918 223.771 48.976 224.219L49.3446 224.501C49.9065 224.929 50.4725 225.353 51.0427 225.773L51.4254 226.051C52.0179 226.483 52.6104 226.912 53.2099 227.333L53.2346 227.349C55.2049 228.734 57.2169 230.062 59.2706 231.333L59.5369 231.498C60.1306 231.865 60.729 232.226 61.332 232.581L61.8434 232.884C62.4312 233.228 63.019 233.567 63.6068 233.904L64.1094 234.184C64.7266 234.537 65.3437 234.872 65.9697 235.205L66.065 235.256C68.1375 236.367 70.2448 237.419 72.3867 238.413L72.8575 238.633C73.4641 238.912 74.076 239.183 74.6879 239.453C74.9048 239.55 75.1235 239.645 75.3421 239.739C75.9428 240.001 76.5477 240.258 77.1566 240.509L77.7809 240.765C78.4175 241.024 79.0558 241.283 79.6977 241.532L79.8317 241.583C82.0054 242.431 84.209 243.214 86.4426 243.934L87.0774 244.14C87.6981 244.338 88.3212 244.529 88.9466 244.715C89.1988 244.793 89.4527 244.867 89.7066 244.942C90.3297 245.123 90.9545 245.3 91.5811 245.471L92.2865 245.66C92.9483 245.84 93.6113 246.016 94.2755 246.189L94.3531 246.207C95.6545 246.536 96.9682 246.838 98.2855 247.125L98.848 247.249C98.9996 247.281 99.1513 247.318 99.3047 247.349C100.446 247.587 101.597 247.806 102.747 248.014C103.038 248.065 103.331 248.111 103.629 248.162C104.66 248.341 105.696 248.506 106.737 248.658C107.124 248.714 107.508 248.771 107.896 248.824C109.206 249 110.518 249.176 111.841 249.309L111.978 249.324C112.955 249.425 113.935 249.514 114.918 249.591C115.018 249.591 115.115 249.61 115.216 249.617C116.136 249.689 117.062 249.746 117.99 249.793L118.469 249.823C119.379 249.871 120.294 249.903 121.209 249.929C121.386 249.929 121.562 249.945 121.738 249.95C122.827 249.977 123.918 249.992 125.011 249.993C126.385 249.993 127.752 249.963 129.115 249.919L129.7 249.896C130.9 249.85 132.097 249.788 133.289 249.709C133.416 249.7 133.541 249.696 133.666 249.689C133.934 249.67 134.195 249.64 134.463 249.621C135.445 249.547 136.424 249.462 137.401 249.367C137.805 249.326 138.207 249.287 138.607 249.245C139.912 249.102 141.213 248.949 142.506 248.767L142.647 248.748C145.556 248.338 148.432 247.828 151.273 247.219L151.326 247.208C153.465 246.75 155.581 246.237 157.674 245.671C159.768 245.104 161.842 244.486 163.896 243.816L163.982 243.787C166.702 242.895 169.382 241.912 172.02 240.839L172.129 240.795C176.251 239.116 180.279 237.217 184.197 235.106C184.978 234.687 185.754 234.258 186.525 233.821C188.065 232.948 189.585 232.044 191.085 231.107L191.179 231.049C192.563 230.183 193.924 229.285 195.272 228.367C195.675 228.092 196.072 227.808 196.472 227.529C197.049 227.127 197.631 226.734 198.2 226.323C198.664 225.988 199.119 225.64 199.578 225.298C199.803 225.122 200.033 224.963 200.257 224.794C201.49 223.863 202.705 222.91 203.901 221.934C204.143 221.736 204.383 221.535 204.623 221.336C205.857 220.32 207.065 219.29 208.254 218.229C208.291 218.195 208.329 218.164 208.366 218.128C210.441 216.27 212.453 214.344 214.402 212.35C214.506 212.24 214.612 212.133 214.718 212.025C216.615 210.072 218.447 208.057 220.213 205.982C220.345 205.827 220.476 205.672 220.606 205.515C221.311 204.677 222.004 203.826 222.69 202.97C222.84 202.783 222.995 202.604 223.144 202.415C223.292 202.226 223.454 202.006 223.613 201.803C224.083 201.201 224.545 200.596 225 199.987C225.187 199.736 225.379 199.491 225.566 199.239C226.225 198.347 226.871 197.446 227.506 196.536C227.573 196.441 227.644 196.347 227.711 196.25L227.698 196.257Z" fill="#66519D"/>
<path d="M177.257 175.418C176.785 176.715 176.242 177.984 175.631 179.222C173.203 184.141 169.893 188.538 166.555 192.911C165.442 194.367 164.326 195.822 163.238 197.293C161.443 199.719 159.683 202.276 158.979 205.21C158.276 208.145 158.845 211.569 161.122 213.551C162.039 214.339 163.152 214.863 164.344 215.068C164.671 215.128 165.002 215.168 165.335 215.189C167.676 215.339 170.207 214.576 172.27 213.371C173.545 212.599 174.766 211.742 175.925 210.806C176.708 210.192 177.483 209.571 178.271 208.959C178.863 208.504 179.461 208.062 180.076 207.646C180.69 207.225 181.325 206.838 181.979 206.485C182.535 206.189 183.112 205.935 183.705 205.723C184.307 205.508 184.923 205.339 185.55 205.217C186.293 205.072 187.049 205.003 187.805 205.011C188.538 205.019 189.266 205.121 189.973 205.313C191.14 205.621 192.195 206.254 193.016 207.139C195.116 209.432 195.15 212.869 195.372 215.97C195.624 219.497 196.296 223.054 198.052 226.112L198.193 226.332C198.657 225.997 199.112 225.65 199.571 225.308C199.796 225.131 200.026 224.973 200.25 224.803C201.483 223.872 202.698 222.919 203.894 221.943C204.136 221.746 204.376 221.545 204.616 221.345C205.85 220.33 207.058 219.3 208.246 218.238C208.284 218.205 208.322 218.173 208.359 218.138C210.434 216.279 212.446 214.353 214.395 212.359C214.499 212.25 214.605 212.142 214.711 212.035C216.608 210.081 218.44 208.066 220.206 205.991C220.338 205.836 220.469 205.681 220.599 205.524C221.304 204.687 221.997 203.835 222.683 202.98C222.833 202.793 222.988 202.613 223.137 202.424C223.285 202.235 223.447 202.015 223.606 201.812C224.076 201.21 224.538 200.605 224.993 199.996C225.18 199.746 225.372 199.5 225.559 199.248C226.218 198.356 226.864 197.455 227.499 196.545C227.566 196.45 227.637 196.356 227.704 196.259L221.07 193.519L177.257 175.418Z" fill="#FCBF3C"/>
<path d="M59.309 199.629C63.8268 207.309 71.6826 212.943 80.4061 214.761C84.9909 215.715 90.3604 215.404 93.4939 211.939C95.3331 209.899 96.0896 207.039 95.9626 204.293C95.7193 198.97 92.4165 194.187 88.3272 190.77C85.8585 188.712 83.1164 187.067 80.3038 185.501L68.9088 190.569L57.2705 195.743C57.9124 197.069 58.5807 198.381 59.309 199.629Z" fill="#FCBF3C"/>
<path d="M132.495 240.519C133.12 236.181 134.701 231.943 134.539 227.565C134.377 223.186 131.693 218.395 127.339 217.896C123.751 217.487 120.543 220.078 118.15 222.783C111.296 230.527 107.029 240.619 99.3086 247.354C100.45 247.592 101.601 247.81 102.751 248.018C103.042 248.07 103.334 248.115 103.632 248.167C104.663 248.345 105.7 248.51 106.741 248.662C107.127 248.719 107.512 248.775 107.9 248.828C109.21 249.004 110.522 249.181 111.844 249.313L111.982 249.329C112.959 249.43 113.939 249.518 114.922 249.595C115.022 249.595 115.119 249.614 115.22 249.621C116.14 249.694 117.066 249.75 117.993 249.798L118.473 249.828C119.383 249.875 120.298 249.907 121.213 249.933C121.39 249.933 121.566 249.949 121.742 249.955C122.829 249.983 123.92 249.997 125.015 249.997C126.389 249.997 127.755 249.969 129.119 249.923L129.704 249.9C130.904 249.854 132.1 249.792 133.293 249.713C133.419 249.704 133.545 249.701 133.67 249.694C132.319 247.013 132.056 243.561 132.495 240.519Z" fill="#FCBF3C"/>
<path d="M124.969 155.613C126.974 154.947 126.115 151.758 124.087 152.439C119.363 154.012 114.14 154.026 109.216 153.822C104.028 153.601 98.8124 152.97 93.7744 151.665C92.7481 151.4 92.011 152.058 91.7941 152.852C91.5772 153.645 91.8664 154.58 92.898 154.846C93.1519 154.913 93.4094 154.97 93.6651 155.031C98.7401 156.278 104.007 156.902 109.216 157.121C114.425 157.34 119.984 157.272 124.969 155.613Z" fill="#BA612D"/>
<path d="M97.2875 94.6264L88.0403 102.526C86.4956 103.847 84.8468 105.043 84.3372 107.146C83.8381 109.166 84.3971 111.14 85.6968 112.724C86.1288 113.253 86.5784 113.763 87.0263 114.281L91.4718 119.483C92.8526 121.1 95.1749 118.758 93.8048 117.15L90.278 113.027C89.22 111.793 87.2626 110.206 87.4478 108.39C87.6083 106.827 89.2747 105.803 90.3785 104.863L95.8732 100.169L99.6257 96.9629C101.236 95.5786 98.8939 93.2545 97.2875 94.6264Z" fill="#BA612D"/>
<path d="M116.244 121.571C114.922 123.869 112.903 125.685 110.478 126.757C108.054 127.828 105.351 128.099 102.763 127.53C100.694 127.066 99.8107 130.245 101.881 130.704C105.171 131.452 108.613 131.131 111.708 129.787C114.802 128.444 117.387 126.147 119.086 123.232C120.153 121.395 117.302 119.73 116.244 121.571Z" fill="#BA612D"/>
<path d="M85.1799 93.0519C86.3331 93.4046 87.7103 92.2249 88.2552 90.4227C88.8001 88.6205 88.3081 86.8783 87.1549 86.5291C86.0016 86.18 84.6244 87.3562 84.0795 89.1583C83.5346 90.9605 84.0266 92.7027 85.1799 93.0519Z" fill="black"/>
<path d="M118.496 92.3621C117.342 92.0095 115.963 93.1892 115.418 94.9896C114.874 96.79 115.365 98.534 116.519 98.8831C117.672 99.2323 119.049 98.0561 119.596 96.2557C120.142 94.4553 119.649 92.7113 118.496 92.3621Z" fill="black"/>
<path d="M81.8811 60.4173C89.4442 68.8992 108.684 84.9107 145.939 88.7196C145.939 88.7196 134.938 104.289 143.885 112.555C144.739 109.436 146.52 106.228 149.175 103.43C152.598 99.836 156.758 97.6565 160.637 97.0657L162.85 92.7684C163.809 90.7711 164.612 88.703 165.252 86.5824C166.629 87.1573 168.06 87.5944 169.523 87.8873C175.926 89.1869 181.636 87.6775 182.277 84.5157C182.872 81.5832 178.89 78.261 173.196 76.7569C178.31 73.2107 181.047 68.3914 179.345 65.7868C177.582 63.0853 171.717 63.7925 166.247 67.3739C166.07 67.4938 165.894 67.6208 165.718 67.7442C161.676 52.9318 147.442 41.9988 132.085 37.966C129.405 37.2743 126.652 36.9026 123.885 36.8586C122.926 33.2149 121.152 29.8367 118.697 26.9787C116.242 24.1207 113.17 21.8577 109.713 20.3604C106.255 18.8631 102.503 18.1706 98.7389 18.3353C94.9748 18.4999 91.2973 19.5174 87.9839 21.3108C84.6705 23.1043 81.8077 25.6269 79.6115 28.6883C77.4154 31.7498 75.9433 35.27 75.3063 38.9835C74.6694 42.6969 74.8842 46.5065 75.9345 50.1248C76.9849 53.7431 78.8434 57.0755 81.3697 59.8707C81.5372 60.047 81.7118 60.2322 81.8846 60.4121L81.8811 60.4173Z" fill="black"/>
<path d="M154.391 117.339C154.292 117.24 154.199 117.136 154.107 117.03C154.082 116.983 153.931 116.76 153.904 116.716C153.878 116.672 153.751 116.364 153.742 116.364C153.698 116.233 153.654 116.103 153.619 115.969C153.606 115.918 153.557 115.63 153.543 115.584C153.529 115.434 153.516 115.283 153.513 115.133C153.513 114.934 153.513 114.733 153.531 114.533C153.531 114.461 153.543 114.391 153.55 114.318C153.55 114.292 153.561 114.255 153.569 114.204C153.904 112.533 154.721 110.998 155.92 109.788C155.939 109.767 155.959 109.753 155.978 109.733C156.1 109.795 156.229 109.846 156.347 109.91C156.683 110.105 156.987 110.351 157.318 110.552L157.285 110.532C157.296 110.539 157.307 110.547 157.317 110.555L157.519 110.731C157.666 110.858 157.808 110.991 157.948 111.126C158.224 111.399 158.486 111.687 158.732 111.987L158.856 112.163C158.979 112.34 159.096 112.516 159.209 112.692C159.414 113.022 159.6 113.363 159.764 113.715L159.808 113.812C159.821 113.839 159.819 113.837 159.826 113.853L159.847 113.906C159.918 114.082 159.983 114.269 160.041 114.454C160.164 114.841 160.262 115.236 160.335 115.635C160.494 116.485 161.57 117.046 162.365 116.787C163.275 116.492 163.686 115.669 163.517 114.757C162.998 111.957 161.274 109.356 158.932 107.686C159.322 107.529 159.725 107.404 160.136 107.312C160.186 107.302 160.528 107.251 160.563 107.238C160.72 107.224 160.877 107.21 161.035 107.206C161.226 107.206 161.416 107.217 161.607 107.221L161.699 107.229C161.751 107.24 161.804 107.247 161.857 107.259C162.036 107.296 162.213 107.342 162.386 107.399C162.434 107.415 162.481 107.434 162.529 107.452L162.608 107.489C162.758 107.579 162.913 107.665 163.065 107.758L163.088 107.774L163.25 107.919C163.564 108.221 163.982 108.389 164.417 108.389C164.852 108.389 165.27 108.221 165.583 107.919C166.195 107.309 166.241 106.193 165.583 105.586C162.938 103.145 159.009 103.674 156.13 105.424C152.943 107.363 150.455 110.827 150.224 114.614C150.111 116.471 150.72 118.358 152.056 119.675C153.573 121.162 155.908 118.831 154.391 117.339Z" fill="#BA612D"/>
<path d="M84.0986 48.84C85.0368 48.5807 85.3894 47.6938 85.2501 46.8103C84.1163 39.591 88.3431 32.3118 95.155 29.6949C95.9856 29.3758 96.5657 28.584 96.3065 27.6653C96.0879 26.87 95.1127 26.1911 94.2769 26.5138C90.2617 28.0567 86.8195 30.79 84.5589 34.4737C82.1307 38.4307 81.3548 43.1337 82.069 47.6867C82.2101 48.5684 83.3086 49.0586 84.0986 48.84Z" fill="white"/>
</g>
<defs>
<clipPath id="clip0_385_13293">
<rect width="250" height="250" fill="white"/>
</clipPath>
</defs>
</svg>