<svg width="144" height="250" viewBox="0 0 144 250" fill="none" xmlns="http://www.w3.org/2000/svg">
<g clip-path="url(#clip0_199_11999)">
<path d="M69.932 250C98.8404 250 122.275 243.853 122.275 236.271C122.275 228.689 98.8404 222.542 69.932 222.542C41.0237 222.542 17.5889 228.689 17.5889 236.271C17.5889 243.853 41.0237 250 69.932 250Z" fill="#E5E5E5"/>
<path d="M89.0333 221.19C89.0333 221.19 90.0697 223.572 95.1801 227.557C100.291 231.542 105.401 232.37 106.14 233.186C106.878 234.002 104.948 236.819 99.1052 236.67C93.2622 236.521 82.2909 231.905 80.4385 230.297C80.1697 230.769 79.9463 231.266 79.7714 231.78C79.7714 231.78 74.7384 230.589 73.5531 228.933C73.4042 224.764 75.34 220.445 75.34 220.445L89.0333 221.19Z" fill="#6D3B19"/>
<path d="M90.1826 222.869C89.7323 222.359 89.3463 221.795 89.0331 221.19L75.3338 220.445C74.8413 221.625 74.4429 222.842 74.1426 224.085C79.0148 227.337 86.6983 227.748 90.1826 222.869Z" fill="#603416"/>
<path d="M74.0534 224.389C73.6876 225.875 73.5193 227.403 73.5531 228.933C74.7443 230.601 79.7713 231.78 79.7713 231.78C79.9463 231.266 80.1697 230.769 80.4384 230.297C82.2908 231.929 93.2562 236.521 99.1052 236.67C104.293 236.801 106.39 234.61 106.282 233.537C95.3349 238.106 83.9883 229.582 74.0534 224.389Z" fill="#300914"/>
<path d="M99.5516 236.896H99.0989C93.3453 236.753 82.8742 232.405 80.5096 230.648C80.302 231.03 80.1267 231.428 79.9855 231.839L79.9259 232.042L79.7234 231.994C79.5149 231.947 74.5891 230.803 73.3681 229.058L73.3324 229.004V228.939C73.1835 224.769 75.1193 220.398 75.1193 220.356L75.1788 220.213H75.3337L89.1759 220.957L89.2295 221.082C89.2295 221.082 90.3255 223.465 95.3108 227.372C97.9891 229.386 100.973 230.957 104.15 232.024C105.276 232.435 106.014 232.709 106.3 233.025C106.433 233.192 106.511 233.396 106.523 233.61C106.534 233.823 106.48 234.035 106.366 234.216C105.907 235.223 103.947 236.896 99.5516 236.896ZM80.3726 229.945L80.587 230.13C82.3739 231.726 93.2381 236.295 99.1109 236.444C103.62 236.569 105.561 234.907 105.966 234.019C106.03 233.917 106.064 233.798 106.064 233.677C106.064 233.556 106.03 233.437 105.966 233.334C105.357 232.949 104.695 232.654 104.001 232.459C100.789 231.375 97.7726 229.783 95.0666 227.742C90.5637 224.215 89.1997 221.958 88.9138 221.41L75.4945 220.683C75.1729 221.452 73.7076 225.21 73.797 228.861C74.8512 230.237 78.7287 231.285 79.6519 231.518C79.822 231.065 80.0209 230.623 80.2475 230.196L80.3726 229.945Z" fill="#4C0919"/>
<path d="M45.9467 222.548C45.9467 222.548 45.0592 226.122 43.6774 229.951C42.2955 233.781 41.2949 239.827 43.0817 244.669C44.8686 249.512 50.5865 245.062 53.8506 240.917C57.1146 236.771 58.4904 233.311 58.8836 230.744C59.2767 228.176 59.5685 223.334 59.5685 223.334L45.9467 222.548Z" fill="#6D3B19"/>
<path d="M49.0492 230.333C51.1092 230.543 53.1863 230.157 55.0325 229.219C56.8788 228.281 58.416 226.831 59.4606 225.044C59.5321 224.037 59.5738 223.334 59.5738 223.334L45.946 222.548C45.946 222.548 45.6482 223.739 45.124 225.526C45.9043 227.503 46.7143 229.552 49.0492 230.333Z" fill="#603416"/>
<path d="M59.1575 223.311C59.0324 224.877 58.8537 226.837 58.6453 228.177C58.2522 230.744 56.8584 234.198 53.6123 238.35C50.3661 242.501 44.6244 246.939 42.8435 242.102C42.525 241.215 42.2897 240.3 42.1406 239.368C42.1651 241.175 42.483 242.965 43.0817 244.67C44.8686 249.506 50.5865 245.063 53.8505 240.917C57.1145 236.772 58.4904 233.311 58.8835 230.744C59.2766 228.177 59.5685 223.334 59.5685 223.334L59.1575 223.311Z" fill="#300914"/>
<path d="M45.6846 246.997C45.527 246.998 45.3697 246.986 45.214 246.962C44.1359 246.795 43.3497 246.044 42.8732 244.746C41.0864 239.927 42.0215 233.906 43.4688 229.855C44.8328 226.055 45.7262 222.5 45.7382 222.464L45.7799 222.285L59.8186 223.101V223.327C59.8186 223.375 59.5149 228.206 59.1218 230.749C58.7942 232.911 57.6387 236.449 54.0411 241.029C51.6348 244.091 48.21 246.997 45.6846 246.997ZM46.1194 222.78C45.9168 223.548 45.083 226.699 43.8858 230.028C42.4682 233.983 41.5629 239.886 43.2902 244.591C43.713 245.729 44.3801 246.378 45.2795 246.521C47.662 246.902 51.2893 243.805 53.6718 240.779C57.2098 236.27 58.3415 232.816 58.6631 230.707C59.0026 228.492 59.2588 224.525 59.3362 223.56L46.1194 222.78Z" fill="#4C0919"/>
<path d="M97.6101 49.7637C97.6101 49.7637 102.036 51.3659 105.836 57.4472C109.636 63.5285 111.053 77.8651 113.132 82.9576C114.587 86.7519 115.761 90.6478 116.646 94.6139L102.065 97.8482C102.065 97.8482 97.4732 89.2593 96.407 80.0391C95.3408 70.8189 97.6101 49.7637 97.6101 49.7637Z" fill="#F9F9F9"/>
<path d="M107.42 96.4431C106.643 93.9858 106.076 91.4673 105.723 88.9144C105.127 84.7451 104.085 77.0854 103.114 69.122C102.376 63.931 100.832 58.887 98.5395 54.1719C98.5395 54.1719 97.8664 74.3813 97.9081 87.3241C98.956 90.9446 100.338 94.46 102.036 97.8249C103.853 97.4573 105.65 96.9961 107.42 96.4431Z" fill="#E0E0E0"/>
<path d="M101.953 98.1169L101.869 97.968C101.822 97.8846 97.2474 89.2422 96.1871 80.0994C95.1269 70.9566 97.3784 49.9729 97.3784 49.7585L97.4082 49.4785L97.6762 49.5738C97.8608 49.6393 102.221 51.2713 106.015 57.3169C108.362 61.0753 109.785 67.8475 111.042 73.8215C111.804 77.4667 112.531 80.9035 113.329 82.8631C114.787 86.6692 115.963 90.577 116.849 94.5551L116.897 94.7695L101.953 98.1169ZM97.569 49.9312C97.295 52.5341 95.6451 71.5344 96.6279 80.0279C97.6107 88.5215 101.578 96.4254 102.185 97.6106L116.379 94.4479C115.506 90.5676 114.353 86.7556 112.93 83.0418C112.114 81.0464 111.417 77.7467 110.613 73.9288C109.368 67.9725 107.951 61.2599 105.646 57.567C102.453 52.4745 98.5696 50.3898 97.569 49.9312Z" fill="#4C0919"/>
<path d="M66.9894 43.844C66.9894 43.844 53.165 52.3376 50.4014 53.7194C52.9685 67.1507 54.7434 94.0132 53.7607 100.726C52.7779 107.438 56.5243 110.208 58.6984 111.787C60.8724 113.365 91.2848 113.371 98.9921 108.63C98.0034 83.7387 100.571 75.275 100.183 66.9363C99.7997 61.1458 98.9411 55.3966 97.6162 49.7466L84.9712 43.8262C84.9712 43.8262 81.8144 49.5501 78.2586 50.5388C74.7027 51.5275 66.9894 43.844 66.9894 43.844Z" fill="#F9F9F9"/>
<path d="M97.1879 102.769C96.9735 100.601 97.7418 95.5738 95.8239 90.5349C96.6995 95.8955 93.8584 106.646 92.7863 105.681C91.7141 104.717 92.8339 101.744 91.2376 97.8908C91.464 102.477 89.0696 107.331 87.247 107.421C85.4244 107.51 85.877 106.67 85.6507 102.656C85.6507 102.656 83.2682 109.565 79.629 108.928C75.9897 108.29 75.3822 106.986 72.0944 99.7968C72.0944 99.7968 74.4769 109.041 71.6834 107.981C68.8899 106.92 68.199 100.714 66.4836 91.8988C65.346 97.3488 67.8536 106.98 65.0065 106.617C61.123 103.513 60.319 97.6823 60.444 94.4898C60.5691 91.2973 60.0867 87.0683 61.123 82.7382C62.1594 78.408 62.2666 73.6788 60.2117 67.0614C60.2117 67.0614 59.9854 75.7337 57.1919 79.0275C57.3289 77.2882 57.9305 76.1864 57.5791 70.6471C57.3388 67.2228 56.4727 63.8717 55.0239 60.7598C55.9947 63.4281 54.6129 71.8681 53.3145 78.3544C54.0352 88.1226 54.2794 97.1999 53.7612 100.72C52.7724 107.439 56.5248 110.202 58.6989 111.781C60.8729 113.359 91.2853 113.365 98.9926 108.624C98.939 107.379 98.8795 106.188 98.8795 104.997C98.4201 104.816 98.0193 104.513 97.7209 104.12C97.4225 103.727 97.2381 103.26 97.1879 102.769Z" fill="#E0E0E0"/>
<path d="M79.6287 107.974L85.4539 99.3378L82.1124 60.2352L84.4949 57.823C84.4949 57.823 86.0912 59.8004 87.9912 59.9493C89.51 56.5245 89.0991 48.7457 89.0991 48.7457L86.9667 45.2852L84.4234 44.7253C83.3751 46.3692 80.9212 49.8119 78.2409 50.5564C74.6672 51.5451 66.9777 43.8438 66.9777 43.8438C66.9777 43.8438 53.1533 52.3373 50.3896 53.7191C50.5802 54.7138 50.7649 55.7979 50.9436 56.9295L52.5994 59.3478C52.5994 59.3478 64.762 53.1176 66.8169 55.8455C68.8718 58.5735 74.4587 60.2412 74.4587 60.2412L76.0669 58.3531C76.0669 58.3531 77.9193 59.4252 77.9193 59.6932C77.9193 59.9613 73.9286 89.3075 73.4759 98.9268C74.3574 101.315 79.6287 107.974 79.6287 107.974Z" fill="#E0E0E0"/>
<path d="M100.398 66.9418C100.207 63.4272 99.8088 59.9269 99.2071 56.4589C99.2071 56.4589 99.8027 63.3204 99.9755 66.9597C100.047 70.3609 99.8957 73.7633 99.5228 77.1448C98.5511 87.5682 98.3044 98.0466 98.7842 108.504C90.8803 113.198 60.861 113.073 58.8776 111.607C56.6976 110.023 53.0524 107.373 54.0293 100.761C54.9703 94.3523 53.3205 67.6923 50.6997 53.8381C53.5825 52.3491 65.5307 45.0289 67.0078 44.1236C68.0561 45.154 74.9296 51.7237 78.3604 50.7707C81.6423 49.8594 84.5251 45.1421 85.1088 44.1295L97.4619 49.9249C97.6287 50.0023 98.2422 50.2585 98.4149 50.3418C98.5877 50.4252 98.3375 50.1453 98.5043 50.2406C98.4776 50.0929 98.3997 49.9593 98.2842 49.8634C98.1687 49.7675 98.023 49.7155 97.8729 49.7164V49.6092L84.942 43.5518L84.8407 43.7304C84.8109 43.79 81.6899 49.3888 78.2889 50.3418C74.8879 51.2948 67.3235 43.79 67.2461 43.6828L67.121 43.5577L66.9721 43.653C66.8351 43.7364 53.1239 52.1525 50.396 53.5165L50.2471 53.5939L50.2768 53.7607C52.9095 67.5255 54.5772 94.2629 53.6302 100.696C52.6176 107.575 56.5487 110.434 58.6572 111.971C59.5149 112.566 64.0893 112.959 69.9443 112.959C72.1183 112.959 74.471 112.912 76.8773 112.805C82.0175 112.572 94.4838 111.727 99.2012 108.82L99.3143 108.748V108.617C98.8287 98.1362 99.0715 87.634 100.041 77.1865C100.385 73.7831 100.504 70.3608 100.398 66.9418Z" fill="#4C0919"/>
<path d="M51.5214 53.1113C51.5214 53.1113 48.3527 54.1239 44.5765 58.5791C40.151 63.8027 33.8553 81.8084 32.7236 85.3821C31.5919 88.9558 27.9587 99.1469 26.3386 101.839C24.4564 104.978 35.4694 108.135 37.3337 107.2C45.726 103.078 52.9092 83.494 54.297 80.224C57.6623 72.3142 55.4466 53.6474 51.5214 53.1113Z" fill="#F4F4F4"/>
<path d="M54.2972 80.2535C54.636 79.0016 54.8259 77.7141 54.863 76.4177C54.6188 74.3867 53.8862 72.4509 52.4805 69.5383C52.3316 69.312 53.4693 76.6857 51.7181 80.8015C51.4269 77.1081 50.0464 73.5842 47.7513 70.6759C48.8056 73.6957 48.9842 81.0457 48.603 85.1853C48.2218 89.3248 45.2557 93.0594 44.803 90.5816C44.3503 88.1038 44.4218 86.442 42.7481 85.1853C43.433 87.1925 43.8917 94.197 42.355 95.7397C40.8183 97.2823 37.042 97.5682 37.042 97.5682C37.042 97.5682 34.6179 105.776 36.0295 107.408C36.4782 107.458 36.9324 107.405 37.3577 107.253C45.7262 103.107 53.0166 83.5533 54.2972 80.2535Z" fill="#E0E0E0"/>
<path d="M32.9672 98.7002C37.7321 95.1264 40.7102 89.7658 39.519 83.214C38.9234 79.0447 40.5256 80.4503 44.0993 79.2591C42.7532 71.7185 45.8326 61.2535 55.0647 58.1741C54.5048 54.8744 52.7477 53.2781 51.5207 53.1113C51.5207 53.1113 48.352 54.1239 44.5758 58.5791C40.1503 63.8027 33.8546 81.8084 32.7229 85.3821C31.8355 88.1219 29.5423 94.6499 27.7793 98.8074C29.6793 99.5519 31.5377 99.7723 32.9672 98.7002Z" fill="#E0E0E0"/>
<path d="M54.088 80.1707L53.951 80.534C46.8036 99.165 40.9129 105.228 37.2379 107.033C35.8799 107.7 28.8992 105.925 26.892 103.727C26.2963 103.102 26.1951 102.536 26.5286 101.941C28.1606 99.2246 31.7701 89.0335 32.9316 85.436C34.3491 81.0641 40.4959 63.7137 44.7427 58.6926C48.1794 54.6423 51.1278 53.463 51.5388 53.332C51.7533 53.2469 51.954 53.1305 52.1344 52.9865L52.3964 52.7423C52.1046 52.4326 51.8485 52.927 51.5209 52.8793H51.4673H51.4196C51.2886 52.921 48.1497 53.9574 44.3734 58.4126C39.4179 64.2557 32.5444 85.0965 32.461 85.3049C31.3055 88.8786 27.696 99.034 26.0998 101.714C25.796 102.227 25.6233 103.037 26.5167 104.007C28.3691 106.021 33.6642 107.581 36.2611 107.581C36.6446 107.6 37.028 107.539 37.3868 107.402C42.7474 104.764 48.6143 95.49 54.3203 80.665L54.4573 80.3077C54.9457 79.039 58.0906 66.8109 54.1118 58.5615C56.3166 65.5971 56.3083 73.14 54.088 80.1707Z" fill="#4C0919"/>
<path d="M55.8041 109.225C55.8041 109.225 69.1579 111.364 82.0531 110.804C94.9483 110.244 98.927 106.783 98.927 106.783C98.927 106.783 101.756 118.04 102.054 127.225C102.263 133.777 98.9866 148.667 97.17 159.776C96.4433 164.189 96.3718 172.141 95.9489 174.988C95.5082 177.966 93.2389 181.742 92.4527 188.062C90.5884 203.047 90.3978 219.63 90.8862 222.012C86.3416 225.27 74.4887 222.012 74.4887 222.012C73.5119 196.478 77.312 185.572 77.6098 176.828C77.9076 168.085 78.0386 164.832 78.938 158.757C79.7719 153.099 79.0512 136.91 78.938 134.712C78.9344 134.701 78.9275 134.692 78.9184 134.686C78.9094 134.679 78.8985 134.676 78.8874 134.676C78.8763 134.676 78.8654 134.679 78.8563 134.686C78.8473 134.692 78.8404 134.701 78.8368 134.712C74.5542 146.487 68.5444 169.103 67.9548 173.517C67.3651 177.93 67.0673 190.426 64.9767 199.462C62.886 208.497 60.3249 224.752 60.3249 224.752C57.6662 225.668 54.8946 226.215 52.0874 226.378C47.3225 226.676 45.8096 221.935 45.8096 221.935C45.8096 221.935 49.8419 191.707 49.2344 176.667C49.1034 173.457 50.4256 164.016 50.7532 157.81C51.2535 147.685 50.7532 133.193 51.5037 126.945C52.2236 120.888 53.6674 114.939 55.8041 109.225Z" fill="#0B8C99"/>
<path opacity="0.55" d="M62.3671 159.645C62.3671 159.645 62.7245 169.3 59.389 172.492C56.0536 175.685 52.7717 173.177 53.6115 175.536C54.4513 177.894 59.2342 178.198 61.5928 173.636C63.9515 169.073 62.3671 159.645 62.3671 159.645Z" fill="#0DADB5"/>
<path d="M95.9484 175.005C96.3713 172.158 96.4428 164.207 97.1694 159.793C98.9861 148.697 102.262 133.818 102.053 127.242C101.833 120.44 100.225 112.507 99.403 108.844L95.3409 111.822C95.3409 111.822 97.6578 119.13 97.1873 130.286C96.7167 141.442 93.3634 162.104 93.3634 168.799C93.3634 175.494 92.4521 177.584 90.558 178.085C89.1744 178.353 87.7475 178.298 86.3887 177.924C86.3887 177.924 87.9194 180.723 92.2377 180.181C92.2377 181.569 90.4032 190.849 89.343 199.741C88.4733 206.972 88.9141 218.801 89.1107 222.971C89.7466 222.778 90.3493 222.489 90.8975 222.113C90.4091 219.683 90.5997 203.125 92.464 188.163C93.2383 181.76 95.5076 177.972 95.9484 175.005Z" fill="#0DADB5"/>
<path d="M90.2065 180.175C87.9252 180.05 85.9537 178.311 85.9537 177.168C85.9537 176.024 86.4481 169.151 86.3826 161.05C86.3171 152.95 83.2496 141.395 84.7565 138.959C86.2635 136.522 86.9782 131.811 87.139 126.719C87.139 126.719 86.2277 129.458 83.1781 132.895C84.965 129.726 84.8638 122.108 84.8638 122.108L83.9882 126.224C83.9882 126.224 82.517 131.442 81.29 132.895C80.0631 134.348 78.9075 134.753 77.5674 133.878C76.2273 133.002 74.1426 128.273 74.1426 128.273C74.1426 128.273 74.7382 134.092 76.3226 136.677C76.9757 137.797 77.188 139.12 76.9182 140.388C77.5853 138.339 78.2345 136.427 78.848 134.736C78.8516 134.725 78.8585 134.716 78.8676 134.709C78.8766 134.703 78.8875 134.7 78.8986 134.7C78.9097 134.7 78.9206 134.703 78.9297 134.709C78.9387 134.716 78.9456 134.725 78.9492 134.736C79.0505 136.933 79.7712 153.122 78.9492 158.781C78.0498 164.856 77.9188 168.114 77.621 176.852C77.3232 185.59 73.5231 196.507 74.5 222.036C77.809 222.902 81.2062 223.388 84.6255 223.483C83.9465 220.898 84.0299 216.187 84.3813 210.111C84.834 202.511 86.055 183.576 85.9776 181.408C89.0212 182.32 92.7438 181.45 94.5188 179.687C93.1134 180.062 91.6602 180.227 90.2065 180.175Z" fill="#007484"/>
<path d="M98.9266 106.783C98.9266 106.783 94.9478 110.226 82.0526 110.786C69.1574 111.346 55.8036 109.207 55.8036 109.207C53.6766 114.924 52.2428 120.875 51.533 126.933C50.8004 133.181 51.2828 147.655 50.7825 157.798C50.4788 164.005 49.1327 173.445 49.2637 176.656C49.8593 191.713 45.8389 221.923 45.8389 221.923C45.8389 221.923 47.0301 225.544 50.4728 226.259C50.985 221.035 52.0631 210.648 53.0638 205.531C54.4337 198.539 53.0638 187.74 54.255 181.962C57.4475 182.558 59.8598 179.318 61.6467 177.132C60.104 178.252 57.6202 179.27 55.8513 179.3C54.0823 179.33 51.402 177.209 51.9738 173.791C52.5456 170.372 54.0227 162.039 55.2675 150.865C56.5124 139.691 58.6626 124.479 63.0702 118.791C66.495 119.267 80.4087 119.309 87.4013 117.737C94.3939 116.164 99.814 110.863 99.814 110.863C99.3256 108.409 98.9266 106.783 98.9266 106.783Z" fill="#007484"/>
<path d="M53.0163 222.857C52.2601 222.874 51.5067 222.761 50.7886 222.524C48.7602 221.744 47.1123 220.209 46.1904 218.241L46.6014 218.068C47.4861 219.914 49.0378 221.355 50.9435 222.101C54.0348 223.22 59.8778 220.909 59.9612 220.874C60.0446 220.838 56.1552 222.857 53.0163 222.857Z" fill="#4C0919"/>
<path d="M84.3516 219.725C80.9851 219.635 77.6301 219.29 74.3154 218.695L74.3988 218.26C77.6769 218.937 81.0064 219.336 84.3516 219.451C88.6639 219.451 89.7778 218.552 89.7897 218.546C89.8016 218.54 88.8009 219.725 84.3516 219.725Z" fill="#4C0919"/>
<path d="M51.6943 226.64C47.1735 226.64 45.6428 222.071 45.6309 222.024V221.976V221.928C45.6726 221.624 49.6513 191.552 49.0557 176.661C48.9842 174.904 49.3535 171.265 49.7406 167.417C50.0801 164.076 50.4316 160.615 50.5745 157.786C50.7949 153.289 50.8247 147.976 50.8485 142.836C50.8842 136.439 50.914 130.393 51.325 126.897C52.0472 120.839 53.4806 114.888 55.5956 109.165L55.6611 108.998H55.8398C55.9708 108.998 69.3187 111.125 82.0471 110.571C94.7755 110.017 98.7245 106.658 98.7841 106.628L99.0581 106.39L99.1474 106.741C99.1772 106.854 101.989 118.129 102.28 127.23C102.435 131.995 100.767 141.085 99.1534 149.864C98.5577 153.229 97.9026 156.702 97.3963 159.805C96.9793 162.324 96.8007 165.999 96.6041 169.24C96.4731 171.682 96.3599 173.79 96.1752 175.011C95.9026 176.389 95.5038 177.739 94.984 179.044C93.8674 181.959 93.0881 184.992 92.6611 188.085C90.8087 202.946 90.6062 219.546 91.0886 221.982L91.1184 222.125L90.9993 222.208C86.4249 225.49 74.9175 222.375 74.4172 222.244L74.2624 222.202V222.035C73.7078 210.013 74.3984 197.965 76.3232 186.084C76.8438 183.024 77.1958 179.938 77.3775 176.84C77.6812 167.876 77.8242 164.755 78.7057 158.745C79.4681 153.605 78.9261 139.566 78.7593 135.617C74.4053 147.839 68.7469 169.347 68.187 173.546C68.0083 174.886 67.8475 177.006 67.6688 179.466C67.2459 185.262 66.6622 193.201 65.2149 199.515C63.1659 208.449 60.5929 224.626 60.569 224.787V224.918L60.444 224.96C57.7631 225.88 54.9701 226.433 52.141 226.604L51.6943 226.64ZM46.0716 221.934C46.2503 222.44 47.7989 226.455 52.0993 226.181C54.8439 226.009 57.5547 225.483 60.164 224.614C60.4142 223.048 62.8443 207.937 64.7979 199.438C66.2393 193.154 66.8171 185.238 67.24 179.454C67.4246 176.995 67.5795 174.862 67.7582 173.498C68.3538 169.192 74.2564 146.725 78.6521 134.652C78.674 134.593 78.7153 134.544 78.7692 134.512C78.8232 134.48 78.8864 134.467 78.9484 134.476C79.0104 134.486 79.0674 134.516 79.11 134.562C79.1525 134.608 79.178 134.667 79.1822 134.729C79.2715 136.594 80.0101 153.116 79.1822 158.822C78.2947 164.808 78.1577 167.923 77.854 176.869C77.6709 179.984 77.317 183.086 76.7937 186.161C74.8826 197.959 74.192 209.923 74.7329 221.863C76.1326 222.232 86.4607 224.769 90.6598 221.94C90.2071 219.028 90.4335 202.678 92.2561 188.043C92.6865 184.919 93.4718 181.853 94.5969 178.907C95.1004 177.628 95.4872 176.306 95.7524 174.958C95.931 173.766 96.0442 171.658 96.1752 169.228C96.3539 165.976 96.5565 162.289 96.9674 159.745C97.4797 156.636 98.117 153.158 98.7543 149.799C100.362 141.025 102.024 131.93 101.869 127.242C101.607 119.053 99.2904 109.094 98.8317 107.17C97.7239 107.944 93.221 110.529 82.1067 111.012C70.1347 111.536 57.6207 109.707 55.9887 109.457C53.9265 115.111 52.5273 120.986 51.8194 126.962C51.4084 130.429 51.3786 136.492 51.3429 142.854C51.3429 147.994 51.2893 153.313 51.0689 157.816C50.9259 160.663 50.5745 164.123 50.235 167.477C49.8479 171.306 49.4786 174.928 49.5441 176.655C50.0801 191.278 46.2563 220.511 46.0716 221.934Z" fill="#4C0919"/>
<path d="M79.2238 134.718C78.5924 134.657 78.0082 134.356 77.5918 133.878C77.8241 133.931 78.0385 133.997 78.241 134.063C79.1523 134.348 79.7479 134.533 81.0345 133.252C82.6427 131.644 84.8286 122.204 84.8524 122.108C84.7212 123.878 84.4139 125.63 83.9352 127.338C83.1728 129.935 82.2019 132.699 81.3502 133.568C80.4984 134.438 79.8194 134.718 79.2238 134.718Z" fill="#4C0919"/>
<path d="M51.4375 129.75L51.1992 129.375C57.0899 125.593 58.9423 114.407 58.9423 114.294L59.3831 114.365C59.3235 114.83 57.5009 125.843 51.4375 129.75Z" fill="#4C0919"/>
<path d="M101.774 125.956C99.8976 117.087 97.2113 112.257 97.1875 112.197L97.5747 111.977C97.5747 112.024 100.32 116.92 102.209 125.866L101.774 125.956Z" fill="#4C0919"/>
<path d="M79.5038 135.539C79.3044 135.543 79.1051 135.529 78.9082 135.497L78.9975 135.057C79.0333 135.057 82.7202 135.736 86.008 130.256C85.6366 131.42 85.0028 132.484 84.1556 133.365C82.202 135.229 80.4151 135.539 79.5038 135.539Z" fill="#4C0919"/>
<path d="M78.3542 136.082C78.2589 136.04 76.5673 135.26 75.0604 132.181C74.5026 130.952 74.1987 129.623 74.167 128.273C75.662 134.379 78.5031 135.659 78.5329 135.671L78.3542 136.082Z" fill="#4C0919"/>
<path d="M55.2377 179.621C54.0694 179.628 52.9135 179.381 51.8508 178.895C50.7881 178.41 49.8442 177.698 49.085 176.81L49.4423 176.542C49.621 176.786 53.9869 182.444 62.3673 176.494C61.4441 177.486 60.3298 178.28 59.0914 178.829C57.8702 179.34 56.5614 179.609 55.2377 179.621Z" fill="#4C0919"/>
<path d="M91.0406 180.426C90.1555 180.454 89.275 180.287 88.4615 179.938C87.598 179.455 86.88 178.75 86.3828 177.895C89.6468 181.599 94.3344 179.312 94.5369 179.211L94.7334 179.61C93.5732 180.137 92.3151 180.416 91.0406 180.426Z" fill="#4C0919"/>
<path d="M81.2843 152.264C81.051 149.064 80.6173 145.881 79.9859 142.734C79.9859 142.889 81.6536 158.119 81.3915 168.024C81.1235 178.245 80.7006 183.117 79.4081 196.978C78.8899 202.565 78.6755 207.699 78.604 211.868C78.5564 214.882 78.6815 217.401 78.8304 219.242H79.0746C78.9104 211.826 79.1709 204.406 79.8548 197.019C81.1473 183.147 81.5702 178.269 81.8383 168.036C81.9693 163.236 81.6477 157.232 81.2843 152.264Z" fill="#4C0919"/>
<path d="M79.0807 56.405C79.0807 56.405 77.8299 74.4345 77.2939 82.9161C76.7578 91.3978 76.0371 97.2527 76.0371 97.2527L80.3494 105.657L86.0197 98.6167C86.0197 98.6167 86.3294 88.1933 85.8113 78.1571C85.2931 68.1209 82.2792 56.0596 82.2792 56.0596L79.0807 56.405Z" fill="#FF7F00"/>
<path d="M86.0197 98.6411C86.0197 98.6411 86.0197 97.9681 86.0555 96.8066L81.0761 100.767C81.0761 100.767 79.8848 97.8251 80.2124 88.462C80.54 79.0988 79.319 60.4678 81.0701 60.2414C81.8264 60.1406 82.5129 59.7471 82.9821 59.1455C82.6604 57.6624 82.3864 56.6379 82.3209 56.2567L81.0761 56.2031L79.0807 56.4056C79.0807 56.4056 77.8299 74.4351 77.2939 82.9108C76.7578 91.3865 76.0371 97.2533 76.0371 97.2533L80.3494 105.658L86.0197 98.6411Z" fill="#EA5F00"/>
<path d="M80.3076 106.092L75.8047 97.3188V97.2533C75.8047 97.1937 76.5135 91.2971 77.0555 82.8988C77.5975 74.5006 78.8424 56.5664 78.8424 56.3877V56.1971L82.4161 55.8457L82.4637 56.0303C82.4637 56.1554 85.4954 68.2287 86.0017 78.1696C86.508 88.1105 86.2161 98.5458 86.2102 98.647V98.7245L80.3076 106.092ZM76.2455 97.2533L80.3731 105.294L85.7754 98.5577C85.8052 97.5987 86.0553 87.6638 85.5729 78.1934C85.0964 68.9672 82.4697 57.8946 82.0885 56.3282L79.2712 56.6081C79.1342 58.5558 77.9966 75.0128 77.4843 82.9286C76.9721 90.8444 76.3407 96.5564 76.2455 97.2533Z" fill="#4C0919"/>
<path d="M75.3105 54.4101C75.3105 54.4101 78.3482 57.6681 79.9326 58.3591C81.5169 59.05 82.7916 57.9659 83.2859 57.275C83.7803 56.5841 85.3646 52.7304 85.3646 52.7304L78.4495 49.6689L75.3105 54.4101Z" fill="#FF7F00"/>
<path d="M78.4495 49.6689L75.3105 54.4339C75.3105 54.4339 78.1576 57.4835 79.7777 58.3054C78.7592 56.1076 78.3244 53.9038 79.4084 51.706C81.8386 51.9919 82.4997 54.0885 84.0841 55.7264C84.6797 54.3922 85.3646 52.7483 85.3646 52.7483L78.4495 49.6689Z" fill="#EA5F00"/>
<path d="M80.9453 58.8058C80.5549 58.8001 80.1706 58.7086 79.8195 58.5378C78.2114 57.8409 75.2452 54.6722 75.1201 54.5352L75.001 54.4101L78.3424 49.3652L85.6269 52.5875L85.5435 52.7901C84.9232 54.3535 84.2234 55.8843 83.4469 57.3763C83.1664 57.7895 82.7952 58.1331 82.3617 58.3809C81.9281 58.6286 81.4436 58.774 80.9453 58.8058ZM75.5847 54.3863C76.1803 54.9819 78.67 57.5669 80.0161 58.1566C80.5685 58.367 81.1765 58.3812 81.7381 58.1969C82.2998 58.0125 82.7811 57.6409 83.1014 57.144C83.8358 55.7481 84.492 54.3125 85.067 52.8437L78.5151 49.9489L75.5847 54.3863Z" fill="#4C0919"/>
<path d="M65.3457 43.8438C65.3457 43.8438 65.5542 43.7962 65.9056 41.1754C66.257 38.5547 65.3457 30.0016 65.3457 30.0016L83.81 29.543C83.81 29.543 83.256 40.1986 86.1924 44.8266C86.1924 50.4195 78.2885 50.4493 75.2866 50.2587C72.2847 50.0681 65.3457 43.8438 65.3457 43.8438Z" fill="#FD957A"/>
<path d="M71.5697 43.8855C75.9118 45.7439 81.5107 46.0536 85.138 42.462C83.4226 37.3099 83.8217 29.543 83.8217 29.543L65.3574 30.0016C65.3574 30.0016 66.2687 38.5547 65.9173 41.1754C65.5659 43.7962 65.3574 43.8438 65.3574 43.8438C65.3574 43.8438 72.3143 50.074 75.3222 50.2587C77.0673 50.3718 80.4624 50.4016 82.9997 49.3176C78.2645 49.4605 73.5949 47.9596 71.5697 43.8855Z" fill="#ED7966"/>
<path d="M76.9964 50.5384C76.4007 50.5384 75.8051 50.5384 75.2929 50.4848C72.2493 50.2942 65.483 44.2665 65.1673 44.0104L64.8457 43.7185L65.1792 43.6411C65.4238 42.8279 65.5835 41.9915 65.6557 41.1454C66.0012 38.5843 65.1018 30.1086 65.0959 30.0252L65.0661 29.781L84.0307 29.3164V29.5547C84.0307 29.6619 83.5125 40.1924 86.4131 44.7073L86.4489 44.7609V44.8383C86.4683 45.4908 86.3488 46.14 86.0983 46.7427C85.8477 47.3455 85.4718 47.8881 84.9956 48.3346C83.0479 50.1393 79.6111 50.5384 76.9964 50.5384ZM65.626 43.79C66.5968 44.6477 72.6543 49.8713 75.3227 50.0381C77.3478 50.1631 82.3212 50.2167 84.6799 47.9951C85.1032 47.598 85.439 47.1168 85.6656 46.5824C85.8923 46.0481 86.0049 45.4723 85.9962 44.8919C83.2921 40.5617 83.5244 31.413 83.6137 29.775L65.6141 30.2158C65.763 31.6512 66.4717 38.8046 66.1501 41.205C66.0657 42.0825 65.8901 42.9489 65.626 43.79Z" fill="#4C0919"/>
<path d="M85.3643 41.8607L88.4258 45.4345C88.4258 45.4345 90.3973 52.2067 88.4258 56.8466C85.263 52.7963 79.2354 50.7236 79.2354 50.7236C76.8054 53.0931 75.0357 56.0556 74.1011 59.3184C69.4612 56.6798 64.3329 48.2339 63.7373 45.8395C64.2426 44.1908 64.9764 42.6209 65.9173 41.1758C65.9173 41.1758 73.4281 48.9189 79.1579 50.1101C82.0657 48.1052 84.2438 45.2102 85.3643 41.8607Z" fill="#F9F9F9"/>
<path d="M85.9543 42.563L85.3586 41.8661C84.2293 45.2063 82.0475 48.0904 79.1404 50.0857C73.4105 48.8944 65.8997 41.1514 65.8997 41.1514C64.9588 42.5965 64.225 44.1663 63.7197 45.8151C64.1545 47.6019 67.1029 52.7005 70.4919 56.304C69.533 53.8441 68.854 50.86 69.253 50.0619C69.8487 48.8706 72.2311 52.0274 79.0748 50.5741C84.763 49.3888 85.7756 44.2784 85.9543 42.563Z" fill="#E0E0E0"/>
<path d="M74.2558 59.6936L73.9938 59.5387C69.3598 56.8823 64.1184 48.3947 63.5049 45.893V45.8394V45.7799C64.0138 44.1068 64.7578 42.5145 65.7146 41.0507L65.8695 40.8184L66.0601 41.0209C66.1316 41.0923 73.4815 48.6329 79.0565 49.848C81.9007 47.8714 84.0445 45.0436 85.1795 41.7714L85.3284 41.4557L88.6639 45.3987C88.7413 45.6786 90.6354 52.3019 88.6639 56.9656L88.515 57.3171L88.2827 57.0133C85.4535 53.3919 80.224 51.343 79.3484 51.0154C77.0024 53.3385 75.2903 56.2236 74.375 59.3958L74.2558 59.6936ZM63.9576 45.8394C64.6008 48.3053 69.5207 56.2628 73.964 59.0027C74.9526 55.8233 76.71 52.9367 79.0804 50.5985L79.1816 50.4972L79.3127 50.5449C79.3722 50.5449 85.1378 52.5819 88.3601 56.4415C89.9683 52.1352 88.3601 46.1492 88.2232 45.5714L85.4118 42.2657C84.8162 43.3497 83.3331 47.4953 79.2352 50.2709L79.1578 50.3245H79.0625C73.8091 49.2345 67.1501 42.7839 65.9588 41.551C65.1039 42.885 64.4308 44.3273 63.9576 45.8394Z" fill="#4C0919"/>
<path d="M55.0351 108.177C54.7368 109.825 54.5379 111.49 54.4395 113.162C63.2899 115.631 72.4731 116.694 81.6534 116.313C90.6294 115.86 99.8436 110.911 99.8436 110.911L98.8787 106.188C98.8787 106.188 94.1138 110.178 81.1352 110.863C68.1566 111.548 55.0351 108.177 55.0351 108.177Z" fill="#212121"/>
<path d="M77.9073 116.616C69.9626 116.579 62.0577 115.491 54.3981 113.382L54.2373 113.334V113.173C54.3362 111.486 54.5351 109.805 54.8329 108.14L54.8746 107.902L55.1129 107.962C55.2439 107.992 68.3476 111.297 81.1653 110.612C93.9831 109.927 98.7302 106.026 98.7778 105.99L99.0637 105.746L100.118 111.017L99.9691 111.095C99.8797 111.148 90.6059 116.068 81.6835 116.527C80.4148 116.586 79.1759 116.616 77.9073 116.616ZM54.6781 112.995C63.4523 115.412 72.5484 116.453 81.6418 116.08C89.8495 115.663 98.3788 111.405 99.5938 110.779L98.754 106.55C97.5628 107.414 92.4881 110.457 81.1713 111.059C69.2589 111.69 57.0546 108.891 55.2201 108.45C54.9573 109.954 54.7763 111.471 54.6781 112.995Z" fill="#4C0919"/>
<path d="M83.2618 109.564H76.0012C75.8341 109.564 75.6685 109.596 75.5139 109.659C75.3593 109.723 75.2187 109.816 75.1003 109.934C74.9818 110.052 74.8878 110.192 74.8237 110.346C74.7596 110.501 74.7266 110.666 74.7266 110.833V116.277C74.7266 116.444 74.7596 116.61 74.8237 116.764C74.8878 116.918 74.9818 117.058 75.1003 117.176C75.2187 117.294 75.3593 117.388 75.5139 117.451C75.6685 117.514 75.8341 117.547 76.0012 117.546H83.2618C83.4289 117.547 83.5945 117.514 83.7491 117.451C83.9038 117.388 84.0443 117.294 84.1628 117.176C84.2812 117.058 84.3752 116.918 84.4393 116.764C84.5034 116.61 84.5364 116.444 84.5364 116.277V110.833C84.5364 110.666 84.5034 110.501 84.4393 110.346C84.3752 110.192 84.2812 110.052 84.1628 109.934C84.0443 109.816 83.9038 109.723 83.7491 109.659C83.5945 109.596 83.4289 109.564 83.2618 109.564ZM83.1665 115.521C83.1665 115.764 83.0699 115.997 82.8979 116.169C82.7258 116.341 82.4925 116.438 82.2493 116.438H77.0137C76.7705 116.438 76.5372 116.341 76.3651 116.169C76.1931 115.997 76.0965 115.764 76.0965 115.521V111.601C76.0965 111.358 76.1931 111.125 76.3651 110.953C76.5372 110.781 76.7705 110.684 77.0137 110.684H82.2493C82.4925 110.684 82.7258 110.781 82.8979 110.953C83.0699 111.125 83.1665 111.358 83.1665 111.601V115.521Z" fill="#F4F4F4"/>
<path d="M83.2615 117.772H76.0009C75.6044 117.772 75.2241 117.614 74.9437 117.334C74.6634 117.054 74.5059 116.673 74.5059 116.277V110.833C74.5059 110.436 74.6634 110.056 74.9437 109.776C75.2241 109.495 75.6044 109.338 76.0009 109.338H83.2615C83.6575 109.339 84.0369 109.497 84.3169 109.778C84.5969 110.058 84.7549 110.437 84.7565 110.833V116.277C84.7549 116.673 84.5969 117.052 84.3169 117.332C84.0369 117.612 83.6575 117.77 83.2615 117.772ZM76.0009 109.761C75.7228 109.761 75.4562 109.871 75.2596 110.068C75.063 110.264 74.9526 110.531 74.9526 110.809V116.253C74.9526 116.531 75.063 116.798 75.2596 116.994C75.4562 117.191 75.7228 117.301 76.0009 117.301H83.2615C83.5395 117.301 83.8061 117.191 84.0027 116.994C84.1993 116.798 84.3098 116.531 84.3098 116.253V110.833C84.3098 110.555 84.1993 110.288 84.0027 110.092C83.8061 109.895 83.5395 109.785 83.2615 109.785L76.0009 109.761ZM82.2489 116.634H77.0134C76.7101 116.634 76.4192 116.514 76.2048 116.299C75.9903 116.085 75.8698 115.794 75.8698 115.491V111.571C75.8698 111.268 75.9903 110.977 76.2048 110.763C76.4192 110.548 76.7101 110.428 77.0134 110.428H82.2489C82.3988 110.428 82.5473 110.458 82.6857 110.515C82.8241 110.573 82.9498 110.657 83.0555 110.763C83.1612 110.869 83.2449 110.996 83.3017 111.134C83.3585 111.273 83.3874 111.422 83.3866 111.571V115.491C83.3905 115.643 83.3641 115.794 83.3087 115.935C83.2533 116.077 83.1701 116.206 83.0641 116.314C82.958 116.423 82.8313 116.51 82.6913 116.569C82.5513 116.628 82.4009 116.658 82.2489 116.658V116.634ZM77.0134 110.875C76.8291 110.876 76.6527 110.95 76.5224 111.08C76.392 111.211 76.3181 111.387 76.3165 111.571V115.491C76.3181 115.675 76.392 115.851 76.5224 115.982C76.6527 116.112 76.8291 116.186 77.0134 116.188H82.2489C82.4327 116.186 82.6085 116.112 82.7379 115.981C82.8673 115.851 82.9399 115.674 82.9399 115.491V111.571C82.9399 111.388 82.8673 111.211 82.7379 111.081C82.6085 110.95 82.4327 110.876 82.2489 110.875H77.0134Z" fill="#4C0919"/>
<path d="M28.7502 88.4609C28.7502 88.4609 24.2057 88.6992 22.7226 95.2629C21.2395 101.827 22.8417 106.163 29.7985 106.395C32.5324 99.2059 28.7502 88.4609 28.7502 88.4609Z" fill="#E0E0E0"/>
<path d="M29.9479 106.622H29.787C26.8089 106.527 24.623 105.645 23.3603 104.013C21.8832 102.101 21.5734 99.2483 22.5086 95.2219C24.0095 88.5688 28.6911 88.2472 28.7388 88.2412H28.9055L28.9591 88.3961C28.9949 88.5033 32.7413 99.3079 30.0074 106.485L29.9479 106.622ZM28.5958 88.6998C27.7679 88.813 24.2239 89.635 22.9434 95.3172C22.0797 99.1292 22.3477 101.958 23.7117 103.739C24.8672 105.228 26.8626 106.044 29.6679 106.163C32.0325 99.6354 29.0485 90.1055 28.5958 88.6998Z" fill="#4C0919"/>
<path d="M35.249 87.8721C35.249 87.8721 40.3654 88.8727 41.6519 90.3082C42.9385 91.7436 41.0563 97.9083 41.1754 98.6469C41.2945 99.3854 38.7929 98.7898 38.0186 96.9732C37.2443 95.1565 37.423 94.1559 37.0656 93.87C36.7083 93.5841 35.0107 92.4345 35.0107 92.4345L35.249 87.8721Z" fill="#FD957A"/>
<path d="M41.6519 90.3081C40.7406 89.2896 37.9114 88.5212 36.333 88.1162V88.2294C36.333 88.2294 39.0252 89.3075 40.0914 90.8322C40.9967 92.1307 40.1926 97.2769 39.9365 98.748C40.6274 99.0161 41.2111 98.9803 41.1635 98.623C41.1039 97.9082 42.9444 91.7435 41.6519 90.3081Z" fill="#FFAA99"/>
<path d="M40.7464 99.1466C40.1148 99.087 39.5104 98.8602 38.9954 98.4896C38.4804 98.1191 38.0733 97.6181 37.816 97.0381C37.5094 96.308 37.2895 95.5443 37.1608 94.7629C37.0953 94.3936 37.0417 94.1077 36.9285 94.0243C36.5533 93.7444 34.8974 92.6067 34.8855 92.5948L34.7783 92.5233L35.0404 87.6035L35.2906 87.6512C35.505 87.6929 40.4963 88.6875 41.8424 90.1587C42.849 91.2725 42.1521 94.7212 41.6875 97.0024C41.5612 97.5256 41.4717 98.057 41.4195 98.5927C41.4369 98.7117 41.4075 98.8327 41.3376 98.9305C41.2676 99.0282 41.1625 99.095 41.0442 99.1169C40.9465 99.1383 40.8465 99.1483 40.7464 99.1466ZM35.2369 92.297C35.6122 92.5531 36.8689 93.4168 37.1965 93.6669C37.5241 93.9171 37.5063 94.1851 37.6016 94.6854C37.7139 95.433 37.9138 96.1646 38.1972 96.8654C38.4124 97.3189 38.73 97.7163 39.1247 98.0263C39.5195 98.3364 39.9809 98.5507 40.4725 98.6523C40.7822 98.7059 40.9132 98.6523 40.9311 98.6523C40.9531 98.0622 41.043 97.4766 41.1991 96.9071C41.5863 94.9833 42.3129 91.3976 41.4552 90.4506C40.3891 89.2593 36.4639 88.36 35.4275 88.1396L35.2369 92.297Z" fill="#4C0919"/>
<path d="M10.0776 83.3281H9.63086V93.5907H10.0776V83.3281Z" fill="#4C0919"/>
<path d="M19.483 95.2637C19.483 96.5264 17.5055 101.22 9.85179 101.22C2.60309 101.22 0.226562 96.5502 0.226562 95.2637C0.226562 93.9771 4.53886 92.9824 9.85179 92.9824C15.1647 92.9824 19.483 94.0069 19.483 95.2637Z" fill="#D6944C"/>
<path d="M11.7754 93.0303C13.8362 93.4472 15.1466 94.0667 15.1466 94.7635C15.1466 95.9965 13.2406 100.476 6.00977 100.672C7.2586 101.03 8.55243 101.207 9.85152 101.196C17.5052 101.196 19.4827 96.5266 19.4827 95.24C19.4827 94.1619 16.1711 93.2387 11.7754 93.0303Z" fill="#EAAC6E"/>
<path d="M9.85147 101.422C2.46577 101.422 0.00585938 96.5677 0.00585938 95.2633C0.00585938 93.6373 5.08651 92.7617 9.85743 92.7617C14.6284 92.7617 19.709 93.6373 19.709 95.2633C19.709 96.8894 17.3682 101.422 9.85147 101.422ZM9.85147 93.2084C4.3122 93.2084 0.446618 94.2925 0.446618 95.2633C0.446618 96.4546 2.8291 100.975 9.85147 100.975C17.5945 100.975 19.2563 96.2104 19.2563 95.2633C19.2563 94.3163 15.3967 93.2084 9.85147 93.2084Z" fill="#4C0919"/>
<path d="M9.8518 97.5449C15.1677 97.5449 19.477 96.5235 19.477 95.2637C19.477 94.0038 15.1677 92.9824 9.8518 92.9824C4.53593 92.9824 0.226562 94.0038 0.226562 95.2637C0.226562 96.5235 4.53593 97.5449 9.8518 97.5449Z" fill="#D6944C"/>
<path d="M1.03027 96.1745C2.51933 96.9846 5.90841 97.5445 9.85142 97.5445C13.7944 97.5445 17.1895 96.9846 18.6726 96.1745C17.1895 95.3704 13.8004 94.8105 9.85142 94.8105C5.90245 94.8105 2.51933 95.3704 1.03027 96.1745Z" fill="#AF6F2F"/>
<path d="M9.85157 97.7709C5.0866 97.7709 0 96.8894 0 95.2633C0 93.6373 5.08065 92.7617 9.85157 92.7617C14.6225 92.7617 19.7031 93.6373 19.7031 95.2633C19.7031 96.8894 14.6285 97.7709 9.85157 97.7709ZM9.85157 93.2084C4.3123 93.2084 0.446716 94.2925 0.446716 95.2633C0.446716 96.2342 4.3123 97.3242 9.85157 97.3242C15.3908 97.3242 19.2564 96.2401 19.2564 95.2633C19.2564 94.2865 15.3968 93.2084 9.85157 93.2084Z" fill="#4C0919"/>
<path d="M0.446926 95.1682L0.107422 94.8764L9.85178 83.4404L19.5961 94.8764L19.2566 95.1682L9.85178 84.1314L0.446926 95.1682Z" fill="#4C0919"/>
<path d="M57.8051 83.3271H57.3584V93.5897H57.8051V83.3271Z" fill="#4C0919"/>
<path d="M67.2096 95.2637C67.2096 96.5264 65.2321 101.22 57.5784 101.22C50.3297 101.22 47.9531 96.5502 47.9531 95.2637C47.9531 93.9771 52.2654 92.9824 57.5784 92.9824C62.8913 92.9824 67.2096 94.0069 67.2096 95.2637Z" fill="#D6944C"/>
<path d="M57.5786 92.9824C56.846 92.9824 56.1313 92.9824 55.4463 93.042C59.7348 93.2743 62.9392 94.1796 62.9392 95.2637C62.9392 96.3477 61.337 100.255 55.4939 101.047C56.1846 101.145 56.8811 101.195 57.5786 101.196C65.2323 101.196 67.2098 96.5264 67.2098 95.2398C67.2098 93.9533 62.8975 92.9824 57.5786 92.9824Z" fill="#EAAC6E"/>
<path d="M57.5791 101.422C50.1934 101.422 47.7275 96.5677 47.7275 95.2633C47.7275 93.6373 52.8082 92.7617 57.5791 92.7617C62.35 92.7617 67.4307 93.6373 67.4307 95.2633C67.4307 96.8894 65.0958 101.422 57.5791 101.422ZM57.5791 93.2084C52.0398 93.2084 48.1743 94.2925 48.1743 95.2633C48.1743 96.4546 50.527 100.975 57.5791 100.975C65.352 100.975 66.984 96.2104 66.984 95.2633C66.984 94.3163 63.1422 93.2084 57.5791 93.2084Z" fill="#4C0919"/>
<path d="M57.5784 97.5449C62.8942 97.5449 67.2036 96.5235 67.2036 95.2637C67.2036 94.0038 62.8942 92.9824 57.5784 92.9824C52.2625 92.9824 47.9531 94.0038 47.9531 95.2637C47.9531 96.5235 52.2625 97.5449 57.5784 97.5449Z" fill="#D6944C"/>
<path d="M48.7578 96.1745C50.2469 96.9846 53.6359 97.5445 57.579 97.5445C61.522 97.5445 64.917 96.9846 66.4001 96.1745C64.917 95.3704 61.5279 94.8105 57.579 94.8105C53.63 94.8105 50.2469 95.3704 48.7578 96.1745Z" fill="#AF6F2F"/>
<path d="M57.5791 97.7709C52.8141 97.7709 47.7275 96.8894 47.7275 95.2633C47.7275 93.6373 52.8082 92.7617 57.5791 92.7617C62.35 92.7617 67.4307 93.6373 67.4307 95.2633C67.4307 96.8894 62.356 97.7709 57.5791 97.7709ZM57.5791 93.2084C52.0398 93.2084 48.1743 94.2925 48.1743 95.2633C48.1743 96.2342 52.0398 97.3242 57.5791 97.3242C63.1184 97.3242 66.984 96.2401 66.984 95.2633C66.984 94.2865 63.1422 93.2084 57.5791 93.2084Z" fill="#4C0919"/>
<path d="M66.9832 95.1682L57.5783 84.1314L48.1735 95.1682L47.834 94.8764L57.5783 83.4404L67.3227 94.8764L66.9832 95.1682Z" fill="#4C0919"/>
<path d="M33.7534 124.544C39.3423 124.544 43.873 122.781 43.873 120.607C43.873 118.433 39.3423 116.67 33.7534 116.67C28.1645 116.67 23.6338 118.433 23.6338 120.607C23.6338 122.781 28.1645 124.544 33.7534 124.544Z" fill="#D6944C"/>
<path d="M39.6206 117.403C40.9964 118.076 41.8244 118.922 41.8244 119.851C41.8244 122.025 37.2917 123.782 31.6988 123.782C29.7216 123.8 27.7508 123.556 25.8379 123.056C27.6903 123.961 30.5433 124.539 33.7537 124.539C39.3406 124.539 43.8793 122.752 43.8793 120.608C43.8733 119.291 42.1936 118.1 39.6206 117.403Z" fill="#EAAC6E"/>
<path d="M33.76 124.764C27.9586 124.764 23.4141 122.936 23.4141 120.595C23.4141 118.254 27.9586 116.426 33.76 116.426C39.5613 116.426 44.1 118.254 44.1 120.595C44.1 122.936 39.5554 124.764 33.76 124.764ZM33.76 116.89C28.3994 116.89 23.8608 118.594 23.8608 120.607C23.8608 122.62 28.3935 124.318 33.76 124.318C39.1265 124.318 43.6533 122.614 43.6533 120.607C43.6533 118.6 39.1206 116.908 33.76 116.908V116.89Z" fill="#4C0919"/>
<path d="M33.754 121.328C37.4382 121.328 40.4249 120.165 40.4249 118.731C40.4249 117.296 37.4382 116.134 33.754 116.134C30.0697 116.134 27.083 117.296 27.083 118.731C27.083 120.165 30.0697 121.328 33.754 121.328Z" fill="#D6944C"/>
<path d="M36.273 116.312C37.6131 116.789 38.4649 117.468 38.4649 118.23C38.4649 119.66 35.4867 120.821 31.7879 120.821C30.9464 120.824 30.1059 120.761 29.2744 120.631C30.7213 121.105 32.2371 121.334 33.7594 121.31C37.4404 121.31 40.4304 120.148 40.4304 118.713C40.4304 117.647 38.721 116.718 36.273 116.312Z" fill="#EAAC6E"/>
<path d="M33.7596 121.549C29.8881 121.549 26.8623 120.316 26.8623 118.731C26.8623 117.147 29.8881 115.914 33.7596 115.914C37.6311 115.914 40.6509 117.153 40.6509 118.731C40.6509 120.31 37.6252 121.549 33.7596 121.549ZM33.7596 116.361C29.9 116.361 27.309 117.588 27.309 118.743C27.309 119.899 29.9 121.126 33.7596 121.126C37.6192 121.126 40.2042 119.899 40.2042 118.743C40.2042 117.588 37.6133 116.361 33.7596 116.361Z" fill="#4C0919"/>
<path d="M35.2963 74.5059H32.1693C32.1693 74.5059 30.6445 86.9007 30.6445 95.1143C30.6445 103.328 31.5022 118.171 31.5022 118.171C31.5022 118.171 32.0562 118.665 33.7239 118.665C35.3916 118.665 35.9515 118.171 35.9515 118.171C35.9515 118.171 36.8033 103.322 36.8033 95.1143C36.8033 86.9067 35.2963 74.5059 35.2963 74.5059Z" fill="#D6944C"/>
<path d="M36.8153 95.1146C36.8153 88.5628 35.8564 79.4141 35.4632 75.9297C35.1237 76.2889 34.7346 76.5977 34.3077 76.8469C33.4858 77.3711 33.3071 88.1637 33.3548 91.9042C33.4024 95.6447 33.7776 111.274 33.7598 114.859C33.7598 116.646 33.7598 117.873 33.7598 118.665C35.4811 118.665 35.9755 118.171 35.9755 118.171C35.9755 118.171 36.8153 103.322 36.8153 95.1146Z" fill="#EAAC6E"/>
<path d="M33.7365 118.891C32.033 118.891 31.4314 118.391 31.354 118.337L31.2825 118.278V118.182C31.2825 118.034 30.4248 103.238 30.4248 95.114C30.4248 86.9898 31.9317 74.6008 31.9496 74.4817V74.2852H35.4578V74.4817C35.4578 74.6008 36.9826 86.9898 36.9826 95.114C36.9826 103.238 36.1368 118.034 36.1249 118.182V118.266L36.0653 118.331C36.0653 118.385 35.5114 118.891 33.7365 118.891ZM31.7292 118.051C32.3522 118.356 33.0445 118.492 33.7365 118.444C34.4282 118.499 35.1219 118.365 35.7437 118.057C35.8211 116.717 36.5954 102.869 36.5954 95.114C36.5954 87.5675 35.291 76.346 35.1004 74.7319H32.3784C32.1878 76.346 30.8834 87.5675 30.8834 95.114C30.8834 102.857 31.6518 116.687 31.7292 118.051Z" fill="#4C0919"/>
<path d="M36.5414 73.238C36.5414 73.7928 36.3769 74.3352 36.0686 74.7966C35.7604 75.2579 35.3222 75.6175 34.8096 75.8298C34.297 76.0422 33.7329 76.0977 33.1887 75.9895C32.6445 75.8812 32.1447 75.614 31.7523 75.2217C31.36 74.8293 31.0928 74.3295 30.9846 73.7853C30.8763 73.2411 30.9319 72.677 31.1442 72.1644C31.3565 71.6518 31.7161 71.2137 32.1775 70.9054C32.6388 70.5971 33.1812 70.4326 33.736 70.4326C34.4801 70.4326 35.1936 70.7282 35.7197 71.2543C36.2459 71.7804 36.5414 72.494 36.5414 73.238Z" fill="#D6944C"/>
<path d="M36.4878 72.6895C36.3704 72.1058 36.0696 71.5749 35.6292 71.1741C35.1889 70.7734 34.632 70.5239 34.0398 70.4619C33.5733 70.5022 33.1367 70.7081 32.8089 71.0424C32.4812 71.3767 32.2839 71.8173 32.2529 72.2845C32.2956 72.8152 32.546 73.3075 32.9498 73.6544C33.3536 74.0013 33.8781 74.1747 34.4091 74.1369C34.8658 74.1544 35.3158 74.0225 35.6908 73.7614C36.0659 73.5002 36.3457 73.1239 36.4878 72.6895Z" fill="#EAAC6E"/>
<path d="M33.7358 76.2636C33.1359 76.2636 32.5496 76.0857 32.0509 75.7523C31.5522 75.4189 31.1636 74.945 30.9343 74.3907C30.705 73.8364 30.6453 73.2265 30.7628 72.6383C30.8803 72.05 31.1696 71.5098 31.5942 71.0861C32.0188 70.6623 32.5595 70.374 33.148 70.2577C33.7365 70.1414 34.3463 70.2023 34.9001 70.4327C35.454 70.6631 35.9271 71.0526 36.2595 71.5519C36.5919 72.0513 36.7687 72.638 36.7675 73.2379C36.7659 74.0409 36.4458 74.8105 35.8774 75.3778C35.3091 75.945 34.5388 76.2636 33.7358 76.2636ZM33.7358 70.6529C33.2245 70.6529 32.7248 70.8045 32.2997 71.0885C31.8746 71.3726 31.5432 71.7763 31.3476 72.2486C31.1519 72.721 31.1007 73.2407 31.2005 73.7422C31.3002 74.2436 31.5464 74.7042 31.9079 75.0657C32.2695 75.4272 32.7301 75.6734 33.2315 75.7732C33.7329 75.8729 34.2527 75.8217 34.725 75.6261C35.1974 75.4304 35.6011 75.0991 35.8851 74.674C36.1692 74.2489 36.3208 73.7491 36.3208 73.2379C36.3208 72.5523 36.0485 71.8948 35.5637 71.41C35.0789 70.9252 34.4214 70.6529 33.7358 70.6529Z" fill="#4C0919"/>
<path d="M31.8302 77.5977C24.1732 77.6697 16.6098 79.2905 9.5957 82.3626C9.9769 83.3514 17.8391 79.9801 31.586 79.9801C32.408 79.7895 32.3961 77.9074 31.8302 77.5977Z" fill="#D6944C"/>
<path d="M31.8302 77.5977C24.1732 77.6697 16.6098 79.2905 9.5957 82.3626C19.1256 78.9676 32.2293 78.6876 32.2293 78.6876C32.2548 78.4873 32.2319 78.2837 32.1624 78.0941C32.093 77.9044 31.9791 77.7342 31.8302 77.5977Z" fill="#EAAC6E"/>
<path d="M10.131 82.7436C9.72007 82.7436 9.53543 82.6483 9.4163 82.422L9.33887 82.2194L9.53542 82.1361C16.5864 79.0745 24.1787 77.4543 31.8653 77.3711H31.9665C32.4132 77.6153 32.5621 78.4253 32.4549 79.0567C32.3477 79.6881 32.0737 80.0693 31.6627 80.1526H31.5734C25.3966 80.1629 19.2393 80.8459 13.2104 82.1897C12.2002 82.4555 11.1705 82.6407 10.131 82.7436ZM31.4721 77.8178C24.1882 77.9605 16.9972 79.4823 10.2799 82.3028C10.8756 82.2552 11.9953 82.0229 13.1508 81.7846C19.1797 80.4402 25.3369 79.7552 31.5138 79.7417H31.5734C31.7461 79.7 31.9129 79.4319 31.9725 79.021C32.0566 78.6096 31.9753 78.1816 31.7461 77.8297L31.4721 77.8178Z" fill="#4C0919"/>
<path d="M11.4599 82.4994C11.4611 82.8142 11.3688 83.1222 11.1948 83.3845C11.0208 83.6468 10.7728 83.8516 10.4823 83.9729C10.1918 84.0942 9.87189 84.1265 9.56301 84.0658C9.25413 84.0051 8.97021 83.8541 8.7472 83.632C8.5242 83.4098 8.37214 83.1265 8.31029 82.8178C8.24845 82.5092 8.27959 82.1891 8.39978 81.8982C8.51997 81.6072 8.7238 81.3585 8.98545 81.1835C9.2471 81.0085 9.55481 80.9151 9.86959 80.9151C10.0782 80.9143 10.2848 80.9547 10.4777 81.0339C10.6706 81.1132 10.846 81.2298 10.9938 81.377C11.1415 81.5242 11.2587 81.6991 11.3387 81.8917C11.4187 82.0843 11.4599 82.2908 11.4599 82.4994Z" fill="#D6944C"/>
<path d="M11.3583 82.0229C11.3583 82.242 11.2933 82.4562 11.1716 82.6384C11.0499 82.8206 10.8768 82.9626 10.6744 83.0464C10.472 83.1303 10.2492 83.1522 10.0343 83.1095C9.8194 83.0667 9.622 82.9612 9.46706 82.8063C9.31213 82.6513 9.20661 82.4539 9.16387 82.239C9.12112 82.0241 9.14306 81.8014 9.22691 81.5989C9.31076 81.3965 9.45276 81.2235 9.63494 81.1017C9.81713 80.98 10.0313 80.915 10.2504 80.915C10.5438 80.9166 10.8247 81.0338 11.0321 81.2413C11.2395 81.4487 11.3567 81.7295 11.3583 82.0229Z" fill="#EAAC6E"/>
<path d="M9.86987 84.3101C9.51646 84.3101 9.17099 84.2053 8.87714 84.0089C8.58329 83.8126 8.35427 83.5335 8.21902 83.207C8.08378 82.8805 8.0484 82.5212 8.11734 82.1746C8.18629 81.828 8.35647 81.5096 8.60637 81.2597C8.85627 81.0098 9.17466 80.8396 9.52127 80.7707C9.86789 80.7017 10.2272 80.7371 10.5537 80.8724C10.8802 81.0076 11.1592 81.2366 11.3556 81.5305C11.5519 81.8243 11.6567 82.1698 11.6567 82.5232C11.6567 82.9971 11.4685 83.4516 11.1334 83.7867C10.7983 84.1218 10.3438 84.3101 9.86987 84.3101ZM9.86987 81.1414C9.59985 81.1414 9.33591 81.2215 9.11147 81.3716C8.88704 81.5218 8.71222 81.7352 8.60916 81.9847C8.50611 82.2343 8.47944 82.5089 8.53256 82.7736C8.58567 83.0384 8.71617 83.2814 8.90753 83.4719C9.09888 83.6624 9.34247 83.7919 9.60745 83.8438C9.87242 83.8958 10.1469 83.8679 10.396 83.7638C10.6451 83.6596 10.8577 83.4839 11.0069 83.2588C11.156 83.0337 11.235 82.7694 11.2338 82.4994C11.226 82.1434 11.0787 81.8046 10.8236 81.5562C10.5685 81.3078 10.226 81.1695 9.86987 81.1711V81.1414Z" fill="#4C0919"/>
<path d="M35.6237 77.5977C43.2807 77.6701 50.8439 79.291 57.8582 82.3626C57.477 83.3514 49.6088 79.9801 35.8679 79.9801C35.0459 79.7895 35.0578 77.9074 35.6237 77.5977Z" fill="#D6944C"/>
<path d="M35.4033 78.6821C42.7834 78.5459 50.12 79.8425 57.0064 82.5C57.5008 82.5476 57.7927 82.5 57.8582 82.3392C50.8439 79.2675 43.2807 77.6467 35.6236 77.5742C35.3377 77.7291 35.1948 78.289 35.2246 78.825C35.2729 78.7648 35.3339 78.716 35.4033 78.6821Z" fill="#EAAC6E"/>
<path d="M57.3523 82.7441C56.3036 82.6525 55.2639 82.4773 54.2431 82.2199C48.2103 80.8762 42.0489 80.1952 35.8682 80.1889C35.4096 80.0995 35.1178 79.7005 35.0284 79.087C34.9391 78.4735 35.0701 77.6456 35.5109 77.4014H35.6121C43.3007 77.4838 50.8951 79.1039 57.9479 82.1663L58.1385 82.2497L58.067 82.4522C57.9777 82.6488 57.7811 82.7441 57.3523 82.7441ZM36.0648 79.766C42.2085 79.7694 48.3337 80.4404 54.3325 81.7673C55.482 82.0055 56.5839 82.2319 57.1915 82.2795C50.3828 79.4118 43.0829 77.8907 35.6955 77.8004C35.4663 78.1523 35.385 78.5803 35.4692 78.9917C35.5287 79.4027 35.6955 79.6707 35.9099 79.7183L36.0648 79.766Z" fill="#4C0919"/>
<path d="M55.9942 82.4994C55.993 82.8144 56.0854 83.1227 56.2597 83.3852C56.434 83.6476 56.6823 83.8523 56.9731 83.9735C57.2639 84.0946 57.5842 84.1266 57.8932 84.0654C58.2023 84.0042 58.4862 83.8526 58.709 83.6299C58.9317 83.4071 59.0833 83.1232 59.1445 82.8141C59.2057 82.5051 59.1737 82.1848 59.0526 81.894C58.9315 81.6032 58.7267 81.3549 58.4643 81.1806C58.2018 81.0063 57.8935 80.9139 57.5785 80.9151C57.1583 80.9151 56.7553 81.082 56.4582 81.3791C56.1611 81.6762 55.9942 82.0792 55.9942 82.4994Z" fill="#D6944C"/>
<path d="M56.7266 82.1361C56.7266 82.3776 56.7982 82.6136 56.9323 82.8144C57.0665 83.0152 57.2572 83.1717 57.4803 83.2641C57.7034 83.3565 57.9489 83.3807 58.1858 83.3336C58.4227 83.2865 58.6402 83.1702 58.811 82.9994C58.9817 82.8287 59.098 82.6111 59.1451 82.3743C59.1923 82.1374 59.1681 81.8919 59.0757 81.6688C58.9832 81.4457 58.8267 81.255 58.6259 81.1208C58.4252 80.9866 58.1891 80.915 57.9476 80.915C57.6238 80.915 57.3132 81.0437 57.0842 81.2727C56.8552 81.5016 56.7266 81.8122 56.7266 82.1361Z" fill="#EAAC6E"/>
<path d="M57.5789 84.3101C57.2254 84.3101 56.88 84.2053 56.5861 84.0089C56.2923 83.8126 56.0633 83.5335 55.928 83.207C55.7928 82.8805 55.7574 82.5212 55.8263 82.1746C55.8953 81.828 56.0655 81.5096 56.3153 81.2597C56.5652 81.0098 56.8836 80.8396 57.2302 80.7707C57.5769 80.7017 57.9361 80.7371 58.2627 80.8724C58.5892 81.0076 58.8682 81.2366 59.0646 81.5305C59.2609 81.8243 59.3657 82.1698 59.3657 82.5232C59.3657 82.9971 59.1775 83.4516 58.8424 83.7867C58.5073 84.1218 58.0528 84.3101 57.5789 84.3101ZM57.5789 81.1414C57.3088 81.1414 57.0449 81.2215 56.8204 81.3716C56.596 81.5218 56.4212 81.7352 56.3181 81.9847C56.2151 82.2343 56.1884 82.5089 56.2415 82.7736C56.2947 83.0384 56.4252 83.2814 56.6165 83.4719C56.8079 83.6624 57.0514 83.7919 57.3164 83.8438C57.5814 83.8958 57.8558 83.8679 58.105 83.7638C58.3541 83.6596 58.5667 83.4839 58.7159 83.2588C58.865 83.0337 58.944 82.7694 58.9428 82.4994C58.935 82.1434 58.7877 81.8046 58.5326 81.5562C58.2774 81.3078 57.935 81.1695 57.5789 81.1711V81.1414Z" fill="#4C0919"/>
<path d="M30.9123 87.7227C30.9123 87.7227 26.3558 88.4255 25.2063 90.1051C24.0567 91.7848 24.7596 92.9701 24.7596 93.804C24.7596 94.6378 23.4254 97.1811 24.2533 98.1341C24.6056 98.4988 24.8483 98.9553 24.9536 99.4513C25.0589 99.9474 25.0227 100.463 24.8489 100.939C24.5273 101.702 24.9144 103.173 25.8674 104.061C26.2225 104.339 26.5183 104.686 26.7372 105.081C26.9561 105.476 27.0937 105.911 27.142 106.36C27.3982 107.438 31.1565 108.272 34.3431 107.884C37.5297 107.497 38.7269 106.753 39.0604 105.8C39.394 104.847 38.5839 103.84 38.5839 103.84C40.3708 102.357 40.1325 100.493 39.1438 100.016C40.1147 98.2949 40.1623 96.1447 38.8698 95.424C39.8764 93.9469 39.3463 91.7967 38.8222 91.3142C38.298 90.8318 30.8468 89.7061 30.8468 89.7061L30.9123 87.7227Z" fill="#FD957A"/>
<path d="M39.1205 100.017C40.0914 98.2954 40.139 96.1452 38.8465 95.4245C39.8531 93.9474 39.323 91.7972 38.7989 91.3148C38.4951 91.0408 35.8863 90.5464 33.7301 90.1771C32.384 90.0759 31.3477 90.0342 31.3477 90.0342C31.3477 90.0342 35.654 90.7906 36.8035 91.7436C37.9531 92.6966 37.1609 95.3173 36.4045 95.5794C35.648 95.8415 32.2649 95.4007 31.4251 95.1684C33.5098 96.5681 35.0703 96.2286 36.2854 96.7587C37.5004 97.2888 38.1139 99.1412 37.2383 100.279C34.8023 100.523 32.5329 100.606 32.5329 100.606C33.8099 101.002 35.1392 101.203 36.476 101.202C37.4647 101.256 38.0722 103.221 37.3277 103.972C36.5832 104.722 32.8844 104.835 32.8844 104.835C33.8165 105.11 34.7835 105.249 35.7553 105.246C37.155 105.246 37.8221 106.128 37.6315 107.111C37.9424 107.003 38.2272 106.832 38.4674 106.607C38.7075 106.382 38.8976 106.109 39.0252 105.806C39.3588 104.847 38.5487 103.847 38.5487 103.847C40.3296 102.358 40.1092 100.493 39.1205 100.017Z" fill="#FFAA99"/>
<path d="M29.8342 104.025C29.6258 102.769 29.191 103.055 29.191 102.024C29.191 100.994 29.9891 100.714 29.8759 99.4391C29.7628 98.1645 28.506 97.6523 28.9349 96.5861C29.3637 95.5199 30.3882 94.7992 29.7032 92.5001C29.0182 90.201 30.823 89.7067 30.823 89.7067L30.9123 87.7471C30.9123 87.7471 26.3558 88.4499 25.2063 90.1296C24.0567 91.8092 24.7596 92.9945 24.7596 93.8284C24.7596 94.6622 23.4254 97.2055 24.2533 98.1585C24.6056 98.5232 24.8483 98.9797 24.9536 99.4757C25.0589 99.9718 25.0227 100.487 24.8489 100.964C24.5273 101.726 24.9144 103.197 25.8674 104.085C26.2225 104.364 26.5183 104.711 26.7372 105.106C26.9561 105.5 27.0937 105.935 27.142 106.384C27.3982 107.462 31.1565 108.296 34.3431 107.909C34.6707 107.873 34.9387 107.825 35.2544 107.784C33.9612 107.776 32.6763 107.575 31.4424 107.188C29.602 106.467 30.0427 105.276 29.8342 104.025Z" fill="#ED7966"/>
<path d="M32.7117 108.2C30.0195 108.2 27.1605 107.509 26.9044 106.413C26.86 105.989 26.7318 105.578 26.5273 105.204C26.3228 104.83 26.0461 104.5 25.7131 104.234C24.641 103.233 24.2956 101.684 24.6351 100.862C24.7967 100.426 24.8322 99.9538 24.7374 99.4986C24.6426 99.0435 24.4213 98.6243 24.099 98.2892C23.4617 97.5507 23.9084 96.1212 24.2658 94.9776C24.4063 94.5924 24.5042 94.1929 24.5576 93.7863C24.5474 93.5696 24.5175 93.3543 24.4683 93.1431C24.3244 92.602 24.3032 92.0357 24.4063 91.4854C24.5093 90.9351 24.734 90.4148 25.0639 89.9624C26.2552 88.2411 30.7283 87.5383 30.9189 87.5085L31.1869 87.4668L31.0976 89.4979C32.7057 89.7421 38.4654 90.6891 38.9895 91.1358C39.6149 91.7314 40.0795 93.8042 39.192 95.3409C39.5843 95.6349 39.8622 96.0559 39.9783 96.5321C40.2222 97.6892 40.0381 98.8956 39.4601 99.9272C39.6477 100.069 39.8038 100.248 39.9187 100.453C40.0335 100.658 40.1045 100.885 40.1272 101.118C40.1534 101.64 40.0559 102.159 39.8426 102.636C39.6294 103.112 39.3064 103.531 38.9002 103.858C39.1089 104.141 39.2524 104.467 39.3203 104.812C39.3883 105.157 39.3791 105.513 39.2933 105.854C38.8764 107.045 37.3635 107.736 34.3913 108.093C33.834 108.161 33.2732 108.197 32.7117 108.2ZM30.6747 88.0148C29.6919 88.1935 26.3147 88.8963 25.3915 90.2305C25.0999 90.6371 24.9035 91.1041 24.8169 91.597C24.7303 92.0898 24.7557 92.5958 24.8912 93.0775C24.9444 93.3165 24.9763 93.5596 24.9865 93.8042C24.9343 94.2482 24.8283 94.6842 24.6708 95.1027C24.367 96.0914 23.9442 97.4375 24.4206 97.9914C24.7937 98.3904 25.0472 98.886 25.1525 99.422C25.2578 99.9579 25.2106 100.513 25.0163 101.023C24.7363 101.696 25.0877 103.066 25.9812 103.9C26.7215 104.487 27.1991 105.344 27.3094 106.282C27.5298 107.224 31.0797 108.069 34.2782 107.688C37.024 107.361 38.4475 106.741 38.8108 105.746C39.0967 104.924 38.376 104.013 38.3701 104.001L38.2331 103.834L38.3999 103.692C38.7855 103.408 39.0957 103.035 39.3034 102.604C39.5111 102.173 39.6099 101.698 39.5911 101.22C39.5818 101.02 39.5223 100.826 39.4182 100.655C39.3142 100.484 39.1688 100.343 38.9955 100.243L38.7811 100.136L38.9002 99.9272C39.4992 98.9605 39.7119 97.8035 39.4958 96.687C39.444 96.4707 39.3493 96.267 39.2173 96.0879C39.0854 95.9089 38.9188 95.7581 38.7275 95.6447L38.513 95.5255L38.65 95.323C39.6209 93.8935 39.0491 91.8803 38.65 91.5051C38.3046 91.2192 34.3377 90.4926 30.7878 89.9505H30.5913L30.6747 88.0148Z" fill="#4C0919"/>
<path d="M36.13 95.8412C35.2153 95.8429 34.3017 95.7792 33.3961 95.6506C30.686 95.2456 30.4775 94.4951 30.4775 94.4951C30.4775 94.4951 30.8409 94.8168 33.4556 95.2039C35.2334 95.4584 37.0384 95.4584 38.8162 95.2039L38.8877 95.6447C37.975 95.7821 37.0529 95.8478 36.13 95.8412Z" fill="#4C0919"/>
<path d="M33.6645 100.767C32.7368 100.664 31.8225 100.465 30.9365 100.171C33.6506 100.446 36.3903 100.318 39.0668 99.79L39.168 100.225C37.3569 100.594 35.5127 100.775 33.6645 100.767Z" fill="#4C0919"/>
<path d="M34.3017 104.918C33.3119 104.971 32.3238 104.787 31.4189 104.382C33.8002 104.649 36.2109 104.393 38.483 103.632L38.6379 104.049C38.5187 104.09 37.2024 104.918 34.3017 104.918Z" fill="#4C0919"/>
<path d="M32.3903 90.1775C32.3903 90.1775 30.1627 89.9035 28.7451 89.8678C28.7451 89.8678 30.0078 89.3556 32.4439 89.7367L32.3903 90.1775Z" fill="#4C0919"/>
<path d="M72.9096 91.6424L72.6416 88.1877L87.9788 64.0889C87.9788 64.0889 109.421 67.067 120.839 70.7301C124.091 67.6746 141.418 60.2412 141.418 60.2412L143.008 63.1598C143.008 63.1598 117.718 82.3626 117.343 82.7438C116.968 83.125 72.9096 91.6424 72.9096 91.6424Z" fill="white"/>
<path d="M72.7079 91.8928L72.416 88.1165L72.4577 88.057L87.8664 63.839H88.0094C88.2238 63.8688 109.452 66.8529 120.769 70.4504C124.235 67.3532 140.615 60.3249 141.317 60.0032L141.502 59.9258L143.289 63.1957L143.14 63.3089C134.438 69.9084 117.874 82.4939 117.469 82.8751C117.064 83.2563 86.1987 89.272 72.9461 91.8094L72.7079 91.8928ZM72.8746 88.2356L73.1129 91.3627C88.1285 88.462 116.325 82.9525 117.189 82.5415C117.54 82.1841 140.418 64.8397 142.705 63.0885L141.3 60.5154C139.417 61.3315 123.979 68.056 120.971 70.8793L120.876 70.9686L120.751 70.9329C109.97 67.4842 89.9571 64.5895 88.0749 64.3215L72.8746 88.2356Z" fill="#4C0919"/>
<path d="M72.0762 92.1725L89.242 66.6144L120.214 72.6957C120.214 72.6957 122.341 74.9114 123.139 71.8141C128.273 68.6276 143.05 62.5225 143.05 62.5225L143.58 63.2253L125.17 86.4188L108.796 94.4716C108.796 94.4716 107.295 96.7707 105.61 94.4716C94.1141 93.1433 72.0762 92.1725 72.0762 92.1725Z" fill="#660E23"/>
<path d="M112.108 91.3742C113.079 89.7661 107.784 77.4248 107.784 77.4248C107.784 77.4248 106.36 78.0204 107.069 80.9687C107.778 83.9171 108.606 88.9143 108.606 88.9143C108.606 88.9143 104.24 85.1679 103.537 83.7205C102.834 82.2732 101.119 79.4916 101.119 79.4916C101.119 79.4916 100.523 80.7186 101.613 83.5657C102.703 86.4127 103.579 89.4087 103.4 89.8792C103.222 90.3498 97.1879 85.7873 94.9543 85.2155C93.2151 86.0732 93.1675 86.4782 93.1675 86.4782C93.1429 87.4854 93.4299 88.4756 93.9894 89.3134C93.4951 89.7125 95.3832 91.8031 97.4559 93.721C100.434 93.9592 103.251 94.2154 105.616 94.4893C105.823 94.7835 106.081 95.0377 106.378 95.2398C108.892 93.9175 111.578 92.2558 112.108 91.3742Z" fill="#3A1E0C"/>
<path d="M143.074 62.5225C143.074 62.5225 128.297 68.6276 123.163 71.8141C122.763 73.3687 122.025 73.601 121.376 73.4164L107.337 95.4663C107.944 95.3351 108.477 94.9717 108.82 94.4537L125.194 86.4009L143.604 63.2074L143.074 62.5225Z" fill="#750F24"/>
<path d="M107.217 95.7157C106.873 95.6895 106.539 95.5819 106.244 95.4017C105.949 95.2216 105.701 94.974 105.52 94.6793C94.1255 93.3749 72.3079 92.404 72.0875 92.3921H71.6885L89.164 66.3814L120.357 72.5103L120.404 72.558C120.404 72.558 121.25 73.4216 121.965 73.231C122.4 73.1178 122.733 72.6354 122.948 71.7777V71.6884L123.025 71.6407C128.118 68.4839 142.823 62.3907 142.972 62.3311L143.133 62.2656L143.872 63.2484L143.765 63.3854L125.3 86.6146H125.253L109.004 94.6436C108.81 94.9356 108.555 95.1825 108.257 95.3674C107.959 95.5524 107.625 95.6712 107.277 95.7157H107.217ZM72.5045 91.9633C75.5362 92.1062 95.1381 93.0354 105.669 94.2505H105.764L105.824 94.3279C105.964 94.588 106.168 94.8091 106.415 94.9713C106.663 95.1334 106.946 95.2316 107.241 95.2571C107.526 95.2088 107.797 95.1018 108.038 94.9429C108.279 94.7839 108.484 94.5765 108.641 94.3339L108.677 94.2862H108.73L125.056 86.2572L143.33 63.2424L143.008 62.8076C141.4 63.4807 128.195 69.0021 123.353 71.9742C123.091 72.9392 122.656 73.5109 122.072 73.6658C121.214 73.8862 120.351 73.1298 120.13 72.9213L89.3486 66.8757L72.5045 91.9633Z" fill="#4C0919"/>
<path d="M101.095 98.6284C101.095 98.6284 103.072 104.072 107.051 106.193C111.03 108.313 119.148 106.592 119.559 99.4206C119.97 92.2493 117.439 90.1289 117.439 90.1289L101.095 98.6284Z" fill="#F4F4F4"/>
<path d="M101.095 98.6284C101.095 98.6284 103.072 104.072 107.051 106.193C111.03 108.313 119.148 106.592 119.559 99.4206C119.97 92.2493 117.439 90.1289 117.439 90.1289L101.095 98.6284Z" fill="#F4F4F4"/>
<path d="M112.661 104.704C113.102 103.453 114.728 104.108 116.908 100.713C118.314 98.5393 118.778 95.0906 118.933 92.9166C118.692 92.078 118.314 91.285 117.814 90.5699C117.315 90.5355 116.815 90.5798 116.33 90.7009L111.303 93.3157C110.112 94.1734 109.183 94.9298 108.921 95.037C108.659 95.1442 107.944 95.311 106.967 95.579L101.112 98.6286C101.112 98.6286 103.09 104.073 107.069 106.193C109.689 107.587 114.079 107.325 116.902 104.948C114.776 105.591 112.376 105.52 112.661 104.704Z" fill="#E0E0E0"/>
<path d="M110.791 107.259C109.457 107.285 108.137 106.987 106.944 106.39C102.917 104.252 100.952 98.9267 100.868 98.7003L100.803 98.5217L117.444 89.8613L117.558 89.9566C117.665 90.046 120.16 92.2379 119.761 99.4389C119.715 100.786 119.319 102.098 118.614 103.247C117.908 104.395 116.916 105.341 115.735 105.991C114.221 106.825 112.52 107.261 110.791 107.259ZM101.357 98.7301C101.744 99.6891 103.691 104.156 107.152 105.997C109.445 107.188 112.965 107.057 115.491 105.621C116.615 105.012 117.559 104.117 118.226 103.026C118.893 101.935 119.261 100.688 119.291 99.4091C119.63 93.2683 117.808 90.8977 117.349 90.4033L101.357 98.7301Z" fill="#4C0919"/>
<path d="M104.776 101.624C105.633 102.291 106.622 102.77 107.676 103.03C109.463 103.501 112.06 103.882 113.692 102.881C116.432 101.196 115.991 99.0752 117.23 96.0673C118.469 93.0594 117.897 91.5525 118.451 89.7359C119.005 87.9192 120.304 84.5361 121.304 83.4759C122.305 82.4157 120.304 81.284 118.582 82.5467C116.861 83.8094 115.991 85.5248 115.259 87.3117C114.526 89.0986 113.603 87.2462 113.073 85.3223C112.543 83.3985 110.946 78.1749 108.82 77.6209C106.694 77.067 107.14 79.5448 107.849 81.4031C108.558 83.2615 110.232 87.7108 110.416 88.8365C110.601 89.9622 108.629 88.7591 107.825 86.8471C107.021 84.9352 104.442 79.9022 102.917 78.9968C101.393 78.0915 100.66 79.2827 101.518 81.2066C102.375 83.1304 105.091 88.8901 105.633 90.5221C106.175 92.1541 104.043 92.0707 101.72 90.5221C99.3972 88.9735 96.4727 85.9835 94.9479 85.1615C93.4232 84.3395 92.8097 85.7571 93.4232 86.6267C94.0366 87.4963 100.136 93.8874 100.44 93.9171C96.8658 91.2071 95.0135 89.2772 93.721 88.9139C92.4285 88.5506 92.0949 90.1409 93.3576 91.6061C94.6204 93.0714 97.2709 95.1203 98.8671 97.1156C100.022 98.6637 101.551 99.8933 103.31 100.689C103.835 100.941 104.327 101.255 104.776 101.624Z" fill="#FD957A"/>
<path d="M104.776 101.624C105.633 102.291 106.622 102.77 107.676 103.03C109.463 103.501 112.06 103.882 113.692 102.881C116.432 101.196 115.991 99.0752 117.23 96.0673C118.469 93.0594 117.897 91.5525 118.451 89.7359C119.005 87.9192 120.304 84.5361 121.304 83.4759C122.305 82.4157 120.304 81.284 118.582 82.5467C116.861 83.8094 115.991 85.5248 115.259 87.3117C114.526 89.0986 113.603 87.2462 113.073 85.3223C112.543 83.3985 110.946 78.1749 108.82 77.6209C106.694 77.067 107.14 79.5448 107.849 81.4031C108.558 83.2615 110.232 87.7108 110.416 88.8365C110.601 89.9622 108.629 88.7591 107.825 86.8471C107.021 84.9352 104.442 79.9022 102.917 78.9968C101.393 78.0915 100.66 79.2827 101.518 81.2066C102.375 83.1304 105.091 88.8901 105.633 90.5221C106.175 92.1541 104.043 92.0707 101.72 90.5221C99.3972 88.9735 96.4727 85.9835 94.9479 85.1615C93.4232 84.3395 92.8097 85.7571 93.4232 86.6267C94.0366 87.4963 100.136 93.8874 100.44 93.9171C96.8658 91.2071 95.0135 89.2772 93.721 88.9139C92.4285 88.5506 92.0949 90.1409 93.3576 91.6061C94.6204 93.0714 97.2709 95.1203 98.8671 97.1156C100.022 98.6637 101.551 99.8933 103.31 100.689C103.835 100.941 104.327 101.255 104.776 101.624Z" fill="#FD957A"/>
<path d="M121.137 83.3211C121.137 83.3211 120.72 83.1782 120.261 83.0352C119.803 82.8923 118.981 84.3456 119.011 84.9174C119.04 85.4892 119.731 85.8346 120.035 85.6619C120.339 85.4892 121.137 83.3211 121.137 83.3211Z" fill="#FFB9AB"/>
<path d="M117.558 95.1807C116.217 97.2574 114.186 98.7933 111.822 99.5168C105.27 101.673 101.512 99.6657 100.249 98.665C101.142 99.5268 102.178 100.226 103.311 100.732C103.833 100.97 104.325 101.27 104.776 101.625C105.633 102.292 106.622 102.771 107.676 103.031C109.463 103.501 112.06 103.883 113.692 102.882C116.432 101.196 115.991 99.076 117.23 96.0681C117.343 95.7525 117.462 95.4666 117.558 95.1807Z" fill="#ED7966"/>
<path d="M120.869 82.106C120.481 81.9879 120.07 81.9663 119.671 82.0431C119.273 82.1199 118.899 82.2928 118.582 82.5467C116.855 83.8035 115.991 85.5248 115.259 87.3117C114.526 89.0985 113.603 87.2462 113.073 85.3223C112.983 85.0066 112.864 84.5897 112.721 84.1311C112.65 84.3721 112.65 84.6286 112.721 84.8696C112.971 85.6976 114.115 92.0886 115.372 90.7246C116.629 89.3606 115.598 88.9377 116.658 85.7631C116.993 84.8465 117.555 84.0299 118.291 83.3902C119.028 82.7504 119.915 82.3085 120.869 82.106Z" fill="#ED7966"/>
<path d="M110.97 87.2943C110.434 85.5075 110.511 85.3526 111.155 84.4056C111.155 84.4056 110.208 84.5962 109.904 83.9112C109.208 82.5481 108.611 81.1369 108.117 79.6882C107.521 77.7525 109.445 77.9788 109.445 77.9788C109.096 77.8106 108.734 77.6731 108.361 77.5678C106.777 77.5023 107.2 79.7061 107.849 81.4155C108.558 83.2739 110.231 87.7232 110.416 88.8489C110.601 89.9746 108.629 88.7715 107.825 86.8595C107.676 86.5022 107.462 86.0376 107.229 85.5075C107.593 86.6391 107.879 87.4313 107.879 87.4313C107.879 87.4313 109.963 91.285 110.857 90.4094C111.75 89.5339 111.5 89.0812 110.97 87.2943Z" fill="#ED7966"/>
<path d="M102.918 79.0093C101.387 78.098 100.66 79.2952 101.518 81.2191C102.376 83.1429 105.092 88.9026 105.634 90.5346C106.021 91.7258 105.038 91.9998 103.543 91.4757C103.693 91.6444 103.878 91.7785 104.085 91.8688C105.997 92.661 107.814 91.8211 107.319 90.4036C106.825 88.986 105.759 87.8245 104.621 85.7339C103.693 84.1012 102.867 82.4123 102.149 80.6771C101.387 78.8545 102.918 79.0093 102.918 79.0093Z" fill="#ED7966"/>
<path d="M101.654 93.0359C100.203 92.2791 98.8806 91.2981 97.7351 90.1293C96.9013 89.2001 95.4182 87.7468 95.4956 87.181C95.573 86.6151 96.6868 86.496 96.6868 86.496V86.4484C96.146 85.9772 95.5616 85.5584 94.9417 85.1976C93.4169 84.4054 92.8034 85.7932 93.4169 86.6628C93.9589 87.4252 98.8132 92.5416 100.124 93.709C98.3844 92.3748 97.068 91.2491 96.0317 90.4152C97.5088 91.8566 99.0098 93.1372 99.0098 93.1372C99.0098 93.1372 101.672 95.2755 102.625 95.0134C103.578 94.7513 103.048 93.7209 101.654 93.0359Z" fill="#ED7966"/>
<path d="M105.681 99.689C102.965 99.2006 99.3912 96.5203 98.5335 95.1802C97.6758 93.84 96.4667 93.3278 95.4958 92.5892C94.525 91.8506 93.9532 90.707 94.382 90.1293C94.8109 89.5515 95.8055 90.5343 95.8055 90.5343C95.5316 90.1988 95.2351 89.8824 94.9181 89.5873C94.555 89.3166 94.1535 89.1018 93.7268 88.95C92.4343 88.5866 92.1008 90.1769 93.3635 91.6362C94.6262 93.0955 97.2767 95.1563 98.873 97.1517C100.028 98.6997 101.557 99.9293 103.316 100.725C103.839 100.964 104.33 101.264 104.782 101.619C106.866 101.69 108.766 100.868 111.28 99.6771C110.089 100.094 108.409 100.171 105.681 99.689Z" fill="#ED7966"/>
<path d="M107.504 78.4018C107.905 78.3538 108.291 78.2197 108.635 78.0087C109.124 77.6811 109.827 79.2357 109.779 79.8551C109.731 80.4746 108.546 80.7366 108.129 80.4507C107.712 80.1648 107.218 78.4554 107.504 78.4018Z" fill="#FFB9AB"/>
<path d="M101.119 79.4738C101.52 79.4221 101.906 79.2861 102.251 79.0747C102.733 78.7531 103.442 80.3017 103.394 80.9211C103.347 81.5406 102.161 81.8027 101.744 81.5168C101.327 81.2309 100.833 79.5214 101.119 79.4738Z" fill="#FFB9AB"/>
<path d="M93.209 86.056C93.4898 85.8537 93.7167 85.5859 93.8702 85.2757C94.0846 84.8052 95.3235 85.913 95.5558 86.467C95.7881 87.0209 95.0376 87.7237 94.5909 87.6046C94.1442 87.4855 93.0184 86.2109 93.209 86.056Z" fill="#FFB9AB"/>
<path d="M92.5831 90.1952C92.8621 89.9911 93.0887 89.7237 93.2443 89.415C93.4587 88.9385 94.6976 90.0463 94.9299 90.6062C95.1622 91.1661 94.4177 91.857 93.965 91.7379C93.5123 91.6188 92.3925 90.3441 92.5831 90.1952Z" fill="#FFB9AB"/>
<path d="M110.988 103.734C109.849 103.71 108.717 103.548 107.617 103.251C106.533 102.981 105.518 102.486 104.639 101.798C104.201 101.456 103.726 101.166 103.221 100.934C101.425 100.124 99.8652 98.8694 98.6885 97.289C97.6756 96.1039 96.5788 94.9932 95.4066 93.9654C94.5489 93.1733 93.7389 92.4228 93.185 91.7855C92.3868 90.8622 92.1188 89.7603 92.5298 89.1171C92.6642 88.9212 92.8612 88.7768 93.0885 88.7076C93.3157 88.6383 93.5598 88.6483 93.7806 88.7359C94.6145 88.9682 95.6211 89.7782 97.1101 90.9992C95.3232 89.1171 93.4232 87.0503 93.2386 86.7882C93.0526 86.5489 92.9517 86.2544 92.9517 85.9513C92.9517 85.6483 93.0526 85.3538 93.2386 85.1145C93.6317 84.6618 94.2988 84.6201 95.0254 85.0013C96.1884 85.7437 97.281 86.591 98.2894 87.5327C99.4138 88.5364 100.593 89.477 101.821 90.35C103.489 91.4638 104.865 91.708 105.312 91.3685C105.49 91.2315 105.52 90.9754 105.401 90.6061C105.002 89.3791 103.316 85.7161 102.197 83.2859L101.291 81.3085C100.779 80.1649 100.779 79.1702 101.291 78.7175C101.518 78.5091 102.048 78.247 103.007 78.8128C104.663 79.8016 107.289 85.0668 108.01 86.7703C108.387 87.7208 109.079 88.5133 109.97 89.0158C109.975 89.0329 109.983 89.0487 109.995 89.0622C110.007 89.0757 110.021 89.0865 110.037 89.094C110.053 89.1014 110.071 89.1053 110.089 89.1054C110.107 89.1055 110.124 89.1018 110.141 89.0945C110.157 89.0872 110.171 89.0765 110.183 89.0632C110.195 89.0498 110.204 89.0341 110.209 89.0171C110.214 89 110.216 88.9821 110.214 88.9644C110.211 88.9467 110.205 88.9297 110.196 88.9146C109.981 87.7233 108.028 82.5414 107.641 81.5229C107.254 80.5044 106.664 78.5448 107.391 77.7228C107.585 77.5376 107.829 77.4125 108.094 77.3629C108.358 77.3132 108.631 77.341 108.88 77.4429C110.97 77.9611 112.537 82.5891 113.287 85.2991C113.74 86.949 114.288 87.8305 114.592 87.8484C114.74 87.8484 114.901 87.6399 115.056 87.2528C115.729 85.6029 116.599 83.7267 118.451 82.3746C119.601 81.5348 120.983 81.6539 121.548 82.2972C121.632 82.3902 121.696 82.4989 121.737 82.6169C121.778 82.735 121.796 82.86 121.788 82.9848C121.78 83.1095 121.748 83.2315 121.692 83.3435C121.637 83.4556 121.559 83.5555 121.465 83.6374C120.53 84.638 119.243 87.9139 118.666 89.8139C118.485 90.4828 118.383 91.1704 118.362 91.8629C118.321 93.3409 118.008 94.7988 117.439 96.1633C117.117 96.9717 116.852 97.8016 116.646 98.647C116.188 100.374 115.789 101.863 113.805 103.084C112.942 103.552 111.969 103.776 110.988 103.734ZM93.3637 89.123C93.2734 89.1173 93.1833 89.1358 93.1027 89.1766C93.022 89.2175 92.9538 89.2792 92.905 89.3553C92.6549 89.7544 92.7859 90.6359 93.5006 91.4936C94.0367 92.0892 94.8408 92.8516 95.6866 93.6378C96.876 94.68 97.9888 95.8067 99.0161 97.009C100.151 98.5319 101.653 99.7429 103.382 100.529C103.919 100.775 104.424 101.082 104.889 101.446C105.722 102.094 106.682 102.561 107.706 102.816C109.493 103.287 111.995 103.644 113.549 102.691C115.384 101.566 115.735 100.225 116.188 98.5219C116.401 97.6572 116.672 96.8075 116.998 95.9786C117.55 94.6554 117.854 93.2423 117.897 91.8093C117.915 91.0825 118.021 90.3605 118.213 89.6591C118.689 88.0866 120.03 84.4712 121.114 83.3098C121.17 83.2674 121.216 83.214 121.251 83.1529C121.285 83.0917 121.307 83.0241 121.314 82.9543C121.321 82.8845 121.314 82.8139 121.293 82.747C121.272 82.6801 121.237 82.6182 121.191 82.5652C120.822 82.1483 119.714 81.9696 118.689 82.7141C116.932 83.9947 116.093 85.8054 115.443 87.3957C115.205 87.9913 114.919 88.2892 114.544 88.2594C113.734 88.2117 113.12 86.4368 112.834 85.3825C111.602 80.9273 110.113 78.1815 108.743 77.836C108.248 77.7109 107.897 77.7645 107.7 77.9849C107.295 78.4435 107.42 79.7182 108.034 81.3263C108.427 82.3508 110.416 87.5446 110.613 88.8014C110.702 89.3017 110.428 89.4387 110.303 89.4744C109.672 89.6591 108.242 88.4678 107.599 86.9371C106.813 85.0788 104.228 80.0517 102.774 79.194C102.262 78.8843 101.827 78.8307 101.583 79.0451C101.339 79.2595 101.22 80.0458 101.702 81.1179C101.911 81.5884 102.232 82.3091 102.602 83.0953C103.793 85.6744 105.419 89.2124 105.824 90.4632C106.056 91.172 105.824 91.5353 105.58 91.7199C104.877 92.25 103.269 91.845 101.571 90.7133C100.325 89.8331 99.1319 88.8805 97.9976 87.8603C97.0146 86.9458 95.9522 86.1206 94.8229 85.3944C94.2749 85.1085 93.8163 85.1085 93.5662 85.3944C93.4457 85.5574 93.3807 85.7547 93.3807 85.9573C93.3807 86.1599 93.4457 86.3572 93.5662 86.5202C94.1618 87.3302 98.9923 92.4049 100.225 93.5247L100.541 93.7629L101.137 94.2335L100.362 94.162C100.321 94.1538 100.282 94.1353 100.249 94.1084C98.9565 93.1256 97.8665 92.2262 96.985 91.5055C95.4185 90.213 94.3822 89.3613 93.6019 89.123C93.5227 89.1151 93.4429 89.1151 93.3637 89.123Z" fill="#4C0919"/>
<path d="M85.8168 6.64648C85.8168 6.64648 87.9074 7.83773 88.5923 11.0303C89.2773 14.2228 88.4375 15.4319 87.9312 17.4213C87.6252 18.5566 87.5583 19.7431 87.7347 20.9057L83.3926 8.9158L85.8168 6.64648Z" fill="#4C0919"/>
<path d="M88.5928 11.0312C87.9078 7.83275 85.8172 6.64746 85.8172 6.64746L84.5664 7.8387C85.3037 8.30152 85.9386 8.91006 86.4323 9.62701C86.9259 10.344 87.2679 11.1542 87.4373 12.008C88.1163 15.2065 87.9019 16.4633 87.3956 18.4527C87.3106 18.7821 87.2449 19.1162 87.199 19.4533L87.7351 20.9364C87.5587 19.7739 87.6257 18.5874 87.9317 17.452C88.4379 15.4329 89.2718 14.2238 88.5928 11.0312Z" fill="#68152C"/>
<path d="M87.2109 21.2995C87.2109 21.2995 87.2824 19.3101 88.9323 19.3756C90.5822 19.4411 90.0282 26.2491 88.9323 27.9347C87.8363 29.6203 87.2109 21.2995 87.2109 21.2995Z" fill="#FD957A"/>
<path d="M88.9323 19.3756C87.2824 19.3101 87.2109 21.2995 87.2109 21.2995L87.2586 21.8474C87.3694 21.5116 87.5584 21.2069 87.8101 20.9583C88.0617 20.7098 88.3687 20.5246 88.7059 20.4179C89.9329 20.1976 89.0276 24.3669 88.0389 27.1425C88.2831 28.024 88.5868 28.4886 88.9323 27.9585C90.0282 26.2491 90.5822 19.4471 88.9323 19.3756Z" fill="#FFAA99"/>
<path d="M89.039 23.2894C89.1641 22.813 89.17 21.1452 88.8246 20.6449C88.7957 20.5954 88.7487 20.5591 88.6935 20.5436C88.3183 20.5436 87.681 21.3239 87.3772 21.848L87.1211 21.6991C87.2104 21.5383 88.0086 20.1624 88.7233 20.2458C88.7945 20.2567 88.8623 20.2832 88.922 20.3233C88.9818 20.3635 89.0319 20.4163 89.0688 20.4781C89.2556 20.7634 89.3568 21.0961 89.3606 21.4371C89.4306 22.0725 89.3191 22.7148 89.039 23.2894Z" fill="#4C0919"/>
<path d="M88.6401 28.3812H88.5389C87.5978 28.137 87.1391 23.372 86.9902 21.3291C87.0155 20.6931 87.2669 20.0869 87.699 19.6196C87.8647 19.4664 88.0603 19.3491 88.2735 19.2753C88.4868 19.2015 88.713 19.1727 88.9379 19.1908C89.1162 19.2059 89.2869 19.2693 89.4317 19.3743C89.5766 19.4792 89.69 19.6217 89.7599 19.7864C90.6235 21.472 90.0875 26.5824 89.1166 28.0655C89.07 28.1539 89.002 28.2291 88.9187 28.2843C88.8354 28.3394 88.7396 28.3728 88.6401 28.3812ZM87.4489 21.2993C87.6752 24.3548 88.2172 27.7439 88.6401 27.9345C88.6755 27.8957 88.7074 27.8538 88.7354 27.8094C89.6348 26.4395 90.153 21.5316 89.331 19.983C89.1404 19.6137 88.9498 19.6018 88.8903 19.6018C88.7248 19.5884 88.5584 19.6083 88.4008 19.6605C88.2432 19.7127 88.0978 19.796 87.973 19.9055C87.643 20.2968 87.4542 20.7877 87.437 21.2993H87.4489Z" fill="#4C0919"/>
<path d="M83.1905 7.4213C85.6865 9.98799 87.1223 13.4019 87.211 16.981C87.4194 23.0861 89.5458 23.3661 89.5934 28.1727C89.6411 32.9794 87.9436 35.0462 87.4611 38.3459C86.9787 41.6457 84.7153 43.8435 79.2177 43.8435C73.7201 43.8435 67.9009 38.066 67.1207 32.2289C66.3404 26.3918 64.4642 22.2046 63.9162 19.8579C63.3682 17.5111 63.3683 8.8627 69.1398 7.07583C74.9114 5.28897 83.1905 7.4213 83.1905 7.4213Z" fill="#FD957A"/>
<path d="M86.603 13.2712C85.3691 13.088 84.1103 13.1692 82.9102 13.5094C84.9889 14.3075 86.4064 17.0057 86.5553 17.4703C86.7043 17.9349 86.4481 19.817 86.8174 20.8951C87.1867 21.9732 87.6334 24.3735 87.2105 25.4278C86.7876 26.482 88.4018 29.0015 88.1278 31.1874C87.8538 33.3734 86.7519 34.1655 86.4422 36.6016C86.1325 39.0377 83.6547 42.6591 78.5859 41.7657C80.3013 43.4632 83.6964 43.1237 85.6679 41.9741C86.6902 41.0181 87.3349 39.7265 87.4845 38.3349C87.967 35.0351 89.6883 32.9743 89.6168 28.1617C89.5454 23.3491 87.419 23.0751 87.2344 16.97C87.184 15.715 86.9718 14.4718 86.603 13.2712Z" fill="#FFAA99"/>
<path d="M85.7335 16.9334C85.7335 16.9334 84.0479 16.4867 82.8924 17.2252C82.2552 17.5795 81.7684 18.1531 81.5225 18.8394C81.5614 18.1741 81.6814 17.516 81.8798 16.8798C82.2415 16.5044 82.7054 16.2435 83.214 16.1293C84.1232 16.0859 85.0175 16.3714 85.7335 16.9334Z" fill="#ED7966"/>
<path d="M71.0162 14.1161C76.1237 14.8667 81.3253 13.6419 85.5613 10.6913C84.9464 9.48132 84.1421 8.37742 83.1788 7.42129C83.1788 7.42129 74.8997 5.28897 69.1281 7.07583C63.3565 8.8627 63.3565 17.523 63.9045 19.8579C64.4525 22.1927 66.3763 26.4097 67.1328 32.2289C67.7284 36.8807 71.5701 41.4849 75.8824 43.1705C67.8058 37.3751 69.9381 23.0504 71.0162 14.1161Z" fill="#ED7966"/>
<path d="M88.7537 23.1813C87.9044 21.2213 87.4568 19.1109 87.4374 16.9749C87.3325 13.3369 85.8708 9.86958 83.3395 7.25441L83.2501 7.20676C83.1668 7.20676 74.84 5.08039 69.0744 6.8613C63.0884 8.71368 63.1182 17.5825 63.7138 19.9114C63.8806 20.6321 64.1843 21.5374 64.5298 22.5797C65.3568 24.9302 66.0234 27.3341 66.5251 29.7748H66.9837C66.4669 27.2848 65.7803 24.8331 64.9288 22.4368C64.5834 21.4064 64.2856 20.5129 64.1247 19.8101C63.6125 17.648 63.5887 9.0234 69.1935 7.30206C70.9522 6.80553 72.7745 6.57072 74.6017 6.60518C77.4541 6.6394 80.2941 6.98493 83.0715 7.63561C85.4754 10.1678 86.8622 13.4969 86.9668 16.9869C86.9921 19.1752 87.4496 21.337 88.3129 23.3481C89.0061 24.8591 89.3754 26.4984 89.397 28.1607C89.4243 30.4357 89.0201 32.6953 88.2057 34.8197C87.7869 35.9441 87.4719 37.1045 87.2646 38.2863C86.7464 41.86 84.1197 43.5932 79.2416 43.5932C74.5541 43.5932 69.5389 39.3226 67.8652 34.3135C67.8652 34.3135 68.0856 36.8508 70.7957 39.9004C73.065 42.4616 76.2576 44.0697 79.2416 44.0697C84.3818 44.0697 87.1515 42.2114 87.7054 38.3816C87.9054 37.2246 88.2105 36.0882 88.6167 34.9865C89.4516 32.8087 89.8679 30.4929 89.8437 28.1607C89.8306 26.4432 89.4594 24.7472 88.7537 23.1813Z" fill="#4C0919"/>
<path d="M66.8051 26.594C66.8051 26.594 63.0944 21.3704 61.373 24.3961C59.6517 27.4219 62.6774 31.4721 64.8098 32.2285C66.9421 32.985 67.6985 31.2636 67.5615 30.2332C67.4245 29.2028 66.8051 26.594 66.8051 26.594Z" fill="#ED7966"/>
<path d="M66.7989 30.2578C66.7989 30.2578 67.0848 31.1989 65.4588 31.3954C63.8327 31.592 62.2543 29.7277 61.6945 27.7502C61.1346 25.7727 62.3377 24.9508 63.4813 25.332C62.6713 25.3677 61.7838 25.8263 62.171 27.3511C62.4181 28.6201 63.1457 29.7447 64.202 30.4901C65.018 30.9546 66.4118 30.9844 66.7989 30.2578Z" fill="#FFAA99"/>
<path d="M63.3504 29.8883C62.7301 29.2628 62.2703 28.4965 62.0102 27.6547C61.8665 27.3241 61.8133 26.9611 61.8562 26.6031C61.8992 26.2451 62.0366 25.905 62.2544 25.6177C62.4526 25.4413 62.6978 25.3265 62.9602 25.2874C63.2225 25.2483 63.4906 25.2865 63.7316 25.3973C64.1029 25.5668 64.4367 25.8083 64.7138 26.1079C64.9909 26.4075 65.2057 26.7592 65.3457 27.1425C65.5745 27.669 65.6686 28.2442 65.6197 28.8162C65.6197 28.8162 64.9883 26.0942 63.6422 25.6832C63.4501 25.5937 63.2367 25.5597 63.0262 25.5849C62.8158 25.6102 62.6165 25.6937 62.451 25.8262C62.2766 26.0776 62.1697 26.3695 62.1405 26.674C62.1113 26.9785 62.1608 27.2855 62.2842 27.5654C62.6714 28.8579 63.94 30.4482 65.1313 30.6745C64.7938 30.6909 64.4571 30.6284 64.1479 30.4919C63.8388 30.3554 63.5657 30.1488 63.3504 29.8883Z" fill="#4C0919"/>
<path d="M63.6245 26.97C64.0772 26.3743 65.0719 26.7675 65.1076 26.7853L65.0183 27.0653C65.0183 27.0653 64.2321 26.8211 63.827 27.1903C63.559 27.4286 63.4875 27.8932 63.6186 28.5603C63.6126 28.5484 63.1004 27.6132 63.6245 26.97Z" fill="#4C0919"/>
<path d="M67.6748 29.5609C67.6748 29.5609 67.7522 31.1333 66.7337 31.8779C66.4629 32.0557 66.1513 32.1617 65.8282 32.1856C65.5052 32.2096 65.1813 32.1508 64.8873 32.0149C63.7437 31.6158 62.1474 30.0612 61.4386 28.1672C61.1905 27.5843 61.0736 26.9541 61.0962 26.321C61.1188 25.688 61.2805 25.0677 61.5697 24.5041C61.6683 24.2784 61.825 24.0829 62.0238 23.9375C62.2226 23.792 62.4564 23.7019 62.7013 23.6762H62.7728C63.8211 23.6762 65.06 24.8674 65.8462 25.7608H66.4418C65.6258 24.79 64.0594 23.1639 62.6894 23.2295C62.3684 23.2568 62.0603 23.3688 61.7967 23.554C61.533 23.7392 61.3231 23.991 61.1885 24.2837C60.8601 24.9015 60.6751 25.5854 60.6472 26.2845C60.6194 26.9836 60.7494 27.68 61.0277 28.322C61.7126 30.1625 63.3089 31.9315 64.7443 32.4378C65.0796 32.5647 65.4342 32.6332 65.7926 32.6403C66.2381 32.6514 66.6731 32.5036 67.0196 32.2233C67.3045 31.9765 67.5239 31.6628 67.658 31.3105C67.792 30.9581 67.8367 30.578 67.788 30.2042C67.7582 30.0315 67.7165 29.8051 67.6748 29.5609Z" fill="#4C0919"/>
<path d="M72.1895 18.7144C72.1895 18.7144 72.9042 17.7793 74.9055 17.9878C76.9068 18.1962 77.6453 18.7859 77.7406 19.3756C78.1754 18.3094 77.8717 17.0348 77.3952 16.6536C76.9187 16.2724 73.6189 17.0407 72.1895 18.7144Z" fill="#ED7966"/>
<path d="M77.6269 17.2796C77.6269 17.2796 72.862 17.101 71.8018 19.269C71.8554 16.6364 74.4999 15.3141 76.388 15.3856C78.2762 15.457 78.2464 17.2796 77.6269 17.2796Z" fill="#4C0919"/>
<path d="M86.556 17.4812C85.9186 16.9389 85.137 16.5939 84.3068 16.4881C83.4766 16.3823 82.6335 16.5204 81.8804 16.8856C80.987 16.2006 81.8804 14.8248 83.1193 14.789C84.3582 14.7533 86.3714 15.742 86.556 17.4812Z" fill="#4C0919"/>
<path d="M81.3026 19.8223C81.3026 19.8223 80.7069 22.4966 81.5229 24.4205C82.3389 26.3443 83.7208 27.2854 83.9709 27.7738C84.2211 28.2622 83.5063 28.7387 82.2258 29.0008C82.3389 30.192 85.2039 29.9121 85.734 28.5719C86.2641 27.2318 85.1384 27.1305 84.239 26.517C83.3396 25.9036 81.8148 24.0631 81.511 22.58C81.3613 21.6686 81.2915 20.7458 81.3026 19.8223Z" fill="#FFAA99"/>
<path d="M82.0769 31.2763C81.6596 31.3135 81.2391 31.268 80.8394 31.1423C80.4398 31.0166 80.0689 30.8131 79.7481 30.5436C78.9202 29.7932 79.2835 29.1439 79.2835 29.1439C79.1703 29.543 79.5098 29.9004 79.7183 30.0791C80.2635 30.4831 80.9049 30.7375 81.5789 30.8169C82.2528 30.8963 82.9358 30.798 83.56 30.5317C84.0007 30.3593 84.4011 30.0979 84.7362 29.7638C85.0713 29.4297 85.334 29.0301 85.5077 28.59C85.6236 28.3035 85.6236 27.9831 85.5077 27.6966C85.3124 27.4515 85.0692 27.2488 84.793 27.1009C83.9082 26.531 83.1065 25.8415 82.4105 25.052C80.7249 23.152 81.3086 19.8105 81.3086 19.8105C81.3086 19.8105 81.1776 22.9912 82.744 24.7542C83.4188 25.5197 84.1989 26.1856 85.061 26.7317C85.4027 26.9071 85.697 27.1625 85.9187 27.4762C86.0825 27.875 86.0825 28.3223 85.9187 28.721C85.729 29.2207 85.4372 29.6754 85.0618 30.0559C84.6865 30.4364 84.2358 30.7344 83.7387 30.9308C83.2167 31.1659 82.6495 31.2839 82.0769 31.2763Z" fill="#4C0919"/>
<path d="M85.2517 32.8487C83.5136 33.6037 81.6013 33.8654 79.7243 33.6051C76.3531 33.2239 74.602 32.0208 73.8098 31.2227C73.4703 33.075 75.3227 36.5475 79.7243 37.2325C84.1259 37.9174 85.2517 32.8487 85.2517 32.8487Z" fill="#9B2519"/>
<path d="M73.8093 31.1982C74.6014 32.0202 76.3526 33.2234 79.7238 33.5807C80.9475 33.7231 82.1862 33.6688 83.3928 33.4199C83.089 34.0155 82.3624 34.8196 80.6172 34.9864C78.1335 35.2246 74.8278 34.1644 73.7795 31.6926C73.7725 31.5272 73.7825 31.3616 73.8093 31.1982Z" fill="white"/>
<path d="M80.8377 37.2625C80.4657 37.2883 80.0918 37.2703 79.7239 37.2089C78.1396 36.9945 76.6625 36.2883 75.501 35.1897C76.2277 34.9339 77.0112 34.8844 77.7643 35.0468C79.164 35.2612 80.2898 36.5001 80.8377 37.2625Z" fill="#E2374B"/>
<path d="M80.5219 37.4998C80.2427 37.4978 79.964 37.4759 79.688 37.4343C78.6704 37.3083 77.6891 36.976 76.8043 36.4578C75.9195 35.9396 75.1496 35.2464 74.5418 34.4205C73.8138 33.4968 73.4722 32.3268 73.5888 31.1565L73.6722 30.7217L73.976 31.0433C74.655 31.7461 76.3049 32.991 79.7476 33.3781C81.5912 33.6337 83.4696 33.3803 85.1796 32.6455L85.6085 32.4192L85.5013 32.8957C85.4655 32.9255 84.3934 37.4998 80.5219 37.4998ZM73.97 31.6806C74.0222 32.5793 74.337 33.4429 74.8754 34.1644C75.452 34.9383 76.1794 35.5875 77.0137 36.0727C77.8479 36.5579 78.7719 36.8691 79.7297 36.9876C83.1486 37.5177 84.4947 34.4324 84.8759 33.2412C83.2118 33.8559 81.424 34.0602 79.6642 33.8368C76.5967 33.4794 74.8694 32.443 73.9998 31.6806H73.97Z" fill="#4C0919"/>
<path d="M82.4275 3.60961C82.4275 3.60961 85.8702 3.40115 87.1925 4.80085C88.5148 6.20056 83.2852 11.7041 78.5679 11.7577C79.754 11.1394 80.8097 10.2981 81.677 9.27992C78.1748 11.6624 74.8751 12.943 71.4205 12.532C73.9995 11.7041 74.5653 9.95298 74.5653 9.95298C73.0603 11.0808 71.342 11.8913 69.5145 12.3355L71.0095 11.2514C70.0075 11.4823 69.0255 11.793 68.0731 12.1806C67.4774 12.5439 67.5072 15.2719 68.0731 16.7133C68.6389 18.1547 68.6389 18.6252 67.9182 20.0666C67.1975 21.508 67.0426 25.9394 67.8646 27.5417C67.3787 27.7628 66.8594 27.9017 66.3279 27.9526C66.3279 27.9526 65.089 23.4676 62.1228 23.6225C61.6116 20.4588 60.5556 17.4077 59.0018 14.6048C57.9713 12.6988 58.9362 10.1198 60.193 10.221C59.6497 9.86238 59.0009 9.6986 58.3525 9.75642C58.6309 9.41006 59.0067 9.15512 59.4314 9.02452C59.8561 8.89392 60.3102 8.89367 60.735 9.02381C60.5921 7.88617 58.8588 7.38585 58.704 7.38585C59.1677 7.14581 59.6902 7.04297 60.2103 7.08938C60.7304 7.1358 61.2265 7.32956 61.6404 7.64792C62.9269 4.81277 68.2875 -0.035587 76.1259 0.0180189C83.9642 0.0716248 82.4275 3.60961 82.4275 3.60961Z" fill="#4C0919"/>
<path d="M68.0912 12.1628C67.299 11.0549 63.9219 9.78027 63.9219 9.78027C65.81 10.6201 66.8642 13.8126 66.5605 14.575C66.2567 15.3374 65.3097 16.3619 64.8749 19.1137C65.2568 18.3966 65.794 17.7739 66.4473 17.2911C65.6492 18.5716 65.4586 20.4657 65.5896 23.8786C65.5896 23.8786 65.9887 20.2394 66.8225 18.7563C66.5128 20.013 66.1078 23.6225 66.8225 25.7429C67.0222 26.391 67.3065 27.0098 67.6683 27.5834L67.8828 27.494C67.0608 25.8918 67.2157 21.4604 67.9364 20.019C68.6571 18.5776 68.6571 18.113 68.0912 16.6656C67.5254 15.2183 67.4718 12.5261 68.0912 12.1628Z" fill="#68152C"/>
<path d="M87.2106 4.79437C85.8705 3.40062 82.4457 3.60313 82.4457 3.60313C82.4457 3.60313 84.036 0.0294065 76.2036 -0.00633078C74.6097 -0.0182861 73.0213 0.182014 71.4803 0.58929C72.6593 0.360134 73.87 0.346009 75.054 0.547597C77.9606 1.04196 75.9058 3.13259 72.7907 4.67525C71.0709 5.556 69.2395 6.19919 67.3467 6.58719C71.6113 6.58719 76.8171 4.04389 78.3418 2.22129C77.9964 5.69972 71.79 7.35555 71.79 7.35555C77.2519 6.89692 79.3068 5.02071 79.819 3.87712C78.735 7.35555 77.5854 9.63677 74.4286 11.3462C78.3359 10.3753 80.8613 6.72419 81.5105 5.36022C81.3765 6.85246 80.7476 8.2571 79.7237 9.35087C82.8566 7.52827 83.5476 6.27747 83.6905 5.87245C84.6256 7.24238 82.9341 9.97628 78.592 11.7453C83.3034 11.6976 88.5508 6.18217 87.2106 4.79437Z" fill="#68152C"/>
<path d="M76.662 21.8829C76.5284 21.4254 76.2744 21.0122 75.9266 20.6864C75.5787 20.3605 75.1498 20.134 74.6846 20.0305C73.1002 19.7268 71.9626 21.3171 72.2604 23.2588C72.3399 23.8936 72.6148 24.4879 73.047 24.9595C73.4792 25.4312 74.0473 25.7569 74.6727 25.8915C75.1372 25.9272 76.662 21.8829 76.662 21.8829Z" fill="#ED7966"/>
<path d="M72.916 23.1462C72.916 24.5995 73.8094 25.7729 74.9054 25.7729C76.0013 25.7729 76.8888 24.5817 76.8888 23.1462C76.8888 21.7108 76.0013 20.5195 74.9054 20.5195C73.8094 20.5195 72.916 21.6989 72.916 23.1462Z" fill="white"/>
<path d="M72.7969 23.1463C72.7969 21.6275 73.7439 20.3945 74.9054 20.3945C76.0668 20.3945 77.0139 21.6275 77.0139 23.1463C77.0139 24.6651 76.0668 25.8981 74.9054 25.8981C73.7439 25.8981 72.7969 24.6651 72.7969 23.1463ZM73.0411 23.1463C73.0411 24.5281 73.8749 25.6539 74.9054 25.6539C75.9358 25.6539 76.7637 24.5281 76.7637 23.1463C76.7637 21.7645 75.9298 20.6447 74.9054 20.6447C73.8809 20.6447 73.0411 21.7645 73.0411 23.1463Z" fill="#4C0919"/>
<path d="M75.8647 23.5271C75.8031 23.7946 75.6673 24.0393 75.4728 24.2331C75.2784 24.4268 75.0333 24.5619 74.7656 24.6226C74.4979 24.6833 74.2185 24.6674 73.9595 24.5765C73.7005 24.4856 73.4724 24.3235 73.3013 24.1088C73.1303 23.8941 73.0233 23.6355 72.9926 23.3627C72.9619 23.09 73.0087 22.8141 73.1277 22.5667C73.2468 22.3194 73.4332 22.1106 73.6655 21.9644C73.8978 21.8182 74.1667 21.7405 74.4412 21.7402C74.652 21.7639 74.8562 21.829 75.0419 21.9316C75.2276 22.0343 75.3912 22.1725 75.5234 22.3385C75.6556 22.5045 75.7538 22.6949 75.8124 22.8988C75.871 23.1028 75.8887 23.3163 75.8647 23.5271Z" fill="#4C0919"/>
<path d="M74.6609 22.5262C74.6609 22.584 74.6437 22.6404 74.6117 22.6884C74.5796 22.7364 74.534 22.7738 74.4807 22.7959C74.4274 22.818 74.3687 22.8237 74.3121 22.8125C74.2555 22.8012 74.2035 22.7734 74.1626 22.7326C74.1218 22.6918 74.094 22.6398 74.0828 22.5832C74.0715 22.5266 74.0773 22.4679 74.0994 22.4145C74.1215 22.3612 74.1589 22.3156 74.2069 22.2836C74.2549 22.2515 74.3113 22.2344 74.369 22.2344C74.4464 22.2344 74.5206 22.2651 74.5754 22.3199C74.6301 22.3746 74.6609 22.4488 74.6609 22.5262Z" fill="white"/>
<path d="M75.8643 23.5269C75.8643 23.6285 75.8341 23.7277 75.7776 23.8121C75.721 23.8965 75.6406 23.9621 75.5467 24.0007C75.4528 24.0393 75.3495 24.0491 75.2499 24.0288C75.1504 24.0086 75.0592 23.9592 74.9878 23.887C74.9164 23.8147 74.8681 23.7229 74.849 23.6231C74.8299 23.5234 74.8409 23.4202 74.8806 23.3267C74.9203 23.2332 74.9868 23.1537 75.0718 23.0981C75.1569 23.0425 75.2565 23.0135 75.358 23.0147C75.425 23.0147 75.4913 23.028 75.5532 23.0538C75.615 23.0796 75.6711 23.1174 75.7182 23.1651C75.7652 23.2127 75.8024 23.2692 75.8275 23.3313C75.8526 23.3935 75.8651 23.4599 75.8643 23.5269Z" fill="white"/>
<path d="M86.2642 20.5073C86.1342 20.0454 85.8818 19.6272 85.5338 19.297C85.1857 18.9667 84.7548 18.7366 84.2867 18.6311C82.7024 18.3274 81.5588 19.9177 81.8625 21.8594C81.9402 22.4902 82.2107 23.0816 82.6371 23.5528C83.0636 24.024 83.6251 24.352 84.245 24.492C84.7394 24.5516 86.2642 20.5073 86.2642 20.5073Z" fill="#ED7966"/>
<path d="M82.5176 21.7693C82.5176 23.2226 83.4051 24.396 84.507 24.396C85.6088 24.396 86.4904 23.2047 86.4904 21.7693C86.4904 20.3338 85.6029 19.1426 84.507 19.1426C83.411 19.1426 82.5176 20.3159 82.5176 21.7693Z" fill="white"/>
<path d="M82.3926 21.7693C82.3926 20.2505 83.3396 19.0176 84.507 19.0176C85.6744 19.0176 86.6155 20.2505 86.6155 21.7693C86.6155 23.2882 85.6685 24.5211 84.507 24.5211C83.3456 24.5211 82.3926 23.2882 82.3926 21.7693ZM82.6427 21.7693C82.6427 23.1512 83.4766 24.2769 84.507 24.2769C85.5374 24.2769 86.3713 23.1512 86.3713 21.7693C86.3713 20.3875 85.5375 19.2677 84.513 19.2677C83.4885 19.2677 82.6427 20.4173 82.6427 21.7693Z" fill="#4C0919"/>
<path d="M85.4653 22.1511C85.4037 22.4184 85.2681 22.6628 85.0739 22.8565C84.8798 23.0502 84.635 23.1853 84.3676 23.2463C84.1002 23.3072 83.8211 23.2916 83.5622 23.2012C83.3033 23.1108 83.0751 22.9493 82.9038 22.7351C82.7324 22.521 82.6249 22.2629 82.5936 21.9904C82.5622 21.718 82.6082 21.4422 82.7264 21.1947C82.8446 20.9473 83.0301 20.7381 83.2617 20.5912C83.4933 20.4443 83.7616 20.3657 84.0358 20.3643C84.2472 20.3872 84.452 20.4517 84.6383 20.5541C84.8247 20.6564 84.9891 20.7946 85.1219 20.9606C85.2547 21.1266 85.3534 21.3173 85.4124 21.5216C85.4713 21.7259 85.4893 21.9398 85.4653 22.1511Z" fill="#4C0919"/>
<path d="M84.2625 21.1505C84.261 21.2269 84.2295 21.2996 84.175 21.3531C84.1204 21.4065 84.047 21.4365 83.9707 21.4364C83.8917 21.4364 83.8159 21.4051 83.7601 21.3492C83.7042 21.2934 83.6729 21.2176 83.6729 21.1386C83.6729 21.0596 83.7042 20.9839 83.7601 20.928C83.8159 20.8722 83.8917 20.8408 83.9707 20.8408C84.0105 20.8407 84.05 20.8488 84.0866 20.8646C84.1233 20.8804 84.1563 20.9035 84.1836 20.9325C84.211 20.9615 84.2321 20.9959 84.2456 21.0334C84.2592 21.0709 84.265 21.1107 84.2625 21.1505Z" fill="white"/>
<path d="M85.4659 22.1509C85.4659 22.2868 85.4119 22.417 85.3159 22.5131C85.2198 22.6092 85.0895 22.6631 84.9536 22.6631C84.8178 22.6631 84.6875 22.6092 84.5914 22.5131C84.4954 22.417 84.4414 22.2868 84.4414 22.1509C84.4414 22.0151 84.4954 21.8848 84.5914 21.7887C84.6875 21.6926 84.8178 21.6387 84.9536 21.6387C85.0895 21.6387 85.2198 21.6926 85.3159 21.7887C85.4119 21.8848 85.4659 22.0151 85.4659 22.1509Z" fill="white"/>
</g>
<defs>
<clipPath id="clip0_199_11999">
<rect width="143.884" height="250" fill="white"/>
</clipPath>
</defs>
</svg>