<svg xmlns="http://www.w3.org/2000/svg" viewBox="0 0 100 120" fill="none">
  <!-- Shield -->
  <path d="M50 5 L90 25 L90 60 C90 85 70 105 50 115 C30 105 10 85 10 60 L10 25 Z" fill="#1B2A4A" stroke="#C4922A" stroke-width="3"/>
  <!-- Inner shield gradient -->
  <path d="M50 12 L83 29 L83 58 C83 80 65 98 50 107 C35 98 17 80 17 58 L17 29 Z" fill="#243558"/>
  <!-- Scale base -->
  <rect x="47" y="55" width="6" height="30" rx="1" fill="#C4922A"/>
  <rect x="35" y="83" width="30" height="4" rx="2" fill="#C4922A"/>
  <!-- Scale beam -->
  <rect x="25" y="52" width="50" height="3" rx="1.5" fill="#C4922A"/>
  <!-- Scale post -->
  <rect x="48" y="40" width="4" height="15" rx="1" fill="#C4922A"/>
  <!-- Scale top -->
  <circle cx="50" cy="40" r="4" fill="#C4922A"/>
  <!-- Left pan -->
  <path d="M25 55 L20 70 Q20 75 30 75 Q40 75 40 70 L35 55" fill="none" stroke="#C4922A" stroke-width="2"/>
  <!-- Right pan -->
  <path d="M65 55 L60 70 Q60 75 70 75 Q80 75 80 70 L75 55" fill="none" stroke="#C4922A" stroke-width="2"/>
  <!-- Chains -->
  <line x1="25" y1="53" x2="25" y2="55" stroke="#C4922A" stroke-width="1.5"/>
  <line x1="35" y1="53" x2="35" y2="55" stroke="#C4922A" stroke-width="1.5"/>
  <line x1="65" y1="53" x2="65" y2="55" stroke="#C4922A" stroke-width="1.5"/>
  <line x1="75" y1="53" x2="75" y2="55" stroke="#C4922A" stroke-width="1.5"/>
</svg>
