<svg width="104" height="84" viewBox="0 0 104 84" fill="none" xmlns="http://www.w3.org/2000/svg">
<g clip-path="url(#clip0_200_13426)">
<path d="M33.0351 70.1754C32.4474 72.3679 26.2254 70.1754 23.9568 70.1754C21.7234 70.1754 15.6597 71.5788 15.0497 69.8277C14.6343 68.6354 14.8863 60.4131 14.8863 60.4131H33.2894C33.2888 60.4131 33.3757 68.9031 33.0351 70.1754Z" fill="#1D4277"/>
<path d="M33.2886 60.4138C33.2886 52.4409 35.488 38.5409 34.4909 31.9203C33.8135 27.4229 32.1892 24.3906 23.8572 24.3906C14.0197 24.3906 12.7797 28.0601 12.6557 33.3126C12.5 39.8638 14.8857 52.9823 14.8857 60.4138C14.8857 62.5469 33.2886 62.5469 33.2886 60.4138Z" fill="#1D4277"/>
<path d="M27.3335 61.8298C27.3335 61.8298 28.1318 38.5409 27.7698 31.9203C27.5238 27.4229 26.9355 24.3906 23.914 24.3906C20.3483 24.3906 19.8978 28.0601 19.8532 33.3126C19.7972 39.8638 20.6621 61.8226 20.6621 61.8226C20.6621 61.8226 21.9398 62.0135 24.1475 62.0135C26.1329 62.0138 27.3335 61.8298 27.3335 61.8298Z" fill="#CFEDFC"/>
<path d="M26.1521 25.9361C26.1521 25.9361 25.6592 28.239 23.7667 28.239C21.7527 28.239 21.5615 25.9361 21.5615 25.9361V20.459H26.1521V25.9361Z" fill="#FBB988"/>
<path d="M19.6432 14.6062C19.6432 15.5793 18.8546 16.3688 17.8803 16.3688C16.9069 16.3688 16.1172 15.5793 16.1172 14.6062C16.1172 13.6316 16.9069 12.8428 17.8803 12.8428C18.8546 12.8428 19.6432 13.6316 19.6432 14.6062Z" fill="#FBC4AB"/>
<path d="M31.3188 14.5199C31.3188 15.493 30.5297 16.2827 29.5565 16.2827C28.5822 16.2827 27.7939 15.4927 27.7939 14.5199C27.7939 13.5453 28.5825 12.7559 29.5565 12.7559C30.5297 12.7559 31.3188 13.5453 31.3188 14.5199Z" fill="#FBC4AB"/>
<path d="M17.9698 15.4119C17.9838 10.383 17.7858 4.25076 23.7926 4.26761C29.7992 4.28476 29.5669 10.4159 29.5529 15.4436C29.5386 20.4722 25.1115 22.857 23.7398 22.8528C22.3689 22.849 17.9555 20.4396 17.9698 15.4119Z" fill="#FBC4AB"/>
<path d="M29.5569 12.7559C29.5569 12.7559 28.9884 18.4956 26.9804 19.1524C27.0287 18.3993 26.6727 17.0924 25.5612 16.7824C24.5769 16.5073 23.9838 16.9987 23.7612 17.243C23.5381 16.999 22.9452 16.5073 21.9607 16.7824C20.8495 17.0924 20.4935 18.3993 20.5424 19.1524C18.5341 18.4959 17.9898 12.7776 17.9898 12.7776C17.4104 14.2416 18.1887 19.6647 19.2264 20.9376C20.0495 21.9481 23.287 23.0979 23.7612 23.129C24.2347 23.0979 27.4721 21.9481 28.2964 20.9376C29.3335 19.6644 30.1369 14.2199 29.5569 12.7559ZM25.483 19.7527C25.1115 19.6859 24.3909 19.5513 23.9498 19.3333L23.7612 19.5401L23.5724 19.3333C23.1318 19.5513 22.4115 19.6859 22.0387 19.7527C21.9027 19.0093 21.8755 17.6861 22.0598 17.3936C22.2861 17.0347 23.4158 17.265 23.761 17.3444C24.1052 17.265 25.2352 17.0347 25.4609 17.3936C25.6467 17.6861 25.6195 19.0093 25.483 19.7527Z" fill="#939598"/>
<path d="M21.0994 14.2199C21.0994 14.4887 20.9571 14.707 20.7831 14.707C20.6085 14.707 20.4668 14.4887 20.4668 14.2199C20.4668 13.9507 20.6085 13.7324 20.7831 13.7324C20.9571 13.7327 21.0994 13.951 21.0994 14.2199Z" fill="#603913"/>
<path d="M27.068 14.2199C27.068 14.4887 26.9265 14.707 26.7525 14.707C26.578 14.707 26.4365 14.4887 26.4365 14.2199C26.4365 13.9507 26.5782 13.7324 26.7525 13.7324C26.9265 13.7327 27.068 13.951 27.068 14.2199Z" fill="#603913"/>
<path d="M26.375 11.7369C26.375 11.7369 27.4413 11.3726 28.1599 12.2958" stroke="#808285" stroke-width="0.230514" stroke-miterlimit="10" stroke-linecap="round" stroke-linejoin="round"/>
<path d="M21.1595 11.7369C21.1595 11.7369 20.0929 11.3726 19.374 12.2958" stroke="#808285" stroke-width="0.230514" stroke-miterlimit="10" stroke-linecap="round" stroke-linejoin="round"/>
<path d="M23.2188 16.0244C23.2188 16.0244 23.3116 15.995 23.4222 15.9873C23.4785 15.983 23.5408 15.977 23.603 15.983C23.6356 15.9896 23.6636 15.9807 23.6905 15.9841L23.7313 15.9876L23.7516 15.9896L23.7619 15.9907L23.767 15.9913L23.7696 15.9916L23.771 15.9919H23.7716C23.777 15.9916 23.727 15.9936 23.7485 15.9927L23.855 15.9856C23.8896 15.9807 23.929 15.9899 23.9508 15.9839C24.0036 15.9779 24.0542 15.9887 24.1119 15.9913C24.2233 15.997 24.3153 16.0247 24.3153 16.0247C24.315 16.0244 24.2776 16.1127 24.1882 16.195C24.1467 16.2387 24.075 16.2787 23.9999 16.3139C23.9225 16.3516 23.8605 16.3536 23.787 16.3693L23.7622 16.3701L23.7613 16.3699L23.7593 16.3696L23.755 16.3687L23.747 16.3673L23.7307 16.3641L23.6982 16.3579L23.6336 16.345C23.5908 16.3376 23.5496 16.3213 23.5185 16.3044C23.4528 16.2699 23.393 16.2341 23.349 16.1907C23.2579 16.1104 23.2188 16.0244 23.2188 16.0244Z" fill="#FBB988"/>
<path d="M21.8975 17.6614C21.8975 18.9214 22.7312 19.5402 23.7606 19.5402C24.79 19.5402 25.6235 18.9214 25.6235 17.6614C25.6235 17.6614 25.0312 17.5254 23.7606 17.5254C22.0657 17.5254 21.8975 17.6614 21.8975 17.6614Z" fill="#F04E4C"/>
<path d="M23.7606 17.5254C22.0655 17.5254 21.8975 17.6614 21.8975 17.6614C21.8975 17.8851 21.9246 18.102 21.9737 18.3065C21.9955 18.3965 25.5252 18.3994 25.5452 18.316C25.596 18.1085 25.6237 17.8888 25.6237 17.6617C25.6237 17.6617 25.0312 17.5254 23.7606 17.5254Z" fill="white"/>
<path d="M32.629 83.7717L33.1715 68.9545C33.1715 68.9545 31.9092 67.0254 28.3364 67.0254C24.9938 67.0254 24.3115 69.9314 24.3115 69.9314L24.9312 83.7717H32.629Z" fill="#1D4277"/>
<path d="M23.1377 83.7717L23.7569 69.9314C23.7569 69.9314 23.0749 67.0254 19.7323 67.0254C16.1592 67.0254 14.8975 68.9545 14.8975 68.9545L15.4403 83.7717H23.1377Z" fill="#1D4277"/>
<path d="M19.016 7.14837C18.9902 7.18323 18.9654 7.22866 18.9397 7.29094C18.8748 7.44809 18.7174 7.73608 18.6834 7.83894C18.5057 8.37551 18.5025 13.6461 18.0028 13.6115C17.4137 13.5718 17.1254 12.3552 17.1985 11.9004C17.2442 11.8984 17.2968 11.8852 17.3414 11.8849C17.1968 11.7152 16.4525 10.9087 17.0337 10.7732C17.0651 10.5049 16.3465 9.50294 16.9971 9.49009C17.0337 9.22637 16.7011 8.29894 17.1491 8.37694C17.1891 8.03408 16.8185 7.13837 17.4145 7.17866C17.5308 6.82523 17.3777 6.48008 17.428 6.12208C17.542 6.07323 17.6677 6.05437 17.7957 6.0678C17.8145 5.71637 17.7717 4.85094 18.2894 5.08294C18.3474 4.7978 18.4962 3.90209 18.8294 4.18637C18.9331 3.98437 19.0722 3.44637 19.284 3.37266C19.5362 3.2838 19.5451 3.60008 19.8448 3.37637C20.1271 3.16466 20.0734 2.82837 20.4188 2.68866C20.826 2.52323 21.168 2.77037 21.6031 2.5178C21.7054 2.4578 21.804 2.32065 21.9282 2.3098C22.0385 2.29923 22.1248 2.47151 22.1765 2.46294C22.4 2.42837 22.5617 2.20437 22.8271 2.15152C23.2762 2.0618 23.7797 1.52294 24.1085 1.88151C24.1728 1.9518 24.1377 2.11494 24.12 2.21294C24.4385 2.20437 24.8168 1.72866 25.0594 1.97037C25.5871 2.4998 26.0737 2.12809 26.5105 2.43294C26.6362 2.52094 26.5545 2.62951 26.6988 2.6918C26.8037 2.73637 26.964 2.64037 27.0805 2.64751C27.3737 2.66609 27.6045 2.75437 27.5428 3.15465C27.7511 3.16665 28.0808 3.08151 28.2602 3.21437C28.4917 3.38494 28.3394 3.56323 28.4468 3.76294C28.6602 4.1558 29.2894 4.1558 29.2534 4.78037C29.854 4.9238 30.058 5.98237 30.1977 6.50008C30.3077 6.90408 30.4134 7.24294 30.4562 7.68866C30.4848 7.98694 30.5925 8.38323 30.5062 8.72352C30.72 8.95294 30.9171 9.5078 30.6608 9.76123C30.8062 10.0415 30.9202 11.6007 30.5482 11.6001C30.49 11.7895 30.4997 11.9869 30.4974 12.1864C30.4625 12.1992 30.4308 12.1895 30.3937 12.1992C30.4151 12.4281 30.2085 13.0101 30.0142 13.0129C29.9791 13.0129 30.0385 13.6521 29.6305 13.5489C29.6305 13.5489 28.9128 8.3238 28.7811 7.93266C28.7537 7.85294 28.5257 7.01266 28.506 7.00751C28.2374 6.94123 28.0842 6.71066 28.116 6.40294C28.0925 6.86523 27.3408 6.4518 27.2534 6.17123C27.0442 6.45466 26.3137 6.38609 26.3482 5.90494C26.2308 6.29637 25.7334 5.95666 25.5491 5.79552C25.4171 5.95666 25.3771 6.01694 25.1802 6.0398C24.8625 6.07637 24.7331 5.82037 24.4865 5.75037C24.322 5.70351 23.4737 6.37209 23.3757 5.81837C23.1774 5.99923 22.9485 6.18608 22.6691 6.09808C22.5888 6.07323 22.4605 5.91294 22.3845 5.91752C22.2908 5.92294 22.234 6.07409 22.1291 6.13666C21.934 6.25437 21.7708 6.14894 21.5851 6.16123C21.4528 6.17037 21.5017 6.16237 21.3891 6.2078C21.1214 6.31637 20.7031 6.69637 20.4745 6.29266C20.2362 6.47466 20.0757 6.66752 19.788 6.74809C19.7242 6.76552 19.674 6.68494 19.61 6.70466C19.5611 6.7198 19.4648 6.84094 19.4191 6.87494C19.2125 7.03294 19.1082 7.0218 19.016 7.14837Z" fill="#939598"/>
<path d="M22.3413 13.3027V15.1084H18.9296V13.3027H22.3413ZM22.3413 13.0195H18.9296C18.7733 13.0195 18.6465 13.1461 18.6465 13.3024V15.1081C18.6465 15.2644 18.7733 15.391 18.9296 15.391H22.3416C22.4979 15.391 22.6245 15.2644 22.6245 15.1081V13.3024C22.6245 13.1464 22.4976 13.0195 22.3413 13.0195Z" fill="#603913"/>
<g opacity="0.3">
<path d="M22.3417 13.3027H18.9297V15.1084H22.3417V13.3027Z" fill="#CFEDFC"/>
</g>
<path d="M28.6615 13.3027V15.1084H25.2506V13.3027H28.6615ZM28.6615 13.0195H25.2506C25.0943 13.0195 24.9678 13.1461 24.9678 13.3024V15.1081C24.9678 15.2644 25.0943 15.391 25.2506 15.391H28.6615C28.8175 15.391 28.9446 15.2644 28.9446 15.1081V13.3024C28.9446 13.1464 28.8175 13.0195 28.6615 13.0195Z" fill="#603913"/>
<g opacity="0.3">
<path d="M28.6618 13.3027H25.251V15.1084H28.6618V13.3027Z" fill="#CFEDFC"/>
</g>
<path d="M22.46 14.3506H25.1251" stroke="#603913" stroke-width="0.282971" stroke-miterlimit="10" stroke-linejoin="round"/>
<path d="M28.7959 14.185L30.2548 12.7559" stroke="#603913" stroke-width="0.282971" stroke-miterlimit="10" stroke-linecap="round" stroke-linejoin="round"/>
<path d="M18.6984 14.185L17.2393 12.7559" stroke="#603913" stroke-width="0.282971" stroke-miterlimit="10" stroke-linecap="round" stroke-linejoin="round"/>
<path d="M24.4904 30.8953H23.2064L22.3213 27.9336H25.3764L24.4904 30.8953Z" fill="#F8BE2C"/>
<path d="M23.2064 30.8955H24.4904L25.3764 51.1538L23.8487 54.2621L22.3213 51.1538L23.2064 30.8955Z" fill="#F8BE2C"/>
<path d="M21.5526 24.411L23.8486 27.9338L22.0106 29.3827L20.2383 25.9455C20.2383 25.9455 21.068 24.1595 21.5526 24.411Z" fill="#CFEDFC"/>
<path d="M26.1446 24.2687L23.8486 27.933L25.7041 29.3818L27.4763 25.9447C27.4763 25.9447 26.6292 24.0175 26.1446 24.2687Z" fill="#CFEDFC"/>
<path d="M18.5659 58.6367C18.0276 58.1595 16.7839 56.9235 16.1188 56.2667C16.1148 56.2427 15.6354 55.809 15.5068 55.4404C15.5348 55.423 14.6945 54.4064 14.5008 53.815C14.0439 53.7075 13.7031 53.6981 13.4434 53.8675L12.0402 51.5312L9.11621 53.5904L11.3199 55.6281C11.2571 55.9284 11.3316 56.2295 11.6528 56.8141C11.8516 57.1761 12.4574 58.1161 12.8156 58.4838C13.1065 59.205 13.7114 60.7067 13.9202 61.3115C14.0034 61.5518 14.2188 61.7875 14.3945 61.7235C14.5202 61.679 14.6662 61.4655 14.5676 61.1821C14.3228 60.4687 14.0514 59.497 13.7371 58.6247C13.7819 58.6113 13.8279 58.5955 13.8751 58.5795C14.4285 59.4973 15.2065 60.6581 15.5985 61.2818C15.7779 61.5818 16.0722 61.5981 16.2051 61.5135C16.3896 61.3933 16.3385 61.0167 16.1868 60.7615C15.8642 60.2224 15.2022 58.971 14.7485 58.1104C14.8071 58.0704 14.8648 58.0281 14.9216 57.9861C15.6094 58.837 16.6862 60.011 17.2114 60.6204C17.4322 60.8895 17.7294 60.8647 17.8491 60.7618C18.0159 60.6178 17.9108 60.2555 17.7234 60.0267C17.2639 59.4687 16.2162 58.0427 15.6656 57.2947C15.6859 57.2693 15.7056 57.245 15.7254 57.2215C16.2308 57.667 17.1974 58.4547 18.1425 59.2953C18.4039 59.5275 18.6959 59.4593 18.7999 59.341C18.9451 59.1755 18.7874 58.8355 18.5659 58.6367Z" fill="#FBC4AB"/>
<path d="M16.1954 26.2217C10.9214 26.3645 0.672839 38.2222 0.38741 40.602C0.0622671 43.3208 1.83084 46.6937 5.84141 44.4854C7.12341 43.7788 15.4997 36.116 16.4226 35.0314" fill="#1D4277"/>
<path d="M0.452164 43.2283C0.807592 44.1777 6.99959 51.1246 9.07702 53.9351C9.80045 54.9146 9.19645 55.5274 10.4736 55.5923C11.4039 55.6397 12.4759 55.086 13.2413 54.5377C13.5773 54.2969 14.0559 53.8869 14.1913 53.5C14.395 52.9186 13.3256 52.3871 13.1193 51.85C12.3107 49.7391 5.86702 39.19 4.10416 39.0951C3.21616 39.0474 1.75788 39.7331 0.982449 40.0931C-0.190694 40.6369 0.046735 42.1471 0.452164 43.2283Z" fill="#1D4277"/>
<path d="M29.2715 58.6367C29.8087 58.1595 31.053 56.9235 31.7178 56.2667C31.7224 56.2427 32.201 55.809 32.3295 55.4404C32.303 55.423 33.1424 54.4064 33.3355 53.815C33.7933 53.7075 34.1335 53.6981 34.3941 53.8675L35.7958 51.5312L38.721 53.5904L36.5164 55.6281C36.5804 55.9284 36.5047 56.2295 36.1847 56.8141C35.9853 57.1761 35.3784 58.1161 35.0213 58.4838C34.7298 59.205 34.1258 60.7067 33.9164 61.3115C33.8338 61.5518 33.6181 61.7875 33.4427 61.7235C33.3167 61.679 33.1713 61.4655 33.2684 61.1821C33.5141 60.4687 33.7847 59.497 34.1004 58.6247C34.0547 58.6113 34.0081 58.5955 33.9621 58.5795C33.4087 59.4973 32.6293 60.6581 32.2381 61.2818C32.0587 61.5818 31.7638 61.5981 31.6321 61.5135C31.4467 61.3933 31.497 61.0167 31.6498 60.7615C31.9718 60.2224 32.6338 58.971 33.0881 58.1104C33.0295 58.0704 32.9721 58.0281 32.9144 57.9861C32.2278 58.837 31.1501 60.011 30.6255 60.6204C30.4038 60.8895 30.1075 60.8647 29.9873 60.7618C29.8207 60.6178 29.9247 60.2555 30.113 60.0267C30.573 59.4687 31.6207 58.0427 32.171 57.2947C32.1515 57.2693 32.1307 57.245 32.111 57.2215C31.6061 57.667 30.6387 58.4547 29.6938 59.2953C29.4327 59.5275 29.1401 59.4593 29.0364 59.341C28.8913 59.1755 29.0495 58.8355 29.2715 58.6367Z" fill="#FBC4AB"/>
<path d="M31.6409 26.2227C36.9149 26.3655 47.1643 38.2232 47.4495 40.6029C47.7743 43.3218 46.0049 46.6947 41.9949 44.4864C40.7138 43.7798 32.3361 36.1169 31.4141 35.0324" fill="#1D4277"/>
<path d="M47.3855 43.2283C47.0298 44.1777 40.8375 51.1246 38.7601 53.9351C38.0375 54.9146 38.6406 55.5274 37.3632 55.5923C36.4335 55.6397 35.3615 55.086 34.5969 54.5377C34.2598 54.2969 33.7809 53.8869 33.6458 53.5C33.4421 52.9186 34.5123 52.3871 34.7178 51.85C35.5275 49.7391 41.9709 39.19 43.7338 39.0951C44.6212 39.0474 46.0792 39.7331 46.8555 40.0931C48.0281 40.6369 47.7906 42.1471 47.3855 43.2283Z" fill="#1D4277"/>
<path d="M94.2011 83.7712L95.7709 55.5615C95.7709 55.5615 92.9843 62.8638 89.3777 62.8638C86.0049 62.8638 84.5537 65.4715 84.5537 65.4715L85.5669 83.7715L94.2011 83.7712Z" fill="#414042"/>
<path d="M81.0047 83.7716C81.6421 81.827 82.2627 79.8527 82.5418 78.7302C83.3038 75.6673 84.9047 66.0916 84.9047 66.0916C84.9047 66.0916 84.3564 63.7739 81.0584 63.0696C77.533 62.3153 74.5467 56.1182 74.5467 56.1182L72.1738 83.7716H81.0047Z" fill="#414042"/>
<path d="M94.1195 66.0426C93.5267 68.2546 86.6115 68.8826 84.3212 68.8826C82.0672 68.8826 75.3898 67.1612 74.7744 65.3946C74.3547 64.1903 73.3887 53.3555 73.3887 53.3555L96.287 53.5843C96.287 53.5843 94.4635 64.7603 94.1195 66.0426Z" fill="#414042"/>
<path d="M94.1184 57.3339C99.4987 54.9656 93.6033 38.9601 94.2996 30.0076C93.6816 25.6938 93.009 22.7861 84.601 22.7861C74.6739 22.7861 74.495 26.3058 74.3824 31.3433C75.4596 40.0693 70.4387 54.2144 75.5467 57.3339C76.4687 57.8964 78.3647 59.9064 84.8585 59.9064C91.1556 59.9064 93.1579 57.7559 94.1184 57.3339Z" fill="#414042"/>
<path d="M89.5289 59.722C92.2564 57.354 89.2681 38.9611 89.6204 30.0085C89.3061 25.6948 88.9664 22.7871 84.7026 22.7871C79.6704 22.7871 80.6052 25.6748 80.3346 31.1997C80.8804 39.9257 77.5232 56.6025 80.1138 59.722C80.5801 60.2845 89.0415 60.1451 89.5289 59.722Z" fill="#CFEDFC"/>
<path d="M87.1748 24.3449C87.1748 24.3449 86.768 26.2144 84.8589 26.2144C82.8266 26.2144 82.542 24.3449 82.542 24.3449V18.8184H87.1748V24.3449Z" fill="#F9B6A5"/>
<path d="M80.6049 12.9122C80.6049 13.8954 79.8092 14.6914 78.8263 14.6914C77.8435 14.6914 77.0469 13.8954 77.0469 12.9122C77.0469 11.9297 77.8435 11.1328 78.8263 11.1328C79.8092 11.1328 80.6049 11.9297 80.6049 12.9122Z" fill="#FBC4AB"/>
<path d="M92.3875 12.8256C92.3875 13.8079 91.5912 14.6042 90.6084 14.6042C89.6255 14.6042 88.8301 13.8079 88.8301 12.8256C88.8301 11.8413 89.6255 11.0459 90.6084 11.0459C91.5915 11.0459 92.3875 11.8413 92.3875 12.8256Z" fill="#FBC4AB"/>
<path d="M78.3644 13.7248C78.3781 8.64993 78.7289 2.46336 84.7918 2.4805C90.8541 2.49793 91.1692 8.6865 91.1555 13.7605C91.1418 18.8342 89.8747 21.2496 84.7375 21.2345C79.6007 21.2214 78.3507 18.7982 78.3644 13.7248Z" fill="#FBC4AB"/>
<path d="M91.1533 10.582C91.1533 10.582 90.5256 16.9243 88.3056 17.6503C88.3608 16.8189 87.9659 15.3743 86.7376 15.0312C85.6493 14.7275 84.9947 15.27 84.7487 15.54C84.5013 15.2703 83.847 14.7277 82.7599 15.0312C81.5305 15.3743 81.1367 16.8189 81.1922 17.6503C78.9719 16.9243 78.3713 10.6052 78.3713 10.6052C77.7308 12.2226 77.9028 17.9092 79.049 19.316C79.9585 20.4346 84.2239 22.0446 84.749 22.0446C85.2742 22.0446 89.265 20.8986 90.1759 19.7815C91.3208 18.3755 91.7939 12.1992 91.1533 10.582ZM86.6513 18.3137C86.2405 18.2392 85.4442 18.0903 84.9568 17.8497L84.7485 18.0777L84.5402 17.8497C84.0528 18.0903 83.2576 18.2392 82.8448 18.3137C82.695 17.492 82.6648 16.0295 82.869 15.7063C83.1182 15.31 84.3673 15.5637 84.7485 15.6523C85.129 15.5637 86.3773 15.3103 86.6279 15.7063C86.8313 16.0295 86.8019 17.4923 86.6513 18.3137Z" fill="#939598"/>
<path d="M82.0737 12.5238C82.0737 12.7952 81.9303 13.0153 81.7546 13.0153C81.5791 13.0153 81.4346 12.795 81.4346 12.5238C81.4346 12.2515 81.5791 12.0312 81.7546 12.0312C81.9303 12.0312 82.0737 12.2512 82.0737 12.5238Z" fill="#603913"/>
<path d="M88.0981 12.5238C88.0981 12.7952 87.9549 13.0153 87.7792 13.0153C87.6035 13.0153 87.4609 12.795 87.4609 12.5238C87.4609 12.2515 87.6035 12.0312 87.7792 12.0312C87.9549 12.0312 88.0981 12.2512 88.0981 12.5238Z" fill="#603913"/>
<path d="M82.4561 15.6343C82.4561 16.9063 83.4878 17.938 84.7603 17.938C86.0315 17.938 87.0623 16.9063 87.0623 15.6343C87.0623 15.6343 86.3295 15.498 84.7603 15.498C82.6646 15.498 82.4561 15.6343 82.4561 15.6343Z" fill="#F04E4C"/>
<path d="M84.7603 15.498C82.6649 15.498 82.4561 15.6343 82.4561 15.6343C82.4561 15.8609 82.4898 16.0789 82.5512 16.2858C82.5783 16.3766 86.9415 16.38 86.9661 16.2949C87.0281 16.086 87.0623 15.8643 87.0623 15.6346C87.0623 15.6346 86.3295 15.498 84.7603 15.498Z" fill="white"/>
<path d="M89.1986 10.6981C89.164 10.6981 89.13 10.6826 89.1066 10.6529C88.4437 9.80006 87.4757 10.1135 87.4351 10.1272C87.3743 10.1483 87.3083 10.1152 87.2874 10.0543C87.2668 9.99378 87.2994 9.92777 87.36 9.90692C87.3714 9.90292 88.5234 9.52377 89.2903 10.5103C89.3297 10.5612 89.3206 10.6343 89.2697 10.6735C89.2488 10.6901 89.2234 10.6981 89.1986 10.6981Z" fill="#939598"/>
<path d="M80.334 10.6978C80.3091 10.6978 80.284 10.6898 80.2628 10.6733C80.212 10.6338 80.2028 10.5607 80.2423 10.5101C81.0094 9.52385 82.1611 9.90299 82.1725 9.90671C82.2331 9.92756 82.2657 9.99357 82.2448 10.0541C82.2243 10.115 82.1585 10.1481 82.0974 10.127C82.0565 10.113 81.0894 9.79928 80.4257 10.653C80.4031 10.6824 80.3688 10.6978 80.334 10.6978Z" fill="#939598"/>
<path d="M84.2139 14.3441C84.2139 14.3441 84.3073 14.3144 84.4193 14.3064C84.4764 14.3016 84.5396 14.2955 84.6022 14.301C84.6356 14.3055 84.6627 14.3016 84.6904 14.3027C84.7044 14.3036 84.7182 14.303 84.7316 14.3053L84.7519 14.3081L84.7622 14.3098L84.7673 14.3104L84.7696 14.3107L84.7707 14.311C84.7599 14.3113 84.7956 14.3101 84.7462 14.3118H84.7467H84.7476C84.7836 14.3081 84.8193 14.3041 84.8553 14.3038C84.8904 14.3018 84.9296 14.3055 84.9516 14.3015C85.0047 14.2964 85.0562 14.3067 85.1147 14.3101C85.2273 14.3161 85.3204 14.3441 85.3204 14.3441C85.3204 14.3441 85.2819 14.433 85.1916 14.5161C85.1499 14.5613 85.0776 14.6007 85.0019 14.6373C84.9602 14.6575 84.9287 14.6653 84.8933 14.673C84.8584 14.6818 84.8227 14.6867 84.787 14.6921L84.7604 14.6933L84.7584 14.693L84.7542 14.6924L84.7459 14.6913L84.729 14.6887L84.6961 14.683C84.6741 14.6798 84.6527 14.6735 84.6313 14.669C84.5884 14.659 84.5459 14.6473 84.515 14.6284C84.4487 14.593 84.3884 14.5567 84.3442 14.5124C84.253 14.431 84.2139 14.3441 84.2139 14.3441Z" fill="#FBB988"/>
<path d="M73.0125 28.9727C73.0125 28.9727 68.2919 37.6024 69.1616 45.6464C69.1616 45.6464 69.5913 50.3298 72.5548 45.7949C75.5191 41.2601 75.9116 32.2552 75.5314 30.5144C75.1494 28.773 75.3156 27.8478 73.0125 28.9727Z" fill="#FBC4AB"/>
<path d="M72.8963 45.2324C73.9777 47.9581 74.4903 53.275 75.7975 58.2967L73.3429 58.6453C73.3429 58.6453 68.8772 47.1213 69.1615 45.6467" fill="#FBC4AB"/>
<path d="M78.8384 61.9944C78.5524 61.6327 77.8513 60.7353 77.5021 60.4387C77.1793 60.1633 76.6639 60.1236 76.3559 60.1233V60.1227L76.3556 60.1233C76.333 60.1233 75.5819 57.4336 75.5819 57.4336L72.9404 57.5902L74.063 60.9353C74.219 61.9576 75.2173 63.7627 75.4633 64.0327C75.6927 64.2867 75.8893 64.4673 76.0596 64.6002C77.1287 65.569 77.6627 65.9456 78.659 66.5445C79.1281 66.8262 79.4919 66.7279 79.6507 66.5136C79.8407 66.2622 79.3107 65.8639 79.1256 65.7113C78.5327 65.2193 78.8753 65.6456 77.9981 64.695C77.743 64.4016 77.4916 64.1273 77.3499 63.9387C77.157 63.6804 77.0996 63.051 77.1144 62.7027C77.1279 62.3742 77.1181 62.0659 77.0913 61.7873C77.481 61.9979 78.1084 62.5916 78.6533 62.4784C78.9396 62.4164 78.9456 62.1322 78.8384 61.9944Z" fill="#FBC4AB"/>
<path d="M78.7157 12.7809C78.8808 12.6303 79.4351 11.0818 79.4942 10.7683C79.6134 10.1283 79.8565 9.57062 79.7614 8.97776C79.6614 8.35405 79.4102 6.79748 78.826 7.16205C77.226 8.16091 77.7119 10.0009 78.0014 11.0466C78.0571 11.2495 78.2551 11.9738 78.3642 12.1575C78.484 12.3589 78.5185 12.6303 78.7157 12.7809Z" fill="#939598"/>
<path d="M90.8633 12.7809C90.699 12.6303 90.1444 11.0818 90.0853 10.7683C89.9661 10.1283 89.7221 9.57062 89.8175 8.97776C89.9184 8.35405 90.1695 6.79748 90.7527 7.16205C92.3527 8.16091 91.8673 10.0009 91.5775 11.0466C91.5215 11.2495 91.3241 11.9738 91.2147 12.1575C91.095 12.3589 91.0604 12.6303 90.8633 12.7809Z" fill="#939598"/>
<g opacity="0.4">
<path d="M83.7569 12.5208C83.7549 13.6311 82.8543 14.5299 81.7449 14.5274C80.6349 14.5262 79.7371 13.6245 79.7383 12.5159C79.7397 11.4056 80.6406 10.5074 81.7506 10.5088C82.8606 10.5102 83.758 11.4116 83.7569 12.5208Z" fill="#B3E4FA"/>
</g>
<path d="M81.7497 14.6352H81.7449C80.5783 14.6338 79.63 13.6835 79.6309 12.5166C79.6329 11.3506 80.5823 10.4023 81.748 10.4023C82.9171 10.4035 83.8654 11.3541 83.8643 12.5215C83.862 13.6869 82.9134 14.6352 81.7497 14.6352ZM81.7506 10.6166C80.7006 10.6166 79.8469 11.4689 79.8457 12.5166C79.8449 13.5652 80.6971 14.4192 81.7449 14.4203L81.7494 14.5278V14.4203C82.7954 14.4203 83.648 13.5683 83.6491 12.5209C83.6506 11.4721 82.7991 10.6178 81.7506 10.6166Z" fill="#7F4125"/>
<g opacity="0.4">
<path d="M89.7966 12.5304C89.7949 13.639 88.8946 14.5379 87.7846 14.5364C86.6749 14.535 85.7763 13.6336 85.7783 12.5242C85.7798 11.4142 86.6806 10.5162 87.7909 10.5176C88.9 10.5187 89.7986 11.4207 89.7966 12.5304Z" fill="#B3E4FA"/>
</g>
<path d="M87.7872 14.6436H87.7843C87.2192 14.6427 86.6883 14.4219 86.2889 14.0213C85.89 13.621 85.6703 13.089 85.6709 12.5239C85.6729 11.3584 86.6226 10.4102 87.7883 10.4102C88.356 10.4107 88.8875 10.6316 89.2866 11.0322C89.6855 11.4327 89.9052 11.9647 89.904 12.5304C89.9018 13.6956 88.9526 14.6436 87.7872 14.6436ZM87.7906 10.6247C86.7403 10.6247 85.8869 11.4767 85.8855 12.5242C85.8846 13.0319 86.0818 13.5099 86.4406 13.8699C86.7992 14.2296 87.2766 14.4282 87.7846 14.4287L87.7869 14.5362V14.4287C88.8338 14.4287 89.6872 13.577 89.6889 12.5299C89.6898 12.0216 89.4929 11.5436 89.134 11.1836C88.7758 10.8239 88.298 10.6253 87.7906 10.6247Z" fill="#7F4125"/>
<path d="M85.8246 13.0841C85.7683 13.0841 85.722 13.0395 85.7197 12.9827C85.7137 12.8107 85.3012 12.6178 84.758 12.6172C84.758 12.6172 84.7572 12.6172 84.7563 12.6172C84.2146 12.6172 83.8026 12.8084 83.796 12.9795C83.7935 13.0375 83.7443 13.0849 83.6869 13.0807C83.6289 13.0784 83.5837 13.0295 83.586 12.9715C83.598 12.6498 84.1015 12.4072 84.7563 12.4072C84.7572 12.4072 84.7577 12.4072 84.7583 12.4072C85.4146 12.4081 85.9183 12.6524 85.93 12.9752C85.932 13.0332 85.8866 13.0818 85.8286 13.0841C85.8272 13.0841 85.826 13.0841 85.8246 13.0841Z" fill="#7F4125"/>
<path d="M78.1525 23.6396C72.2634 25.1794 66.4728 40.2511 67.0994 42.5874C67.8154 45.2565 70.7377 47.7516 73.6657 44.1774C74.6017 43.0354 79.572 32.7134 80.0297 31.3505" fill="#414042"/>
<path d="M67.1266 43.1014C67.1826 44.1226 71.1069 53.7023 72.2609 57.0349C72.6612 58.1951 71.8949 58.6034 73.1052 59.0511C73.9869 59.3783 75.1857 59.1677 76.0877 58.8709C76.4846 58.7409 77.0692 58.4897 77.316 58.1583C77.688 57.6597 76.8186 56.8254 76.7823 56.2454C76.638 53.9689 73.6163 41.8669 71.9469 41.2437C71.1069 40.9291 69.4943 41.1511 68.6392 41.2626C67.3463 41.4314 67.0623 41.9377 67.1266 43.1014Z" fill="#414042"/>
<path d="M96.9325 29.5935C96.9325 29.5935 101.654 38.2232 100.784 46.2683C100.784 46.2683 100.355 50.9506 97.3899 46.4161C94.4274 41.8812 94.0328 32.8769 94.4145 31.1361C94.7959 29.3938 94.6302 28.4692 96.9325 29.5935Z" fill="#FBC4AB"/>
<path d="M97.0493 45.8525C95.967 48.5791 95.4556 53.8954 94.1484 58.9168L96.6027 59.2663C96.6027 59.2663 101.068 47.7428 100.784 46.2682" fill="#FBC4AB"/>
<path d="M91.108 62.6158C91.3937 62.2547 92.0949 61.3564 92.444 61.0593C92.7666 60.7844 93.2817 60.7447 93.5903 60.7441C93.6132 60.7441 94.364 58.0547 94.364 58.0547L97.0052 58.2118L95.8829 61.5561C95.7257 62.5795 94.7286 64.3827 94.4837 64.6541C94.2532 64.907 94.0566 65.0887 93.886 65.221C92.8163 66.1898 92.2832 66.5673 91.2875 67.1655C90.8175 67.4478 90.454 67.3487 90.2943 67.1355C90.1046 66.8841 90.6343 66.4855 90.8197 66.3327C91.414 65.841 91.0712 66.2673 91.9475 65.3175C92.2032 65.0233 92.454 64.7484 92.5957 64.5598C92.7883 64.3015 92.846 63.6727 92.8314 63.3253C92.8174 62.9955 92.8286 62.6878 92.8552 62.409C92.4643 62.6195 91.8383 63.2135 91.2926 63.0987C91.0052 63.0378 90.9995 62.7533 91.108 62.6158Z" fill="#FBC4AB"/>
<path d="M91.7928 24.2598C97.6828 25.7989 103.473 40.8715 102.847 43.2072C102.131 45.8763 99.2085 48.3715 96.2803 44.7981C95.3437 43.6555 90.3734 33.3329 89.918 31.9706" fill="#414042"/>
<path d="M102.82 43.7212C102.764 44.7418 98.8393 54.3206 97.687 57.6538C97.285 58.8144 98.0522 59.2224 96.8413 59.6712C95.9593 59.9978 94.761 59.7869 93.8587 59.4901C93.4619 59.3592 92.877 59.1086 92.6299 58.7772C92.259 58.2795 93.1293 57.4441 93.1645 56.8649C93.3079 54.5889 96.331 42.4864 97.9996 41.8627C98.8402 41.5484 100.452 41.7704 101.307 41.8815C102.6 42.0518 102.884 42.5572 102.82 43.7212Z" fill="#414042"/>
<path d="M85.5244 29.2266H84.2304L83.335 26.2383H86.4195L85.5244 29.2266Z" fill="#F8BE2C"/>
<path d="M84.2304 29.2266H85.5244L86.4195 49.6694L84.8767 52.8066L83.335 49.6694L84.2304 29.2266Z" fill="#F8BE2C"/>
<path d="M82.56 22.6828L84.8763 26.2382L83.0211 27.6996L81.2334 24.2316C81.2334 24.2316 82.07 22.4285 82.56 22.6828Z" fill="#CFEDFC"/>
<path d="M87.1947 22.5403L84.877 26.2392L86.7507 27.7006L88.5381 24.2326C88.5381 24.2326 87.6835 22.2872 87.1947 22.5403Z" fill="#CFEDFC"/>
<path d="M73.9414 64.6793C73.9414 64.6793 76.1343 63.1387 77.6997 60.0924C79.2651 57.047 81.92 64.115 82.0594 66.5953C82.1986 69.0744 75.9691 69.6644 75.3517 69.0744C74.732 68.4864 73.9414 64.6793 73.9414 64.6793Z" fill="#414042"/>
<path d="M95.2164 64.6793C95.2164 64.6793 93.0238 63.1387 91.4578 60.0924C89.8927 57.047 87.2378 64.115 87.0989 66.5953C86.9609 69.0744 93.1878 69.6644 93.8064 69.0744C94.4261 68.4864 95.2164 64.6793 95.2164 64.6793Z" fill="#414042"/>
<path d="M62.7438 68.428C62.1635 70.5917 56.0178 68.428 53.7769 68.428C51.5712 68.428 45.5815 69.8132 44.9792 68.0837C44.5684 66.9074 44.8164 58.7852 44.8164 58.7852H62.9952C62.9952 58.7852 63.0804 67.1714 62.7438 68.428Z" fill="#0E3847"/>
<path d="M62.9943 58.7848C62.9943 50.9094 65.1668 37.1797 64.1817 30.6411C63.5128 26.1983 61.908 23.2031 53.6783 23.2031C43.9623 23.2031 42.7371 26.8277 42.6137 32.0157C42.4597 38.4866 44.8154 51.4443 44.8154 58.7846C44.8154 60.8917 62.9943 60.8917 62.9943 58.7848Z" fill="#0E3847"/>
<path d="M57.2889 60.2655C57.2889 60.2655 58.152 37.1807 57.7612 30.6421C57.4946 26.1992 56.8563 23.2041 53.584 23.2041C49.7209 23.2041 49.2346 26.8287 49.1855 32.0167C49.1246 38.4875 50.0612 60.2312 50.0612 60.2312C50.0612 60.2312 51.6435 60.3692 53.6786 60.3661C55.1875 60.3624 57.2889 60.2655 57.2889 60.2655Z" fill="#FFF6D4"/>
<path d="M55.9457 24.7297C55.9457 24.7297 55.5477 26.5597 53.6789 26.5597C51.6897 26.5597 51.4111 24.7297 51.4111 24.7297V19.3203H55.9457V24.7297Z" fill="#EFA76C"/>
<path d="M49.5148 13.538C49.5148 14.4997 48.7359 15.28 47.7748 15.28C46.8117 15.28 46.0322 14.5 46.0322 13.538C46.0322 12.5766 46.8117 11.7969 47.7748 11.7969C48.7359 11.7969 49.5148 12.5766 49.5148 13.538Z" fill="#FBB880"/>
<path d="M61.0486 13.4532C61.0486 14.4149 60.2686 15.1947 59.3074 15.1947C58.3451 15.1947 57.5654 14.4149 57.5654 13.4532C57.5654 12.4909 58.3451 11.7109 59.3074 11.7109C60.2686 11.7109 61.0486 12.4909 61.0486 13.4532Z" fill="#FBB880"/>
<path d="M47.8623 14.3356C47.8752 9.36845 47.6792 3.31102 53.6135 3.32816C59.5469 3.34473 59.3163 9.40045 59.3032 14.3676C59.2889 19.3336 54.9158 21.689 53.5615 21.6853C52.2078 21.6816 47.8478 19.3013 47.8623 14.3356Z" fill="#FBB880"/>
<path d="M50.9528 13.1578C50.9528 13.4235 50.8125 13.6389 50.6405 13.6389C50.468 13.6389 50.3291 13.4238 50.3291 13.1578C50.3291 12.8912 50.4682 12.6758 50.6405 12.6758C50.8125 12.6758 50.9528 12.8915 50.9528 13.1578Z" fill="#603913"/>
<path d="M56.8486 13.1578C56.8486 13.4235 56.7098 13.6389 56.5363 13.6389C56.3643 13.6389 56.2246 13.4238 56.2246 13.1578C56.2246 12.8912 56.3646 12.6758 56.5363 12.6758C56.7098 12.6758 56.8486 12.8915 56.8486 13.1578Z" fill="#603913"/>
<path d="M57.9267 11.3708C57.8927 11.3708 57.8592 11.3556 57.837 11.3268C57.1835 10.4873 56.2101 10.8088 56.2004 10.8122C56.1418 10.8328 56.0761 10.8008 56.0558 10.7413C56.0358 10.6819 56.0673 10.617 56.1267 10.597C56.1378 10.593 57.265 10.2213 58.0167 11.187C58.0552 11.2368 58.0464 11.3082 57.9967 11.3468C57.9761 11.3628 57.9513 11.3708 57.9267 11.3708Z" fill="#0E3847"/>
<path d="M49.2499 11.3709C49.2253 11.3709 49.2007 11.3631 49.1796 11.3469C49.1302 11.308 49.121 11.2366 49.1599 11.1871C49.9102 10.2211 51.0373 10.5931 51.0487 10.5971C51.1082 10.6174 51.1402 10.682 51.1196 10.7411C51.0996 10.8006 51.0356 10.8329 50.9753 10.8126C50.9353 10.7989 49.9887 10.4914 49.3393 11.3269C49.317 11.3557 49.2836 11.3709 49.2499 11.3709Z" fill="#0E3847"/>
<path d="M53.0469 14.9399C53.0469 14.9399 53.1383 14.9108 53.2483 14.903C53.304 14.8985 53.3652 14.8942 53.4274 14.8979C53.4903 14.903 53.5392 14.8948 53.594 14.9076C53.5469 14.9093 53.5812 14.9079 53.5709 14.9085H53.5714H53.5723L53.574 14.9082L53.5772 14.9079L53.5837 14.907L53.5972 14.9059L53.6234 14.9033C53.6409 14.901 53.6583 14.9013 53.676 14.9005C53.7103 14.8985 53.7489 14.9022 53.7706 14.8982C53.8234 14.8948 53.8729 14.9036 53.9306 14.9068C54.0406 14.9125 54.1317 14.9399 54.1317 14.9399C54.1317 14.9399 54.0946 15.0268 54.0057 15.1082C53.9646 15.1522 53.8934 15.1896 53.8194 15.227C53.7789 15.247 53.7483 15.2545 53.7137 15.2622C53.6963 15.2656 53.6789 15.2705 53.6617 15.2728L53.6354 15.277L53.6226 15.279L53.6157 15.2802L53.6129 15.2808L53.5857 15.2822C53.5017 15.269 53.4069 15.253 53.3434 15.2185C53.2786 15.1822 53.2192 15.1482 53.176 15.1048C53.0854 15.0245 53.0469 14.9399 53.0469 14.9399Z" fill="#A56754"/>
<path d="M51.7412 16.5564C51.7412 17.8013 52.5658 18.4116 53.5818 18.4116C54.5978 18.4116 55.4221 17.8013 55.4221 16.5564C55.4221 16.5564 54.8366 16.4219 53.5818 16.4219C51.9081 16.4222 51.7412 16.5564 51.7412 16.5564Z" fill="#F04E4C"/>
<path d="M53.5818 16.4219C51.9081 16.4219 51.7412 16.5564 51.7412 16.5564C51.7412 16.7776 51.7681 16.9913 51.8172 17.1933C51.8389 17.2822 55.3244 17.2844 55.3446 17.2024C55.3949 16.9979 55.4221 16.7802 55.4221 16.5562C55.4221 16.5562 54.8366 16.4219 53.5818 16.4219Z" fill="white"/>
<path d="M62.2728 83.7714L62.8791 67.222C62.8791 67.222 61.6325 65.3154 58.1025 65.3154C54.8014 65.3154 54.1279 68.1863 54.1279 68.1863L54.8254 83.7714H62.2728Z" fill="#0E3847"/>
<path d="M52.9324 83.7713L53.5584 66.6839C53.5584 66.6839 52.3112 64.7773 48.7821 64.7773C45.4812 64.7773 44.8066 67.6485 44.8066 67.6485L45.5284 83.7713H52.9324Z" fill="#0E3847"/>
<path d="M48.0507 12.3216C48.0507 11.9513 48.167 8.00699 49.0927 5.94984C49.8544 4.25756 51.1627 6.91442 53.403 6.91442C55.641 6.91442 57.0495 4.11556 57.929 5.66213C59.0555 7.64613 59.3101 11.5438 59.3227 11.7978C59.5341 11.7978 60.4421 9.09613 60.4418 6.68042C60.4418 5.86242 60.1801 4.6527 59.7724 4.13727C59.5504 3.85556 58.5961 3.31956 58.5961 3.31956C58.5961 3.31956 57.7681 1.77842 57.2921 1.37356C55.2984 -0.323299 48.4935 -0.656157 46.7507 4.91784C45.5147 8.87041 48.0507 12.3216 48.0507 12.3216Z" fill="#0E3847"/>
<path d="M56.1967 18.1796C56.1979 17.9816 56.2462 16.9442 55.8764 16.2191C55.8479 16.0982 55.7476 15.9705 55.6342 15.8625C55.5093 15.7256 55.3607 15.6185 55.1793 15.5576C55.1756 15.5573 55.1733 15.5562 55.1704 15.5551C54.7584 15.3671 54.2584 15.2931 53.7947 15.2819C53.2636 15.2691 52.7456 15.3328 52.2353 15.4479C52.1913 15.4571 52.1513 15.4682 52.111 15.4788C52.109 15.4793 52.107 15.4793 52.1064 15.4793C52.001 15.5002 51.9073 15.5331 51.8204 15.5736C51.7004 15.6265 51.6033 15.6925 51.5236 15.7788C50.8167 16.4519 50.9864 17.9493 50.9822 18.1796C50.9722 18.7516 50.5853 19.9808 50.8879 20.4668C51.6442 21.6851 53.3502 21.6708 53.5547 21.6708C53.7702 21.6708 55.535 21.7445 56.2364 20.4925C56.5193 19.9876 56.1953 18.7582 56.1967 18.1796ZM53.3039 18.2699C52.793 18.4311 52.3919 18.6819 52.017 18.7413C51.9042 18.3156 51.6899 16.8999 51.7439 16.5025C52.2804 16.4448 53.9524 16.4499 54.4873 16.4593C54.7167 16.4639 55.1284 16.5596 55.4419 16.5533C55.4722 16.9531 55.2844 18.2836 55.1736 18.6999C54.8613 18.6399 54.4207 18.4313 54.0019 18.2991L53.3039 18.2699Z" fill="#0E3847"/>
<path d="M54.3121 29.485H53.0449L52.1689 26.5596H55.1878L54.3121 29.485Z" fill="#EE2B50"/>
<path d="M53.0449 29.4854H54.3121L55.1878 49.4942L53.6789 52.5656L52.1689 49.4942L53.0449 29.4854Z" fill="#EE2B50"/>
<path d="M51.4112 23.0805L53.6789 26.5603L51.8629 27.9914L50.1123 24.596C50.1123 24.596 50.932 22.8325 51.4112 23.0805Z" fill="#FFF6D4"/>
<path d="M55.9456 22.9403L53.6787 26.56L55.5107 27.9912L57.2619 24.5957C57.2619 24.5957 56.4253 22.692 55.9456 22.9403Z" fill="#FFF6D4"/>
<path d="M63.8786 29.6878C63.8786 29.6878 67.2312 38.7135 65.2512 46.3821C65.2512 46.3821 63.5686 48.8715 61.9444 46.0458C59.3006 41.4498 60.6066 32.4584 61.2215 30.8252C61.8369 29.1924 61.8064 28.2726 63.8786 29.6878Z" fill="#FBB880"/>
<path d="M62.8943 42.1364C60.1423 41.319 54.914 41.2838 49.9052 40.4473L49.7783 42.8698C49.7783 42.8698 61.402 46.2195 62.8138 45.8135" fill="#FBB880"/>
<path d="M61.3585 24.9375C65.7713 27.7072 68.7616 42.9398 67.8085 45.1078C66.7199 47.5838 63.5219 49.5632 61.2196 45.6712C60.4845 44.4269 58.7433 32.9304 58.5039 31.5441" fill="#0E3847"/>
<path d="M42.8949 29.6878C42.8949 29.6878 39.5418 38.7135 41.5224 46.3821C41.5224 46.3821 42.6072 48.5624 44.8295 46.0458C48.3392 42.0709 46.1669 32.4584 45.5524 30.8252C44.9364 29.1924 44.9669 28.2726 42.8949 29.6878Z" fill="#FBB880"/>
<path d="M45.416 24.9365C41.002 27.7062 38.0117 42.9388 38.966 45.1068C40.054 47.5828 43.2531 49.5622 45.554 45.6702C46.2903 44.426 48.0303 32.9294 48.2708 31.5431" fill="#0E3847"/>
<path d="M50.1916 40.0714L47.8345 39.8831C47.851 39.284 46.5456 38.4477 46.3719 38.3085C46.2142 38.182 45.6985 37.9223 45.5113 37.8657C45.4402 37.844 45.3513 37.8868 45.3256 38.0237C45.2282 38.5611 46.0522 38.9037 46.0499 38.9588C46.0499 38.9588 46.0519 39.1494 46.051 39.1883C45.769 39.2488 45.3119 39.114 45.2962 39.1208C44.6276 38.9554 43.3719 38.6468 42.8645 38.4914C42.655 38.428 42.3793 38.4588 42.3313 38.6143C42.2967 38.7254 42.367 38.9354 42.6125 39.0105C43.5047 39.282 44.3719 39.5886 44.847 39.7351C44.839 39.7566 44.8313 39.7788 44.8242 39.8008C44.1407 39.742 42.841 39.6303 42.3142 39.5554C42.097 39.5251 41.8287 39.5983 41.8022 39.7577C41.7827 39.8734 41.8822 40.0706 42.1367 40.106C42.721 40.2023 43.8727 40.4291 44.673 40.5351C44.6687 40.5868 44.6645 40.6408 44.6616 40.692C43.945 40.7366 42.9033 40.8003 42.441 40.804C42.2213 40.808 41.965 40.9197 41.9599 41.0828C41.9567 41.1983 42.081 41.3777 42.3393 41.3751C42.8822 41.382 43.9116 41.426 44.7022 41.4217C44.7102 41.4577 44.7176 41.492 44.7262 41.526C44.0565 41.6626 43.341 41.866 42.797 41.9857C42.5819 42.032 42.5033 42.206 42.523 42.3028C42.5519 42.4374 42.7813 42.4828 42.965 42.4423C43.4259 42.342 44.6036 42.1448 45.1693 42.0511C45.5382 42.1351 46.3625 42.156 46.667 42.1411C47.1579 42.1185 47.3762 42.0503 47.5407 41.8954L49.765 42.5471" fill="#FBB880"/>
<path d="M63.0651 48.038C62.0694 48.0654 53.4571 44.9811 50.1308 44.1251C48.9731 43.8268 48.6365 44.6071 48.1065 43.4623C47.7199 42.6297 47.8294 41.4425 48.0454 40.5394C48.1414 40.1414 48.3394 39.5511 48.6419 39.2828C49.0945 38.8814 49.9739 39.662 50.5388 39.6508C52.7602 39.6065 64.0088 42.2408 65.4825 43.1594C66.4151 43.7403 67.9182 44.1274 67.9579 44.9711C68.0919 47.8003 64.1996 48.0071 63.0651 48.038Z" fill="#0E3847"/>
<path d="M56.835 39.4942L59.1852 39.2311C59.1495 38.6333 60.4281 37.7568 60.5972 37.6111C60.751 37.4799 61.2584 37.2053 61.4432 37.1419C61.5144 37.1188 61.6044 37.1588 61.6335 37.2942C61.7487 37.8274 60.9355 38.1962 60.9395 38.2519C60.9395 38.2519 60.9447 38.4419 60.9455 38.4808C61.229 38.5328 61.6815 38.3839 61.6981 38.3896C62.3615 38.2033 63.6064 37.8565 64.1092 37.6853C64.3161 37.6145 64.5927 37.6373 64.6461 37.7908C64.6841 37.9013 64.6207 38.1133 64.377 38.1959C63.4932 38.4956 62.6367 38.8288 62.1664 38.9902C62.175 39.0111 62.1827 39.0331 62.1915 39.0551C62.8724 38.9742 64.1684 38.8219 64.693 38.7311C64.9081 38.6939 65.1792 38.7585 65.2098 38.9182C65.233 39.0328 65.1404 39.2316 64.8867 39.2762C64.3055 39.3896 63.161 39.6528 62.3641 39.7828C62.3704 39.8353 62.3764 39.8885 62.3807 39.9399C63.0987 39.9619 64.1421 39.9928 64.6044 39.9833C64.8232 39.9791 65.0835 40.0831 65.0935 40.2451C65.0995 40.3619 64.9815 40.5448 64.7244 40.5496C64.181 40.5733 63.153 40.6505 62.3632 40.6696C62.3572 40.7059 62.3504 40.7408 62.3418 40.7753C63.0158 40.8911 63.7378 41.0716 64.285 41.1745C64.5024 41.2142 64.5855 41.3856 64.569 41.4828C64.5455 41.6182 64.3158 41.6705 64.1315 41.6368C63.6675 41.5499 62.4841 41.3905 61.917 41.3136C61.5498 41.4093 60.7264 41.4565 60.4221 41.4513C59.931 41.4445 59.7098 41.3822 59.5412 41.2325L57.3384 41.9533" fill="#FBB880"/>
<path d="M44.1367 47.8674C45.1375 47.8625 53.6953 44.5054 57.0098 43.5434C58.1644 43.2086 58.5258 43.9771 59.0244 42.8163C59.3858 41.9705 59.2401 40.7885 58.9941 39.8923C58.8861 39.4971 58.6687 38.9128 58.3581 38.656C57.8898 38.2683 57.031 39.0766 56.4621 39.0837C54.2298 39.1108 43.0095 42.1025 41.5575 43.0674C40.6384 43.6785 39.1404 44.1125 39.1264 44.9574C39.0793 47.7903 42.9953 47.872 44.1367 47.8674Z" fill="#0E3847"/>
<path d="M78.7079 83.7721C78.693 81.7181 78.637 79.875 78.637 79.875H60.5162C60.5162 79.875 60.4979 81.7001 60.5125 83.7721H78.7079Z" fill="#1D4277"/>
<path d="M60.516 79.8751C60.516 72.0248 58.3512 58.3391 59.3323 51.8208C59.9997 47.3922 61.5994 44.4062 69.8034 44.4062C79.4892 44.4062 80.7106 48.0197 80.8332 53.1908C80.986 59.6414 78.6369 72.5582 78.6369 79.8751C78.6369 81.976 60.516 81.976 60.516 79.8751Z" fill="#1D4277"/>
<path d="M66.2052 81.3502C66.2052 81.3502 65.344 58.3394 65.7343 51.8208C65.9997 47.3922 66.6355 44.4062 69.8966 44.4062C73.7477 44.4062 74.2329 48.0197 74.2817 53.1908C74.3437 59.6414 73.4097 81.3162 73.4097 81.3162C73.4097 81.3162 71.8329 81.4545 69.8037 81.4502C68.2989 81.4468 66.2052 81.3502 66.2052 81.3502Z" fill="#FFF6D4"/>
<path d="M67.5439 45.9273C67.5439 45.9273 67.9402 47.7519 69.8042 47.7519C71.7877 47.7519 72.0642 45.9273 72.0642 45.9273V40.5342H67.5439V45.9273Z" fill="#AA7452"/>
<path d="M73.9531 34.7719C73.9531 35.7304 74.7303 36.5073 75.69 36.5073C76.6474 36.5073 77.4251 35.7304 77.4251 34.7719C77.4251 33.8127 76.6474 33.0361 75.69 33.0361C74.7303 33.0361 73.9531 33.813 73.9531 34.7719Z" fill="#BB7F5A"/>
<path d="M62.457 34.6869C62.457 35.6457 63.2339 36.4232 64.1919 36.4232C65.1513 36.4232 65.9273 35.6455 65.9273 34.6869C65.9273 33.7277 65.1513 32.9512 64.1919 32.9512C63.2339 32.9512 62.457 33.7277 62.457 34.6869Z" fill="#BB7F5A"/>
<path d="M75.6014 35.566C75.5863 30.6151 75.7823 24.5765 69.8677 24.5928C63.9531 24.6099 64.1826 30.6468 64.1968 35.598C64.2103 40.5482 68.5691 42.8959 69.9186 42.8928C71.27 42.8885 75.6148 40.5168 75.6014 35.566Z" fill="#BB7F5A"/>
<path d="M72.5205 34.3924C72.5205 34.6578 72.6594 34.8727 72.8319 34.8727C73.0031 34.8727 73.1431 34.6578 73.1431 34.3924C73.1431 34.1278 73.0031 33.9121 72.8319 33.9121C72.6596 33.9121 72.5205 34.1278 72.5205 34.3924Z" fill="#603913"/>
<path d="M66.6426 34.3924C66.6426 34.6578 66.7823 34.8727 66.9537 34.8727C67.1254 34.8727 67.2646 34.6578 67.2646 34.3924C67.2646 34.1278 67.1254 33.9121 66.9537 33.9121C66.7823 33.9121 66.6426 34.1278 66.6426 34.3924Z" fill="#603913"/>
<path d="M65.5677 32.6106C65.5434 32.6106 65.5188 32.6028 65.4977 32.5868C65.4483 32.5483 65.4397 32.4768 65.478 32.4274C66.2271 31.464 67.3503 31.8354 67.3614 31.8388C67.4203 31.8591 67.4523 31.9234 67.432 31.9826C67.4117 32.042 67.3474 32.0731 67.2883 32.0537C67.2483 32.0397 66.3046 31.7337 65.6574 32.5666C65.6351 32.5954 65.6017 32.6106 65.5677 32.6106Z" fill="#3C2415"/>
<path d="M74.2168 32.6104C74.1831 32.6104 74.1497 32.5953 74.1274 32.5667C73.478 31.7301 72.5068 32.0501 72.4971 32.0536C72.4379 32.0738 72.3728 32.0427 72.3528 31.983C72.3325 31.9238 72.3642 31.8593 72.4234 31.839C72.4345 31.835 73.5582 31.4644 74.3065 32.4276C74.3451 32.477 74.3362 32.5484 74.2868 32.587C74.2659 32.6024 74.2414 32.6104 74.2168 32.6104Z" fill="#3C2415"/>
<path d="M70.432 36.1693C70.432 36.1688 70.3937 36.2536 70.304 36.3328C70.2605 36.3762 70.2017 36.4099 70.1374 36.4462C70.1074 36.4642 70.0657 36.4756 70.024 36.4853C70.0034 36.4902 69.9823 36.4962 69.9605 36.4993L69.9285 36.5048L69.9122 36.5073L69.904 36.5088L69.9 36.5096H69.898L69.8728 36.5088C69.838 36.5033 69.8031 36.4988 69.7688 36.4902C69.7343 36.483 69.704 36.4756 69.6631 36.4553C69.5891 36.4188 69.5183 36.3811 69.478 36.3376C69.3894 36.2565 69.3525 36.1693 69.3525 36.1699C69.3525 36.1699 69.4434 36.1425 69.5531 36.1371C69.61 36.1336 69.6594 36.1248 69.7117 36.1285C69.7331 36.1325 69.7711 36.1285 69.8057 36.1302C69.8405 36.1305 69.8757 36.1345 69.9108 36.1379H69.9111C69.9011 36.1373 69.9348 36.1388 69.8883 36.1371H69.8885L69.89 36.1365L69.8923 36.1362L69.8974 36.1356L69.9071 36.1342L69.9274 36.1313C69.9405 36.1291 69.954 36.1293 69.9677 36.1285C69.9945 36.1276 70.0211 36.1316 70.0534 36.1273C70.1151 36.1236 70.1763 36.1282 70.232 36.1328C70.3408 36.1399 70.432 36.1693 70.432 36.1693Z" fill="#754C29"/>
<path d="M71.733 37.7795C71.733 39.0206 70.9116 39.6298 69.8987 39.6298C68.8847 39.6298 68.0645 39.0206 68.0645 37.7795C68.0645 37.7795 68.6473 37.6455 69.8987 37.6455C71.567 37.6458 71.733 37.7795 71.733 37.7795Z" fill="#F04E4C"/>
<path d="M69.899 37.6455C71.567 37.6455 71.7333 37.7795 71.7333 37.7795C71.7333 38.0004 71.7067 38.2138 71.6579 38.4158C71.6367 38.5038 68.1613 38.5066 68.141 38.4246C68.091 38.2195 68.0645 38.0035 68.0645 37.7795C68.0645 37.7795 68.6476 37.6455 69.899 37.6455Z" fill="white"/>
<path d="M78.9803 83.7723L78.6763 81.4512C78.6763 81.4512 78.2377 82.5695 77.3623 83.7723H78.9803Z" fill="#1D4277"/>
<path d="M69.1721 50.6671H70.4355L71.3087 47.752H68.2998L69.1721 50.6671Z" fill="#61CAE5"/>
<path d="M70.4355 50.667H69.1721L68.2998 70.6138L69.8041 73.6744L71.3087 70.6138L70.4355 50.667Z" fill="#61CAE5"/>
<path d="M72.0637 44.2828L69.8037 47.7516L71.6126 49.177L73.3589 45.7928C73.3589 45.7928 72.5414 44.0348 72.0637 44.2828Z" fill="#FFF6D4"/>
<path d="M67.5437 44.1433L69.804 47.7524L67.9766 49.1778L66.2314 45.7935C66.2314 45.7935 67.066 43.8964 67.5437 44.1433Z" fill="#FFF6D4"/>
<path d="M75.2261 33.8672C75.8209 34.0192 76.6052 31.362 76.6898 31.0432C76.9386 30.1177 77.1555 29.1235 77.1683 28.162C77.1841 27.008 76.5249 26.1806 76.3021 25.1049C76.2041 24.634 76.2606 24.3275 75.9952 23.9009C75.5546 23.1949 75.2575 22.5403 74.4023 22.282C73.5201 22.0152 72.9138 21.3197 71.9786 21.142C71.0206 20.9595 70.0203 21.0532 69.0558 21.1026C68.5175 21.1306 67.9821 21.5526 67.4569 21.6895C66.7735 21.8672 66.0606 21.9023 65.4109 22.2043C63.9749 22.8686 64.1915 24.2129 63.4349 25.3415C62.4832 26.7603 63.1323 29.154 63.4049 30.6926C63.5726 31.6352 63.8298 32.704 64.3509 33.526C64.3623 33.5432 64.5892 33.9186 64.6246 33.8883C64.8186 33.7086 64.7752 33.0635 64.8406 32.7995C64.9072 32.5306 64.9692 32.3726 64.9795 32.0763C64.9895 31.8003 64.9583 31.4957 64.9781 31.2349C65.0752 29.8923 65.2566 28.4192 66.4098 27.4549C66.4895 27.3886 66.7843 27.33 66.9092 27.2392C67.1089 27.0937 67.1866 26.8706 67.4112 26.7515C67.8081 26.5412 68.3201 26.3823 68.7158 26.2117C68.7886 26.3312 68.8132 26.4583 68.8706 26.5852C68.9795 26.8232 69.0226 26.9666 69.2715 27.0392C69.4506 27.0906 69.5029 27.03 69.6624 27.1643C69.8675 27.3366 69.9032 27.5886 70.1706 27.4255C70.2549 27.3723 70.2795 27.2089 70.3698 27.1706C70.5801 27.0846 70.9106 27.2412 71.1812 27.0809C71.3755 26.9663 71.4863 26.604 71.6618 26.532C72.1226 26.3403 72.8566 27.0683 73.2563 27.3086C73.4438 27.4217 73.6238 27.3695 73.7584 27.5095C73.8526 27.608 73.9538 28.0092 74.0338 28.1595C74.3621 28.7757 74.5092 29.2777 74.6541 29.9392C74.6949 30.1229 74.6758 30.0746 74.6789 30.264C74.6849 30.7069 74.8735 30.956 74.9203 31.33C74.9669 31.7052 74.9141 31.9766 74.9261 32.3429C74.9406 32.7549 74.9066 33.2495 75.0335 33.6377C75.0801 33.7777 75.1481 33.8472 75.2261 33.8672Z" fill="#3C2415"/>
<g opacity="0.4">
<path d="M71.1797 34.3894C71.18 35.6277 72.1854 36.6294 73.4243 36.6277C74.6623 36.6262 75.6651 35.6214 75.6626 34.3831C75.6614 33.1451 74.6557 32.1425 73.4185 32.1445C72.18 32.1465 71.1771 33.1511 71.1797 34.3894Z" fill="#B3E4FA"/>
</g>
<path d="M73.421 36.748C72.1193 36.748 71.0604 35.6905 71.0596 34.39C71.0584 33.7594 71.303 33.1662 71.7484 32.7194C72.1941 32.2728 72.787 32.0262 73.4179 32.0254C74.7219 32.0254 75.7807 33.0831 75.7824 34.3834C75.783 35.0142 75.5384 35.6077 75.0933 36.0542C74.6476 36.5011 74.0547 36.7474 73.4241 36.748H73.421ZM73.421 32.2651C72.851 32.266 72.3184 32.4871 71.9181 32.8888C71.5176 33.29 71.2976 33.8234 71.2993 34.3902C71.2993 35.5585 72.2516 36.5088 73.421 36.5088V36.6285L73.4239 36.5088C73.9907 36.5082 74.5233 36.2868 74.9239 35.8857C75.3241 35.4842 75.5441 34.9511 75.5427 34.384C75.5416 33.2157 74.5899 32.2651 73.421 32.2651Z" fill="#7F4125"/>
<g opacity="0.4">
<path d="M64.4414 34.3997C64.442 35.6372 65.4477 36.64 66.6857 36.6383C67.9234 36.6366 68.9263 35.6317 68.9243 34.3934C68.9226 33.1557 67.9183 32.152 66.6794 32.1543C65.4414 32.1563 64.4388 33.1617 64.4414 34.3997Z" fill="#B3E4FA"/>
</g>
<path d="M66.6821 36.7579C65.3819 36.7579 64.3224 35.7002 64.3213 34.3996C64.3204 33.769 64.5647 33.1759 65.0104 32.7288C65.4559 32.2819 66.0484 32.035 66.679 32.0342C67.9833 32.0342 69.0422 33.0922 69.0439 34.3928C69.0447 35.0236 68.7999 35.617 68.3541 36.0642C67.909 36.5108 67.3161 36.7568 66.6859 36.7579H66.6821ZM66.683 32.2739C66.1124 32.2748 65.5799 32.4962 65.1799 32.8982C64.7796 33.2996 64.5596 33.8328 64.561 34.3996C64.5616 35.5682 65.5133 36.5188 66.6821 36.5188V36.6385L66.6853 36.5188C67.2519 36.5179 67.7847 36.2968 68.1847 35.895C68.585 35.4939 68.805 34.9605 68.8041 34.3936C68.8027 33.2248 67.851 32.2739 66.683 32.2739Z" fill="#7F4125"/>
<path d="M68.8718 35.0177C68.8704 35.0177 68.8692 35.0177 68.8681 35.0177C68.8035 35.0157 68.7527 34.9617 68.755 34.8968C68.7664 34.536 69.3284 34.264 70.0624 34.2637C70.0644 34.2637 70.0664 34.2637 70.0684 34.2637C70.797 34.2637 71.3561 34.5331 71.3707 34.892C71.3732 34.9568 71.323 35.0111 71.2584 35.0137C71.1941 35.0151 71.1392 34.966 71.1367 34.9014C71.129 34.7105 70.6707 34.4982 70.0681 34.4982C70.0661 34.4982 70.0647 34.4982 70.0627 34.4982C69.4558 34.4982 68.9955 34.7128 68.9895 34.9045C68.987 34.9677 68.935 35.0177 68.8718 35.0177Z" fill="#7F4125"/>
<path d="M81.7329 51.1486C81.7329 51.1486 86.3317 59.2189 85.1926 67.0312C85.1926 67.0312 84.6052 71.5818 81.8789 67.0529C79.1532 62.524 79.0937 53.7306 79.5286 52.0463C79.9623 50.3618 79.5275 49.9678 81.7329 51.1486Z" fill="#BB7F5A"/>
<path d="M81.5658 66.4912C80.4115 69.1104 79.7209 74.2749 78.2646 79.1241L80.6449 79.5535C80.6449 79.5535 85.4155 68.4789 85.1921 67.0309" fill="#BB7F5A"/>
<path d="M75.3304 83.0989C75.8578 83.2317 76.4898 82.6746 76.8784 82.4823C76.8421 82.7534 76.821 83.0529 76.8215 83.3749C76.8221 83.486 76.8133 83.6266 76.7955 83.7728H79.0075C79.3655 83.1374 79.7527 82.3291 79.8615 81.7611L81.077 78.5411L78.507 78.292C78.507 78.292 77.6784 80.8874 77.6555 80.8866V80.8857L77.6553 80.8866C77.3561 80.8763 76.8521 80.896 76.5267 81.1531C76.1755 81.43 75.4604 82.2797 75.167 82.6214C75.0567 82.7517 75.0521 83.0303 75.3304 83.0989Z" fill="#BB7F5A"/>
<path d="M77.7824 45.9766C82.4536 48.2486 87.8944 63.1477 87.1833 65.3983C86.3701 67.9677 83.4127 70.2743 80.7127 66.6646C79.8504 65.51 75.4533 55.2323 75.0664 53.8848" fill="#1D4277"/>
<path d="M87.1352 65.8977C87.0358 66.8908 82.7967 76.0577 81.5281 79.2563C81.0858 80.3703 81.8161 80.8017 80.617 81.1863C79.7432 81.466 78.5841 81.208 77.7175 80.8808C77.3361 80.736 76.7772 80.4663 76.5501 80.1334C76.2104 79.6303 77.0947 78.8548 77.155 78.2917C77.3924 76.0788 80.863 64.4131 82.5164 63.8774C83.3495 63.6091 84.9101 63.894 85.7401 64.04C86.9935 64.2611 87.2472 64.766 87.1352 65.8977Z" fill="#1D4277"/>
<path d="M77.1344 83.7723C76.6178 83.2774 76.0595 82.6037 75.6024 81.7137C74.803 80.1586 73.7298 81.8794 73.0664 83.7723H77.1344Z" fill="#1D4277"/>
<path d="M58.4012 51.1485C58.4012 51.1485 53.8024 59.2188 54.9424 67.0311C54.9424 67.0311 55.5287 71.5817 58.255 67.0528C60.9801 62.524 61.0395 53.7305 60.6052 52.0463C60.171 50.362 60.6064 49.9677 58.4012 51.1485Z" fill="#BB7F5A"/>
<path d="M58.5674 66.4912C59.7217 69.1104 60.4125 74.2749 61.8688 79.1241L59.4882 79.5535C59.4882 79.5535 54.718 68.4789 54.9422 67.0309" fill="#BB7F5A"/>
<path d="M61.1255 83.7724H63.3378C63.3201 83.6262 63.3109 83.4856 63.3115 83.3744C63.3124 83.0524 63.2912 82.753 63.2549 82.4819C63.6435 82.6742 64.2758 83.2313 64.8029 83.0984C65.0806 83.0299 65.0761 82.7513 64.9664 82.6204C64.6741 82.279 63.9584 81.429 63.6069 81.1522C63.2815 80.8953 62.7789 80.8753 62.4784 80.8856C62.4558 80.8864 61.6261 78.291 61.6261 78.291L59.0566 78.5402L60.2721 81.7602C60.3806 82.3287 60.7675 83.1373 61.1255 83.7724Z" fill="#BB7F5A"/>
<path d="M62.3508 45.9775C57.6788 48.2495 52.2379 63.1487 52.9499 65.3993C53.7628 67.9687 56.7199 70.2752 59.4191 66.6655C60.2814 65.511 64.6796 55.2332 65.0662 53.8858" fill="#1D4277"/>
<path d="M52.9979 65.8977C53.0968 66.8908 57.3362 76.0577 58.6048 79.2563C59.0459 80.3703 58.3179 80.8017 59.5156 81.1863C60.3891 81.466 61.5488 81.208 62.4159 80.8808C62.7968 80.736 63.3556 80.4663 63.5822 80.1334C63.9228 79.6303 63.0391 78.8548 62.9779 78.2917C62.7408 76.0788 59.2696 64.4131 57.6153 63.8774C56.7822 63.6091 55.2216 63.894 54.3928 64.04C53.1391 64.2611 52.8845 64.766 52.9979 65.8977Z" fill="#1D4277"/>
<path d="M67.0658 83.7723C66.402 81.8794 65.3298 80.1586 64.5306 81.7137C64.0726 82.6037 63.5146 83.2777 62.998 83.7723H67.0658Z" fill="#1D4277"/>
<path d="M18.8643 83.7717C18.772 83.5143 18.6797 83.2817 18.6014 83.1386C18.4025 82.77 17.9414 82.5497 17.6577 82.4406C17.6363 82.432 17.8997 79.686 17.8997 79.686L15.4097 78.8926L15.2551 82.3743C15.1737 82.7454 15.1611 83.2577 15.184 83.772L18.8643 83.7717Z" fill="#FBC4AB"/>
<path d="M42.7408 83.7721C42.7536 81.7352 42.7356 79.9727 42.7356 79.9727H24.3899C24.3899 79.9727 24.3356 81.7518 24.3193 83.7721H42.7408Z" fill="#61CAE5"/>
<path d="M42.7358 79.9722C42.7358 72.025 44.9281 58.1693 43.9335 51.5705C43.2583 47.0876 41.6389 44.0645 33.3332 44.0645C23.5278 44.0645 22.2909 47.7222 22.1675 52.9579C22.0118 59.4884 24.3898 72.5656 24.3898 79.9725C24.3901 82.099 42.7358 82.099 42.7358 79.9722Z" fill="#0E3847"/>
<path d="M35.6221 45.6037C35.6221 45.6037 35.2198 47.4502 33.3335 47.4502C31.3258 47.4502 31.0449 45.6037 31.0449 45.6037V40.1445H35.6221V45.6037Z" fill="#FBB988"/>
<path d="M29.1326 34.3095C29.1326 35.2803 28.3455 36.0675 27.3752 36.0675C26.4049 36.0675 25.6172 35.2803 25.6172 34.3095C25.6172 33.3392 26.4046 32.5518 27.3752 32.5518C28.3455 32.5518 29.1326 33.3389 29.1326 34.3095Z" fill="#FBC4AB"/>
<path d="M39.0143 35.9817C39.9849 35.9817 40.7717 35.1948 40.7717 34.2242C40.7717 33.2536 39.9849 32.4668 39.0143 32.4668C38.0437 32.4668 37.2568 33.2536 37.2568 34.2242C37.2568 35.1948 38.0437 35.9817 39.0143 35.9817Z" fill="#FBC4AB"/>
<path d="M27.4639 35.1139C27.4779 30.1025 27.2793 23.9885 33.2682 24.0059C39.2559 24.0222 39.0242 30.1345 39.0099 35.1462C38.9959 40.1585 34.5833 42.535 33.2159 42.5316C31.8488 42.5282 27.4499 40.1265 27.4639 35.1139Z" fill="#FBC4AB"/>
<path d="M30.582 33.9264C30.582 34.1947 30.442 34.4121 30.268 34.4121C30.0943 34.4121 29.9531 34.1947 29.9531 33.9264C29.9531 33.6581 30.094 33.4404 30.268 33.4404C30.442 33.4404 30.582 33.6581 30.582 33.9264Z" fill="#603913"/>
<path d="M36.534 33.9255C36.534 34.1937 36.3934 34.4112 36.2192 34.4112C36.0449 34.4112 35.9043 34.1937 35.9043 33.9255C35.9043 33.6572 36.0449 33.4395 36.2192 33.4395C36.3934 33.4395 36.534 33.6572 36.534 33.9255Z" fill="#603913"/>
<path d="M35.8418 31.4506C35.8418 31.4506 36.9052 31.0874 37.6215 32.0074" stroke="#F15845" stroke-width="0.229771" stroke-miterlimit="10" stroke-linecap="round" stroke-linejoin="round"/>
<path d="M30.6431 31.4506C30.6431 31.4506 29.5811 31.0874 28.8643 32.0074" stroke="#F15845" stroke-width="0.229771" stroke-miterlimit="10" stroke-linecap="round" stroke-linejoin="round"/>
<path d="M32.6963 35.7242C32.6963 35.7242 32.7889 35.6948 32.8994 35.6874C32.9554 35.6831 33.0177 35.6774 33.0797 35.6831C33.112 35.6896 33.14 35.6808 33.1669 35.6842L33.2077 35.6879L33.228 35.6899L33.238 35.6911L33.2431 35.6916L33.2457 35.6919H33.2469L33.2471 35.6922C33.2363 35.6925 33.2714 35.6911 33.2231 35.6931L33.2237 35.6928L33.3303 35.6859C33.3646 35.6811 33.4037 35.6899 33.4254 35.6839C33.478 35.6779 33.5289 35.6885 33.5863 35.6911C33.6974 35.6968 33.7894 35.7242 33.7894 35.7242C33.7894 35.7242 33.7517 35.8119 33.6626 35.8942C33.6211 35.9379 33.5497 35.9776 33.4749 36.0128C33.3977 36.0508 33.336 36.0528 33.2629 36.0685L33.2366 36.0694L33.2346 36.0688L33.2303 36.0682L33.2223 36.0665L33.206 36.0636L33.1734 36.0571L33.1091 36.0442C33.0666 36.0368 33.0251 36.0202 32.9943 36.0036C32.9289 35.9691 32.8691 35.9334 32.8257 35.8902C32.7351 35.8096 32.6963 35.7242 32.6963 35.7242Z" fill="#FBB988"/>
<path d="M31.3789 37.3556C31.3789 38.6118 32.2109 39.2281 33.2369 39.2281C34.2626 39.2281 35.0946 38.6121 35.0946 37.3556C35.0946 37.3556 34.5029 37.2207 33.2369 37.2207C31.5475 37.2207 31.3789 37.3556 31.3789 37.3556Z" fill="#F04E4C"/>
<path d="M33.2369 37.2207C31.5475 37.2207 31.3789 37.3556 31.3789 37.3556C31.3789 37.579 31.4066 37.7953 31.4561 37.9998C31.4781 38.0884 34.9966 38.0918 35.0166 38.0084C35.0669 37.8013 35.0946 37.5827 35.0946 37.3556C35.0946 37.3556 34.5026 37.2207 33.2369 37.2207Z" fill="white"/>
<path d="M24.9943 45.8682C20.0729 47.7222 14.284 62.2333 14.7909 64.5682C15.3711 67.2356 18.138 69.8353 21.1951 66.4479C22.1723 65.3656 27.5646 55.4153 28.0803 54.0925" fill="#0E3847"/>
<path d="M14.8156 64.7125C14.5116 65.6751 14.7996 75.8968 14.7042 79.3782C14.6708 80.5914 13.8202 80.7022 14.7819 81.5385C15.4833 82.1465 16.6642 82.3705 17.6019 82.4097C18.0145 82.4285 18.6419 82.4002 18.9865 82.1788C19.5033 81.8482 18.9905 80.7737 19.1579 80.226C19.8208 78.0708 21.2431 65.8325 19.9182 64.6748C19.2511 64.0911 17.6848 63.7334 16.8545 63.5394C15.5999 63.2457 15.1616 63.614 14.8156 64.7125Z" fill="#0E3847"/>
<path d="M51.0491 83.772C51.0717 83.2577 51.0591 82.7454 50.978 82.3743L50.8243 78.8926L48.3349 79.686C48.3349 79.686 48.598 82.4317 48.5769 82.4406L48.576 82.4394V82.4406C48.292 82.55 47.8317 82.77 47.6314 83.1386C47.554 83.2817 47.4614 83.514 47.3691 83.7717H51.0491V83.772Z" fill="#FBC4AB"/>
<path d="M41.2388 45.8672C46.1602 47.7212 51.9496 62.2323 51.4425 64.5672C50.8628 67.2346 48.0962 69.8343 45.0373 66.4469C44.0613 65.3646 38.6687 55.4143 38.1533 54.0915" fill="#0E3847"/>
<path d="M51.4189 64.7125C51.7223 65.6751 51.4346 75.8968 51.5289 79.3782C51.5637 80.5914 52.414 80.7022 51.4514 81.5385C50.7514 82.1465 49.5686 82.3705 48.6312 82.4097C48.2192 82.4285 47.592 82.4002 47.2472 82.1788C46.7309 81.8482 47.2434 80.7737 47.0757 80.226C46.414 78.0708 44.9906 65.8325 46.316 64.6748C46.9834 64.0911 48.5497 63.7334 49.3792 63.5394C50.634 63.2457 51.0717 63.614 51.4189 64.7125Z" fill="#0E3847"/>
<path d="M27.6545 33.0822C27.6545 32.4 27.7002 29.914 27.9133 29.3282C29.5213 24.9222 37.9022 25.7562 38.5685 29.52C38.6733 30.114 39.0073 32.0982 39.0293 32.552C39.2425 32.552 40.1591 29.8265 40.1591 27.3882C40.1591 26.5631 39.8945 25.3417 39.4833 24.8214C39.2593 24.5382 38.2962 23.9965 38.2962 23.9965C38.2962 23.9965 37.4608 22.4417 36.9802 22.0322C34.9685 20.3202 31.5236 20.9437 29.2671 21.8171C27.5325 22.4882 26.6699 24.6631 26.3428 25.6091C24.9731 29.5582 27.6545 33.0822 27.6545 33.0822Z" fill="#F15845"/>
<path d="M37.3289 27.6088C37.3289 27.6088 34.1589 25.4525 32.9487 22.609C32.9487 22.609 31.7901 23.703 32.0952 24.6888C32.0952 24.6888 30.2812 23.8933 30.5195 22.5576C30.5195 22.5576 28.8038 23.9336 29.2244 25.7913C26.5632 25.0502 26.7304 23.9588 26.7304 23.9588C25.1324 26.0288 26.8912 29.4522 27.8215 30.0822C27.8215 30.0822 28.1304 28.8862 28.3344 28.5333C29.1055 27.2036 30.1601 26.9685 30.9212 26.8965C32.4978 26.7439 35.3347 26.629 37.3289 27.6088Z" fill="#F37B7A"/>
<path d="M32.5453 50.4261H33.8247L34.7081 47.4727H31.6621L32.5453 50.4261Z" fill="#EE2B50"/>
<path d="M33.8247 50.4258H32.5453L31.6621 70.6181L33.1853 73.7183L34.7081 70.6181L33.8247 50.4258Z" fill="#EE2B50"/>
<path d="M35.4741 43.9617L33.1855 47.4725L35.0178 48.9165L36.7847 45.4908C36.7847 45.4908 35.9575 43.7111 35.4741 43.9617Z" fill="#FFF6D4"/>
<path d="M30.8952 43.8204L33.1849 47.473L31.3346 48.917L29.5684 45.4912C29.5684 45.4912 30.4132 43.5698 30.8952 43.8204Z" fill="#FFF6D4"/>
</g>
<defs>
<clipPath id="clip0_200_13426">
<rect width="103.143" height="84" fill="white"/>
</clipPath>
</defs>
</svg>