<svg width="40" height="84" viewBox="0 0 40 84" fill="none" xmlns="http://www.w3.org/2000/svg">
<g clip-path="url(#clip0_200_13313)">
<path d="M33.2383 50.5999C33.2383 50.5999 35.0179 50.2045 35.4292 51.5531C35.8405 52.9016 35.9908 53.5898 35.9908 53.5898L34.6778 53.8192C34.6778 53.8192 34.6897 51.9268 33.3688 51.6203L33.2383 50.5999Z" fill="#9B1F58"/>
<path d="M31.8418 45.2051C32.1127 45.8121 32.5398 46.3322 32.8839 46.8997C33.6749 48.1929 34.3116 49.6681 34.4065 51.1749C34.412 51.3921 34.3375 51.6038 34.1972 51.7697C34.0568 51.9356 33.8604 52.0441 33.6452 52.0746C33.5117 52.0714 33.3784 52.0881 33.2497 52.124C33.0876 52.1932 32.9927 52.3653 32.8444 52.4621C32.613 52.6104 32.2966 52.5472 32.0534 52.6599C31.9327 52.7357 31.8159 52.8176 31.7034 52.9051C31.6139 52.9613 31.5141 52.999 31.4099 53.0159C31.3056 53.0329 31.199 53.0288 31.0963 53.0039C30.9878 52.9584 30.8691 52.942 30.7523 52.9565C30.6893 52.9818 30.6316 53.0187 30.5822 53.0652C30.3926 53.2334 30.1609 53.3469 29.9119 53.3935C29.7873 53.4155 29.6591 53.4038 29.5405 53.3597C29.422 53.3155 29.3174 53.2405 29.2376 53.1424C29.1743 53.0534 29.1387 52.9446 29.0774 52.8556C28.933 52.6401 28.5435 52.563 28.3398 52.3989C28.0325 52.1301 27.8076 51.7798 27.6912 51.3884C27.5569 51.0418 27.518 50.6656 27.5785 50.2989C27.678 49.9636 27.8202 49.6426 28.0017 49.3438C28.4387 48.4737 28.585 47.491 28.7274 46.5299C29.3898 45.9901 30.5347 45.7746 31.2506 45.3079C31.4562 45.1853 31.6203 45.2842 31.8418 45.2051Z" fill="#FFCC99"/>
<path d="M19.9122 76.251C19.9122 76.251 19.5167 79.8874 19.7797 82.6162L19.9774 83.8027H28.2825C28.2825 83.8027 28.937 81.7442 26.8983 80.0456C25.7119 79.0569 25.9096 75.6953 25.9096 75.6953L19.9122 76.251Z" fill="#A95634"/>
<path d="M21.8643 78.3244C22.8874 77.8409 24.0498 77.7399 25.1409 78.0397C25.1671 78.0467 25.1951 78.0431 25.2186 78.0296C25.2422 78.016 25.2594 77.9937 25.2665 77.9675C25.2735 77.9413 25.2699 77.9133 25.2564 77.8897C25.2428 77.8662 25.2205 77.849 25.1943 77.8419C24.0483 77.5309 22.8287 77.6418 21.7576 78.1543C21.6429 78.2077 21.7437 78.3778 21.8584 78.3244H21.8643Z" fill="#351B37"/>
<path d="M11.2772 75.6953C11.2772 75.6953 11.5144 78.0207 4.8506 79.3535C1.8845 79.9467 1.58789 83.0117 1.58789 83.0117H15.6274V75.6953H11.2772Z" fill="#A95634"/>
<path d="M8.9043 44.4521V76.6838C8.9043 76.6838 12.8591 79.4521 16.6162 76.6838L17.4071 52.5595L18.7913 76.6838C18.7913 76.6838 22.7461 79.6499 26.5032 76.0906L25.5145 45.2431L8.9043 44.4521Z" fill="#8EA29A"/>
<path d="M10.2883 45.2131C10.1607 46.1254 9.77514 46.9823 9.17698 47.6829C9.09393 47.7778 9.23234 47.9182 9.31539 47.8213C9.94221 47.0986 10.3485 46.2112 10.486 45.2645C10.5018 45.1399 10.312 45.0865 10.2883 45.2131Z" fill="#351B37"/>
<path d="M23.8414 45.3592C23.9996 46.3637 24.6541 47.1824 25.279 47.9476C25.3581 48.0465 25.4985 47.9061 25.4174 47.8072C24.8143 47.0677 24.1855 46.2787 24.0332 45.3078C24.0135 45.1812 23.8236 45.2346 23.8355 45.3592H23.8414Z" fill="#351B37"/>
<path d="M28.085 45.8363L28.2827 47.8137C28.2827 47.8137 31.757 49.1563 33.1412 46.9812L32.4708 45.2529L28.085 45.8363Z" fill="#E5DDB9"/>
<path d="M14.2256 3.80047C13.9219 4.47256 13.7423 5.19408 13.6957 5.93013C13.5476 7.787 13.9565 9.64583 14.8702 11.2691C15.1464 11.7977 15.5272 12.2646 15.9894 12.6414C16.8793 13.3098 18.1211 13.381 19.1394 12.9479C20.1578 12.5149 20.9666 11.627 21.4431 10.6146C22.1024 9.18259 22.3093 7.58363 22.0363 6.03098C21.801 4.60725 21.627 3.51968 20.4544 2.58635C19.9699 2.18551 19.4016 1.89854 18.7914 1.74659C18.1812 1.59464 17.5446 1.58158 16.9287 1.70838C16.3417 1.81017 15.7885 2.05403 15.3173 2.41868C14.8461 2.78334 14.4713 3.25773 14.2256 3.80047Z" fill="#FFCC99"/>
<path d="M15.8256 10.8359C15.8256 10.8359 16.2211 15.9772 14.4414 16.9659C14.4414 16.9659 17.6052 20.3275 21.3623 16.9659C21.3623 16.9659 20.1759 13.2088 20.5714 10.8359H15.8256Z" fill="#FFCC99"/>
<path d="M14.8529 9.10232C14.4137 9.34616 13.9167 9.46647 13.4146 9.45045C12.9125 9.43444 12.4242 9.2827 12.0014 9.01136C11.6192 8.75834 11.3251 8.39266 11.16 7.96499C10.9948 7.53733 10.9669 7.06889 11.08 6.62463C11.2916 5.86927 12.0548 5.17915 12.9427 5.22266C13.6506 5.25627 14.2319 5.72492 14.6472 6.2252C14.6038 7.18897 14.6728 8.15452 14.8529 9.10232Z" fill="#FFCC99"/>
<path d="M21.2852 9.10232C21.7232 9.34627 22.2193 9.46666 22.7205 9.45064C23.2216 9.43462 23.709 9.28279 24.1306 9.01136C24.5142 8.75936 24.8097 8.39404 24.9759 7.96626C25.1421 7.53847 25.1708 7.0695 25.058 6.62463C24.8465 5.86927 24.0832 5.17915 23.1934 5.22266C22.4854 5.25627 21.9061 5.72492 21.4888 6.2252C21.5339 7.18891 21.4656 8.15457 21.2852 9.10232Z" fill="#FFCC99"/>
<path d="M21.2949 4.67274C21.1597 4.32077 20.9666 3.99393 20.7234 3.70579C20.4756 3.45355 20.1567 3.28298 19.8093 3.2169C19.462 3.15082 19.1027 3.19238 18.7796 3.33601C18.6766 3.39657 18.5644 3.43998 18.4474 3.46455C18.2433 3.4635 18.0455 3.39385 17.8858 3.26681C17.5315 3.01472 17.1137 2.86677 16.6796 2.83969C16.4396 2.84583 16.2032 2.8989 15.9836 2.9959C14.9949 3.40918 14.5065 4.19816 14.3621 5.22246C14.2587 5.96848 14.219 6.72196 14.2435 7.47472C13.9795 7.50629 13.7124 7.45148 13.4822 7.3185C13.5909 6.09449 13.6937 4.68856 13.4288 3.48827C13.3358 3.06907 13.1974 2.65974 13.1262 2.2346C13.0368 1.81173 13.0726 1.37196 13.2291 0.969065C13.311 0.768035 13.4465 0.593333 13.6208 0.463979C13.7951 0.334626 14.0016 0.25558 14.2178 0.235449C14.5935 0.21963 14.9355 0.43319 15.2796 0.575563C15.3299 0.601131 15.3854 0.61467 15.4418 0.615111C15.5176 0.59968 15.5867 0.560969 15.6395 0.504376C15.8267 0.333313 16.0404 0.193742 16.2723 0.0910991C16.6184 -0.0328432 16.9985 -0.0228495 17.3376 0.119116C17.6768 0.261082 17.9506 0.524755 18.1053 0.858331C18.4553 0.561721 18.8963 0.247314 19.3313 0.373868C19.5833 0.473312 19.8006 0.644508 19.9562 0.866241C20.0858 0.721839 20.2531 0.616426 20.4393 0.561832C20.6256 0.507237 20.8233 0.505623 21.0104 0.557169C21.1975 0.608716 21.3665 0.711383 21.4985 0.853648C21.6305 0.995914 21.7202 1.17215 21.7576 1.36257C22.1531 0.87415 22.2717 1.98149 22.2856 2.10607C22.3548 2.65974 22.3963 3.21539 22.42 3.77104C22.4694 4.8863 22.4457 6.00155 22.42 7.11681L21.7932 7.24138C21.87 6.83288 21.8959 6.41643 21.8703 6.00155C21.811 5.56652 21.4748 5.07217 21.2949 4.67274Z" fill="#351B37"/>
<path d="M13.5018 7.78061C13.7101 7.82211 13.9244 7.82211 14.1326 7.78061C14.1577 7.77367 14.1791 7.75711 14.192 7.73452C14.205 7.71194 14.2085 7.68516 14.2018 7.65999C14.1945 7.63518 14.1778 7.61415 14.1554 7.60127C14.1329 7.58838 14.1064 7.58463 14.0812 7.59078C14.0298 7.59078 14.0061 7.60264 13.9547 7.6066C13.9033 7.61055 13.8637 7.6066 13.8182 7.6066C13.7728 7.6066 13.7253 7.6066 13.6798 7.6066H13.6304L13.5552 7.59276C13.5301 7.58594 13.5033 7.58914 13.4804 7.60167C13.4575 7.61421 13.4404 7.63511 13.4326 7.65999C13.4264 7.68539 13.4301 7.71221 13.443 7.73499C13.4558 7.75777 13.4769 7.77479 13.5018 7.78259V7.78061Z" fill="#351B37"/>
<path d="M13.4976 8.16612C13.7668 8.22348 14.0451 8.22348 14.3143 8.16612C14.3405 8.15904 14.3628 8.14184 14.3764 8.11829C14.3899 8.09474 14.3935 8.06678 14.3864 8.04056C14.3794 8.01434 14.3621 7.992 14.3386 7.97847C14.315 7.96493 14.2871 7.9613 14.2609 7.96838C14.0268 8.0178 13.785 8.0178 13.551 7.96838C13.538 7.96488 13.5245 7.96396 13.5111 7.96569C13.4978 7.96742 13.4849 7.97176 13.4732 7.97847C13.4616 7.98517 13.4514 7.9941 13.4432 8.00476C13.435 8.01541 13.4289 8.02758 13.4254 8.04056C13.4219 8.05354 13.421 8.06709 13.4227 8.08043C13.4245 8.09376 13.4288 8.10663 13.4355 8.11829C13.4422 8.12995 13.4511 8.14018 13.4618 8.14838C13.4724 8.15659 13.4846 8.16262 13.4976 8.16612Z" fill="#351B37"/>
<path d="M21.7571 7.7055C21.9796 7.71851 22.2006 7.66033 22.3879 7.5394C22.41 7.52587 22.4259 7.5042 22.4322 7.47905C22.4385 7.4539 22.4346 7.42729 22.4215 7.40494C22.4151 7.39363 22.4066 7.38371 22.3963 7.37576C22.3861 7.36782 22.3743 7.36201 22.3618 7.35869C22.3492 7.35538 22.3362 7.35461 22.3233 7.35644C22.3105 7.35827 22.2981 7.36266 22.287 7.36935C22.2099 7.42152 22.1243 7.45967 22.0339 7.48206L21.9607 7.49788H21.9311C21.9489 7.49788 21.9113 7.49788 21.9074 7.49788C21.8573 7.50084 21.8071 7.50084 21.7571 7.49788C21.7309 7.49788 21.7057 7.50829 21.6872 7.52684C21.6686 7.54538 21.6582 7.57053 21.6582 7.59675C21.6587 7.62281 21.6693 7.64767 21.6877 7.6661C21.7062 7.68453 21.731 7.69511 21.7571 7.69562V7.7055Z" fill="#351B37"/>
<path d="M21.8185 8.09998C21.991 8.10572 22.1618 8.06473 22.3128 7.98134C22.3242 7.97499 22.3341 7.96643 22.342 7.95618C22.35 7.94592 22.3558 7.93418 22.3591 7.92164C22.3624 7.9091 22.3632 7.89602 22.3614 7.88317C22.3595 7.87033 22.3551 7.85799 22.3484 7.84687C22.3349 7.82481 22.3134 7.80881 22.2883 7.80219C22.2633 7.79556 22.2367 7.79882 22.214 7.81128L22.1645 7.83699C22.1645 7.83699 22.129 7.85281 22.1527 7.83699H22.1309C22.0953 7.85083 22.0578 7.86072 22.0222 7.8706L21.9668 7.88049H21.9391C21.9016 7.88247 21.864 7.88247 21.8264 7.88049C21.8002 7.88049 21.775 7.89091 21.7565 7.90945C21.738 7.92799 21.7275 7.95314 21.7275 7.97936C21.728 8.00542 21.7386 8.03028 21.7571 8.04871C21.7755 8.06714 21.8003 8.07772 21.8264 8.07823L21.8185 8.09998Z" fill="#351B37"/>
<path d="M22.4496 8.36426H21.8564C21.8564 8.36426 21.0654 11.9236 18.297 12.5168C15.5287 13.11 14.3422 8.562 14.3422 8.562H13.749C13.8083 9.49929 13.925 10.5275 13.9843 11.4628C13.9843 11.6601 14.0225 11.8556 14.097 12.0383C14.1519 12.1366 14.2271 12.222 14.3176 12.2889C14.4082 12.3558 14.5119 12.4026 14.622 12.4262C14.732 12.4498 14.8459 12.4496 14.9558 12.4257C15.0658 12.4017 15.1694 12.3546 15.2598 12.2874C15.2956 12.4679 15.3688 12.639 15.4748 12.7895C15.5807 12.94 15.7169 13.0667 15.8747 13.1614C16.035 13.2524 16.2197 13.2911 16.403 13.2719C16.5863 13.2528 16.759 13.1768 16.897 13.0547C16.932 13.2494 17.0198 13.4309 17.151 13.579C17.2822 13.7272 17.4517 13.8363 17.6408 13.8945C17.83 13.9527 18.0315 13.9577 18.2233 13.909C18.4151 13.8603 18.5897 13.7597 18.7281 13.6182C18.7688 13.5662 18.8209 13.5243 18.8804 13.4956C19.0129 13.4501 19.1394 13.5668 19.264 13.634C19.3577 13.6848 19.4634 13.7088 19.5698 13.7035C19.6762 13.6982 19.7791 13.6638 19.8672 13.604C19.9554 13.5442 20.0254 13.4613 20.0697 13.3645C20.1139 13.2676 20.1307 13.1604 20.1182 13.0547C20.2881 13.0757 20.4605 13.0568 20.6218 12.9995C20.7831 12.9423 20.9289 12.8482 21.0475 12.7248C21.1661 12.6014 21.2543 12.452 21.3051 12.2886C21.356 12.1251 21.368 11.9521 21.3403 11.7832C21.523 11.7573 21.6952 11.6819 21.8381 11.5652C21.981 11.4484 22.0892 11.2947 22.151 11.1208C22.2104 10.7846 22.2204 10.4415 22.1807 10.1024C22.153 9.58629 22.3507 8.87047 22.4496 8.36426Z" fill="#351B37"/>
<path d="M16.7254 6.5348C16.8914 6.5348 17.0259 6.32764 17.0259 6.07209C17.0259 5.81654 16.8914 5.60938 16.7254 5.60938C16.5594 5.60938 16.4248 5.81654 16.4248 6.07209C16.4248 6.32764 16.5594 6.5348 16.7254 6.5348Z" fill="#351B37"/>
<path d="M19.2957 6.5348C19.4617 6.5348 19.5962 6.32764 19.5962 6.07209C19.5962 5.81654 19.4617 5.60938 19.2957 5.60938C19.1297 5.60938 18.9951 5.81654 18.9951 6.07209C18.9951 6.32764 19.1297 6.5348 19.2957 6.5348Z" fill="#351B37"/>
<path d="M18.0456 5.42797C18.0456 6.1952 17.5374 6.8339 17.3752 7.56356C17.3001 7.89774 17.2704 8.30311 17.5117 8.57797C17.7529 8.85283 18.1049 8.87458 18.4213 8.86272C18.5478 8.86272 18.5498 8.66498 18.4213 8.66498C18.1187 8.66498 17.7312 8.64125 17.5829 8.3308C17.4346 8.02034 17.5473 7.62289 17.6501 7.31837C17.8637 6.69153 18.2433 6.11018 18.2433 5.42797C18.2433 5.40175 18.2329 5.3766 18.2144 5.35806C18.1958 5.33952 18.1707 5.3291 18.1444 5.3291C18.1182 5.3291 18.0931 5.33952 18.0745 5.35806C18.056 5.3766 18.0456 5.40175 18.0456 5.42797Z" fill="#351B37"/>
<path d="M20.3299 8.6748C20.3144 8.85875 20.2738 9.0397 20.2093 9.21266C20.0683 9.56195 19.8434 9.87105 19.5543 10.1125C19.2652 10.354 18.921 10.5203 18.5522 10.5968C18.1903 10.6711 17.8155 10.6527 17.4626 10.5434C16.8712 10.3775 16.3659 9.99106 16.0508 9.46379C16.7878 9.50966 17.5273 9.49313 18.2615 9.41435C18.9991 9.33184 19.7072 9.07863 20.3299 8.6748Z" fill="#351B37"/>
<path d="M17.4781 4.35493C17.3005 4.24105 17.0988 4.17022 16.889 4.1481C16.6792 4.12597 16.4671 4.15315 16.2697 4.22748C16.0722 4.3018 15.8949 4.42122 15.7518 4.5762C15.6087 4.73119 15.5037 4.91747 15.4453 5.12018C15.5046 5.01933 15.7044 4.93826 15.8032 4.87301C16.2956 4.54871 16.9066 4.50917 17.4781 4.35493Z" fill="#351B37"/>
<path d="M18.6094 4.35381C18.7871 4.24036 18.9888 4.16988 19.1984 4.14797C19.4081 4.12606 19.62 4.15333 19.8173 4.2276C20.0146 4.30188 20.1919 4.42112 20.3351 4.57587C20.4783 4.73061 20.5834 4.9166 20.6421 5.11907C20.5828 5.01822 20.3811 4.93715 20.2823 4.87189C19.7899 4.5476 19.1868 4.50805 18.6094 4.35381Z" fill="#351B37"/>
<path d="M20.2095 9.21289C20.0686 9.56219 19.8436 9.87129 19.5545 10.1128C19.2655 10.3542 18.9212 10.5206 18.5524 10.5971C18.1906 10.6713 17.8158 10.653 17.4629 10.5437C17.5048 10.4603 17.558 10.3831 17.6211 10.3143C18.0188 9.88642 18.5263 9.57589 19.0883 9.41656C19.4536 9.30821 19.8295 9.23992 20.2095 9.21289Z" fill="#E7B1B1"/>
<path d="M20.0293 8.0898C20.0384 8.30357 20.0991 8.51196 20.2062 8.6972C20.3133 8.88244 20.4636 9.03904 20.6443 9.15364C20.751 9.22087 20.842 9.05082 20.7431 8.98358C20.5918 8.88684 20.4659 8.75515 20.3761 8.59961C20.2863 8.44407 20.2352 8.26922 20.227 8.0898C20.227 7.96325 20.0293 7.96127 20.0293 8.0898Z" fill="#351B37"/>
<path d="M12.296 6.23287C13.0078 6.70745 13.1522 7.61705 13.2688 8.40801L13.4666 8.3566C13.3662 8.07677 13.1894 7.83065 12.9563 7.64612C12.7232 7.46159 12.4431 7.34603 12.1476 7.31253C12.0211 7.29869 12.0211 7.49643 12.1476 7.51027C12.3998 7.542 12.6384 7.64256 12.8372 7.80091C13.0361 7.95927 13.1874 8.16931 13.2748 8.40801C13.2816 8.43424 13.2985 8.45668 13.3219 8.4704C13.3453 8.48412 13.3731 8.488 13.3993 8.48118C13.4256 8.47436 13.448 8.45741 13.4617 8.43404C13.4754 8.41068 13.4793 8.38282 13.4725 8.3566C13.346 7.51027 13.17 6.57694 12.4067 6.06282C12.3019 5.99163 12.209 6.16366 12.3078 6.23485L12.296 6.23287Z" fill="#351B37"/>
<path d="M23.4953 5.76475C23.2201 6.08383 23.0177 6.459 22.9021 6.86419C22.7397 7.30563 22.6211 7.76197 22.5481 8.22662C22.5323 8.32747 22.6746 8.41249 22.728 8.30176C22.9819 7.77748 23.4238 7.36802 23.9659 7.15487C24.0845 7.10939 24.0331 6.91758 23.9145 6.95713C23.3171 7.18332 22.8284 7.62885 22.5481 8.20289L22.728 8.27803C22.7953 7.84348 22.9019 7.41593 23.0464 7.00063C23.1809 6.61899 23.3331 6.19385 23.6278 5.90515C23.7187 5.81617 23.5783 5.67577 23.4874 5.76475H23.4953Z" fill="#351B37"/>
<path d="M6.72949 18.7458C6.72949 18.7458 13.0572 16.1752 18.3962 16.5707C23.7351 16.9661 28.2832 19.1413 28.2832 19.1413L25.7125 33.5763L26.3058 45.6385C26.3058 45.6385 17.8029 49.9887 7.91593 45.6385L8.31141 32.3899L6.72949 18.7458Z" fill="#1C3F44"/>
<path d="M17.3438 39.7317L17.4466 45.7113L17.4762 47.3921C17.4762 47.4184 17.4867 47.4435 17.5052 47.462C17.5237 47.4806 17.5489 47.491 17.5751 47.491C17.6013 47.491 17.6265 47.4806 17.645 47.462C17.6636 47.4435 17.674 47.4184 17.674 47.3921L17.5712 41.4105L17.5415 39.7317C17.5415 39.7055 17.5311 39.6803 17.5125 39.6618C17.494 39.6432 17.4688 39.6328 17.4426 39.6328C17.4164 39.6328 17.3913 39.6432 17.3727 39.6618C17.3542 39.6803 17.3438 39.7055 17.3438 39.7317Z" fill="#351B37"/>
<path d="M20.8118 21.8367C20.39 23.6414 19.9227 25.4362 19.4099 27.2211C19.2622 27.7313 19.1113 28.2415 18.957 28.7516C18.9195 28.8742 19.1093 28.9256 19.1548 28.803C19.6939 27.0286 20.1876 25.2411 20.6358 23.4403C20.7644 22.9242 20.889 22.4081 21.0096 21.8881C21.0392 21.7655 20.8494 21.7121 20.8118 21.8367Z" fill="#351B37"/>
<path d="M23.2282 17.4027L23.6039 21.4801L23.8016 23.5425L23.8926 24.5312L23.9144 24.7764C23.9291 24.8486 23.9351 24.9223 23.9321 24.9959C23.9183 25.073 23.8293 25.1106 23.768 25.1501L23.5248 25.3143L21.6028 26.6055C21.5902 26.6134 21.5795 26.624 21.5716 26.6366C21.5636 26.6491 21.5584 26.6632 21.5566 26.678C21.5547 26.6927 21.5561 26.7077 21.5606 26.7218C21.5652 26.7359 21.5728 26.7489 21.583 26.7597L22.0418 27.3114L22.2553 27.5665C22.3225 27.6476 22.4689 27.7643 22.4649 27.8849C22.461 28.0055 22.37 28.047 22.3067 28.0984C22.2118 28.1736 22.109 28.2408 22.016 28.312C21.842 28.4425 21.668 28.575 21.498 28.7075C20.793 29.2599 20.1184 29.85 19.4771 30.4753C19.1132 30.8299 18.7612 31.195 18.4211 31.5708C18.3361 31.6657 18.4745 31.8061 18.5615 31.7111C19.2134 30.9924 19.9066 30.3123 20.6378 29.6744C20.9977 29.3607 21.3661 29.0568 21.7432 28.7628C21.9409 28.6126 22.1386 28.4662 22.3364 28.3219C22.4788 28.2171 22.6528 28.0925 22.6646 27.8987C22.6805 27.6674 22.4254 27.4578 22.2929 27.3055L21.7273 26.6272L21.7076 26.7815L23.4635 25.595L23.9144 25.2945C24.0152 25.2253 24.1121 25.16 24.1299 25.0315C24.1362 24.8805 24.1256 24.7293 24.0982 24.5806L24.0488 24.0408L23.6533 19.8171L23.4319 17.4106C23.42 17.286 23.2223 17.284 23.2341 17.4106L23.2282 17.4027Z" fill="#351B37"/>
<path d="M13.221 16.8576C12.8572 18.7915 12.4564 20.7194 12.0188 22.6415C11.8949 23.1872 11.7676 23.7317 11.6371 24.2748C11.6326 24.296 11.6346 24.318 11.6427 24.3381C11.6508 24.3582 11.6647 24.3754 11.6826 24.3875L13.9725 26.0624C14.0753 26.1375 14.1702 25.9655 14.0733 25.8923L11.7835 24.2175L11.8289 24.3302C12.2864 22.4147 12.7076 20.4907 13.0925 18.5581C13.2006 18.0098 13.3067 17.4607 13.4109 16.911C13.4346 16.7864 13.2448 16.733 13.2131 16.8596L13.221 16.8576Z" fill="#351B37"/>
<path d="M21.8564 17.0652C21.8564 17.0652 20.3595 23.3929 19.4578 27.2666C19.0623 28.9395 18.7914 30.1556 18.7914 30.2149C18.7914 30.3296 18.0321 30.2782 17.3894 30.2149C17.0671 30.1833 16.7745 30.1477 16.6242 30.1299L16.5174 30.116L14.1445 16.8674L15.5287 15.1906C16.3715 15.5764 17.2923 15.7615 18.2187 15.7313C19.1451 15.7011 20.0518 15.4565 20.8677 15.0166L21.8564 17.0652Z" fill="#E5DDB9"/>
<path d="M19.4577 27.2663C19.0623 28.9391 18.7914 30.1553 18.7914 30.2146H16.6162V30.1295L17.6049 19.3389H18.5936L19.4577 27.2663Z" fill="#4C68B2"/>
<path d="M18.7918 26.0625H9.49805V40.2998H18.7918V26.0625Z" fill="#E7B1B1"/>
<path d="M18.3896 26.0625H19.3783C19.5388 26.0625 19.6927 26.1263 19.8062 26.2397C19.9197 26.3532 19.9834 26.5071 19.9834 26.6676V29.8057C19.9837 29.8853 19.9682 29.9642 19.9379 30.0379C19.9077 30.1115 19.8631 30.1785 19.8069 30.2349C19.7507 30.2913 19.6839 30.336 19.6104 30.3665C19.5368 30.3971 19.458 30.4128 19.3783 30.4128H18.3896V26.0625Z" fill="#E7B1B1"/>
<path d="M17.2091 27.8418H11.4746V29.0282H17.2091V27.8418Z" fill="white"/>
<path d="M19.2873 37.7659C19.3962 37.7069 19.484 37.6154 19.5382 37.504C19.5925 37.3927 19.6105 37.2671 19.5898 37.145C19.5666 37.0775 19.554 37.0068 19.5522 36.9354C19.5522 36.8069 19.6729 36.7139 19.75 36.6071C19.8143 36.5077 19.8473 36.3912 19.8448 36.2728C19.8424 36.1544 19.8045 36.0394 19.7361 35.9427C19.6825 35.8864 19.6419 35.8189 19.6175 35.745C19.5977 35.6303 19.6887 35.5314 19.7599 35.4385C19.8847 35.2952 19.9609 35.116 19.9776 34.9266C19.9943 34.7373 19.9506 34.5475 19.8528 34.3845C19.8195 34.3465 19.7958 34.3011 19.7836 34.2521C19.7851 34.2049 19.801 34.1594 19.8291 34.1215C20.0723 33.7102 20.3689 33.2871 20.3511 32.8105C20.3546 32.7377 20.3428 32.6649 20.3166 32.5968C20.2904 32.5287 20.2503 32.4668 20.1989 32.415C20.114 32.3491 20.0129 32.3074 19.9062 32.2944C19.5681 32.2292 19.2497 32.1323 18.9175 32.2232C18.8931 32.108 18.8419 32.0002 18.768 31.9084C18.6942 31.8167 18.5997 31.7437 18.4924 31.6953C18.2761 31.6002 18.0397 31.5601 17.8042 31.5786C16.8729 31.6142 16.0246 32.1224 15.2494 32.6286C14.7757 32.9146 14.337 33.2551 13.9424 33.643C13.6893 34.8996 13.5569 36.1776 13.5469 37.4594C15.3522 38.0744 17.5709 38.6122 19.2873 37.7659Z" fill="#FFCC99"/>
<path d="M12.0678 33.2039C12.2656 33.2039 14.4407 32.9824 14.4407 32.9824C14.4407 32.9824 13.6498 36.344 14.4407 38.2977L11.4746 38.5191L12.0678 33.2039Z" fill="#E5DDB9"/>
<path d="M6.72916 18.7461C4.55402 20.1303 -0.191746 32.9834 0.00599373 35.3563C0.203734 37.7291 2.77436 38.7178 5.14724 38.9156C7.52012 39.1133 12.6614 38.9156 12.6614 38.9156L13.0568 32.7856H6.13594L8.70656 27.8421L6.72916 18.7461Z" fill="#1C3F44"/>
<path d="M28.283 19.1416L25.5146 32.5879L27.6898 46.8252C27.6898 46.8252 30.5709 47.9662 33.1415 46.1865C33.1415 46.1865 32.0401 21.7122 28.283 19.1416Z" fill="#1C3F44"/>
<path d="M17.8027 15.7793H18.3959L18.9891 18.1522L18.5996 19.3386H17.5951L17.0117 18.1522L17.8027 15.7793Z" fill="#4C68B2"/>
<path d="M15.5527 15.3132C16.3179 15.7957 17.2789 15.8708 18.1608 15.8273C19.1006 15.7801 20.0233 15.5581 20.8818 15.1728C20.9964 15.1194 20.8956 14.9494 20.7809 15.0008C19.9543 15.3716 19.0657 15.5848 18.1608 15.6296C17.3125 15.6731 16.3812 15.6078 15.6515 15.1432C15.5447 15.0739 15.4439 15.246 15.5527 15.3132Z" fill="#351B37"/>
<path d="M17.803 15.7638C17.269 17.0184 16.8256 18.3096 16.4762 19.6276C16.4691 19.6538 16.4727 19.6818 16.4863 19.7054C16.4998 19.7289 16.5222 19.7461 16.5484 19.7532C16.5746 19.7603 16.6026 19.7566 16.6261 19.7431C16.6497 19.7296 16.6669 19.7072 16.6739 19.681C17.0171 18.3784 17.4539 17.1023 17.981 15.8627C18.0304 15.748 17.8584 15.6471 17.809 15.7638H17.803Z" fill="#351B37"/>
<path d="M14.3478 16.9793C14.3428 16.9455 14.3302 16.9131 14.3111 16.8847C14.2919 16.8563 14.2666 16.8326 14.2371 16.8152C14.1481 16.7559 14.0611 16.8706 14.1006 16.9517C14.6428 18.0535 15.4905 18.9761 16.5427 19.6093C16.6515 19.6765 16.7503 19.5045 16.6416 19.4392C15.6176 18.8232 14.7936 17.9244 14.2687 16.8508L14.1323 16.9873L14.154 17.0308C14.1738 17.1553 14.3636 17.1039 14.3518 16.9793H14.3478Z" fill="#351B37"/>
<path d="M18.2155 15.8166C18.602 17.1882 19.0581 18.5392 19.5819 19.8643C19.6274 19.981 19.8192 19.9296 19.7797 19.811C19.2541 18.4858 18.7961 17.1348 18.4073 15.7632C18.4003 15.737 18.3831 15.7147 18.3595 15.7011C18.336 15.6876 18.308 15.684 18.2818 15.691C18.2555 15.6981 18.2332 15.7153 18.2197 15.7389C18.2061 15.7624 18.2025 15.7904 18.2096 15.8166H18.2155Z" fill="#351B37"/>
<path d="M19.7678 19.8136C20.6418 19.08 21.5475 18.295 21.9133 17.1718C21.9509 17.0512 21.7611 16.9978 21.7156 17.1204C21.3656 18.206 20.4659 18.9653 19.6215 19.6732C19.5246 19.7563 19.665 19.8947 19.7619 19.8136H19.7678Z" fill="#351B37"/>
<path d="M17.5375 19.5247C17.9235 19.4633 18.3058 19.3801 18.6824 19.2755C18.6954 19.272 18.7075 19.266 18.7182 19.2578C18.7288 19.2495 18.7378 19.2393 18.7445 19.2277C18.7512 19.216 18.7555 19.2031 18.7573 19.1898C18.759 19.1765 18.7581 19.1629 18.7546 19.1499C18.7511 19.137 18.745 19.1248 18.7368 19.1141C18.7286 19.1035 18.7184 19.0945 18.7067 19.0878C18.6951 19.0811 18.6822 19.0768 18.6689 19.0751C18.6555 19.0733 18.642 19.0743 18.629 19.0778C18.2528 19.1847 17.8713 19.2718 17.4861 19.3388C17.4735 19.342 17.4617 19.3477 17.4514 19.3555C17.441 19.3634 17.4324 19.3732 17.4259 19.3844C17.4195 19.3957 17.4154 19.4081 17.4138 19.421C17.4122 19.4339 17.4133 19.4469 17.4168 19.4594C17.4242 19.4842 17.4409 19.5052 17.4633 19.5181C17.4858 19.531 17.5123 19.5348 17.5375 19.5286V19.5247Z" fill="#351B37"/>
<path d="M17.4982 18.6741C17.8523 18.3691 18.2241 18.0852 18.6115 17.8238C18.7163 17.7527 18.6115 17.5826 18.5107 17.6538C18.11 17.925 17.7251 18.2188 17.3578 18.5337C17.2609 18.6168 17.4013 18.7552 17.4982 18.6741Z" fill="#351B37"/>
<path d="M17.8027 17.7574C17.994 17.7331 18.1773 17.6655 18.3386 17.5597C18.3584 17.5453 18.3721 17.5241 18.3772 17.5001C18.3822 17.4762 18.3782 17.4512 18.3659 17.43C18.3536 17.4089 18.3339 17.393 18.3106 17.3856C18.2872 17.3781 18.262 17.3796 18.2397 17.3896C18.2021 17.4134 18.1646 17.4371 18.125 17.4569L18.0598 17.4885H18.0439L18.0143 17.5004C17.9293 17.5318 17.8411 17.5537 17.7513 17.5656C17.726 17.573 17.7047 17.5899 17.6917 17.6128C17.6788 17.6357 17.6753 17.6628 17.6821 17.6882C17.6902 17.7125 17.707 17.733 17.7292 17.7457C17.7515 17.7585 17.7776 17.7626 17.8027 17.7574Z" fill="#351B37"/>
<path d="M4.37601 33.5502C5.39512 33.0781 6.51272 32.8577 7.63477 32.9076C7.7633 32.9076 7.7633 32.7098 7.63477 32.7098C6.47665 32.6599 5.32355 32.8898 4.27319 33.3802C4.1585 33.4336 4.25935 33.6036 4.37403 33.5502H4.37601Z" fill="#351B37"/>
<path d="M4.59394 32.6272C5.15811 32.5759 5.72635 32.6607 6.251 32.8743C6.36965 32.9218 6.42106 32.73 6.30439 32.6766C5.76262 32.4569 5.17612 32.3701 4.59394 32.4235C4.46739 32.4354 4.46739 32.6331 4.59394 32.6212V32.6272Z" fill="#351B37"/>
<path d="M7.41699 24.7668C7.58178 26.6414 7.77952 28.5126 8.01021 30.3806C8.07349 30.9185 8.1394 31.4544 8.20795 31.9883C8.22377 32.1128 8.42151 32.1148 8.40569 31.9883C8.16313 30.1229 7.95089 28.2536 7.76897 26.3804C7.71756 25.8425 7.66812 25.3046 7.62066 24.7668C7.6088 24.6402 7.41106 24.6402 7.42292 24.7668H7.41699Z" fill="#351B37"/>
<path d="M6.97819 25.3049L7.40728 26.0958C7.46858 26.2066 7.64062 26.1077 7.57932 25.995L7.15022 25.204C7.08892 25.0913 6.91887 25.1902 6.97819 25.3029V25.3049Z" fill="#351B37"/>
<path d="M26.3451 24.8161C25.9793 27.9285 25.6115 31.0508 25.5957 34.187C25.5957 35.0669 25.6155 35.9489 25.6748 36.8268C25.6748 36.9534 25.8725 36.9534 25.8725 36.8268C25.6649 33.6966 25.9042 30.5585 26.2423 27.446C26.3372 26.57 26.4401 25.6941 26.5429 24.8161C26.5587 24.6915 26.361 24.6915 26.3451 24.8161Z" fill="#351B37"/>
<path d="M26.7825 25.2849C26.5254 25.8531 26.2934 26.4311 26.0864 27.0191C26.0429 27.1377 26.2348 27.1911 26.2842 27.0705C26.4859 26.4997 26.7113 25.9381 26.9605 25.3858C27.0119 25.2711 26.8418 25.1702 26.7904 25.2849H26.7825Z" fill="#351B37"/>
<path d="M16.6719 32.962C17.5837 32.5337 18.5754 32.302 19.5826 32.2817C19.6088 32.2817 19.634 32.2713 19.6525 32.2528C19.6711 32.2342 19.6815 32.2091 19.6815 32.1829C19.6815 32.1566 19.6711 32.1315 19.6525 32.1129C19.634 32.0944 19.6088 32.084 19.5826 32.084C18.5406 32.1038 17.5144 32.343 16.571 32.786C16.4564 32.8394 16.5572 33.0094 16.6719 32.956V32.962Z" fill="#351B37"/>
<path d="M19.0765 32.9239C18.9564 33.0609 18.868 33.2226 18.8174 33.3976C18.7668 33.5725 18.7553 33.7565 18.7838 33.9364C18.8075 34.1598 18.8609 34.3793 18.9024 34.5988C18.942 34.8353 18.9618 35.0748 18.9618 35.3146C18.9567 35.5218 18.9944 35.7277 19.0725 35.9197C19.1296 36.0215 19.1621 36.1353 19.1674 36.2519C19.1674 36.3686 19.1516 36.4892 19.1417 36.6058L19.025 38.0671C19.0152 38.1937 19.2129 38.1917 19.2228 38.0671L19.3355 36.683C19.372 36.473 19.372 36.2582 19.3355 36.0482C19.3098 35.9573 19.2564 35.8782 19.2228 35.7892C19.1842 35.6811 19.1622 35.5677 19.1575 35.453C19.1437 35.2375 19.1575 35.02 19.1298 34.8044C19.1022 34.5889 19.0527 34.3951 19.0152 34.1895C18.944 33.8118 18.9183 33.3649 19.2129 33.0703C19.3039 32.9793 19.1635 32.8389 19.0745 32.9299L19.0765 32.9239Z" fill="#351B37"/>
<path d="M14.4211 33.0202C14.0806 34.7131 14.0305 36.4517 14.2728 38.1614C14.2906 38.288 14.4705 38.2346 14.4705 38.11C14.2355 36.4361 14.2863 34.7344 14.6208 33.0775C14.6445 32.9549 14.4547 32.9015 14.4231 33.0261L14.4211 33.0202Z" fill="#351B37"/>
<path d="M12.9972 33.215C12.7389 34.9507 12.6028 36.7024 12.5898 38.4571C12.5898 38.4833 12.6003 38.5085 12.6188 38.527C12.6373 38.5456 12.6625 38.556 12.6887 38.556C12.7149 38.556 12.7401 38.5456 12.7586 38.527C12.7772 38.5085 12.7876 38.4833 12.7876 38.4571C12.7976 36.7198 12.9298 34.9853 13.1831 33.2664C13.2028 33.1419 13.011 33.0885 12.9853 33.215H12.9972Z" fill="#351B37"/>
<path d="M9.39841 38.6191C9.61683 38.6191 9.79389 38.442 9.79389 38.2236C9.79389 38.0052 9.61683 37.8281 9.39841 37.8281C9.17999 37.8281 9.00293 38.0052 9.00293 38.2236C9.00293 38.442 9.17999 38.6191 9.39841 38.6191Z" fill="#4C68B2"/>
<path d="M11.2773 38.7177C11.4957 38.7177 11.6728 38.5407 11.6728 38.3222C11.6728 38.1038 11.4957 37.9268 11.2773 37.9268C11.0589 37.9268 10.8818 38.1038 10.8818 38.3222C10.8818 38.5407 11.0589 38.7177 11.2773 38.7177Z" fill="#4C68B2"/>
<path d="M28.4804 46.0341C28.6989 46.0341 28.8759 45.8571 28.8759 45.6386C28.8759 45.4202 28.6989 45.2432 28.4804 45.2432C28.262 45.2432 28.085 45.4202 28.085 45.6386C28.085 45.8571 28.262 46.0341 28.4804 46.0341Z" fill="#4C68B2"/>
<path d="M28.4804 44.4521C28.6989 44.4521 28.8759 44.275 28.8759 44.0566C28.8759 43.8382 28.6989 43.6611 28.4804 43.6611C28.262 43.6611 28.085 43.8382 28.085 44.0566C28.085 44.275 28.262 44.4521 28.4804 44.4521Z" fill="#4C68B2"/>
<path d="M18.7637 26.2044V31.7965C18.7637 31.8227 18.7741 31.8478 18.7926 31.8664C18.8112 31.8849 18.8363 31.8953 18.8625 31.8953C18.8888 31.8953 18.9139 31.8849 18.9325 31.8664C18.951 31.8478 18.9614 31.8227 18.9614 31.7965V26.2004C18.9614 26.1742 18.951 26.1491 18.9325 26.1305C18.9139 26.112 18.8888 26.1016 18.8625 26.1016C18.8363 26.1016 18.8112 26.112 18.7926 26.1305C18.7741 26.1491 18.7637 26.1742 18.7637 26.2004V26.2044Z" fill="#351B37"/>
<path d="M16.0663 27.4896C15.0888 29.104 14.0295 30.6675 12.8926 32.174C12.8175 32.2749 12.9895 32.3718 13.0646 32.2749C14.1997 30.7668 15.2576 29.2046 16.2384 27.5884C16.3036 27.4797 16.1336 27.3808 16.0663 27.4896Z" fill="#351B37"/>
<path d="M15.2027 30.5751L14.7736 31.2039C14.767 31.215 14.7626 31.2274 14.7607 31.2402C14.7589 31.2531 14.7597 31.2662 14.763 31.2787C14.7663 31.2912 14.7721 31.303 14.7801 31.3132C14.788 31.3235 14.7979 31.332 14.8092 31.3384C14.8316 31.3515 14.8582 31.3554 14.8833 31.3491C14.9085 31.3428 14.9302 31.3269 14.9437 31.3048L15.3748 30.6779C15.3879 30.6551 15.3914 30.628 15.3845 30.6026C15.3777 30.5772 15.361 30.5556 15.3382 30.5425C15.3154 30.5294 15.2883 30.5259 15.2629 30.5327C15.2375 30.5396 15.2159 30.5563 15.2027 30.5791V30.5751Z" fill="#351B37"/>
<path d="M22.8789 37.3748C23.1452 38.8474 23.5998 40.2796 24.2315 41.6361C24.4114 42.0316 24.6072 42.3994 24.8148 42.7712C24.8761 42.8819 25.0462 42.783 24.9849 42.6723C24.0566 41.0104 23.4098 39.2064 23.0707 37.3333C23.047 37.2087 22.8572 37.2602 22.873 37.3847L22.8789 37.3748Z" fill="#351B37"/>
<path d="M16.3848 49.5356C17.1411 49.2387 17.9255 49.0194 18.7261 48.8811C18.8506 48.8593 18.7972 48.6695 18.6727 48.6833C17.8724 48.8222 17.0881 49.0408 16.3314 49.3359C16.2148 49.3814 16.2662 49.5732 16.3848 49.5336V49.5356Z" fill="#351B37"/>
<path d="M17.1621 49.1639C17.257 51.0088 17.3875 52.8517 17.5121 54.7006C17.6486 56.7393 17.787 58.78 17.8918 60.8305C17.9412 61.8014 17.9827 62.7723 18.0005 63.7432C18.0005 63.7695 18.0109 63.7946 18.0295 63.8132C18.048 63.8317 18.0732 63.8421 18.0994 63.8421C18.1256 63.8421 18.1508 63.8317 18.1693 63.8132C18.1879 63.7946 18.1983 63.7695 18.1983 63.7432C18.1647 61.8964 18.0539 60.0495 17.9392 58.2065C17.8127 56.1658 17.6683 54.1271 17.5339 52.0865C17.4706 51.1156 17.4093 50.1466 17.3598 49.1757C17.3598 49.0492 17.1621 49.0472 17.1621 49.1757V49.1639Z" fill="#351B37"/>
<path d="M13.1221 48.9229V71.7381" stroke="#351B37" stroke-width="0.19774" stroke-miterlimit="10"/>
<path d="M22.0205 51.501V73.7289" stroke="#351B37" stroke-width="0.19774" stroke-miterlimit="10"/>
<path d="M15.6274 83.0117H1.58789V84.0004H15.6274V83.0117Z" fill="#5C1431"/>
<path d="M28.4808 83.0117H19.7803V84.0004H28.4808V83.0117Z" fill="#5C1431"/>
<path d="M7.166 78.6014C7.94769 79.123 8.55788 79.8638 8.91996 80.731C8.96742 80.8477 9.15922 80.7963 9.1177 80.6796C8.73823 79.7633 8.09549 78.9802 7.27081 78.4293C7.166 78.3601 7.07307 78.5302 7.17194 78.6014H7.166Z" fill="#351B37"/>
<path d="M8.37889 78.1672C8.96377 78.8378 9.44136 79.5949 9.79471 80.4115C9.84612 80.5262 10.0162 80.4274 9.96674 80.3107C9.60382 79.4805 9.11565 78.7109 8.51928 78.0288C8.43623 77.9319 8.29584 78.0723 8.37889 78.1672Z" fill="#351B37"/>
<path d="M9.44404 77.4488C10.2053 78.216 10.585 79.2502 10.9449 80.2468C10.9884 80.3654 11.1782 80.314 11.1426 80.1934C10.7709 79.1652 10.3774 78.0993 9.59037 77.3084C9.57175 77.2898 9.5465 77.2793 9.52017 77.2793C9.49384 77.2793 9.46859 77.2898 9.44997 77.3084C9.43136 77.327 9.4209 77.3522 9.4209 77.3786C9.4209 77.4049 9.43136 77.4302 9.44997 77.4488H9.44404Z" fill="#351B37"/>
<path d="M21.6769 80.059C22.3266 79.6769 23.0457 79.4278 23.7925 79.3259C24.5393 79.2241 25.2989 79.2716 26.0272 79.4657C26.0534 79.4728 26.0814 79.4692 26.1049 79.4557C26.1285 79.4421 26.1457 79.4198 26.1527 79.3936C26.1598 79.3673 26.1562 79.3394 26.1427 79.3158C26.1291 79.2923 26.1068 79.2751 26.0806 79.268C25.3282 79.0672 24.5435 79.0172 23.7718 79.1211C23 79.2249 22.2565 79.4805 21.584 79.8731C21.5611 79.8862 21.5445 79.9078 21.5376 79.9332C21.5308 79.9586 21.5343 79.9857 21.5474 80.0085C21.5605 80.0313 21.5821 80.048 21.6075 80.0549C21.6329 80.0617 21.66 80.0582 21.6828 80.0451L21.6769 80.059Z" fill="#351B37"/>
<path d="M21.8643 79.0563C22.8874 78.5728 24.0498 78.4718 25.1409 78.7716C25.1671 78.7786 25.1951 78.775 25.2186 78.7615C25.2422 78.7479 25.2594 78.7256 25.2665 78.6994C25.2735 78.6732 25.2699 78.6452 25.2564 78.6217C25.2428 78.5981 25.2205 78.5809 25.1943 78.5738C24.0488 78.2616 22.8292 78.3711 21.7576 78.8823C21.6429 78.9357 21.7437 79.1077 21.8584 79.0524L21.8643 79.0563Z" fill="#351B37"/>
<path d="M23.3774 81.1092C23.3147 81.2614 23.2844 81.4251 23.2884 81.5897C23.291 81.6659 23.31 81.7408 23.3441 81.809C23.3782 81.8773 23.4267 81.9374 23.4862 81.9851C23.4974 81.9919 23.5099 81.9963 23.5229 81.9982C23.5359 82 23.5492 81.9993 23.5619 81.996C23.5746 81.9926 23.5865 81.9868 23.5969 81.9789C23.6073 81.9709 23.6161 81.9609 23.6226 81.9496C23.6351 81.9269 23.6383 81.9002 23.6317 81.8752C23.6251 81.8502 23.6091 81.8287 23.587 81.8151C23.5527 81.7826 23.5255 81.7433 23.5071 81.6997C23.4887 81.6562 23.4796 81.6093 23.4802 81.562C23.4847 81.4263 23.5128 81.2925 23.5633 81.1665C23.57 81.1411 23.5666 81.114 23.5536 81.0911C23.5407 81.0682 23.5193 81.0513 23.4941 81.0439C23.4689 81.0378 23.4424 81.0415 23.4199 81.0544C23.3975 81.0673 23.3808 81.0883 23.3735 81.1131L23.3774 81.1092Z" fill="#351B37"/>
<path d="M24.0178 81.3544C23.9654 81.556 23.9654 81.7677 24.0178 81.9694C24.021 81.9819 24.0267 81.9937 24.0346 82.004C24.0424 82.0144 24.0523 82.023 24.0635 82.0295C24.0748 82.0359 24.0872 82.0401 24.1001 82.0416C24.1129 82.0432 24.126 82.0421 24.1385 82.0386C24.1636 82.0316 24.1849 82.0151 24.1978 81.9925C24.2108 81.9699 24.2143 81.9431 24.2077 81.9179C24.2077 81.8942 24.1958 81.8705 24.1918 81.8448C24.1909 81.8349 24.1909 81.825 24.1918 81.8151C24.1918 81.7815 24.1918 81.8329 24.1918 81.7993C24.1918 81.7657 24.1918 81.7083 24.1918 81.6609C24.1918 81.6134 24.1918 81.6194 24.1918 81.5976C24.1918 81.5759 24.1918 81.5739 24.1918 81.562C24.1918 81.5502 24.1918 81.5264 24.1918 81.5403C24.1982 81.4949 24.2075 81.45 24.2195 81.4058C24.2262 81.3806 24.2227 81.3538 24.2097 81.3313C24.1968 81.3087 24.1754 81.2921 24.1503 81.2852C24.1249 81.279 24.0981 81.2827 24.0753 81.2955C24.0525 81.3084 24.0355 81.3294 24.0277 81.3544H24.0178Z" fill="#351B37"/>
<path d="M24.6943 81.8525L24.8664 82.2064C24.8799 82.229 24.9018 82.2454 24.9273 82.252C24.9528 82.2587 24.9799 82.2551 25.0028 82.242C25.0249 82.2285 25.0409 82.2069 25.0475 82.1819C25.0541 82.1569 25.0509 82.1303 25.0384 82.1076L24.8644 81.7536C24.85 81.7338 24.8288 81.7201 24.8048 81.715C24.7809 81.71 24.7559 81.714 24.7347 81.7263C24.7136 81.7386 24.6977 81.7583 24.6903 81.7816C24.6828 81.8049 24.6842 81.8302 24.6943 81.8525Z" fill="#351B37"/>
<path d="M4.63717 80.4903C4.55981 80.663 4.52281 80.8511 4.52898 81.0402C4.53515 81.2293 4.58432 81.4146 4.67276 81.5819C4.73406 81.6926 4.90412 81.5937 4.8448 81.481C4.77209 81.3451 4.73096 81.1944 4.72446 81.0404C4.71795 80.8863 4.74624 80.7328 4.80723 80.5912C4.81412 80.58 4.81871 80.5676 4.82075 80.5546C4.82278 80.5416 4.82221 80.5284 4.81907 80.5157C4.81593 80.5029 4.81029 80.4909 4.80246 80.4804C4.79464 80.4698 4.78479 80.461 4.7735 80.4543C4.76221 80.4476 4.7497 80.4432 4.7367 80.4414C4.72369 80.4396 4.71046 80.4404 4.69777 80.4437C4.68508 80.4471 4.67318 80.4529 4.66278 80.4609C4.65238 80.4689 4.64367 80.4789 4.63717 80.4903Z" fill="#351B37"/>
<path d="M5.21094 81.0888C5.24251 81.2721 5.30968 81.4475 5.40868 81.6049C5.41503 81.6163 5.42358 81.6262 5.43384 81.6341C5.44409 81.6421 5.45584 81.6479 5.46838 81.6512C5.48092 81.6545 5.494 81.6553 5.50684 81.6534C5.51968 81.6516 5.53203 81.6472 5.54314 81.6405C5.56559 81.6273 5.58192 81.6058 5.58858 81.5806C5.59524 81.5554 5.5917 81.5287 5.57873 81.5061C5.55698 81.4665 5.53523 81.429 5.51743 81.3894L5.50161 81.3578C5.50161 81.338 5.50161 81.3696 5.50161 81.3479C5.49318 81.3279 5.48592 81.3074 5.47986 81.2866C5.44999 81.2053 5.42878 81.1212 5.41659 81.0355C5.40921 81.0102 5.39227 80.9888 5.36936 80.9759C5.34646 80.963 5.31941 80.9595 5.29399 80.9662C5.26902 80.974 5.24797 80.9911 5.23511 81.0138C5.22225 81.0366 5.21856 81.0634 5.22478 81.0888H5.21094Z" fill="#351B37"/>
<path d="M5.91839 81.2988C5.96595 81.484 6.08179 81.6444 6.24268 81.7477C6.25379 81.7544 6.26614 81.7588 6.27898 81.7606C6.29182 81.7624 6.3049 81.7616 6.31744 81.7583C6.32998 81.755 6.34173 81.7492 6.35198 81.7413C6.36224 81.7333 6.3708 81.7234 6.37714 81.7121C6.39012 81.6895 6.39365 81.6627 6.38699 81.6375C6.38033 81.6124 6.364 81.5908 6.34155 81.5776L6.31585 81.5598H6.30398L6.26048 81.5223L6.22093 81.4807C6.21605 81.4715 6.20932 81.4635 6.20116 81.457L6.19127 81.4432C6.1687 81.4123 6.14947 81.3792 6.13392 81.3443V81.3304C6.13392 81.3206 6.13392 81.3522 6.13392 81.3304L6.12206 81.3028C6.12206 81.283 6.1102 81.2652 6.10624 81.2454C6.09887 81.2202 6.08192 81.1988 6.05902 81.1859C6.03611 81.173 6.00907 81.1695 5.98364 81.1762C5.95855 81.1831 5.9372 81.1997 5.92425 81.2223C5.91129 81.2449 5.90776 81.2717 5.91443 81.2968L5.91839 81.2988Z" fill="#351B37"/>
<path d="M9.00364 81.0337C9.16745 81.0337 9.30025 80.9009 9.30025 80.737C9.30025 80.5732 9.16745 80.4404 9.00364 80.4404C8.83983 80.4404 8.70703 80.5732 8.70703 80.737C8.70703 80.9009 8.83983 81.0337 9.00364 81.0337Z" fill="#351B37"/>
<path d="M9.86302 80.6821C10.0268 80.6821 10.1596 80.5493 10.1596 80.3855C10.1596 80.2217 10.0268 80.0889 9.86302 80.0889C9.6992 80.0889 9.56641 80.2217 9.56641 80.3855C9.56641 80.5493 9.6992 80.6821 9.86302 80.6821Z" fill="#351B37"/>
<path d="M10.9665 80.4819C11.1303 80.4819 11.2631 80.3491 11.2631 80.1853C11.2631 80.0215 11.1303 79.8887 10.9665 79.8887C10.8027 79.8887 10.6699 80.0215 10.6699 80.1853C10.6699 80.3491 10.8027 80.4819 10.9665 80.4819Z" fill="#351B37"/>
<path d="M21.6863 79.2485C21.8501 79.2485 21.9829 79.1157 21.9829 78.9519C21.9829 78.7881 21.8501 78.6553 21.6863 78.6553C21.5224 78.6553 21.3896 78.7881 21.3896 78.9519C21.3896 79.1157 21.5224 79.2485 21.6863 79.2485Z" fill="#351B37"/>
<path d="M21.532 80.2544C21.6958 80.2544 21.8286 80.1216 21.8286 79.9577C21.8286 79.7939 21.6958 79.6611 21.532 79.6611C21.3681 79.6611 21.2354 79.7939 21.2354 79.9577C21.2354 80.1216 21.3681 80.2544 21.532 80.2544Z" fill="#351B37"/>
<path d="M25.9001 79.7485C26.0639 79.7485 26.1967 79.6157 26.1967 79.4519C26.1967 79.2881 26.0639 79.1553 25.9001 79.1553C25.7363 79.1553 25.6035 79.2881 25.6035 79.4519C25.6035 79.6157 25.7363 79.7485 25.9001 79.7485Z" fill="#351B37"/>
<path d="M25.1286 78.1811C25.2925 78.1811 25.4253 78.0483 25.4253 77.8845C25.4253 77.7207 25.2925 77.5879 25.1286 77.5879C24.9648 77.5879 24.832 77.7207 24.832 77.8845C24.832 78.0483 24.9648 78.1811 25.1286 78.1811Z" fill="#351B37"/>
<path d="M21.8406 78.4233C22.0044 78.4233 22.1372 78.2905 22.1372 78.1267C22.1372 77.9629 22.0044 77.8301 21.8406 77.8301C21.6767 77.8301 21.5439 77.9629 21.5439 78.1267C21.5439 78.2905 21.6767 78.4233 21.8406 78.4233Z" fill="#351B37"/>
<path d="M25.238 78.9321C25.4018 78.9321 25.5346 78.7993 25.5346 78.6355C25.5346 78.4717 25.4018 78.3389 25.238 78.3389C25.0742 78.3389 24.9414 78.4717 24.9414 78.6355C24.9414 78.7993 25.0742 78.9321 25.238 78.9321Z" fill="#351B37"/>
<path d="M28.8207 50.6076C28.8918 51.5479 29.0914 52.474 29.4139 53.3601C29.4574 53.4788 29.6472 53.4274 29.6116 53.3068C29.2919 52.4382 29.0924 51.5301 29.0184 50.6076C29.0085 50.4811 28.8108 50.4811 28.8207 50.6076Z" fill="#351B37"/>
<path d="M30.3153 52.6837C30.597 52.4656 30.9188 52.305 31.2625 52.2111C31.6243 52.1379 32.002 52.2111 32.3579 52.0964C32.8978 51.9343 33.3209 51.3667 33.9142 51.3984C34.0427 51.3984 34.0407 51.2006 33.9142 51.2006C33.2814 51.167 32.874 51.7365 32.3065 51.9066C31.9427 52.0134 31.5571 51.9441 31.1893 52.0252C30.8373 52.1257 30.5073 52.2914 30.2164 52.5136C30.1116 52.5848 30.2164 52.7549 30.3153 52.6837Z" fill="#351B37"/>
<path d="M29.0283 51.8096C29.0283 51.8096 27.2486 52.1774 27.4345 53.5892C27.6204 55.0011 27.7726 55.6754 27.7726 55.6754L29.0599 55.3373C29.0599 55.3373 28.269 53.6209 29.3368 52.7923L29.0283 51.8096Z" fill="#9B1F58"/>
<path d="M39.9157 66.2228L26.2084 68.7064L24.8242 55.4578L37.1632 53.2431C37.4998 53.1826 37.8454 53.1944 38.177 53.2776C38.5087 53.3609 38.8189 53.5137 39.0871 53.7259C39.3552 53.9381 39.5752 54.2049 39.7324 54.5086C39.8895 54.8123 39.9804 55.146 39.9988 55.4875L39.9157 66.2228Z" fill="#9B1F58"/>
<path d="M31.7731 60.0876C31.1139 62.0782 30.497 64.0819 29.9222 66.0989C29.7601 66.6658 29.6012 67.2352 29.4457 67.8074C29.4389 67.8336 29.4427 67.8614 29.4564 67.8848C29.4702 67.9082 29.4926 67.9251 29.5188 67.9319C29.5451 67.9388 29.5729 67.9349 29.5963 67.9212C29.6196 67.9074 29.6366 67.885 29.6434 67.8588C30.1944 65.8352 30.7877 63.8249 31.4231 61.8277C31.6024 61.2635 31.7843 60.7013 31.9688 60.141C32.0104 60.0204 31.8186 59.967 31.7711 60.0876H31.7731Z" fill="#5C1431"/>
<path d="M34.346 59.8222C34.8503 61.6197 35.5602 63.344 36.1692 65.1038C36.3551 65.6397 36.5311 66.1776 36.6932 66.7194C36.7003 66.7456 36.7175 66.7679 36.741 66.7815C36.7646 66.795 36.7926 66.7986 36.8188 66.7916C36.845 66.7845 36.8673 66.7673 36.8809 66.7437C36.8944 66.7202 36.898 66.6922 36.8909 66.666C36.3472 64.8488 35.6234 63.1067 35.0184 61.3013C34.8483 60.7951 34.6908 60.2849 34.5458 59.7708C34.5389 59.7446 34.522 59.7221 34.4986 59.7084C34.4753 59.6947 34.4474 59.6908 34.4212 59.6976C34.395 59.7044 34.3725 59.7214 34.3588 59.7448C34.3451 59.7681 34.3412 59.796 34.348 59.8222H34.346Z" fill="#5C1431"/>
<path d="M24.9159 55.3984C25.2736 55.3984 25.6166 55.5405 25.8695 55.7934C26.1224 56.0463 26.2645 56.3894 26.2645 56.747V68.7993H23.5713V56.751C23.5708 56.5739 23.6051 56.3984 23.6724 56.2346C23.7397 56.0708 23.8386 55.9218 23.9635 55.7962C24.0884 55.6706 24.2367 55.5709 24.4001 55.5026C24.5636 55.4344 24.7388 55.399 24.9159 55.3984Z" fill="#5C1431"/>
<path d="M26.2539 61.1414L39.8644 58.7686" stroke="#5C1431" stroke-width="0.19774" stroke-miterlimit="10"/>
<path d="M34.2331 60.6134L32.3012 60.9575C32.2472 60.9658 32.1921 60.9629 32.1393 60.9489C32.0866 60.9349 32.0373 60.9101 31.9945 60.8761C31.9518 60.8421 31.9166 60.7997 31.8911 60.7514C31.8656 60.7031 31.8504 60.6501 31.8464 60.5956L31.7989 59.6267C31.7971 59.5339 31.828 59.4434 31.8862 59.3711C31.9444 59.2988 32.0262 59.2493 32.1173 59.2312L34.0512 58.8872C34.105 58.8791 34.1599 58.8823 34.2124 58.8964C34.2649 58.9106 34.314 58.9354 34.3565 58.9693C34.399 59.0033 34.434 59.0457 34.4594 59.0938C34.4848 59.1419 34.5 59.1948 34.504 59.249L34.5514 60.2199C34.5552 60.313 34.5249 60.4042 34.4664 60.4766C34.4078 60.549 34.3249 60.5977 34.2331 60.6134Z" fill="#9EB4CE"/>
<path d="M33.8333 60.3498L32.633 60.5634C32.5996 60.5693 32.5653 60.5681 32.5324 60.5598C32.4995 60.5514 32.4687 60.5362 32.4422 60.515C32.4156 60.4939 32.3939 60.4674 32.3783 60.4372C32.3628 60.407 32.3539 60.3739 32.3522 60.34L32.3225 59.7368C32.3197 59.6786 32.3383 59.6214 32.3747 59.5759C32.4111 59.5304 32.4629 59.4997 32.5203 59.4897L33.7206 59.2761C33.7542 59.2702 33.7888 59.2715 33.8219 59.2799C33.8551 59.2884 33.886 59.3038 33.9128 59.3251C33.9395 59.3464 33.9614 59.3731 33.977 59.4036C33.9926 59.434 34.0016 59.4674 34.0033 59.5015L34.031 60.0948C34.0363 60.1544 34.0189 60.2138 33.9822 60.2611C33.9455 60.3084 33.8923 60.3401 33.8333 60.3498Z" fill="#9B1F58"/>
<path d="M37.379 55.3373C37.5598 55.5981 37.6571 55.9078 37.6578 56.2251C37.6578 56.2514 37.6682 56.2765 37.6867 56.2951C37.7053 56.3136 37.7304 56.324 37.7567 56.324C37.7829 56.324 37.808 56.3136 37.8266 56.2951C37.8451 56.2765 37.8555 56.2514 37.8555 56.2251C37.8558 55.8722 37.7489 55.5274 37.549 55.2364C37.5425 55.225 37.5338 55.215 37.5234 55.207C37.513 55.199 37.5011 55.1932 37.4884 55.1898C37.4757 55.1865 37.4625 55.1857 37.4495 55.1875C37.4365 55.1893 37.424 55.1937 37.4127 55.2004C37.4014 55.207 37.3916 55.2159 37.3837 55.2265C37.3759 55.237 37.3703 55.249 37.3671 55.2618C37.364 55.2745 37.3634 55.2877 37.3655 55.3007C37.3675 55.3137 37.3721 55.3261 37.379 55.3373Z" fill="#5C1431"/>
<path d="M38.1953 55.3274L38.2665 55.9957C38.267 56.0218 38.2776 56.0467 38.296 56.0651C38.3145 56.0835 38.3393 56.0941 38.3654 56.0946C38.3916 56.0946 38.4167 56.0842 38.4353 56.0657C38.4538 56.0471 38.4642 56.022 38.4642 55.9957L38.3931 55.3274C38.3925 55.3013 38.382 55.2765 38.3635 55.258C38.3451 55.2396 38.3202 55.229 38.2942 55.2285C38.268 55.2285 38.2428 55.2389 38.2243 55.2575C38.2057 55.276 38.1953 55.3012 38.1953 55.3274Z" fill="#5C1431"/>
<path d="M38.5081 55.4067C38.6321 55.6153 38.7078 55.8491 38.7296 56.0909C38.7305 56.1168 38.7413 56.1414 38.7596 56.1597C38.7779 56.178 38.8025 56.1888 38.8284 56.1897C38.8546 56.1897 38.8798 56.1793 38.8983 56.1608C38.9169 56.1422 38.9273 56.1171 38.9273 56.0909C38.9055 55.8117 38.8203 55.5412 38.6781 55.2999C38.6645 55.2778 38.6428 55.262 38.6176 55.2558C38.5925 55.2496 38.5659 55.2535 38.5436 55.2668C38.5213 55.28 38.505 55.3014 38.4984 55.3265C38.4918 55.3516 38.4952 55.3782 38.5081 55.4007V55.4067Z" fill="#5C1431"/>
<path d="M27.6003 54.9317L27.4876 55.0029C27.4678 55.0153 27.4531 55.0344 27.446 55.0567C27.439 55.079 27.44 55.103 27.449 55.1246C27.4581 55.1462 27.4744 55.1639 27.4952 55.1745C27.516 55.1852 27.5399 55.1881 27.5627 55.1828L29.1881 54.7577C29.2144 54.7508 29.2368 54.7339 29.2505 54.7105C29.2642 54.6872 29.2681 54.6593 29.2613 54.6331C29.2545 54.6069 29.2375 54.5844 29.2142 54.5707C29.1908 54.557 29.163 54.5531 29.1367 54.5599L27.5113 54.987L27.5864 55.167L27.6992 55.0978C27.8059 55.0286 27.6992 54.8585 27.6003 54.9257V54.9317Z" fill="#5C1431"/>
<path d="M34.4126 53.8289C34.9583 53.7696 35.5041 53.6885 36.042 53.5798C36.1665 53.5541 36.1151 53.3642 35.9905 53.382C35.4632 53.4875 34.9359 53.5686 34.4086 53.6253C34.2841 53.6391 34.2821 53.8368 34.4086 53.823L34.4126 53.8289Z" fill="#5C1431"/>
</g>
<defs>
<clipPath id="clip0_200_13313">
<rect width="40.0028" height="84" fill="white"/>
</clipPath>
</defs>
</svg>