<svg width="250" height="250" viewBox="0 0 250 250" fill="none" xmlns="http://www.w3.org/2000/svg">
<g clip-path="url(#clip0_385_13087)">
<path d="M251 0H1V250H251V0Z" fill="white"/>
<path opacity="0.6" d="M133.5 229.504C133.5 229.504 3.50019 239.284 5.00019 120.952C6.50019 2.61983 137 -2.75867 186.5 16.3113C271.47 49.0458 275.5 228.526 133.5 229.504Z" fill="#FDDEC0"/>
<path d="M17.6113 187.155C17.6113 187.155 19.2713 203.281 23.7773 203.044C28.2833 202.807 26.1488 203.044 26.1488 203.044V187.155H17.6113Z" fill="#76413B"/>
<path d="M17.9668 190.12C17.9668 190.12 18.3223 193.203 19.0338 195.1C19.0338 195.1 22.9468 196.286 23.0653 199.013C23.1838 201.74 25.1998 203.756 26.1483 200.199C27.0968 196.642 25.4368 191.543 25.4368 191.543L17.9668 190.12Z" fill="#965450"/>
<path d="M16.1875 184.784L16.662 189.764C16.662 189.764 21.405 193.796 28.5195 193.796L28.045 186.918L16.1875 184.784Z" fill="white"/>
<path d="M41.6814 96.3268C41.6814 96.3268 28.2824 92.0583 23.5394 102.255C18.7964 112.453 14.5279 182.412 15.0019 187.155C15.0019 187.155 23.3019 191.186 30.4164 189.289L42.2739 96.3268" fill="#352C38"/>
<path d="M37.5255 120.547C32.265 116.591 27.1375 112.464 21.8845 108.5C21.851 108.474 21.8175 108.449 21.7835 108.424C17.4585 128.829 14.585 182.985 15.002 187.156C15.002 187.156 22.5905 192.847 29.705 190.95L38.643 121.38C38.2705 121.103 37.897 120.826 37.5255 120.547Z" fill="#252028"/>
<path d="M24.2516 164.151C24.2516 164.151 23.7771 208.261 30.4176 249.999H48.6781L48.9151 170.791L24.2516 164.151Z" fill="#765E69"/>
<path d="M28.7578 195.455C32.6658 199.02 47.1223 208.323 48.7993 209.658L48.8408 195.73C43.4503 195.086 34.1928 195.717 28.7578 195.455Z" fill="#594750"/>
<path d="M73.4685 169.947L82.5905 249.999H63.1445L52.821 201.84L27.5975 196.837C27.5975 196.837 25.704 175.288 24.692 166.139C23.68 156.989 73.4685 169.947 73.4685 169.947Z" fill="#765E69"/>
<path d="M24.1156 178.425C32.6496 184.243 43.4261 185.933 53.5706 186.442C60.4016 186.785 68.2491 187.876 75.3781 186.703L73.4686 169.948C73.4686 169.948 21.8171 154.765 22.8291 163.915C23.2131 167.39 23.6821 172.912 24.1156 178.425Z" fill="#594750"/>
<path d="M64.8116 75.3087C64.8116 75.3087 60.1031 95.6092 64.6881 96.0487C69.2736 96.4887 82.3431 91.2077 81.6046 104.11C80.8661 117.013 31.1281 121.613 29.4781 110.17C27.8281 98.7262 28.8331 96.6557 36.1101 96.5407C43.3871 96.4252 45.3631 99.9787 45.9506 83.5212C46.5386 67.0632 64.8116 75.3087 64.8116 75.3087Z" fill="#965450"/>
<path d="M57.9532 90.2857C62.0477 85.9977 62.6597 79.8662 61.7692 74.2252C56.5462 72.6967 46.3862 71.3167 45.9507 83.5212C45.7337 89.5962 45.3272 92.9427 44.5352 94.7552C49.4867 94.7602 54.4892 93.9137 57.9532 90.2857Z" fill="#76413B"/>
<path d="M65.6204 67.3748C65.6204 67.3748 66.9209 70.3933 67.6499 67.2758C69.0249 61.3958 73.5784 46.2883 60.2984 42.6123C48.9534 39.4723 38.8629 42.2583 35.9024 56.8068C32.9414 71.3553 29.9304 86.7878 45.8374 87.6988C61.7449 88.6098 63.5994 77.8988 65.6204 67.3748Z" fill="#965450"/>
<path d="M63.5514 72.0975C63.5514 72.0975 66.3064 61.662 70.3284 66.7965C74.3504 71.931 65.0479 80.226 62.7409 75.9745C60.4344 71.7225 63.5514 72.0975 63.5514 72.0975Z" fill="#965450"/>
<path d="M61.17 69.3076C60.361 75.2071 59.0135 81.7156 56.95 82.5426C53.078 84.0941 54.4555 78.6166 53.978 74.5701C53.5005 70.5231 45.895 73.2796 40.3565 72.9626C34.8185 72.6456 38.5245 80.1871 36.1675 80.0526C33.811 79.9176 34.0275 67.8721 34.0275 67.8721C34.0275 67.8721 31.06 80.4696 32.07 83.4831C33.0795 86.4966 36.517 86.3386 36.517 86.3386C36.517 86.3386 36.0285 88.6751 39.5095 89.8201C42.763 90.8906 43.699 89.1436 43.8075 88.9106C43.708 89.1491 43.1155 90.9956 48.273 91.6221C53.791 92.2926 54.7205 88.4446 54.7205 88.4446C63.9415 87.6616 64.267 74.7671 65.1825 69.7866C63.854 69.5781 62.5175 69.4131 61.17 69.3076Z" fill="#352C38"/>
<path d="M51.3314 75.3652L38.6289 76.2932C38.6289 76.2932 45.8534 82.2627 51.3314 75.3652Z" fill="white"/>
<path d="M48.1822 67.0399C48.1822 67.0399 48.1592 66.8789 48.1572 66.5939C48.1577 66.3094 48.1752 65.8984 48.2882 65.4129C48.3462 65.1704 48.4242 64.9084 48.5442 64.6404C48.6697 64.3759 48.8187 64.0934 49.0472 63.8454C49.1597 63.7199 49.2767 63.5939 49.4252 63.4934C49.4972 63.4419 49.5642 63.3809 49.6427 63.3369L49.8897 63.2194C50.2237 63.0679 50.5972 63.0124 50.9572 63.0119C51.0147 63.0129 51.0207 63.0044 51.1207 63.0159L51.2392 63.0344L51.4752 63.0709C51.6242 63.0849 51.8337 63.1734 52.0052 63.2279C52.1812 63.2944 52.3257 63.3984 52.4792 63.4879C52.6107 63.6054 52.7532 63.7094 52.8637 63.8369C53.0897 64.0884 53.2607 64.3644 53.3712 64.6389C53.4972 64.9079 53.5622 65.1774 53.6092 65.4234C53.7042 65.9159 53.6962 66.3294 53.6772 66.6134C53.6557 66.8984 53.6192 67.0569 53.6192 67.0569C53.6192 67.0569 53.5957 66.8954 53.5367 66.6229C53.4777 66.3509 53.3827 65.9649 53.2182 65.5344C53.1762 65.4274 53.1337 65.3159 53.0752 65.2084C53.0242 65.0974 52.9697 64.9854 52.9002 64.8789C52.7762 64.6569 52.6032 64.4589 52.4197 64.2749C52.3272 64.1824 52.2122 64.1174 52.1102 64.0344C51.9897 63.9844 51.8742 63.9074 51.7562 63.8649C51.6257 63.8369 51.5457 63.7744 51.3762 63.7604L51.1392 63.7299L51.0207 63.7149C51.0417 63.7164 50.9672 63.7194 50.9452 63.7204C50.6682 63.7149 50.3957 63.7469 50.1547 63.8504C50.0337 63.9004 49.9127 63.9499 49.8072 64.0299C49.6912 64.0924 49.5947 64.1834 49.4992 64.2739C49.3092 64.4554 49.1502 64.6694 49.0117 64.8849C48.8817 65.1064 48.7682 65.3269 48.6737 65.5389C48.4917 65.9659 48.3737 66.3454 48.2962 66.6134C48.2187 66.8814 48.1822 67.0399 48.1822 67.0399Z" fill="#252028"/>
<path d="M36.8711 66.7341C36.8711 66.7341 36.8476 66.5981 36.8351 66.3566C36.8236 66.1156 36.8226 65.7686 36.8876 65.3536C36.9511 64.9401 37.0691 64.4496 37.3611 63.9621C37.4361 63.8421 37.5296 63.7251 37.6231 63.6081C37.7396 63.5061 37.8361 63.3786 37.9851 63.3031C38.1236 63.2146 38.2691 63.1361 38.4351 63.0971C38.5951 63.0346 38.7601 63.0306 38.9256 63.0211L39.0496 63.0176L39.1116 63.0261L39.1366 63.0306L39.1866 63.0396L39.3851 63.0746C39.5231 63.1046 39.7201 63.1856 39.8661 63.2571C40.1446 63.4251 40.3771 63.6531 40.5241 63.9006C40.6906 64.1406 40.7776 64.3986 40.8511 64.6361C40.9211 64.8756 40.9556 65.1051 40.9766 65.3151C41.0176 65.7356 40.9896 66.0831 40.9606 66.3226C40.9296 66.5626 40.8936 66.6961 40.8936 66.6961C40.8936 66.6961 40.8696 66.5601 40.8196 66.3281C40.7701 66.0966 40.6946 65.7691 40.5776 65.3956C40.4561 65.0261 40.2871 64.6016 40.0156 64.2621C39.8906 64.0796 39.7096 63.9681 39.5391 63.8576C39.4436 63.8261 39.3946 63.7886 39.2721 63.7611L39.0726 63.7321L39.0226 63.7246L38.9976 63.7211L38.9851 63.7191L38.9791 63.7181L38.9761 63.7176C38.9421 63.7141 39.0186 63.7221 39.0101 63.7216L38.9321 63.7286C38.8286 63.7331 38.7211 63.7256 38.6276 63.7651C38.5266 63.7811 38.4371 63.8291 38.3491 63.8811C38.2551 63.9201 38.1846 64.0101 38.0956 64.0656C38.0216 64.1461 37.9436 64.2231 37.8766 64.3111C37.6076 64.6696 37.4241 65.0891 37.2806 65.4541C37.1416 65.8226 37.0421 66.1446 36.9756 66.3716C36.9086 66.6031 36.8711 66.7341 36.8711 66.7341Z" fill="#252028"/>
<path d="M42.6742 59.3232C42.6742 59.3232 42.2242 59.0512 41.5492 58.6432C41.3912 58.5617 41.2407 58.4592 41.0737 58.3847C40.9172 58.2912 40.7467 58.2342 40.5922 58.1587C40.4287 58.1172 40.2817 58.0327 40.1327 58.0197C40.0592 58.0077 39.9887 57.9817 39.9182 57.9727C39.8462 57.9702 39.7762 57.9642 39.7062 57.9542C39.6387 57.9262 39.5602 57.9572 39.4877 57.9527C39.4132 57.9657 39.3402 57.9307 39.2592 57.9542C39.0992 58.0052 38.9317 57.9702 38.7547 58.0337C38.5807 58.0892 38.3942 58.1057 38.2142 58.1607C38.0357 58.2237 37.8562 58.2767 37.6802 58.3227C37.4992 58.3587 37.3412 58.4247 37.1907 58.4717C37.0417 58.5207 36.8982 58.5537 36.7812 58.5847C36.5447 58.6447 36.3867 58.6672 36.3867 58.6672C36.3867 58.6672 36.4082 58.5192 36.4862 58.2827C36.5702 58.0497 36.6722 57.6952 36.9222 57.3527C37.0467 57.1807 37.1917 56.9977 37.3572 56.8107C37.5302 56.6312 37.7612 56.4742 37.9952 56.3102C38.1062 56.2197 38.2467 56.1607 38.3937 56.1032C38.5382 56.0417 38.6882 55.9857 38.8417 55.9367C38.9922 55.8822 39.1717 55.8717 39.3402 55.8522C39.5127 55.8442 39.6827 55.8047 39.8592 55.8362C40.0342 55.8602 40.2087 55.8882 40.3812 55.9192C40.5522 55.9522 40.7062 56.0367 40.8642 56.0967L41.0947 56.1987L41.2952 56.3347C41.4242 56.4272 41.5612 56.5107 41.6657 56.6172C41.8787 56.8252 42.0682 57.0357 42.1992 57.2577C42.3472 57.4707 42.4342 57.6942 42.5182 57.8937C42.6622 58.3057 42.7087 58.6617 42.7057 58.9187C42.7122 59.1742 42.6742 59.3232 42.6742 59.3232Z" fill="#252028"/>
<path d="M43.0831 61.4746C43.0496 62.3431 42.9666 63.2046 42.8636 64.0631C42.8146 64.4926 42.7466 64.9191 42.6891 65.3476C42.6301 65.7756 42.5471 66.1996 42.4771 66.6261C42.4101 67.0531 42.3191 67.4756 42.2301 67.8996C42.1401 68.3231 42.0611 68.7476 41.9486 69.1676C41.8396 69.5881 41.7366 70.0096 41.6226 70.4286L41.2136 71.6796L41.0051 71.2696C41.3516 71.3876 41.7226 71.4976 42.0901 71.5906C42.4586 71.6851 42.8291 71.7826 43.2041 71.8576C43.5786 71.9391 43.9546 72.0151 44.3346 72.0746C44.7131 72.1506 45.0966 72.1841 45.4816 72.2516C45.0956 72.2766 44.7046 72.3181 44.3151 72.3106C43.9251 72.3081 43.5336 72.2996 43.1441 72.2616C42.7546 72.2286 42.3646 72.1856 41.9776 72.1196C41.5886 72.0561 41.2091 71.9801 40.8141 71.8826L40.5176 71.8096L40.6051 71.4726L40.9256 70.2436C41.0166 69.8256 41.1191 69.4106 41.2151 68.9941L41.7836 66.4841C42.1741 64.8101 42.5731 63.1346 43.0831 61.4746Z" fill="#5E2626"/>
<path d="M64.6602 75.8915C64.9402 75.7955 65.2102 75.674 65.4642 75.5385C65.7132 75.4005 65.9567 75.226 66.0797 75.0145C66.1162 74.9645 66.1162 74.9065 66.1402 74.8575C66.1442 74.8045 66.1362 74.7545 66.1377 74.7055C66.1132 74.6545 66.0967 74.605 66.0812 74.555L65.9732 74.409C65.9462 74.358 65.8832 74.318 65.8382 74.2725C65.7882 74.229 65.7437 74.183 65.6912 74.1415L65.3487 73.91L65.2182 73.822L65.2362 73.657C65.3022 73.0615 65.3822 72.477 65.4932 71.8915C65.6082 71.3085 65.7342 70.725 65.9057 70.1485C66.0817 69.5735 66.2837 69.001 66.5762 68.4435C66.7312 68.168 66.9077 67.8945 67.1597 67.6455C67.2842 67.521 67.4387 67.4075 67.6182 67.318C67.8062 67.241 68.0262 67.1805 68.2407 67.215L68.3207 67.223L68.3307 67.224L68.3812 67.2365L68.3942 67.2405L68.4202 67.249L68.5252 67.2825C68.5982 67.3085 68.6572 67.3195 68.7412 67.361C68.9097 67.4595 69.1097 67.559 69.2182 67.6885L69.4062 67.876L69.5527 68.0875C69.6597 68.2255 69.7157 68.3815 69.7882 68.5315C69.9177 68.836 69.9772 69.155 70.0152 69.4695C70.0277 69.6275 70.0282 69.785 70.0342 69.9415C70.0292 70.098 70.0132 70.2535 70.0022 70.4085C69.9567 70.7165 69.8897 71.019 69.7892 71.31C69.6892 71.6 69.5657 71.883 69.4002 72.1395C69.3272 72.273 69.2417 72.398 69.1447 72.5155C69.0517 72.635 68.9657 72.758 68.8537 72.8605C68.6557 73.0875 68.4077 73.26 68.1692 73.431C68.3702 73.212 68.5632 72.9965 68.7232 72.755C68.8137 72.643 68.8767 72.512 68.9457 72.387C69.0192 72.2645 69.0802 72.136 69.1282 72.001C69.2417 71.741 69.3142 71.466 69.3797 71.195C69.4412 70.921 69.4682 70.643 69.4802 70.367C69.4777 70.229 69.4812 70.091 69.4747 69.9545C69.4572 69.819 69.4462 69.6825 69.4252 69.5495C69.3712 69.2845 69.2952 69.0285 69.1857 68.7965C69.1232 68.6865 69.0762 68.5635 68.9937 68.474L68.8842 68.328L68.7522 68.213C68.6657 68.117 68.5812 68.109 68.5067 68.045C68.4612 68.019 68.3722 68.0045 68.3077 67.981L68.2022 67.9495L68.1757 67.9415L68.1627 67.9375L68.1592 67.9365C68.2437 67.957 68.1817 67.942 68.1997 67.947H68.1962H68.1667C68.0167 67.93 67.8522 68.0065 67.6847 68.18C67.5202 68.3465 67.3747 68.5715 67.2462 68.8085C66.9847 69.2865 66.7822 69.8225 66.6072 70.3665C66.4317 70.912 66.2707 71.4675 66.1347 72.031C65.9977 72.593 65.8602 73.1625 65.7542 73.7285L65.6422 73.476L66.0017 73.782C66.0587 73.838 66.1117 73.9035 66.1662 73.964C66.2182 74.029 66.2787 74.078 66.3187 74.1605L66.4457 74.3885C66.4697 74.48 66.4932 74.5725 66.5087 74.6635C66.5012 74.7595 66.4927 74.8605 66.4662 74.949C66.4222 75.03 66.3902 75.1235 66.3307 75.186C66.2702 75.246 66.2192 75.3215 66.1502 75.3635C66.0832 75.4085 66.0222 75.4655 65.9517 75.498C65.8157 75.577 65.6747 75.6365 65.5327 75.69C65.2497 75.7975 64.9542 75.854 64.6602 75.8915Z" fill="#5E2626"/>
<path d="M46.1885 58.9759C46.1885 58.9759 46.251 58.7809 46.4325 58.4834C46.6065 58.1794 46.9015 57.7779 47.337 57.3644C47.5585 57.1634 47.8065 56.9474 48.102 56.7614C48.386 56.5564 48.725 56.3979 49.0785 56.2339C49.2555 56.1519 49.4515 56.1029 49.6445 56.0404C49.8385 55.9784 50.036 55.9154 50.247 55.8954C50.4555 55.8664 50.666 55.8304 50.879 55.8104C51.093 55.7994 51.3105 55.8154 51.527 55.8194C51.9625 55.8199 52.3845 55.9424 52.796 56.0459C53.007 56.0844 53.19 56.1914 53.379 56.2739C53.5655 56.3609 53.7495 56.4459 53.924 56.5389C54.259 56.7449 54.549 56.9904 54.824 57.2084C55.094 57.4334 55.2855 57.7094 55.4795 57.9359C55.668 58.1699 55.8295 58.3864 55.9305 58.6114C56.043 58.8264 56.1265 59.0224 56.196 59.1794C56.3325 59.4959 56.386 59.6864 56.386 59.6864C56.386 59.6864 56.188 59.6124 55.8855 59.4664C55.7355 59.3924 55.552 59.3074 55.3585 59.2004C55.1715 59.0839 54.939 58.9904 54.697 58.8864C54.453 58.7879 54.2195 58.6389 53.949 58.5474C53.6775 58.4604 53.41 58.3449 53.134 58.2494C52.845 58.1959 52.569 58.0874 52.2785 58.0404C51.9845 58.0164 51.701 57.9204 51.402 57.9389C51.2545 57.9329 51.1075 57.9109 50.9595 57.9134C50.811 57.9294 50.662 57.9289 50.513 57.9349C50.2155 57.9399 49.919 58.0029 49.6235 58.0309C49.3335 58.0974 49.0375 58.1289 48.7625 58.2104C48.48 58.2684 48.2155 58.3504 47.961 58.4184C47.4585 58.5664 47.0145 58.7034 46.699 58.8079C46.374 58.9149 46.1885 58.9759 46.1885 58.9759Z" fill="#252028"/>
<path d="M65.1596 95.4969C65.1596 95.4969 61.4656 103.992 52.7091 103.323C43.3926 102.611 42.2746 96.3269 42.2746 96.3269C42.2746 96.3269 28.0251 94.2654 26.4616 100.737C24.8981 107.208 22.1416 167.289 21.6426 176.009C21.6426 176.009 41.5631 187.392 76.1871 182.175C76.1871 182.175 80.9556 138.65 80.4426 116.353C80.4426 116.353 86.8356 112.345 86.3891 102.776C85.9426 93.2069 70.2726 93.0064 65.1596 95.4969Z" fill="#352C38"/>
<path d="M79.5938 142.91L31.3653 137.354L25.4368 158.223L24.7178 161.771L65.5148 172.452L67.8863 160.594C67.8863 160.594 73.7173 163.009 78.2208 161.015C78.7038 155.402 79.1938 149.158 79.5938 142.91Z" fill="#252028"/>
<path d="M51.9973 102.019L52.7893 103.115L53.6573 102.019L55.1823 103.215C55.1823 103.215 53.4943 103.795 50.3203 103.215L51.9973 102.019Z" fill="#F7EDE8"/>
<path d="M41.6816 96.3267L43.8161 94.7852L51.9976 102.018L48.3221 107.71L41.6816 96.3267Z" fill="white"/>
<path d="M57.9267 107.71L53.6582 102.018L63.8552 93.4814L65.8712 95.3784L57.9267 107.71Z" fill="white"/>
<path d="M32.5908 111.539L24.7178 161.772L61.7188 165.954L68.4083 113.216L32.5908 111.539Z" fill="white"/>
<path d="M34.1514 110.969L24.9814 160.981L62.9474 167.263L69.2069 114.488L34.1514 110.969Z" fill="#FC6A5A"/>
<path d="M47.8619 112.311L30.6934 128.532" stroke="white" stroke-width="0.5496" stroke-miterlimit="10" stroke-linecap="round" stroke-linejoin="round"/>
<path d="M27.6689 145.287L37.5249 163.055" stroke="white" stroke-width="0.5496" stroke-miterlimit="10" stroke-linecap="round" stroke-linejoin="round"/>
<path d="M49.474 134.845L38.0055 133.441C27.9265 124.192 33.618 133.086 33.618 133.086L30.2625 132.529C26.4055 132.584 28.765 134.646 28.765 134.646C24.6025 135.233 28.3495 137.099 28.3495 137.099C25.543 138.04 28.3845 138.89 28.3845 138.89C23.992 140.781 34.3345 145.297 46.535 149.291C47.3515 144.455 48.41 139.647 49.474 134.845Z" fill="#965450"/>
<path d="M42.9858 149.211L38.3613 147.077L40.8513 132.848L45.2388 133.559L42.9858 149.211Z" fill="white"/>
<path d="M40.3779 149.686L44.1724 132.848L65.0414 135.694C65.0414 135.694 70.2584 95.1416 75.7129 95.1416C85.2109 95.1416 92.0764 96.3276 85.4359 132.374C85.4359 132.374 81.6414 156.563 73.8154 157.038C62.4534 157.726 40.3779 149.686 40.3779 149.686Z" fill="#352C38"/>
<path d="M221.566 165.253L197.215 174.486L203.577 250H225.671" fill="#765E69"/>
<path d="M199.062 191.002L201.491 212.722C206.959 205.457 212.025 197.862 217.959 191.002H199.062Z" fill="#594750"/>
<path d="M187.672 250L196.444 198.819C196.444 198.819 210.011 196.452 221.839 190.029C221.839 190.029 222.107 175.865 217.932 157.8C213.758 139.735 173.734 173.081 173.734 173.081L166.663 250H187.672Z" fill="#765E69"/>
<path d="M206.323 100.679C206.323 100.679 223.409 98.1679 226.529 107.29L230.61 123.613L218.368 129.374L206.323 100.679Z" fill="#5D8584"/>
<path d="M212.231 114.755L218.368 129.374L230.61 123.613L226.584 107.507C221.993 110.265 217.119 112.517 212.231 114.755Z" fill="#4E7B7C"/>
<path d="M184.982 98.5416C190.91 98.4016 196.837 98.3651 202.763 98.4036C201.605 96.6431 200.876 93.3896 200.551 87.5126C199.661 71.3861 182.916 79.8311 182.916 79.8311C182.916 79.8311 186.565 93.7081 184.982 98.5416Z" fill="#F19C7C"/>
<path d="M193.902 95.9515C196.597 97.086 199.458 97.709 202.4 97.774C201.452 95.903 200.841 92.7495 200.552 87.513C199.662 71.3865 184.354 81.8095 184.354 81.8095C184.354 81.8095 185.358 92.354 193.902 95.9515Z" fill="#F28B8B"/>
<path d="M222.571 103.468C220.863 99.7661 210.744 100.271 206.324 100.679L205.646 95.5271L181.881 94.3271L182.121 100.088C175.4 99.8481 167.263 97.9741 162.685 106.765C158.106 115.555 173.8 176.423 173.8 176.423C196.143 184.481 221.839 171.962 221.839 171.962C226.783 152 224.769 108.23 222.571 103.468Z" fill="#5D8584"/>
<path d="M190.507 127.289C180.32 121.557 171.421 114.073 163.185 105.875C163.014 106.16 162.846 106.454 162.684 106.766C158.106 115.556 172.039 179.064 172.039 179.064C194.382 187.122 224.609 178.105 224.609 178.105C226.638 169.913 224.724 151.572 224.877 139.703C213.096 136.449 201.198 133.304 190.507 127.289Z" fill="#4E7B7C"/>
<path d="M162.678 125.292C162.678 125.292 169.399 163.22 176.841 161.539C184.282 159.859 208.767 138.975 208.767 138.975L205.646 131.053L185.002 140.895C185.002 140.895 183.802 108.969 177.081 107.049C170.359 105.128 162.678 125.292 162.678 125.292Z" fill="#F19C7C"/>
<g opacity="0.4">
<path d="M167.381 132.757C173.18 132.242 178.665 130.691 184.054 128.66C183.03 119.428 180.988 108.165 177.08 107.049C170.358 105.128 162.677 125.292 162.677 125.292C162.677 125.292 163.238 128.459 164.215 132.919C165.272 132.897 166.327 132.85 167.381 132.757Z" fill="#D85A50"/>
<path d="M196.993 148.542C203.435 143.521 208.766 138.975 208.766 138.975L205.645 131.054L196.417 135.453C196.629 139.815 196.753 144.182 196.993 148.542Z" fill="#D85A50"/>
</g>
<path d="M161.957 131.054C161.957 131.054 155.316 104.572 170.839 101.288C183.321 98.6479 186.682 126.733 186.682 126.733L161.957 131.054Z" fill="#5D8584"/>
<path d="M209.926 136.741C210.21 137.265 210.015 137.921 209.491 138.205C208.966 138.489 208.311 138.294 208.027 137.769L197.285 117.926C197.001 117.401 197.196 116.746 197.72 116.462C198.245 116.178 198.9 116.373 199.184 116.897L209.926 136.741Z" fill="#252028"/>
<path d="M199.645 158.42L207.806 116.172L236.612 119.292L228.45 160.34L199.645 158.42Z" fill="#965450"/>
<path d="M235.412 141.857C235.412 141.857 238.292 134.175 232.051 130.815C225.81 127.454 220.529 126.254 231.811 132.735C231.811 132.735 208.047 122.893 231.331 135.376C231.331 135.376 207.567 126.734 230.611 137.776C230.611 137.776 209.247 132.255 231.811 141.137L230.131 150.979C230.131 150.979 233.491 146.417 235.412 141.857Z" fill="#F19C7C"/>
<path d="M217.96 65.8125L206.573 67.5055" stroke="#6F96BD" stroke-width="0.8286" stroke-miterlimit="10"/>
<path d="M181.029 72.1415C181.029 72.1415 175.804 54.263 186.867 50.963C197.929 47.663 206.757 46.975 209.954 61.18C213.151 75.385 216.415 90.456 200.836 91.67C185.258 92.884 183.223 82.4195 181.029 72.1415Z" fill="#F19C7C"/>
<path d="M183.152 76.7302C183.152 76.7302 180.24 66.5537 176.4 71.6697C172.56 76.7852 181.849 84.7307 184.025 80.5157C186.201 76.2997 183.152 76.7302 183.152 76.7302Z" fill="#F19C7C"/>
<path d="M212.016 71.991C212.016 71.991 212.471 83.7975 210.164 83.9775C207.856 84.1575 211.337 76.688 205.913 77.1105C200.49 77.533 192.977 74.984 192.59 78.9615C192.204 82.939 193.665 88.282 189.837 86.8385C186.01 85.3955 184.248 64.2865 184.248 64.2865C184.248 64.2865 190.071 65.8785 187.925 55.9075C184.63 54.765 181.902 52.184 179.826 49.3805C178.825 49.3245 174.918 49.504 172.051 55.253C168.737 61.8965 177.535 70.499 177.535 70.499C177.535 70.499 180.029 69.724 181.248 73.4605C182.468 77.1965 184.048 94.021 193.85 94.6505C193.85 94.6505 212.625 97.365 214.251 87.2585C214.746 84.181 212.016 71.991 212.016 71.991Z" fill="#352C38"/>
<path d="M187.516 56.6484C187.516 56.6484 193.171 63.8869 203.576 61.1724L201.314 59.1364C201.314 59.1364 207.422 61.1724 214.208 57.3269C214.208 57.3269 211.946 40.5879 198.6 40.5879C186.818 40.5879 178.694 46.2429 178.242 53.7079C177.789 61.1724 187.516 56.6484 187.516 56.6484Z" fill="#352C38"/>
<path d="M195.201 79.6875L207.675 80.341C207.675 80.341 200.712 86.34 195.201 79.6875Z" fill="white"/>
<path d="M192.046 66.7251C192.046 66.7251 192.085 66.8801 192.166 67.1416C192.248 67.4031 192.371 67.7726 192.558 68.1876C192.655 68.3936 192.77 68.6076 192.902 68.8221C193.042 69.0301 193.203 69.2371 193.393 69.4111C193.488 69.4981 193.585 69.5856 193.699 69.6441C193.804 69.7206 193.924 69.7666 194.044 69.8136C194.282 69.9101 194.55 69.9361 194.822 69.9251C194.843 69.9256 194.917 69.9271 194.896 69.9291L195.012 69.9116L195.244 69.8771C195.41 69.8596 195.487 69.7971 195.614 69.7666C195.729 69.7231 195.841 69.6451 195.958 69.5936C196.056 69.5101 196.167 69.4441 196.256 69.3516C196.433 69.1676 196.598 68.9701 196.715 68.7496C196.841 68.5361 196.935 68.3116 197.014 68.1006C197.167 67.6756 197.252 67.2951 197.304 67.0271C197.357 66.7586 197.376 66.5996 197.376 66.5996C197.376 66.5996 197.415 66.7541 197.442 67.0331C197.467 67.3111 197.483 67.7161 197.4 68.2011C197.359 68.4431 197.3 68.7086 197.182 68.9751C197.079 69.2461 196.917 69.5206 196.701 69.7716C196.595 69.8986 196.457 70.0041 196.331 70.1216C196.182 70.2121 196.042 70.3171 195.871 70.3856C195.704 70.4421 195.501 70.5336 195.355 70.5501L195.124 70.5906L195.008 70.6111C194.91 70.6246 194.904 70.6161 194.848 70.6181C194.495 70.6246 194.128 70.5781 193.797 70.4361L193.552 70.3256C193.474 70.2841 193.407 70.2261 193.336 70.1766C193.188 70.0811 193.071 69.9596 192.958 69.8391C192.729 69.6011 192.577 69.3266 192.449 69.0701C192.326 68.8101 192.244 68.5546 192.182 68.3176C192.062 67.8436 192.036 67.4411 192.03 67.1621C192.026 66.8836 192.046 66.7251 192.046 66.7251Z" fill="#252028"/>
<path d="M208.836 66.665C208.836 66.665 208.873 66.795 208.909 67.03C208.942 67.2645 208.976 67.604 208.944 68.017C208.927 68.2235 208.899 68.4495 208.835 68.6855C208.767 68.92 208.688 69.175 208.529 69.4135C208.39 69.659 208.166 69.8865 207.897 70.058C207.607 70.2105 207.32 70.305 206.963 70.3075C206.753 70.32 206.289 70.226 206.052 70.0505C205.774 69.888 205.582 69.6455 205.427 69.417C205.13 68.9455 205.005 68.4665 204.934 68.062C204.862 67.6565 204.857 67.316 204.863 67.0795C204.871 66.8425 204.891 66.7085 204.891 66.7085C204.891 66.7085 204.931 66.8365 205 67.0605C205.07 67.282 205.175 67.5955 205.318 67.954C205.466 68.309 205.655 68.7165 205.925 69.0625C205.993 69.1475 206.071 69.2215 206.145 69.299C206.233 69.351 206.304 69.439 206.397 69.475L206.529 69.5445C206.573 69.5645 206.612 69.564 206.652 69.5785C206.708 69.614 206.856 69.612 206.988 69.6135L207.087 69.6185C207.097 69.6185 207.014 69.62 207.05 69.619L207.053 69.6185L207.058 69.6175L207.067 69.6155L207.087 69.612L207.125 69.605L207.28 69.5805C207.381 69.5585 207.471 69.512 207.565 69.475C207.731 69.3645 207.905 69.2505 208.024 69.069C208.284 68.731 208.441 68.311 208.552 67.946C208.659 67.5775 208.726 67.2545 208.77 67.0265C208.815 66.799 208.836 66.665 208.836 66.665Z" fill="#252028"/>
<path d="M203.009 65.9023C203.298 66.7073 203.55 67.5168 203.782 68.3303C204.019 69.1428 204.235 69.9583 204.447 70.7738L205.059 73.2208C205.16 73.6268 205.269 74.0309 205.365 74.4389L205.696 75.6353L205.804 76.0253L205.464 76.1158C205.265 76.1688 205.081 76.2123 204.89 76.2523C204.701 76.2954 204.511 76.3303 204.321 76.3643C203.941 76.4343 203.558 76.4788 203.175 76.5158C202.792 76.5568 202.407 76.5668 202.024 76.5723C201.641 76.5818 201.256 76.5418 200.877 76.5168C201.253 76.4348 201.627 76.3873 201.996 76.2988C202.366 76.2273 202.732 76.1393 203.096 76.0478C203.46 75.9633 203.82 75.8548 204.177 75.7523C204.356 75.7003 204.535 75.6483 204.71 75.5888C204.885 75.5333 205.065 75.4698 205.227 75.4083L204.995 75.8888L204.561 74.6688C204.438 74.2603 204.329 73.8483 204.212 73.4378C204.092 73.0278 204.007 72.6133 203.911 72.1988C203.816 71.7848 203.718 71.3719 203.646 70.9538C203.572 70.5363 203.483 70.1218 203.42 69.7023C203.359 69.2823 203.286 68.8653 203.235 68.4433C203.125 67.6028 203.039 66.7568 203.009 65.9023Z" fill="#D85A50"/>
<path d="M182.144 80.4741C181.854 80.4491 181.561 80.4041 181.277 80.3126C181.135 80.2656 180.992 80.2136 180.854 80.1396C180.783 80.1091 180.72 80.0536 180.652 80.0101C180.582 79.9701 180.528 79.8951 180.466 79.8356C180.404 79.7741 180.368 79.6791 180.322 79.5976C180.293 79.5076 180.281 79.4041 180.272 79.3056C180.285 79.2126 180.306 79.1176 180.329 79.0236L180.45 78.7901C180.489 78.7051 180.547 78.6556 180.597 78.5886C180.65 78.5266 180.701 78.4601 180.756 78.4021L181.104 78.0881L180.98 78.3841C180.862 77.8341 180.71 77.2796 180.562 76.7336C180.415 76.1856 180.243 75.6466 180.06 75.1181C179.877 74.5911 179.668 74.0731 179.405 73.6166C179.276 73.3901 179.132 73.1771 178.975 73.0241C178.814 72.8636 178.672 72.8061 178.552 72.8221H178.528H178.525C178.546 72.8161 178.475 72.8351 178.572 72.8091L178.569 72.8101L178.556 72.8141L178.531 72.8226L178.428 72.8556C178.366 72.8791 178.277 72.8956 178.236 72.9206C178.172 72.9811 178.1 72.9826 178.019 73.0751L177.897 73.1841L177.796 73.3236C177.718 73.4086 177.676 73.5271 177.618 73.6326C177.517 73.8561 177.446 74.1031 177.397 74.3591C177.378 74.4881 177.369 74.6201 177.353 74.7516L177.353 75.1516C177.367 75.4191 177.395 75.6891 177.458 75.9551C177.523 76.2181 177.597 76.4851 177.711 76.7366C177.76 76.8676 177.821 76.9916 177.894 77.1101C177.962 77.2316 178.022 77.3606 178.11 77.4701C178.265 77.7076 178.455 77.9186 178.653 78.1336C178.412 77.9751 178.162 77.8141 177.956 77.5996C177.841 77.5031 177.75 77.3861 177.655 77.2711C177.556 77.1576 177.468 77.0366 177.392 76.9066C177.222 76.6571 177.093 76.3811 176.985 76.0976C176.877 75.8126 176.802 75.5156 176.747 75.2116C176.732 75.0581 176.713 74.9046 176.703 74.7496C176.705 74.5941 176.702 74.4376 176.71 74.2801C176.739 73.9661 176.79 73.6471 176.912 73.3391C176.981 73.1871 177.034 73.0296 177.138 72.8881L177.28 72.6716L177.466 72.4776C177.572 72.3451 177.776 72.2351 177.948 72.1321C178.032 72.0881 178.087 72.0761 178.159 72.0491L178.261 72.0141L178.287 72.0051L178.3 72.0006L178.357 71.9856L178.368 71.9841L178.451 71.9741C178.673 71.9341 178.903 71.9911 179.098 72.0671C179.285 72.1546 179.445 72.2681 179.574 72.3911C179.834 72.6371 180.015 72.9061 180.175 73.1766C180.477 73.7246 180.686 74.2851 180.87 74.8481C181.05 75.4121 181.182 75.9846 181.305 76.5556C181.423 77.1296 181.508 77.7026 181.581 78.2876L181.606 78.4816L181.457 78.5836L181.127 78.8106C181.077 78.8511 181.035 78.8956 180.987 78.9376C180.944 78.9811 180.883 79.0211 180.858 79.0686L180.757 79.2066C180.743 79.2526 180.728 79.2971 180.705 79.3441C180.707 79.3881 180.699 79.4326 180.703 79.4811C180.726 79.5251 180.724 79.5781 180.759 79.6251C180.876 79.8221 181.114 79.9906 181.355 80.1281C181.603 80.2616 181.869 80.3801 182.144 80.4741Z" fill="#D85A50"/>
<path d="M195.362 74.4789C198.886 73.6416 201.065 70.1055 200.228 66.5807C199.39 63.0559 195.854 60.8772 192.329 61.7145C188.805 62.5517 186.626 66.0879 187.463 69.6127C188.301 73.1375 191.837 75.3162 195.362 74.4789Z" stroke="#6F96BD" stroke-width="0.8286" stroke-miterlimit="10"/>
<path d="M210.032 72.7276C213.514 72.7276 216.338 69.854 216.338 66.3091C216.338 62.7643 213.514 59.8906 210.032 59.8906C206.55 59.8906 203.727 62.7643 203.727 66.3091C203.727 69.854 206.55 72.7276 210.032 72.7276Z" stroke="#6F96BD" stroke-width="0.8036" stroke-miterlimit="10"/>
<path d="M176.149 70.3903L187.139 69.8438" stroke="#6F96BD" stroke-width="0.8286" stroke-miterlimit="10"/>
<path d="M200.354 67.9021C200.354 67.9021 201.73 63.7926 203.69 67.1106" stroke="#6F96BD" stroke-width="0.8286" stroke-miterlimit="10"/>
<path d="M98.6845 158.732C98.6845 158.732 90.997 203.415 89.2305 250H107.728L121.299 168.342L98.6845 158.732Z" fill="#352C38"/>
<path d="M98.3018 191.654C102.012 199.685 107.185 207.108 113.415 213.394L117.069 192.518C110.811 192.277 104.555 191.997 98.3018 191.654Z" fill="#252028"/>
<path d="M143.775 166.997L150.89 249.999H131.918L121.191 200.798C121.191 200.798 107.848 198.883 96.5273 192.735C96.5273 192.735 97.4748 169.662 101.47 152.371C105.466 135.079 143.775 166.997 143.775 166.997Z" fill="#352C38"/>
<path d="M134.98 170.464C140.532 169.955 143.871 169.183 143.871 169.183L144.607 174.923C141.435 175.604 138.189 176.031 134.957 176.267C134.886 174.329 134.786 172.378 134.98 170.464Z" fill="#965450"/>
<path d="M100.085 173.013C98.2524 172.574 97.2129 172.274 97.2129 172.274L97.5074 167.122C98.5359 167.416 99.5569 167.682 100.573 167.936C100.236 169.597 100.132 171.299 100.085 173.013Z" fill="#965450"/>
<path d="M103.144 168.538C114.543 171.046 124.938 171.161 132.371 170.67C132.251 172.57 132.351 174.495 132.404 176.413C120.497 176.92 109.097 174.988 102.645 173.594C102.686 171.886 102.792 170.191 103.144 168.538Z" fill="#965450"/>
<path d="M114.02 171.449L120.467 172.207L120.189 175.265L113.805 174.884L114.02 171.449ZM112.373 169.477L111.932 176.542L121.793 177.131L122.382 170.655L112.373 169.477Z" fill="#FFA65B"/>
<path d="M137.783 74.8167C137.783 74.8167 132.677 94.9382 137.235 95.4702C141.793 96.0022 154.918 91.0107 153.918 103.846C152.917 116.681 103.288 120.242 101.879 108.812C100.47 97.3812 101.514 95.3397 108.763 95.3737C116.013 95.4082 119.797 99.0637 120.719 82.6847C121.642 66.3062 137.783 74.8167 137.783 74.8167Z" fill="#FFAC9D"/>
<path d="M127.11 91.2281C124.503 92.3906 121.737 93.0341 118.895 93.1116C119.818 91.2081 120.42 88.0036 120.72 82.6851C121.642 66.3061 136.389 76.8306 136.389 76.8306C136.389 76.8306 135.377 87.5421 127.11 91.2281Z" fill="#F28B8B"/>
<path d="M138.367 69.5082C138.367 69.5082 143.403 51.0607 133.045 47.9707C122.687 44.8807 114.276 45.9432 111.283 59.2447C108.289 72.5457 105.152 88.2507 119.739 89.3877C134.327 90.5237 136.312 79.1317 138.367 69.5082Z" fill="#FFAC9D"/>
<path d="M136.379 73.8038C136.379 73.8038 139.106 64.2753 142.701 69.0653C146.296 73.8553 137.599 81.2953 135.561 77.3483C133.524 73.4013 136.379 73.8038 136.379 73.8038Z" fill="#FFAC9D"/>
<path d="M142.701 69.066C142.701 69.066 142.04 67.7845 140.339 67.7845C138.637 67.7845 137.3 74.1055 137.3 74.1055L134.139 73.0115L137.3 57.452C137.3 57.452 134.504 55.872 135.233 51.6175C135.233 51.6175 114.204 59.154 109.706 50.159L111.894 50.6455C111.894 50.6455 106.546 44.446 111.408 38.125C111.408 38.125 111.53 40.921 115.055 42.258C115.055 42.258 113.596 40.921 113.961 38.368C113.961 38.368 116.27 40.313 122.713 39.462C129.155 38.611 142.648 38.7325 141.554 45.783C141.554 45.783 147.997 44.932 149.091 53.3195C149.88 59.3725 142.701 69.066 142.701 69.066Z" fill="#965450"/>
<path d="M117.452 61.6819C117.452 61.6819 117.333 61.6054 117.146 61.4884C117.057 61.4264 116.938 61.3614 116.824 61.2804C116.707 61.2009 116.564 61.1249 116.432 61.0359C116.288 60.9579 116.152 60.8609 116 60.7899C115.858 60.7009 115.703 60.6454 115.563 60.5734C115.414 60.5319 115.28 60.4519 115.143 60.4374C115.076 60.4254 115.012 60.3989 114.947 60.3914C114.88 60.3904 114.817 60.3819 114.753 60.3699C114.691 60.3434 114.619 60.3739 114.552 60.3654C114.484 60.3739 114.417 60.3414 114.342 60.3614C114.195 60.4054 114.041 60.3699 113.878 60.4249C113.717 60.4729 113.545 60.4839 113.379 60.5314C113.214 60.5854 113.048 60.6309 112.886 60.6699C112.721 60.7014 112.57 60.7539 112.432 60.7944C112.297 60.8404 112.164 60.8669 112.056 60.8934C111.95 60.9229 111.851 60.9314 111.79 60.9444C111.726 60.9554 111.692 60.9614 111.692 60.9614C111.692 60.9614 111.7 60.9294 111.715 60.8689C111.732 60.8104 111.749 60.7144 111.791 60.6099C111.83 60.5029 111.875 60.3679 111.946 60.2274C112.013 60.0829 112.084 59.9139 112.209 59.7644C112.326 59.6089 112.463 59.4434 112.618 59.2749C112.78 59.1134 112.996 58.9734 113.213 58.8274C113.317 58.7464 113.447 58.6949 113.583 58.6449C113.717 58.5914 113.856 58.5424 113.998 58.5004C114.137 58.4529 114.302 58.4479 114.457 58.4309C114.616 58.4239 114.773 58.3944 114.934 58.4274C115.095 58.4509 115.255 58.4779 115.412 58.5129C115.568 58.5484 115.708 58.6274 115.852 58.6859L116.062 58.7839L116.243 58.9124C116.36 58.9999 116.484 59.0794 116.578 59.1789C116.77 59.3739 116.94 59.5709 117.056 59.7769C117.188 59.9749 117.264 60.1824 117.337 60.3669C117.458 60.7499 117.497 61.0759 117.49 61.3119C117.495 61.4244 117.474 61.5254 117.468 61.5864C117.457 61.6484 117.452 61.6819 117.452 61.6819Z" fill="#76413B"/>
<path d="M117.678 63.0205C117.586 64.0365 117.444 65.043 117.281 66.045C117.204 66.547 117.104 67.044 117.017 67.544C116.929 68.044 116.818 68.5385 116.717 69.036C116.51 70.029 116.274 71.0175 116.021 72.001C115.884 72.4915 115.751 72.984 115.608 73.4725C115.461 73.961 115.278 74.4505 115.114 74.9375L114.848 74.475L116.449 74.855C116.717 74.9195 116.983 74.9945 117.252 75.054C117.52 75.122 117.789 75.1945 118.058 75.2755C117.501 75.3115 116.941 75.324 116.386 75.295C116.109 75.278 115.83 75.2745 115.554 75.245L114.722 75.1625L114.342 75.1245L114.457 74.6995C114.587 74.2175 114.735 73.749 114.853 73.26C114.971 72.7705 115.103 72.2855 115.227 71.7975C115.34 71.3055 115.467 70.817 115.593 70.328L115.968 68.859C116.226 67.8815 116.485 66.903 116.768 65.9295C117.048 64.9555 117.345 63.985 117.678 63.0205Z" fill="#FC6A5A"/>
<path d="M137.324 77.3087C137.582 77.2207 137.83 77.1102 138.063 76.9842C138.289 76.8557 138.511 76.6977 138.621 76.5132C138.654 76.4692 138.652 76.4197 138.674 76.3782C138.677 76.3332 138.669 76.2912 138.672 76.2502C138.65 76.2062 138.636 76.1642 138.623 76.1212L138.528 75.9917C138.506 75.9472 138.448 75.9097 138.408 75.8687C138.364 75.8292 138.324 75.7877 138.277 75.7497L137.968 75.5372L137.829 75.4417L137.851 75.2602C137.92 74.7122 138 74.1757 138.11 73.6387C138.225 73.1037 138.349 72.5682 138.517 72.0397C138.69 71.5122 138.886 70.9877 139.168 70.4747C139.318 70.2217 139.488 69.9697 139.731 69.7392C139.851 69.6242 140.001 69.5182 140.177 69.4362C140.36 69.3652 140.575 69.3117 140.783 69.3492L140.86 69.3587L140.87 69.3602L140.924 69.3742L140.936 69.3782L140.96 69.3862L141.055 69.4192C141.123 69.4447 141.174 69.4557 141.253 69.4967C141.414 69.5932 141.605 69.6962 141.704 69.8202L141.878 70.0022L142.012 70.2047C142.109 70.3372 142.158 70.4847 142.223 70.6272C142.337 70.9157 142.385 71.2147 142.412 71.5082C142.42 71.6552 142.417 71.8017 142.418 71.9477C142.41 72.0927 142.391 72.2367 142.377 72.3807C142.326 72.6652 142.256 72.9437 142.155 73.2102C142.054 73.4757 141.933 73.7342 141.774 73.9677C141.703 74.0892 141.621 74.2032 141.528 74.3092C141.439 74.4172 141.353 74.5262 141.246 74.6167C141.053 74.8177 140.819 74.9682 140.594 75.1167C140.779 74.9152 140.957 74.7177 141.102 74.4952C141.184 74.3927 141.241 74.2717 141.304 74.1577C141.373 74.0467 141.43 73.9302 141.475 73.8077C141.582 73.5722 141.651 73.3222 141.712 73.0757C141.771 72.8267 141.797 72.5742 141.81 72.3237L141.81 71.9492L141.769 71.5817C141.723 71.3417 141.657 71.1107 141.562 70.9012C141.508 70.8022 141.468 70.6912 141.395 70.6117L141.3 70.4807L141.186 70.3787C141.11 70.2917 141.042 70.2907 140.983 70.2337C140.945 70.2102 140.861 70.1947 140.803 70.1727L140.707 70.1417L140.683 70.1337L140.671 70.1297L140.668 70.1287C140.759 70.1532 140.692 70.1357 140.712 70.1407H140.709H140.686C140.574 70.1257 140.441 70.1797 140.29 70.3302C140.144 70.4732 140.008 70.6727 139.888 70.8847C139.642 71.3122 139.446 71.7972 139.275 72.2907C139.103 72.7857 138.942 73.2902 138.805 73.8032C138.666 74.3147 138.524 74.8337 138.413 75.3487L138.297 75.0717L138.623 75.3662C138.675 75.4202 138.723 75.4827 138.772 75.5407C138.819 75.6032 138.873 75.6497 138.909 75.7292L139.023 75.9482C139.044 76.0362 139.064 76.1252 139.076 76.2127C139.068 76.3047 139.057 76.4017 139.029 76.4862C138.986 76.5627 138.952 76.6517 138.895 76.7092C138.837 76.7647 138.786 76.8347 138.721 76.8722C138.657 76.9127 138.598 76.9647 138.532 76.9932C138.402 77.0627 138.269 77.1112 138.136 77.1552C137.87 77.2427 137.596 77.2852 137.324 77.3087Z" fill="#FC6A5A"/>
<path d="M121.18 61.5745C121.18 61.5745 121.236 61.3625 121.403 61.0365C121.565 60.7065 121.84 60.2635 122.257 59.8015C122.671 59.3385 123.236 58.8625 123.948 58.475C124.308 58.2895 124.696 58.111 125.127 57.9985C125.552 57.8715 126.012 57.8035 126.483 57.789C126.952 57.775 127.435 57.8405 127.891 57.9565C128.346 58.087 128.778 58.2715 129.147 58.513C129.333 58.632 129.512 58.7485 129.664 58.892C129.823 59.026 129.972 59.159 130.096 59.3085C130.363 59.5885 130.553 59.8925 130.72 60.1675C130.867 60.457 130.998 60.7145 131.071 60.964C131.152 61.208 131.209 61.423 131.237 61.6065C131.3 61.97 131.304 62.1835 131.304 62.1835C131.304 62.1835 131.104 62.082 130.81 61.894C130.67 61.795 130.475 61.699 130.282 61.577C130.092 61.45 129.862 61.3375 129.638 61.204C129.402 61.087 129.165 60.951 128.909 60.8515C128.785 60.7935 128.66 60.7395 128.528 60.6995C128.4 60.6515 128.274 60.6055 128.142 60.5735C127.885 60.49 127.618 60.457 127.357 60.4065C127.088 60.3915 126.822 60.3495 126.54 60.3725C125.982 60.3715 125.381 60.478 124.784 60.6025C124.189 60.7395 123.597 60.8995 123.069 61.0525C122.515 61.2085 122.054 61.338 121.731 61.429C121.392 61.524 121.18 61.5745 121.18 61.5745Z" fill="#76413B"/>
<path d="M114.9 67.398C115.342 67.398 115.7 66.563 115.7 65.533C115.7 64.503 115.342 63.668 114.9 63.668C114.459 63.668 114.101 64.503 114.101 65.533C114.101 66.563 114.459 67.398 114.9 67.398Z" fill="#252028"/>
<path d="M116.08 78.0161C116.08 78.0161 116.257 78.1091 116.573 78.2386C116.886 78.3721 117.336 78.5486 117.883 78.7071C118.153 78.7946 118.454 78.8556 118.766 78.9286C119.08 78.9916 119.415 79.0351 119.756 79.0741C120.101 79.0996 120.454 79.1211 120.813 79.0946C121.172 79.1016 121.53 79.0316 121.89 78.9826C122.25 78.9336 122.593 78.8026 122.945 78.7296C123.283 78.5991 123.615 78.4706 123.937 78.3461C124.24 78.1761 124.543 78.0271 124.833 77.8821C125.111 77.7191 125.361 77.5386 125.606 77.3901C125.85 77.2381 126.076 77.0986 126.255 76.9461C126.439 76.8006 126.608 76.6796 126.746 76.5776C127.025 76.3761 127.193 76.2646 127.193 76.2646C127.193 76.2646 127.087 76.4296 126.885 76.7121C126.783 76.8526 126.66 77.0256 126.51 77.2171C126.433 77.3116 126.36 77.4211 126.267 77.5211C126.17 77.6166 126.067 77.7171 125.96 77.8221C125.741 78.0281 125.515 78.2711 125.24 78.4831C124.955 78.6836 124.654 78.8991 124.331 79.1066C123.989 79.2796 123.629 79.4581 123.256 79.6201C122.864 79.7301 122.47 79.8761 122.059 79.9396C121.646 79.9921 121.234 80.0646 120.823 80.0361C120.413 80.0516 120.016 79.9771 119.634 79.9191C119.255 79.8511 118.896 79.7406 118.567 79.6236C118.237 79.5021 117.935 79.3711 117.67 79.2201C117.396 79.0901 117.171 78.9226 116.966 78.7921C116.768 78.6466 116.599 78.5196 116.469 78.4006C116.336 78.2886 116.241 78.1876 116.176 78.1201C116.114 78.0526 116.08 78.0161 116.08 78.0161Z" fill="#FC6A5A"/>
<path d="M128.411 66.2175C128.411 67.2475 128.053 68.0825 127.612 68.0825C127.17 68.0825 126.812 67.2475 126.812 66.2175C126.812 65.1875 127.17 64.3525 127.612 64.3525C128.053 64.353 128.411 65.1875 128.411 66.2175Z" fill="#252028"/>
<path d="M137.745 94.4863L127.665 96.2393L125.046 98.6063L123.108 96.0643L116.71 94.4868C116.71 94.4868 104.779 92.9783 102.675 97.5358C100.572 102.093 94.6057 136.857 97.7917 164.278C97.7917 164.278 118.479 172.338 143.775 166.998C143.775 166.998 160.884 108.51 156.502 100.096C152.119 91.6818 142.653 92.5583 137.745 94.4863Z" fill="#6F96BD"/>
<path d="M154.108 116.354C153.299 120.747 152.165 125.077 150.709 129.255C147.692 137.912 143.279 146.589 136.002 152.428C124.78 161.434 111.277 163.094 97.5977 162.477C97.6587 163.08 97.7217 163.682 97.7912 164.278C97.7912 164.278 118.478 172.338 143.774 166.998C143.774 166.998 152.499 137.171 155.891 117.053C155.297 116.821 154.704 116.583 154.108 116.354Z" fill="#588AAF"/>
<path d="M127.49 98.5185L122.936 98.3955L121.267 103.69L123.108 107.109C123.108 107.109 114.855 142.247 114.417 155.657L120.552 163.107L126.425 155.394L127.14 106.758L129.857 103.603L127.49 98.5185Z" fill="#252028"/>
<path d="M141.251 94.8376L138.271 88.3516L125.825 95.8891L125.047 98.6066L127.052 97.2916L130.208 104.128L141.251 94.8376Z" fill="#7FAFD6"/>
<path d="M125.046 98.6063L124.335 95.9768L117.849 90.7178L114.343 94.3113L120.566 105.355L123.458 96.9408L125.046 98.6063Z" fill="#7FAFD6"/>
<path d="M156.06 162.452C156.06 162.452 146.01 172.692 144.649 166.974C143.632 162.701 144.493 162.635 144.493 162.635C144.493 162.635 131.827 172.503 143.908 160.247C143.908 160.247 125.922 166.305 143.568 157.849C143.568 157.849 126.503 162.264 143.014 156.264C143.014 156.264 129.633 154.107 145.656 154.554C145.656 154.554 147.911 155.537 148.763 158.45L155.214 153.378L156.06 162.452Z" fill="#FFAC9D"/>
<path d="M140.326 93.7394C140.326 93.7394 152.378 91.2264 159.222 99.5609C166.032 107.854 180.269 128.448 178.408 134.7C176.548 140.951 166.396 156.459 155.135 165.712L149.307 156.556L162.617 132.623L166.916 138.705L147.006 113.103L140.326 93.7394Z" fill="#6F96BD"/>
<path d="M89.1982 156.551C89.1982 156.551 98.0497 168.054 100.109 162.476C101.648 158.308 100.791 158.137 100.791 158.137C100.791 158.137 112.315 169.583 101.669 155.811C101.669 155.811 118.997 164.074 102.3 153.444C102.3 153.444 118.902 159.946 103.049 151.919C103.049 151.919 116.749 151.375 100.603 149.882C100.603 149.882 98.2197 150.596 97.0107 153.418L91.1472 147.542L89.1982 156.551Z" fill="#FFAC9D"/>
<path d="M114.343 94.3109C114.343 94.3109 104.223 90.8404 96.3393 98.3809C88.4948 105.884 69.0083 119.469 70.1188 125.972C71.2293 132.476 79.5443 149.279 89.7318 159.938L96.6938 151.449L86.2283 125.801L81.1738 131.388L106.965 113.462L114.343 94.3109Z" fill="#6F96BD"/>
<path d="M98.3721 119.435C98.8756 114.311 99.6146 108.524 100.613 104.864L90.6406 124.808L98.3721 119.435Z" fill="#588AAF"/>
</g>
<defs>
<clipPath id="clip0_385_13087">
<rect width="250" height="250" fill="white"/>
</clipPath>
</defs>
</svg>