<svg width="182" height="220" viewBox="0 0 182 220" fill="none" xmlns="http://www.w3.org/2000/svg">
<g clip-path="url(#clip0_386_14575)">
<g opacity="0.5">
<path d="M152.999 183.961V131.603H28.1484V183.961L90.571 220L152.999 183.961Z" fill="url(#paint0_linear_386_14575)"/>
</g>
<path d="M0 115.823L16.2698 141.462L0.00551682 167.102H31.316C31.9763 167.141 32.6252 166.917 33.121 166.479C33.6167 166.041 33.9189 165.425 33.9615 164.765V115.823H0Z" fill="url(#paint1_linear_386_14575)"/>
<path d="M0 115.823L1.77468 118.535H33.967V115.823H0Z" fill="url(#paint2_linear_386_14575)"/>
<path d="M31.3105 164.39H1.76918L0 167.102H31.3105C31.9717 167.143 32.6221 166.92 33.119 166.482C33.616 166.043 33.9189 165.426 33.9615 164.765V162.064C33.9162 162.724 33.612 163.338 33.1154 163.774C32.6187 164.21 31.9699 164.431 31.3105 164.39Z" fill="url(#paint3_linear_386_14575)"/>
<path d="M181.145 115.823L164.875 141.462L181.145 167.102H149.835C149.175 167.142 148.526 166.921 148.03 166.485C147.533 166.049 147.229 165.435 147.184 164.776V115.823H181.145Z" fill="url(#paint4_linear_386_14575)"/>
<path d="M181.151 115.823L179.376 118.535H147.184V115.823H181.151Z" fill="url(#paint5_linear_386_14575)"/>
<path d="M149.835 164.581H179.37L181.145 167.292H149.835C149.175 167.333 148.526 167.112 148.03 166.676C147.533 166.24 147.229 165.626 147.184 164.967V162.255C147.229 162.914 147.533 163.528 148.03 163.964C148.526 164.4 149.175 164.622 149.835 164.581Z" fill="url(#paint6_linear_386_14575)"/>
<path d="M26.4283 155.329C23.9041 155.329 21.8594 156.922 21.8594 158.89C21.8594 160.857 23.9041 162.45 26.4283 162.45H40.9344C42.4005 162.45 43.591 163.492 43.591 164.776V155.329H26.4283Z" fill="url(#paint7_linear_386_14575)"/>
<path d="M154.717 155.329C157.242 155.329 159.286 156.922 159.286 158.89C159.286 160.857 157.242 162.45 154.717 162.45H140.211C138.745 162.45 137.555 163.492 137.555 164.776V155.329H154.717Z" fill="url(#paint8_linear_386_14575)"/>
<path d="M146.451 167.845V34.8486H34.6953V167.845L90.5703 200.098L146.451 167.845Z" fill="url(#paint9_linear_386_14575)"/>
<path d="M28.1484 28.3018V171.599L90.571 207.644L152.999 171.599V28.3018H28.1484ZM146.451 167.846L90.571 200.099L34.696 167.84V34.8493H146.451V167.846Z" fill="url(#paint10_linear_386_14575)"/>
<path d="M148.088 168.787V33.2061H33.0586V168.787L90.5704 201.994L148.088 168.787ZM34.6955 34.8595H146.451V167.845L90.5704 200.098L34.6955 167.839V34.8595Z" fill="url(#paint11_linear_386_14575)"/>
<path d="M28.1484 28.3018V171.599L90.571 207.644L152.999 171.599V28.3018H28.1484ZM151.362 170.679L90.571 205.776L29.7854 170.679V29.9387H151.362V170.679Z" fill="url(#paint12_linear_386_14575)"/>
<path d="M146.451 34.8545H34.7012V64.5556H146.451V34.8545Z" fill="url(#paint13_linear_386_14575)" style="mix-blend-mode:multiply"/>
<path opacity="0.6" d="M152.997 137.753H28.1523V151.702H152.997V137.753Z" fill="url(#paint14_linear_386_14575)" style="mix-blend-mode:multiply"/>
<path d="M90.5761 178.053L96.3686 174.515L94.7924 181.117L99.9511 185.538L93.183 186.078L90.5761 192.344L87.9692 186.078L81.2012 185.538L86.3599 181.117L84.7836 174.515L90.5761 178.053Z" fill="url(#paint15_linear_386_14575)"/>
<path d="M70.8504 174.994L74.7801 172.591L73.7164 177.072L77.2106 180.07L72.6196 180.439L70.8504 184.694L69.0813 180.439L64.4902 180.07L67.99 177.072L66.9208 172.591L70.8504 174.994Z" fill="url(#paint16_linear_386_14575)"/>
<path d="M110.301 174.994L106.366 172.591L107.435 177.072L103.936 180.07L108.532 180.439L110.301 184.694L112.07 180.439L116.661 180.07L113.162 177.072L114.231 172.591L110.301 174.994Z" fill="url(#paint17_linear_386_14575)"/>
<path d="M110.588 0H70.5587L42.252 28.3012V68.3308L70.5587 96.6375H110.588L138.895 68.3308V28.3012L110.588 0Z" fill="url(#paint18_linear_386_14575)"/>
<path d="M75.0779 85.7308L53.1699 63.8174V32.8266L75.0779 10.9131H106.069L127.982 32.8266V63.8174L106.069 85.7308H75.0779Z" fill="url(#paint19_linear_386_14575)"/>
<path d="M110.588 0H70.5587L42.252 28.3012V68.3308L70.5587 96.6375H110.588L138.895 68.3308V28.3012L110.588 0ZM132.347 65.6192L107.877 90.0899H73.2703L48.7885 65.6192V31.0129L73.2593 6.54759H107.866L132.336 31.0129L132.347 65.6192Z" fill="url(#paint20_linear_386_14575)"/>
<path d="M72.5919 4.91113L47.1621 30.3464V66.3085L72.5919 91.7383H108.554L133.984 66.3085V30.3464L108.554 4.92217L72.5919 4.91113ZM132.347 65.6196L107.876 90.0904H73.2698L48.788 65.6196V31.0133L73.2588 6.54805H107.865L132.336 31.0133L132.347 65.6196Z" fill="url(#paint21_linear_386_14575)"/>
<path d="M110.588 0H70.5587L42.252 28.3012V68.3308L70.5587 96.6375H110.588L138.895 68.3308V28.3012L110.588 0ZM137.258 67.6529L109.91 95.0006H71.2366L43.8888 67.6529V28.9791L71.2366 1.63688H109.91L137.258 28.9791V67.6529Z" fill="url(#paint22_linear_386_14575)"/>
<g clip-path="url(#clip1_386_14575)">
<path d="M101.452 24.3213H79.7002C72.452 24.3213 66.5762 30.1971 66.5762 37.4453V59.1973C66.5762 66.4455 72.452 72.3213 79.7002 72.3213H101.452C108.7 72.3213 114.576 66.4455 114.576 59.1973V37.4453C114.576 30.1971 108.7 24.3213 101.452 24.3213Z" fill="url(#paint23_linear_386_14575)"/>
<g style="mix-blend-mode:multiply">
<path d="M74.3125 51.8091C74.3117 55.5062 75.4073 59.1205 77.4607 62.1949C79.5141 65.2693 82.4332 67.6657 85.8486 69.0811C89.2641 70.4965 93.0225 70.8672 96.6487 70.1464C100.275 69.4256 103.606 67.6457 106.22 65.0317C108.835 62.4178 110.615 59.0872 111.337 55.4612C112.059 51.8352 111.689 48.0766 110.274 44.6609C108.859 41.2452 106.464 38.3256 103.39 36.2715C100.316 34.2175 96.7016 33.1211 93.0045 33.1211C88.0478 33.1211 83.294 35.0899 79.7887 38.5944C76.2834 42.099 74.3136 46.8524 74.3125 51.8091Z" fill="url(#paint24_radial_386_14575)"/>
</g>
<path d="M71.9473 48.2612C71.9465 51.9585 73.0422 55.573 75.0958 58.6475C77.1494 61.722 80.0686 64.1184 83.4843 65.5336C86.9 66.9489 90.6586 67.3194 94.2849 66.5983C97.9112 65.8772 101.242 64.0968 103.856 61.4825C106.471 58.8681 108.251 55.5372 108.972 51.9109C109.693 48.2846 109.323 44.526 107.908 41.1103C106.492 37.6946 104.096 34.7753 101.021 32.7217C97.947 30.6681 94.3325 29.5725 90.6353 29.5732C85.6792 29.5743 80.9265 31.5435 77.422 35.048C73.9176 38.5524 71.9483 43.3052 71.9473 48.2612Z" fill="url(#paint25_linear_386_14575)"/>
<path d="M103.565 48.8175C103.571 49.6958 103.348 50.5605 102.917 51.3256C102.508 52.0695 101.903 52.6878 101.169 53.1136C101.194 53.3246 101.204 53.5371 101.201 53.7495C101.213 54.3923 101.099 55.0312 100.864 55.6297C100.629 56.2282 100.279 56.7746 99.8326 57.2375C99.4152 57.6967 98.9054 58.0624 98.3367 58.3105C97.7679 58.5587 97.1531 58.6838 96.5326 58.6776C95.9679 58.6806 95.4081 58.5733 94.8846 58.3615C94.494 59.1731 93.8915 59.8641 93.1406 60.3615C92.4088 60.8679 91.5385 61.1361 90.6486 61.1295C89.7555 61.1407 88.8803 60.8783 88.1406 60.3776C87.3908 59.8823 86.7917 59.1904 86.4086 58.3776C85.8867 58.5897 85.328 58.697 84.7646 58.6935C84.1417 58.7005 83.5243 58.5759 82.9528 58.3277C82.3814 58.0796 81.8688 57.7135 81.4486 57.2535C80.9977 56.7933 80.6431 56.2478 80.4055 55.6489C80.1678 55.05 80.052 54.4097 80.0646 53.7655C80.0704 53.5526 80.0891 53.3402 80.1206 53.1295C79.3873 52.7035 78.7843 52.0853 78.3766 51.3415C77.939 50.5521 77.7157 49.6619 77.7291 48.7594C77.7424 47.8569 77.9919 46.9737 78.4526 46.1975C78.9034 45.4257 79.5768 44.8081 80.3846 44.4255C80.1763 43.8717 80.068 43.2853 80.0646 42.6935C80.0522 42.0494 80.1682 41.4092 80.4058 40.8103C80.6434 40.2115 80.9979 39.6659 81.4486 39.2055C81.8701 38.7472 82.3829 38.3822 82.9541 38.1342C83.5252 37.8861 84.142 37.7606 84.7646 37.7655C85.328 37.7625 85.8866 37.8698 86.4086 38.0815C86.8008 37.2698 87.4047 36.5789 88.1566 36.0815C88.8918 35.5823 89.76 35.3154 90.6486 35.3154C91.5373 35.3154 92.4054 35.5823 93.1406 36.0815C93.8914 36.5791 94.4939 37.2701 94.8846 38.0815C95.4077 37.8681 95.9676 37.7594 96.5326 37.7615C97.1534 37.7558 97.7684 37.8815 98.3372 38.1304C98.9059 38.3793 99.4156 38.7457 99.8326 39.2055C100.279 39.6684 100.629 40.2147 100.864 40.8133C101.099 41.4118 101.213 42.0508 101.201 42.6935C101.208 43.2834 101.111 43.8699 100.913 44.4255C101.72 44.8064 102.394 45.4227 102.845 46.1935C103.323 46.992 103.572 47.9068 103.565 48.8375V48.8175ZM90.1006 52.6896L95.4366 44.6895C95.569 44.4878 95.6165 44.242 95.5687 44.0055C95.5464 43.8873 95.4992 43.7751 95.4302 43.6765C95.3613 43.5779 95.2721 43.495 95.1687 43.4335C94.9651 43.3018 94.7203 43.2491 94.4806 43.2855C94.359 43.3034 94.2423 43.3459 94.1377 43.4106C94.0331 43.4753 93.9429 43.5607 93.8727 43.6615L89.1766 50.7255L87.0086 48.5655C86.9247 48.4754 86.8223 48.4044 86.7084 48.3575C86.5944 48.3105 86.4717 48.2887 86.3486 48.2935C86.1032 48.3025 85.8691 48.3989 85.6886 48.5655C85.6031 48.6507 85.5359 48.7525 85.4911 48.8646C85.4464 48.9768 85.4252 49.0969 85.4286 49.2175C85.4263 49.3381 85.4481 49.4578 85.4928 49.5698C85.5374 49.6818 85.604 49.7837 85.6886 49.8695L88.6606 52.8415L88.8086 52.9575C88.9615 53.0628 89.143 53.1186 89.3286 53.1175C89.4854 53.1233 89.6406 53.0843 89.776 53.0049C89.9113 52.9256 90.0211 52.8092 90.0926 52.6695L90.1006 52.6896Z" fill="url(#paint26_linear_386_14575)"/>
</g>
<path d="M154.718 104.046H26.4283C23.9041 104.046 21.8594 105.644 21.8594 107.612V158.868C21.8594 156.901 23.9041 155.308 26.4283 155.308H154.718C157.242 155.308 159.287 156.901 159.287 158.868V107.612C159.287 105.644 157.242 104.046 154.718 104.046Z" fill="url(#paint27_linear_386_14575)"/>
<path d="M154.718 152.694H26.4283C23.9041 152.694 21.8594 154.287 21.8594 156.255V158.889C21.8594 156.922 23.9041 155.329 26.4283 155.329H154.718C157.242 155.329 159.287 156.922 159.287 158.889V156.255C159.287 154.293 157.242 152.694 154.718 152.694Z" fill="url(#paint28_linear_386_14575)"/>
<path d="M154.718 104.046H26.4283C23.9041 104.046 21.8594 105.644 21.8594 107.612V110.246C21.8594 108.279 23.9041 106.686 26.4283 106.686H154.718C157.242 106.686 159.287 108.279 159.287 110.246V107.612C159.287 105.644 157.242 104.046 154.718 104.046Z" fill="url(#paint29_linear_386_14575)"/>
<path d="M49.179 115.564V124.967H47.4043V115.564H49.179Z" fill="#3D5281"/>
<path d="M52.872 115.564V124.966H51.0918V115.564H52.872ZM53.9026 124.966H51.8744V123.572H53.8916C54.3767 123.589 54.8559 123.462 55.2695 123.208C55.6491 122.951 55.9413 122.583 56.1072 122.156C56.3085 121.628 56.4058 121.067 56.3938 120.502V120.017C56.4006 119.574 56.3449 119.133 56.2285 118.705C56.1373 118.358 55.976 118.034 55.7545 117.752C55.5485 117.496 55.2838 117.294 54.9829 117.162C54.6494 117.024 54.291 116.957 53.9302 116.964H51.8248V115.564H53.9302C54.5183 115.556 55.1023 115.663 55.6498 115.878C56.1603 116.08 56.621 116.39 57.0001 116.787C57.3908 117.19 57.6914 117.671 57.8819 118.198C58.0921 118.787 58.1948 119.409 58.185 120.034V120.502C58.1944 121.125 58.0917 121.745 57.8819 122.332C57.6926 122.86 57.3919 123.341 57.0001 123.743C56.6188 124.139 56.1562 124.447 55.6442 124.647C55.0899 124.865 54.4984 124.974 53.9026 124.966Z" fill="#3D5281"/>
<path d="M70.3323 120.122V123.788C70.1446 124.001 69.9274 124.186 69.6875 124.339C69.3322 124.581 68.9418 124.766 68.5301 124.89C67.9639 125.05 67.3768 125.124 66.7885 125.11C66.2233 125.119 65.6618 125.018 65.135 124.813C64.6489 124.617 64.2123 124.316 63.8564 123.931C63.4837 123.52 63.202 123.036 63.0297 122.509C62.8286 121.89 62.7317 121.242 62.7431 120.591V119.957C62.7321 119.306 62.8233 118.657 63.0131 118.034C63.1779 117.513 63.4459 117.031 63.8013 116.617C64.1409 116.223 64.5673 115.914 65.0469 115.713C65.5591 115.504 66.1085 115.401 66.6617 115.41C67.3379 115.385 68.0104 115.521 68.6238 115.807C69.1179 116.051 69.5299 116.434 69.8087 116.909C70.0937 117.391 70.2705 117.929 70.3268 118.486H68.5962C68.5572 118.184 68.4618 117.892 68.3151 117.626C68.1709 117.379 67.9611 117.177 67.7089 117.042C67.3947 116.891 67.0485 116.819 66.7003 116.832C66.3792 116.826 66.0614 116.898 65.7744 117.042C65.5039 117.183 65.2728 117.389 65.102 117.642C64.9059 117.939 64.7675 118.27 64.6941 118.618C64.5962 119.054 64.5499 119.499 64.5563 119.946V120.58C64.5495 121.031 64.6014 121.481 64.7107 121.919C64.7952 122.272 64.9468 122.605 65.1571 122.9C65.3461 123.16 65.5985 123.367 65.8901 123.501C66.1994 123.642 66.5366 123.712 66.8767 123.705C67.1585 123.712 67.4402 123.682 67.7144 123.617C67.9079 123.576 68.0939 123.505 68.2656 123.407C68.378 123.342 68.4817 123.262 68.5742 123.17V121.407H66.7058V120.122H70.3323Z" fill="#3D5281"/>
<path d="M71.5823 121.545V121.407C71.5772 120.926 71.6498 120.448 71.7972 119.99C71.9387 119.586 72.1557 119.212 72.4365 118.888C72.7231 118.569 73.0745 118.316 73.4672 118.144C73.905 117.961 74.3761 117.871 74.8506 117.879C75.3286 117.871 75.8033 117.961 76.245 118.144C76.6377 118.316 76.9891 118.569 77.2756 118.888C77.5603 119.209 77.7777 119.584 77.9149 119.99C78.0669 120.447 78.1414 120.926 78.1354 121.407V121.545C78.1406 122.024 78.066 122.501 77.9149 122.956C77.7798 123.371 77.5624 123.755 77.2756 124.085C76.993 124.406 76.643 124.66 76.2505 124.829C75.8106 125.012 75.3378 125.102 74.8616 125.094C74.3854 125.102 73.9126 125.012 73.4727 124.829C73.0761 124.662 72.722 124.408 72.4365 124.085C72.1538 123.753 71.9368 123.369 71.7972 122.956C71.6507 122.5 71.5781 122.023 71.5823 121.545ZM73.2853 121.407V121.545C73.2829 121.834 73.3125 122.122 73.3735 122.404C73.4263 122.652 73.5214 122.889 73.6546 123.104C73.7724 123.303 73.9394 123.468 74.1396 123.584C74.362 123.701 74.6104 123.76 74.8616 123.755C75.1093 123.76 75.3541 123.701 75.5726 123.584C75.7714 123.467 75.9381 123.302 76.0576 123.104C76.1908 122.889 76.2859 122.652 76.3387 122.404C76.4016 122.122 76.433 121.834 76.4323 121.545V121.407C76.433 121.121 76.4016 120.837 76.3387 120.558C76.2846 120.309 76.1896 120.071 76.0576 119.853C75.9363 119.653 75.7679 119.487 75.5671 119.368C75.3481 119.246 75.1008 119.185 74.8506 119.191C74.6021 119.185 74.3565 119.246 74.1396 119.368C73.9405 119.487 73.7739 119.653 73.6546 119.853C73.5225 120.071 73.4275 120.309 73.3735 120.558C73.3125 120.837 73.2829 121.121 73.2853 121.407Z" fill="#3D5281"/>
<path d="M80.4006 117.979L82.054 123.688L82.1146 124.967H81.0124L78.6094 117.979H80.4006ZM81.5911 123.677L83.2445 117.979H85.0302L82.6327 124.967H81.5304L81.5911 123.677Z" fill="#3D5281"/>
<path d="M88.9546 125.083C88.4662 125.093 87.9808 125.005 87.5271 124.824C87.1209 124.666 86.7542 124.422 86.4524 124.108C86.1513 123.792 85.9203 123.416 85.7744 123.005C85.6134 122.581 85.5331 122.131 85.5375 121.677V121.418C85.5312 120.92 85.6095 120.424 85.7689 119.952C85.9114 119.531 86.1362 119.144 86.4303 118.811C86.7121 118.493 87.0602 118.241 87.4499 118.073C87.8651 117.899 88.3116 117.812 88.7617 117.819C89.2113 117.81 89.6579 117.895 90.0734 118.067C90.4394 118.224 90.764 118.463 91.0213 118.767C91.2798 119.092 91.4675 119.467 91.5725 119.869C91.7077 120.321 91.7728 120.792 91.7654 121.264V121.98H86.2925V120.801H90.123V120.674C90.116 120.419 90.0637 120.167 89.9686 119.93C89.8771 119.708 89.7241 119.517 89.5277 119.379C89.2964 119.236 89.0279 119.165 88.7561 119.175C88.5248 119.169 88.2962 119.226 88.0948 119.34C87.9028 119.454 87.7434 119.615 87.6318 119.809C87.5011 120.029 87.4079 120.269 87.3562 120.52C87.2939 120.82 87.2644 121.127 87.2681 121.434V121.694C87.2655 121.97 87.3046 122.245 87.3838 122.509C87.4584 122.748 87.5802 122.969 87.742 123.16C87.8925 123.34 88.0806 123.485 88.2932 123.584C88.5328 123.689 88.7921 123.742 89.0538 123.738C89.3886 123.741 89.72 123.67 90.0238 123.529C90.3215 123.38 90.5815 123.165 90.7844 122.901L91.6441 123.793C91.4769 124.029 91.2764 124.238 91.0489 124.416C90.7806 124.625 90.4787 124.788 90.156 124.896C89.7688 125.025 89.3627 125.088 88.9546 125.083Z" fill="#3D5281"/>
<path d="M94.6366 119.405V124.966H92.9336V117.978H94.5319L94.6366 119.405ZM96.764 117.934V119.521L96.4444 119.483C96.3286 119.483 96.2129 119.483 96.1137 119.483C95.8779 119.477 95.643 119.513 95.4193 119.587C95.2331 119.649 95.0647 119.755 94.9287 119.896C94.7935 120.034 94.6901 120.199 94.6256 120.381C94.5562 120.591 94.5173 120.81 94.5099 121.031L94.1406 120.987C94.1364 120.572 94.1826 120.157 94.2784 119.753C94.3562 119.402 94.4882 119.065 94.6697 118.755C94.8322 118.487 95.0548 118.261 95.3201 118.094C95.5946 117.935 95.9072 117.855 96.2239 117.862C96.3248 117.855 96.4262 117.855 96.5271 117.862C96.6081 117.87 96.6878 117.889 96.764 117.917V117.934Z" fill="#3D5281"/>
<path d="M99.3671 119.472V124.984H97.6641V117.979H99.2624L99.3671 119.472ZM99.0971 121.219H98.59C98.5904 120.75 98.661 120.284 98.7994 119.836C98.9147 119.45 99.1017 119.089 99.3506 118.772C99.5871 118.483 99.8844 118.25 100.221 118.089C100.567 117.93 100.943 117.849 101.324 117.852C101.632 117.847 101.94 117.893 102.233 117.99C102.499 118.082 102.74 118.237 102.933 118.442C103.143 118.674 103.298 118.951 103.385 119.252C103.5 119.653 103.554 120.069 103.545 120.486V124.967H101.825V120.47C101.838 120.211 101.79 119.953 101.687 119.715C101.604 119.541 101.461 119.402 101.285 119.324C101.082 119.24 100.865 119.201 100.646 119.208C100.407 119.201 100.17 119.254 99.9568 119.362C99.7619 119.467 99.594 119.616 99.4663 119.797C99.3315 119.993 99.2292 120.209 99.1632 120.437C99.1059 120.695 99.0837 120.96 99.0971 121.225V121.219Z" fill="#3D5281"/>
<path d="M106.779 119.411V124.966H105.076V117.978H106.686L106.779 119.411ZM106.531 121.219H106.008C106.002 120.764 106.061 120.311 106.184 119.874C106.298 119.487 106.485 119.126 106.735 118.81C106.965 118.51 107.261 118.266 107.6 118.099C107.973 117.927 108.38 117.842 108.791 117.851C109.085 117.847 109.378 117.894 109.656 117.989C109.915 118.077 110.149 118.224 110.34 118.419C110.54 118.638 110.69 118.897 110.78 119.179C110.889 119.537 110.941 119.909 110.935 120.282V124.944H109.232V120.453C109.242 120.19 109.195 119.929 109.094 119.687C109.012 119.511 108.869 119.372 108.692 119.295C108.496 119.215 108.286 119.177 108.074 119.185C107.835 119.178 107.599 119.231 107.385 119.339C107.196 119.444 107.035 119.593 106.917 119.775C106.789 119.97 106.696 120.187 106.641 120.414C106.573 120.679 106.536 120.951 106.531 121.224V121.219ZM110.78 120.905L110.075 121.031C110.078 120.613 110.139 120.198 110.257 119.797C110.364 119.43 110.537 119.086 110.769 118.783C110.994 118.493 111.283 118.259 111.613 118.099C111.98 117.928 112.382 117.843 112.787 117.851C113.103 117.845 113.418 117.894 113.718 117.995C113.991 118.085 114.238 118.242 114.435 118.452C114.645 118.685 114.801 118.962 114.892 119.262C115.004 119.656 115.056 120.065 115.046 120.475V124.966H113.332V120.469C113.345 120.201 113.296 119.933 113.189 119.687C113.109 119.516 112.967 119.382 112.792 119.312C112.599 119.237 112.393 119.202 112.186 119.207C111.973 119.202 111.761 119.247 111.569 119.339C111.398 119.426 111.249 119.55 111.133 119.703C111.009 119.868 110.917 120.055 110.863 120.254C110.808 120.466 110.78 120.685 110.78 120.905Z" fill="#3D5281"/>
<path d="M119.709 125.083C119.22 125.092 118.735 125.004 118.281 124.824C117.867 124.667 117.491 124.423 117.179 124.108C116.882 123.789 116.651 123.414 116.501 123.005C116.343 122.58 116.262 122.13 116.264 121.677V121.418C116.257 120.919 116.337 120.423 116.501 119.952C116.644 119.533 116.866 119.145 117.157 118.811C117.44 118.495 117.788 118.243 118.177 118.073C118.592 117.899 119.038 117.812 119.488 117.819C119.938 117.81 120.385 117.895 120.8 118.067C121.167 118.222 121.492 118.462 121.748 118.767C122.014 119.091 122.211 119.466 122.327 119.869C122.459 120.322 122.524 120.792 122.52 121.264V121.98H117.041V120.801H120.839V120.674C120.834 120.418 120.782 120.166 120.684 119.93C120.595 119.707 120.441 119.515 120.243 119.379C120.014 119.236 119.747 119.165 119.477 119.175C119.246 119.169 119.017 119.226 118.816 119.34C118.624 119.455 118.463 119.616 118.347 119.809C118.219 120.029 118.127 120.269 118.077 120.52C118.013 120.82 117.982 121.127 117.984 121.434V121.694C117.98 121.97 118.021 122.246 118.105 122.509C118.178 122.748 118.298 122.969 118.458 123.16C118.609 123.339 118.797 123.483 119.009 123.584C119.249 123.688 119.508 123.74 119.769 123.738C120.104 123.743 120.436 123.671 120.739 123.529C121.037 123.38 121.297 123.165 121.5 122.901L122.36 123.793C122.195 124.029 121.996 124.238 121.77 124.416C121.502 124.625 121.2 124.788 120.877 124.896C120.5 125.02 120.106 125.083 119.709 125.083Z" fill="#3D5281"/>
<path d="M125.363 119.472V124.984H123.654V117.979H125.258L125.363 119.472ZM125.093 121.219H124.586C124.583 120.75 124.654 120.284 124.795 119.836C124.91 119.45 125.097 119.089 125.346 118.772C125.581 118.482 125.879 118.248 126.217 118.089C126.563 117.93 126.939 117.849 127.319 117.852C127.628 117.847 127.936 117.893 128.229 117.99C128.495 118.082 128.735 118.237 128.929 118.442C129.139 118.674 129.294 118.951 129.381 119.252C129.495 119.653 129.549 120.069 129.541 120.486V124.967H127.821V120.47C127.833 120.211 127.786 119.953 127.683 119.715C127.6 119.541 127.457 119.402 127.281 119.324C127.078 119.24 126.86 119.201 126.641 119.208C126.403 119.201 126.166 119.254 125.953 119.362C125.758 119.467 125.59 119.616 125.462 119.797C125.327 119.993 125.225 120.209 125.159 120.437C125.102 120.695 125.079 120.96 125.093 121.225V121.219Z" fill="#3D5281"/>
<path d="M134.386 117.979V119.208H130.357V117.979H134.386ZM131.46 116.265H133.168V122.956C133.158 123.12 133.189 123.285 133.256 123.435C133.281 123.487 133.315 123.534 133.358 123.573C133.4 123.612 133.45 123.642 133.504 123.661C133.634 123.703 133.77 123.723 133.907 123.722C134.01 123.728 134.113 123.728 134.215 123.722L134.458 123.683V124.962C134.3 125.015 134.138 125.054 133.973 125.077C133.774 125.11 133.573 125.125 133.372 125.122C133.026 125.128 132.683 125.063 132.364 124.929C132.075 124.795 131.839 124.57 131.691 124.289C131.517 123.923 131.436 123.52 131.454 123.115L131.46 116.265Z" fill="#3D5281"/>
<path d="M49.179 115.564V124.967H47.4043V115.564H49.179Z" fill="#3D5281"/>
<path d="M52.872 115.564V124.966H51.0918V115.564H52.872ZM53.9026 124.966H51.8744V123.572H53.8916C54.3767 123.589 54.8559 123.462 55.2695 123.208C55.6491 122.951 55.9413 122.583 56.1072 122.156C56.3085 121.628 56.4058 121.067 56.3938 120.502V120.017C56.4006 119.574 56.3449 119.133 56.2285 118.705C56.1373 118.358 55.976 118.034 55.7545 117.752C55.5485 117.496 55.2838 117.294 54.9829 117.162C54.6494 117.024 54.291 116.957 53.9302 116.964H51.8248V115.564H53.9302C54.5183 115.556 55.1023 115.663 55.6498 115.878C56.1603 116.08 56.621 116.39 57.0001 116.787C57.3908 117.19 57.6914 117.671 57.8819 118.198C58.0921 118.787 58.1948 119.409 58.185 120.034V120.502C58.1944 121.125 58.0917 121.745 57.8819 122.332C57.6926 122.86 57.3919 123.341 57.0001 123.743C56.6188 124.139 56.1562 124.447 55.6442 124.647C55.0899 124.865 54.4984 124.974 53.9026 124.966Z" fill="#3D5281"/>
<path d="M70.3323 120.122V123.788C70.1446 124.001 69.9274 124.186 69.6875 124.339C69.3322 124.581 68.9418 124.766 68.5301 124.89C67.9639 125.05 67.3768 125.124 66.7885 125.11C66.2233 125.119 65.6618 125.018 65.135 124.813C64.6489 124.617 64.2123 124.316 63.8564 123.931C63.4837 123.52 63.202 123.036 63.0297 122.509C62.8286 121.89 62.7317 121.242 62.7431 120.591V119.957C62.7321 119.306 62.8233 118.657 63.0131 118.034C63.1779 117.513 63.4459 117.031 63.8013 116.617C64.1409 116.223 64.5673 115.914 65.0469 115.713C65.5591 115.504 66.1085 115.401 66.6617 115.41C67.3379 115.385 68.0104 115.521 68.6238 115.807C69.1179 116.051 69.5299 116.434 69.8087 116.909C70.0937 117.391 70.2705 117.929 70.3268 118.486H68.5962C68.5572 118.184 68.4618 117.892 68.3151 117.626C68.1709 117.379 67.9611 117.177 67.7089 117.042C67.3947 116.891 67.0485 116.819 66.7003 116.832C66.3792 116.826 66.0614 116.898 65.7744 117.042C65.5039 117.183 65.2728 117.389 65.102 117.642C64.9059 117.939 64.7675 118.27 64.6941 118.618C64.5962 119.054 64.5499 119.499 64.5563 119.946V120.58C64.5495 121.031 64.6014 121.481 64.7107 121.919C64.7952 122.272 64.9468 122.605 65.1571 122.9C65.3461 123.16 65.5985 123.367 65.8901 123.501C66.1994 123.642 66.5366 123.712 66.8767 123.705C67.1585 123.712 67.4402 123.682 67.7144 123.617C67.9079 123.576 68.0939 123.505 68.2656 123.407C68.378 123.342 68.4817 123.262 68.5742 123.17V121.407H66.7058V120.122H70.3323Z" fill="#3D5281"/>
<path d="M71.5823 121.545V121.407C71.5772 120.926 71.6498 120.448 71.7972 119.99C71.9387 119.586 72.1557 119.212 72.4365 118.888C72.7231 118.569 73.0745 118.316 73.4672 118.144C73.905 117.961 74.3761 117.871 74.8506 117.879C75.3286 117.871 75.8033 117.961 76.245 118.144C76.6377 118.316 76.9891 118.569 77.2756 118.888C77.5603 119.209 77.7777 119.584 77.9149 119.99C78.0669 120.447 78.1414 120.926 78.1354 121.407V121.545C78.1406 122.024 78.066 122.501 77.9149 122.956C77.7798 123.371 77.5624 123.755 77.2756 124.085C76.993 124.406 76.643 124.66 76.2505 124.829C75.8106 125.012 75.3378 125.102 74.8616 125.094C74.3854 125.102 73.9126 125.012 73.4727 124.829C73.0761 124.662 72.722 124.408 72.4365 124.085C72.1538 123.753 71.9368 123.369 71.7972 122.956C71.6507 122.5 71.5781 122.023 71.5823 121.545ZM73.2853 121.407V121.545C73.2829 121.834 73.3125 122.122 73.3735 122.404C73.4263 122.652 73.5214 122.889 73.6546 123.104C73.7724 123.303 73.9394 123.468 74.1396 123.584C74.362 123.701 74.6104 123.76 74.8616 123.755C75.1093 123.76 75.3541 123.701 75.5726 123.584C75.7714 123.467 75.9381 123.302 76.0576 123.104C76.1908 122.889 76.2859 122.652 76.3387 122.404C76.4016 122.122 76.433 121.834 76.4323 121.545V121.407C76.433 121.121 76.4016 120.837 76.3387 120.558C76.2846 120.309 76.1896 120.071 76.0576 119.853C75.9363 119.653 75.7679 119.487 75.5671 119.368C75.3481 119.246 75.1008 119.185 74.8506 119.191C74.6021 119.185 74.3565 119.246 74.1396 119.368C73.9405 119.487 73.7739 119.653 73.6546 119.853C73.5225 120.071 73.4275 120.309 73.3735 120.558C73.3125 120.837 73.2829 121.121 73.2853 121.407Z" fill="#3D5281"/>
<path d="M80.4006 117.979L82.054 123.688L82.1146 124.967H81.0124L78.6094 117.979H80.4006ZM81.5911 123.677L83.2445 117.979H85.0302L82.6327 124.967H81.5304L81.5911 123.677Z" fill="#3D5281"/>
<path d="M88.9546 125.083C88.4662 125.093 87.9808 125.005 87.5271 124.824C87.1209 124.666 86.7542 124.422 86.4524 124.108C86.1513 123.792 85.9203 123.416 85.7744 123.005C85.6134 122.581 85.5331 122.131 85.5375 121.677V121.418C85.5312 120.92 85.6095 120.424 85.7689 119.952C85.9114 119.531 86.1362 119.144 86.4303 118.811C86.7121 118.493 87.0602 118.241 87.4499 118.073C87.8651 117.899 88.3116 117.812 88.7617 117.819C89.2113 117.81 89.6579 117.895 90.0734 118.067C90.4394 118.224 90.764 118.463 91.0213 118.767C91.2798 119.092 91.4675 119.467 91.5725 119.869C91.7077 120.321 91.7728 120.792 91.7654 121.264V121.98H86.2925V120.801H90.123V120.674C90.116 120.419 90.0637 120.167 89.9686 119.93C89.8771 119.708 89.7241 119.517 89.5277 119.379C89.2964 119.236 89.0279 119.165 88.7561 119.175C88.5248 119.169 88.2962 119.226 88.0948 119.34C87.9028 119.454 87.7434 119.615 87.6318 119.809C87.5011 120.029 87.4079 120.269 87.3562 120.52C87.2939 120.82 87.2644 121.127 87.2681 121.434V121.694C87.2655 121.97 87.3046 122.245 87.3838 122.509C87.4584 122.748 87.5802 122.969 87.742 123.16C87.8925 123.34 88.0806 123.485 88.2932 123.584C88.5328 123.689 88.7921 123.742 89.0538 123.738C89.3886 123.741 89.72 123.67 90.0238 123.529C90.3215 123.38 90.5815 123.165 90.7844 122.901L91.6441 123.793C91.4769 124.029 91.2764 124.238 91.0489 124.416C90.7806 124.625 90.4787 124.788 90.156 124.896C89.7688 125.025 89.3627 125.088 88.9546 125.083Z" fill="#3D5281"/>
<path d="M94.6366 119.405V124.966H92.9336V117.978H94.5319L94.6366 119.405ZM96.764 117.934V119.521L96.4444 119.483C96.3286 119.483 96.2129 119.483 96.1137 119.483C95.8779 119.477 95.643 119.513 95.4193 119.587C95.2331 119.649 95.0647 119.755 94.9287 119.896C94.7935 120.034 94.6901 120.199 94.6256 120.381C94.5562 120.591 94.5173 120.81 94.5099 121.031L94.1406 120.987C94.1364 120.572 94.1826 120.157 94.2784 119.753C94.3562 119.402 94.4882 119.065 94.6697 118.755C94.8322 118.487 95.0548 118.261 95.3201 118.094C95.5946 117.935 95.9072 117.855 96.2239 117.862C96.3248 117.855 96.4262 117.855 96.5271 117.862C96.6081 117.87 96.6878 117.889 96.764 117.917V117.934Z" fill="#3D5281"/>
<path d="M99.3671 119.472V124.984H97.6641V117.979H99.2624L99.3671 119.472ZM99.0971 121.219H98.59C98.5904 120.75 98.661 120.284 98.7994 119.836C98.9147 119.45 99.1017 119.089 99.3506 118.772C99.5871 118.483 99.8844 118.25 100.221 118.089C100.567 117.93 100.943 117.849 101.324 117.852C101.632 117.847 101.94 117.893 102.233 117.99C102.499 118.082 102.74 118.237 102.933 118.442C103.143 118.674 103.298 118.951 103.385 119.252C103.5 119.653 103.554 120.069 103.545 120.486V124.967H101.825V120.47C101.838 120.211 101.79 119.953 101.687 119.715C101.604 119.541 101.461 119.402 101.285 119.324C101.082 119.24 100.865 119.201 100.646 119.208C100.407 119.201 100.17 119.254 99.9568 119.362C99.7619 119.467 99.594 119.616 99.4663 119.797C99.3315 119.993 99.2292 120.209 99.1632 120.437C99.1059 120.695 99.0837 120.96 99.0971 121.225V121.219Z" fill="#3D5281"/>
<path d="M106.779 119.411V124.966H105.076V117.978H106.686L106.779 119.411ZM106.531 121.219H106.008C106.002 120.764 106.061 120.311 106.184 119.874C106.298 119.487 106.485 119.126 106.735 118.81C106.965 118.51 107.261 118.266 107.6 118.099C107.973 117.927 108.38 117.842 108.791 117.851C109.085 117.847 109.378 117.894 109.656 117.989C109.915 118.077 110.149 118.224 110.34 118.419C110.54 118.638 110.69 118.897 110.78 119.179C110.889 119.537 110.941 119.909 110.935 120.282V124.944H109.232V120.453C109.242 120.19 109.195 119.929 109.094 119.687C109.012 119.511 108.869 119.372 108.692 119.295C108.496 119.215 108.286 119.177 108.074 119.185C107.835 119.178 107.599 119.231 107.385 119.339C107.196 119.444 107.035 119.593 106.917 119.775C106.789 119.97 106.696 120.187 106.641 120.414C106.573 120.679 106.536 120.951 106.531 121.224V121.219ZM110.78 120.905L110.075 121.031C110.078 120.613 110.139 120.198 110.257 119.797C110.364 119.43 110.537 119.086 110.769 118.783C110.994 118.493 111.283 118.259 111.613 118.099C111.98 117.928 112.382 117.843 112.787 117.851C113.103 117.845 113.418 117.894 113.718 117.995C113.991 118.085 114.238 118.242 114.435 118.452C114.645 118.685 114.801 118.962 114.892 119.262C115.004 119.656 115.056 120.065 115.046 120.475V124.966H113.332V120.469C113.345 120.201 113.296 119.933 113.189 119.687C113.109 119.516 112.967 119.382 112.792 119.312C112.599 119.237 112.393 119.202 112.186 119.207C111.973 119.202 111.761 119.247 111.569 119.339C111.398 119.426 111.249 119.55 111.133 119.703C111.009 119.868 110.917 120.055 110.863 120.254C110.808 120.466 110.78 120.685 110.78 120.905Z" fill="#3D5281"/>
<path d="M119.709 125.083C119.22 125.092 118.735 125.004 118.281 124.824C117.867 124.667 117.491 124.423 117.179 124.108C116.882 123.789 116.651 123.414 116.501 123.005C116.343 122.58 116.262 122.13 116.264 121.677V121.418C116.257 120.919 116.337 120.423 116.501 119.952C116.644 119.533 116.866 119.145 117.157 118.811C117.44 118.495 117.788 118.243 118.177 118.073C118.592 117.899 119.038 117.812 119.488 117.819C119.938 117.81 120.385 117.895 120.8 118.067C121.167 118.222 121.492 118.462 121.748 118.767C122.014 119.091 122.211 119.466 122.327 119.869C122.459 120.322 122.524 120.792 122.52 121.264V121.98H117.041V120.801H120.839V120.674C120.834 120.418 120.782 120.166 120.684 119.93C120.595 119.707 120.441 119.515 120.243 119.379C120.014 119.236 119.747 119.165 119.477 119.175C119.246 119.169 119.017 119.226 118.816 119.34C118.624 119.455 118.463 119.616 118.347 119.809C118.219 120.029 118.127 120.269 118.077 120.52C118.013 120.82 117.982 121.127 117.984 121.434V121.694C117.98 121.97 118.021 122.246 118.105 122.509C118.178 122.748 118.298 122.969 118.458 123.16C118.609 123.339 118.797 123.483 119.009 123.584C119.249 123.688 119.508 123.74 119.769 123.738C120.104 123.743 120.436 123.671 120.739 123.529C121.037 123.38 121.297 123.165 121.5 122.901L122.36 123.793C122.195 124.029 121.996 124.238 121.77 124.416C121.502 124.625 121.2 124.788 120.877 124.896C120.5 125.02 120.106 125.083 119.709 125.083Z" fill="#3D5281"/>
<path d="M125.363 119.472V124.984H123.654V117.979H125.258L125.363 119.472ZM125.093 121.219H124.586C124.583 120.75 124.654 120.284 124.795 119.836C124.91 119.45 125.097 119.089 125.346 118.772C125.581 118.482 125.879 118.248 126.217 118.089C126.563 117.93 126.939 117.849 127.319 117.852C127.628 117.847 127.936 117.893 128.229 117.99C128.495 118.082 128.735 118.237 128.929 118.442C129.139 118.674 129.294 118.951 129.381 119.252C129.495 119.653 129.549 120.069 129.541 120.486V124.967H127.821V120.47C127.833 120.211 127.786 119.953 127.683 119.715C127.6 119.541 127.457 119.402 127.281 119.324C127.078 119.24 126.86 119.201 126.641 119.208C126.403 119.201 126.166 119.254 125.953 119.362C125.758 119.467 125.59 119.616 125.462 119.797C125.327 119.993 125.225 120.209 125.159 120.437C125.102 120.695 125.079 120.96 125.093 121.225V121.219Z" fill="#3D5281"/>
<path d="M134.386 117.979V119.208H130.357V117.979H134.386ZM131.46 116.265H133.168V122.956C133.158 123.12 133.189 123.285 133.256 123.435C133.281 123.487 133.315 123.534 133.358 123.573C133.4 123.612 133.45 123.642 133.504 123.661C133.634 123.703 133.77 123.723 133.907 123.722C134.01 123.728 134.113 123.728 134.215 123.722L134.458 123.683V124.962C134.3 125.015 134.138 125.054 133.973 125.077C133.774 125.11 133.573 125.125 133.372 125.122C133.026 125.128 132.683 125.063 132.364 124.929C132.075 124.795 131.839 124.57 131.691 124.289C131.517 123.923 131.436 123.52 131.454 123.115L131.46 116.265Z" fill="#3D5281"/>
<path d="M45.7667 133.35C45.7639 133.232 45.786 133.114 45.8315 133.005C45.8771 132.896 45.9451 132.797 46.0312 132.716C46.1267 132.631 46.2382 132.565 46.3593 132.522C46.4803 132.479 46.6086 132.461 46.7367 132.468C46.8648 132.461 46.9931 132.479 47.1142 132.522C47.2352 132.565 47.3467 132.631 47.4422 132.716C47.5243 132.799 47.5883 132.899 47.63 133.008C47.6718 133.117 47.6904 133.233 47.6847 133.35C47.6878 133.468 47.6658 133.584 47.6202 133.693C47.5746 133.801 47.5064 133.899 47.4201 133.978C47.3251 134.065 47.2138 134.132 47.0927 134.176C46.9717 134.219 46.8432 134.238 46.7147 134.232C46.5862 134.238 46.4577 134.219 46.3366 134.176C46.2155 134.132 46.1043 134.065 46.0092 133.978C45.927 133.897 45.8628 133.798 45.8211 133.69C45.7793 133.582 45.7608 133.466 45.7667 133.35ZM47.5965 135.18V142.168H45.8824V135.174L47.5965 135.18Z" fill="#3D5281"/>
<path d="M53.0638 140.25C53.066 140.111 53.0256 139.974 52.9481 139.859C52.8373 139.712 52.6859 139.601 52.5127 139.539C52.2137 139.412 51.9012 139.32 51.5813 139.263C51.24 139.191 50.9047 139.094 50.5782 138.971C50.2971 138.867 50.0318 138.724 49.7901 138.547C49.5783 138.392 49.4032 138.193 49.2775 137.963C49.1526 137.719 49.09 137.448 49.0956 137.175C49.0934 136.892 49.1576 136.612 49.283 136.359C49.4138 136.095 49.6021 135.863 49.8342 135.681C50.0898 135.472 50.3837 135.315 50.6994 135.218C51.0714 135.098 51.4606 135.041 51.8513 135.047C52.3766 135.033 52.8989 135.131 53.3835 135.334C53.7804 135.503 54.1221 135.78 54.3701 136.133C54.5971 136.47 54.7163 136.868 54.7118 137.274H53.0032C53.0062 137.097 52.9645 136.923 52.882 136.767C52.789 136.613 52.6555 136.487 52.4962 136.403C52.2942 136.304 52.0707 136.256 51.8458 136.265C51.6394 136.259 51.4342 136.298 51.2451 136.381C51.0992 136.448 50.9737 136.553 50.8813 136.684C50.8007 136.807 50.7585 136.951 50.7601 137.097C50.7584 137.202 50.781 137.306 50.8262 137.401C50.8809 137.497 50.9562 137.58 51.0466 137.643C51.1789 137.727 51.3215 137.794 51.471 137.842C51.6529 137.902 51.8734 137.957 52.1324 138.018C52.6019 138.102 53.0603 138.239 53.4992 138.426C53.8547 138.571 54.1689 138.802 54.4142 139.098C54.6502 139.415 54.7672 139.806 54.7448 140.2C54.7493 140.496 54.6792 140.788 54.5409 141.049C54.4109 141.311 54.2223 141.539 53.9898 141.716C53.7162 141.919 53.4081 142.07 53.0804 142.162C52.6911 142.271 52.2884 142.323 51.8844 142.317C51.323 142.334 50.7656 142.217 50.2585 141.975C49.8492 141.777 49.5008 141.473 49.2499 141.093C49.0293 140.768 48.9104 140.384 48.9082 139.991H50.5616C50.5628 140.228 50.6401 140.458 50.7821 140.647C50.9155 140.809 51.0909 140.931 51.2891 141C51.499 141.069 51.7185 141.104 51.9395 141.104C52.1608 141.109 52.3811 141.073 52.5899 141C52.7477 140.94 52.8866 140.839 52.9922 140.707C53.0669 140.567 53.0921 140.406 53.0638 140.25Z" fill="#3D5281"/>
<path d="M59.8649 140.25C59.8671 140.111 59.8267 139.974 59.7492 139.859C59.6384 139.712 59.487 139.601 59.3138 139.539C59.0144 139.413 58.702 139.321 58.3824 139.263C58.0411 139.191 57.7059 139.094 57.3793 138.971C57.0982 138.867 56.8329 138.724 56.5911 138.547C56.3793 138.392 56.2043 138.193 56.0786 137.963C55.9536 137.719 55.8912 137.448 55.8967 137.175C55.8945 136.892 55.9587 136.612 56.0841 136.359C56.2148 136.095 56.4032 135.863 56.6352 135.681C56.8909 135.472 57.1848 135.315 57.5005 135.218C57.8726 135.098 58.2617 135.041 58.6524 135.047C59.1777 135.033 59.6999 135.131 60.1846 135.334C60.5815 135.503 60.9232 135.78 61.1711 136.133C61.3982 136.47 61.5174 136.868 61.5129 137.274H59.8098C59.8128 137.097 59.7711 136.923 59.6886 136.767C59.5956 136.613 59.4622 136.487 59.3028 136.403C59.1008 136.304 58.8773 136.256 58.6524 136.265C58.4461 136.259 58.2408 136.298 58.0517 136.381C57.9058 136.448 57.7803 136.553 57.6879 136.684C57.6074 136.807 57.5651 136.951 57.5667 137.097C57.565 137.202 57.5876 137.306 57.6328 137.401C57.6875 137.497 57.7628 137.58 57.8533 137.643C57.9855 137.727 58.1282 137.794 58.2776 137.842C58.4595 137.902 58.68 137.957 58.939 138.018C59.4085 138.102 59.867 138.239 60.3059 138.426C60.6614 138.571 60.9756 138.802 61.2208 139.098C61.4568 139.415 61.5739 139.806 61.5514 140.2C61.5559 140.496 61.4858 140.788 61.3475 141.049C61.2175 141.311 61.0289 141.539 60.7964 141.716C60.5228 141.919 60.2147 142.07 59.887 142.162C59.4978 142.271 59.095 142.323 58.691 142.317C58.1296 142.334 57.5722 142.217 57.0652 141.975C56.6558 141.777 56.3074 141.473 56.0566 141.093C55.8359 140.768 55.717 140.384 55.7148 139.991H57.3683C57.3695 140.228 57.4467 140.458 57.5887 140.647C57.7221 140.809 57.8976 140.931 58.0958 141C58.2953 141.052 58.5015 141.074 58.7075 141.066C58.9289 141.07 59.1491 141.035 59.3579 140.961C59.5157 140.901 59.6547 140.801 59.7602 140.669C59.838 140.544 59.8747 140.397 59.8649 140.25Z" fill="#3D5281"/>
<path d="M67.2073 139.055H67.7585C67.7608 139.491 67.7089 139.926 67.6042 140.35C67.5128 140.722 67.3479 141.073 67.1192 141.38C66.9049 141.67 66.623 141.903 66.298 142.058C65.9309 142.23 65.5289 142.313 65.124 142.301C64.8022 142.306 64.4818 142.258 64.176 142.157C63.9001 142.063 63.6494 141.906 63.443 141.7C63.2276 141.468 63.0657 141.191 62.969 140.89C62.8504 140.504 62.7946 140.103 62.8037 139.699V135.186H64.5067V139.71C64.5011 139.908 64.529 140.106 64.5894 140.295C64.6341 140.436 64.7115 140.564 64.8154 140.669C64.9085 140.769 65.0265 140.841 65.1571 140.879C65.2949 140.919 65.4378 140.94 65.5814 140.939C65.9243 140.958 66.2648 140.872 66.557 140.691C66.7965 140.529 66.9765 140.293 67.0695 140.019C67.1731 139.708 67.2198 139.382 67.2073 139.055ZM66.9759 140.515V135.186H68.6899V142.169H67.0806L66.9759 140.515Z" fill="#3D5281"/>
<path d="M73.3473 142.289C72.859 142.298 72.3738 142.21 71.9199 142.03C71.5046 141.874 71.1284 141.63 70.8176 141.314C70.5165 140.998 70.2855 140.622 70.1397 140.211C69.9782 139.787 69.8978 139.337 69.9027 138.883V138.624C69.8965 138.126 69.9747 137.63 70.1342 137.158C70.2766 136.737 70.5015 136.35 70.7955 136.017C71.0773 135.699 71.4254 135.447 71.8152 135.279C72.2303 135.105 72.6768 135.018 73.1269 135.025C73.5765 135.016 74.0232 135.101 74.4386 135.273C74.8055 135.428 75.1304 135.668 75.3866 135.973C75.645 136.298 75.8328 136.674 75.9377 137.075C76.0749 137.527 76.1418 137.997 76.1361 138.47V139.186H70.6578V138.007H74.4551V137.88C74.4482 137.625 74.3959 137.373 74.3008 137.136C74.2112 136.913 74.0578 136.721 73.8599 136.585C73.6307 136.442 73.3638 136.371 73.0938 136.381C72.8606 136.375 72.6302 136.432 72.4269 136.546C72.235 136.66 72.0755 136.821 71.964 137.015C71.8332 137.235 71.7401 137.475 71.6884 137.726C71.6261 138.027 71.5965 138.333 71.6002 138.641V138.9C71.5967 139.176 71.6376 139.452 71.7215 139.715C71.7919 139.954 71.9121 140.176 72.0742 140.366C72.2247 140.546 72.4128 140.691 72.6253 140.79C72.865 140.895 73.1243 140.948 73.3859 140.944C73.7209 140.948 74.0524 140.877 74.3559 140.735C74.6537 140.586 74.9137 140.371 75.1165 140.107L75.9763 140.999C75.8096 141.233 75.6111 141.443 75.3866 141.622C75.1163 141.832 74.8126 141.994 74.4882 142.102C74.1203 142.224 73.7352 142.287 73.3473 142.289Z" fill="#3D5281"/>
<path d="M77.0276 138.751V138.618C77.0227 138.126 77.0839 137.634 77.2095 137.158C77.3254 136.76 77.5121 136.387 77.7607 136.055C77.9895 135.748 78.2854 135.498 78.626 135.322C78.9844 135.148 79.3792 135.061 79.7778 135.069C80.1601 135.059 80.5388 135.144 80.8801 135.317C81.197 135.493 81.4702 135.738 81.6793 136.033C81.9175 136.371 82.1033 136.743 82.2304 137.136C82.3683 137.593 82.4643 138.061 82.517 138.536V138.861C82.4638 139.322 82.3679 139.778 82.2304 140.222C82.1042 140.616 81.9184 140.987 81.6793 141.324C81.4696 141.622 81.1943 141.867 80.8746 142.041C80.533 142.212 80.1545 142.298 79.7723 142.289C79.3743 142.296 78.9806 142.205 78.626 142.024C78.2859 141.848 77.9915 141.595 77.7662 141.286C77.5196 140.953 77.3331 140.58 77.215 140.184C77.0862 139.717 77.0231 139.235 77.0276 138.751ZM78.7417 138.618V138.751C78.7382 139.035 78.7641 139.32 78.8188 139.599C78.8628 139.843 78.9466 140.077 79.0669 140.294C79.1776 140.484 79.3326 140.645 79.5188 140.762C79.7215 140.878 79.9524 140.935 80.1857 140.928C80.479 140.94 80.7692 140.863 81.0179 140.707C81.2402 140.552 81.4156 140.338 81.525 140.09C81.6517 139.811 81.7299 139.513 81.7564 139.208V138.194C81.7421 137.951 81.6977 137.71 81.6242 137.477C81.5581 137.278 81.4573 137.091 81.3265 136.926C81.2003 136.768 81.0403 136.64 80.8581 136.552C80.6503 136.458 80.4243 136.413 80.1967 136.419C79.9626 136.411 79.7312 136.47 79.5298 136.59C79.3398 136.705 79.1838 136.869 79.0779 137.064C78.9518 137.283 78.8642 137.521 78.8188 137.77C78.7647 138.049 78.7389 138.333 78.7417 138.618ZM81.4974 140.674V132.247H83.217V142.168H81.6682L81.4974 140.674Z" fill="#3D5281"/>
<path d="M90.0794 132.76V142.168H88.3047V132.76H90.0794Z" fill="#3D5281"/>
<path d="M93.7724 132.76V142.168H91.9922V132.76H93.7724ZM94.803 142.162H92.7748V140.768H94.792C95.277 140.784 95.756 140.658 96.1698 140.404C96.5495 140.146 96.8417 139.779 97.0076 139.351C97.2089 138.824 97.3062 138.263 97.2942 137.698V137.208C97.301 136.765 97.2453 136.323 97.1289 135.896C97.0377 135.549 96.8764 135.224 96.6548 134.942C96.4489 134.686 96.1842 134.484 95.8833 134.353C95.5498 134.215 95.1914 134.147 94.8306 134.154H92.7252V132.754H94.8306C95.4187 132.747 96.0026 132.853 96.5501 133.068C97.0598 133.272 97.5201 133.582 97.9004 133.978C98.2893 134.382 98.5897 134.862 98.7823 135.389C98.9925 135.977 99.0952 136.599 99.0854 137.224V137.693C99.0948 138.316 98.9921 138.935 98.7823 139.522C98.591 140.05 98.2905 140.53 97.9004 140.933C97.5179 141.329 97.0558 141.639 96.5446 141.843C95.9898 142.06 95.3989 142.17 94.803 142.168V142.162Z" fill="#3D5281"/>
<path d="M104.901 135.174L106.554 140.884L106.615 142.162H105.512L103.109 135.174H104.901ZM106.086 140.873L107.739 135.174H109.519L107.1 142.168H105.997L106.086 140.873Z" fill="#3D5281"/>
<path d="M113.449 142.289C112.961 142.298 112.475 142.21 112.021 142.03C111.607 141.873 111.231 141.629 110.919 141.314C110.622 140.995 110.391 140.62 110.241 140.211C110.082 139.787 110.002 139.336 110.004 138.883V138.624C109.998 138.126 110.076 137.63 110.236 137.158C110.38 136.738 110.605 136.351 110.897 136.017C111.18 135.701 111.528 135.449 111.917 135.279C112.332 135.105 112.778 135.018 113.228 135.025C113.678 135.016 114.125 135.101 114.54 135.273C114.907 135.428 115.232 135.668 115.488 135.973C115.744 136.299 115.932 136.674 116.039 137.075C116.172 137.528 116.237 137.998 116.232 138.47V139.186H110.754V138.007H114.551V137.88C114.544 137.625 114.492 137.373 114.397 137.136C114.307 136.913 114.154 136.721 113.956 136.585C113.727 136.442 113.46 136.371 113.19 136.381C112.958 136.375 112.73 136.432 112.528 136.546C112.335 136.66 112.174 136.821 112.06 137.015C111.929 137.235 111.836 137.475 111.784 137.726C111.722 138.027 111.693 138.333 111.696 138.641V138.9C111.693 139.176 111.734 139.452 111.818 139.715C111.89 139.954 112.01 140.175 112.17 140.366C112.322 140.545 112.51 140.689 112.721 140.79C112.961 140.894 113.22 140.947 113.482 140.944C113.817 140.949 114.149 140.878 114.452 140.735C114.75 140.586 115.01 140.371 115.213 140.107L116.072 140.999C115.907 141.235 115.708 141.444 115.483 141.622C115.213 141.833 114.909 141.995 114.584 142.102C114.218 142.224 113.835 142.287 113.449 142.289Z" fill="#3D5281"/>
<path d="M119.131 136.602V142.168H117.428V135.174H119.043L119.131 136.602ZM121.258 135.13V136.717L120.939 136.679C120.823 136.679 120.713 136.679 120.608 136.679C120.374 136.673 120.141 136.709 119.919 136.784C119.732 136.846 119.562 136.952 119.423 137.092C119.288 137.23 119.184 137.395 119.12 137.577C119.05 137.787 119.011 138.006 119.004 138.228L118.64 138.183C118.637 137.768 118.681 137.354 118.773 136.949C118.852 136.598 118.986 136.261 119.169 135.951C119.328 135.682 119.549 135.456 119.814 135.29C120.089 135.133 120.401 135.053 120.718 135.058C120.821 135.051 120.924 135.051 121.027 135.058C121.107 135.072 121.184 135.096 121.258 135.13Z" fill="#3D5281"/>
<path d="M122.166 133.35C122.163 133.232 122.186 133.114 122.231 133.005C122.277 132.896 122.345 132.797 122.431 132.716C122.526 132.631 122.638 132.565 122.759 132.522C122.88 132.479 123.008 132.461 123.136 132.468C123.264 132.461 123.393 132.479 123.514 132.522C123.635 132.565 123.746 132.631 123.842 132.716C123.928 132.797 123.996 132.896 124.041 133.005C124.087 133.114 124.109 133.232 124.106 133.35C124.109 133.468 124.087 133.584 124.042 133.693C123.996 133.801 123.928 133.899 123.842 133.978C123.747 134.065 123.635 134.132 123.514 134.176C123.393 134.219 123.265 134.238 123.136 134.232C123.008 134.238 122.879 134.219 122.758 134.176C122.637 134.132 122.526 134.065 122.431 133.978C122.345 133.899 122.276 133.801 122.231 133.693C122.185 133.584 122.163 133.468 122.166 133.35ZM123.996 135.18V142.168H122.282V135.174L123.996 135.18Z" fill="#3D5281"/>
<path d="M129.254 135.174V136.403H125.07V135.174H129.254ZM127.859 142.168H126.14V134.529C126.123 134.068 126.227 133.61 126.443 133.201C126.64 132.846 126.942 132.562 127.308 132.385C127.721 132.19 128.174 132.093 128.631 132.104C128.793 132.104 128.955 132.115 129.116 132.137C129.268 132.161 129.419 132.192 129.568 132.231L129.535 133.526C129.448 133.502 129.36 133.487 129.27 133.482C129.164 133.476 129.057 133.476 128.95 133.482C128.745 133.476 128.541 133.517 128.355 133.603C128.196 133.679 128.066 133.805 127.986 133.962C127.898 134.132 127.855 134.321 127.859 134.513V142.168Z" fill="#3D5281"/>
<path d="M131.46 135.174L133.042 140.322L133.323 142.124L132.143 142.339L129.619 135.174H131.46ZM132.386 141.385L134.26 135.174H136.084L133.284 143.221C133.218 143.393 133.135 143.577 133.036 143.772C132.928 143.983 132.791 144.178 132.628 144.35C132.452 144.541 132.238 144.692 132 144.797C131.711 144.92 131.399 144.98 131.085 144.973C130.947 144.974 130.808 144.963 130.672 144.94L130.292 144.857V143.579H130.446H130.595C130.806 143.586 131.017 143.556 131.217 143.491C131.373 143.438 131.51 143.342 131.614 143.215C131.727 143.066 131.813 142.898 131.868 142.719L132.386 141.385Z" fill="#3D5281"/>
<path d="M45.7667 133.35C45.7639 133.232 45.786 133.114 45.8315 133.005C45.8771 132.896 45.9451 132.797 46.0312 132.716C46.1267 132.631 46.2382 132.565 46.3593 132.522C46.4803 132.479 46.6086 132.461 46.7367 132.468C46.8648 132.461 46.9931 132.479 47.1142 132.522C47.2352 132.565 47.3467 132.631 47.4422 132.716C47.5243 132.799 47.5883 132.899 47.63 133.008C47.6718 133.117 47.6904 133.233 47.6847 133.35C47.6878 133.468 47.6658 133.584 47.6202 133.693C47.5746 133.801 47.5064 133.899 47.4201 133.978C47.3251 134.065 47.2138 134.132 47.0927 134.176C46.9717 134.219 46.8432 134.238 46.7147 134.232C46.5862 134.238 46.4577 134.219 46.3366 134.176C46.2155 134.132 46.1043 134.065 46.0092 133.978C45.927 133.897 45.8628 133.798 45.8211 133.69C45.7793 133.582 45.7608 133.466 45.7667 133.35ZM47.5965 135.18V142.168H45.8824V135.174L47.5965 135.18Z" fill="#3D5281"/>
<path d="M53.0638 140.25C53.066 140.111 53.0256 139.974 52.9481 139.859C52.8373 139.712 52.6859 139.601 52.5127 139.539C52.2137 139.412 51.9012 139.32 51.5813 139.263C51.24 139.191 50.9047 139.094 50.5782 138.971C50.2971 138.867 50.0318 138.724 49.7901 138.547C49.5783 138.392 49.4032 138.193 49.2775 137.963C49.1526 137.719 49.09 137.448 49.0956 137.175C49.0934 136.892 49.1576 136.612 49.283 136.359C49.4138 136.095 49.6021 135.863 49.8342 135.681C50.0898 135.472 50.3837 135.315 50.6994 135.218C51.0714 135.098 51.4606 135.041 51.8513 135.047C52.3766 135.033 52.8989 135.131 53.3835 135.334C53.7804 135.503 54.1221 135.78 54.3701 136.133C54.5971 136.47 54.7163 136.868 54.7118 137.274H53.0032C53.0062 137.097 52.9645 136.923 52.882 136.767C52.789 136.613 52.6555 136.487 52.4962 136.403C52.2942 136.304 52.0707 136.256 51.8458 136.265C51.6394 136.259 51.4342 136.298 51.2451 136.381C51.0992 136.448 50.9737 136.553 50.8813 136.684C50.8007 136.807 50.7585 136.951 50.7601 137.097C50.7584 137.202 50.781 137.306 50.8262 137.401C50.8809 137.497 50.9562 137.58 51.0466 137.643C51.1789 137.727 51.3215 137.794 51.471 137.842C51.6529 137.902 51.8734 137.957 52.1324 138.018C52.6019 138.102 53.0603 138.239 53.4992 138.426C53.8547 138.571 54.1689 138.802 54.4142 139.098C54.6502 139.415 54.7672 139.806 54.7448 140.2C54.7493 140.496 54.6792 140.788 54.5409 141.049C54.4109 141.311 54.2223 141.539 53.9898 141.716C53.7162 141.919 53.4081 142.07 53.0804 142.162C52.6911 142.271 52.2884 142.323 51.8844 142.317C51.323 142.334 50.7656 142.217 50.2585 141.975C49.8492 141.777 49.5008 141.473 49.2499 141.093C49.0293 140.768 48.9104 140.384 48.9082 139.991H50.5616C50.5628 140.228 50.6401 140.458 50.7821 140.647C50.9155 140.809 51.0909 140.931 51.2891 141C51.499 141.069 51.7185 141.104 51.9395 141.104C52.1608 141.109 52.3811 141.073 52.5899 141C52.7477 140.94 52.8866 140.839 52.9922 140.707C53.0669 140.567 53.0921 140.406 53.0638 140.25Z" fill="#3D5281"/>
<path d="M59.8649 140.25C59.8671 140.111 59.8267 139.974 59.7492 139.859C59.6384 139.712 59.487 139.601 59.3138 139.539C59.0144 139.413 58.702 139.321 58.3824 139.263C58.0411 139.191 57.7059 139.094 57.3793 138.971C57.0982 138.867 56.8329 138.724 56.5911 138.547C56.3793 138.392 56.2043 138.193 56.0786 137.963C55.9536 137.719 55.8912 137.448 55.8967 137.175C55.8945 136.892 55.9587 136.612 56.0841 136.359C56.2148 136.095 56.4032 135.863 56.6352 135.681C56.8909 135.472 57.1848 135.315 57.5005 135.218C57.8726 135.098 58.2617 135.041 58.6524 135.047C59.1777 135.033 59.6999 135.131 60.1846 135.334C60.5815 135.503 60.9232 135.78 61.1711 136.133C61.3982 136.47 61.5174 136.868 61.5129 137.274H59.8098C59.8128 137.097 59.7711 136.923 59.6886 136.767C59.5956 136.613 59.4622 136.487 59.3028 136.403C59.1008 136.304 58.8773 136.256 58.6524 136.265C58.4461 136.259 58.2408 136.298 58.0517 136.381C57.9058 136.448 57.7803 136.553 57.6879 136.684C57.6074 136.807 57.5651 136.951 57.5667 137.097C57.565 137.202 57.5876 137.306 57.6328 137.401C57.6875 137.497 57.7628 137.58 57.8533 137.643C57.9855 137.727 58.1282 137.794 58.2776 137.842C58.4595 137.902 58.68 137.957 58.939 138.018C59.4085 138.102 59.867 138.239 60.3059 138.426C60.6614 138.571 60.9756 138.802 61.2208 139.098C61.4568 139.415 61.5739 139.806 61.5514 140.2C61.5559 140.496 61.4858 140.788 61.3475 141.049C61.2175 141.311 61.0289 141.539 60.7964 141.716C60.5228 141.919 60.2147 142.07 59.887 142.162C59.4978 142.271 59.095 142.323 58.691 142.317C58.1296 142.334 57.5722 142.217 57.0652 141.975C56.6558 141.777 56.3074 141.473 56.0566 141.093C55.8359 140.768 55.717 140.384 55.7148 139.991H57.3683C57.3695 140.228 57.4467 140.458 57.5887 140.647C57.7221 140.809 57.8976 140.931 58.0958 141C58.2953 141.052 58.5015 141.074 58.7075 141.066C58.9289 141.07 59.1491 141.035 59.3579 140.961C59.5157 140.901 59.6547 140.801 59.7602 140.669C59.838 140.544 59.8747 140.397 59.8649 140.25Z" fill="#3D5281"/>
<path d="M67.2073 139.055H67.7585C67.7608 139.491 67.7089 139.926 67.6042 140.35C67.5128 140.722 67.3479 141.073 67.1192 141.38C66.9049 141.67 66.623 141.903 66.298 142.058C65.9309 142.23 65.5289 142.313 65.124 142.301C64.8022 142.306 64.4818 142.258 64.176 142.157C63.9001 142.063 63.6494 141.906 63.443 141.7C63.2276 141.468 63.0657 141.191 62.969 140.89C62.8504 140.504 62.7946 140.103 62.8037 139.699V135.186H64.5067V139.71C64.5011 139.908 64.529 140.106 64.5894 140.295C64.6341 140.436 64.7115 140.564 64.8154 140.669C64.9085 140.769 65.0265 140.841 65.1571 140.879C65.2949 140.919 65.4378 140.94 65.5814 140.939C65.9243 140.958 66.2648 140.872 66.557 140.691C66.7965 140.529 66.9765 140.293 67.0695 140.019C67.1731 139.708 67.2198 139.382 67.2073 139.055ZM66.9759 140.515V135.186H68.6899V142.169H67.0806L66.9759 140.515Z" fill="#3D5281"/>
<path d="M73.3473 142.289C72.859 142.298 72.3738 142.21 71.9199 142.03C71.5046 141.874 71.1284 141.63 70.8176 141.314C70.5165 140.998 70.2855 140.622 70.1397 140.211C69.9782 139.787 69.8978 139.337 69.9027 138.883V138.624C69.8965 138.126 69.9747 137.63 70.1342 137.158C70.2766 136.737 70.5015 136.35 70.7955 136.017C71.0773 135.699 71.4254 135.447 71.8152 135.279C72.2303 135.105 72.6768 135.018 73.1269 135.025C73.5765 135.016 74.0232 135.101 74.4386 135.273C74.8055 135.428 75.1304 135.668 75.3866 135.973C75.645 136.298 75.8328 136.674 75.9377 137.075C76.0749 137.527 76.1418 137.997 76.1361 138.47V139.186H70.6578V138.007H74.4551V137.88C74.4482 137.625 74.3959 137.373 74.3008 137.136C74.2112 136.913 74.0578 136.721 73.8599 136.585C73.6307 136.442 73.3638 136.371 73.0938 136.381C72.8606 136.375 72.6302 136.432 72.4269 136.546C72.235 136.66 72.0755 136.821 71.964 137.015C71.8332 137.235 71.7401 137.475 71.6884 137.726C71.6261 138.027 71.5965 138.333 71.6002 138.641V138.9C71.5967 139.176 71.6376 139.452 71.7215 139.715C71.7919 139.954 71.9121 140.176 72.0742 140.366C72.2247 140.546 72.4128 140.691 72.6253 140.79C72.865 140.895 73.1243 140.948 73.3859 140.944C73.7209 140.948 74.0524 140.877 74.3559 140.735C74.6537 140.586 74.9137 140.371 75.1165 140.107L75.9763 140.999C75.8096 141.233 75.6111 141.443 75.3866 141.622C75.1163 141.832 74.8126 141.994 74.4882 142.102C74.1203 142.224 73.7352 142.287 73.3473 142.289Z" fill="#3D5281"/>
<path d="M77.0276 138.751V138.618C77.0227 138.126 77.0839 137.634 77.2095 137.158C77.3254 136.76 77.5121 136.387 77.7607 136.055C77.9895 135.748 78.2854 135.498 78.626 135.322C78.9844 135.148 79.3792 135.061 79.7778 135.069C80.1601 135.059 80.5388 135.144 80.8801 135.317C81.197 135.493 81.4702 135.738 81.6793 136.033C81.9175 136.371 82.1033 136.743 82.2304 137.136C82.3683 137.593 82.4643 138.061 82.517 138.536V138.861C82.4638 139.322 82.3679 139.778 82.2304 140.222C82.1042 140.616 81.9184 140.987 81.6793 141.324C81.4696 141.622 81.1943 141.867 80.8746 142.041C80.533 142.212 80.1545 142.298 79.7723 142.289C79.3743 142.296 78.9806 142.205 78.626 142.024C78.2859 141.848 77.9915 141.595 77.7662 141.286C77.5196 140.953 77.3331 140.58 77.215 140.184C77.0862 139.717 77.0231 139.235 77.0276 138.751ZM78.7417 138.618V138.751C78.7382 139.035 78.7641 139.32 78.8188 139.599C78.8628 139.843 78.9466 140.077 79.0669 140.294C79.1776 140.484 79.3326 140.645 79.5188 140.762C79.7215 140.878 79.9524 140.935 80.1857 140.928C80.479 140.94 80.7692 140.863 81.0179 140.707C81.2402 140.552 81.4156 140.338 81.525 140.09C81.6517 139.811 81.7299 139.513 81.7564 139.208V138.194C81.7421 137.951 81.6977 137.71 81.6242 137.477C81.5581 137.278 81.4573 137.091 81.3265 136.926C81.2003 136.768 81.0403 136.64 80.8581 136.552C80.6503 136.458 80.4243 136.413 80.1967 136.419C79.9626 136.411 79.7312 136.47 79.5298 136.59C79.3398 136.705 79.1838 136.869 79.0779 137.064C78.9518 137.283 78.8642 137.521 78.8188 137.77C78.7647 138.049 78.7389 138.333 78.7417 138.618ZM81.4974 140.674V132.247H83.217V142.168H81.6682L81.4974 140.674Z" fill="#3D5281"/>
<path d="M90.0794 132.76V142.168H88.3047V132.76H90.0794Z" fill="#3D5281"/>
<path d="M93.7724 132.76V142.168H91.9922V132.76H93.7724ZM94.803 142.162H92.7748V140.768H94.792C95.277 140.784 95.756 140.658 96.1698 140.404C96.5495 140.146 96.8417 139.779 97.0076 139.351C97.2089 138.824 97.3062 138.263 97.2942 137.698V137.208C97.301 136.765 97.2453 136.323 97.1289 135.896C97.0377 135.549 96.8764 135.224 96.6548 134.942C96.4489 134.686 96.1842 134.484 95.8833 134.353C95.5498 134.215 95.1914 134.147 94.8306 134.154H92.7252V132.754H94.8306C95.4187 132.747 96.0026 132.853 96.5501 133.068C97.0598 133.272 97.5201 133.582 97.9004 133.978C98.2893 134.382 98.5897 134.862 98.7823 135.389C98.9925 135.977 99.0952 136.599 99.0854 137.224V137.693C99.0948 138.316 98.9921 138.935 98.7823 139.522C98.591 140.05 98.2905 140.53 97.9004 140.933C97.5179 141.329 97.0558 141.639 96.5446 141.843C95.9898 142.06 95.3989 142.17 94.803 142.168V142.162Z" fill="#3D5281"/>
<path d="M104.901 135.174L106.554 140.884L106.615 142.162H105.512L103.109 135.174H104.901ZM106.086 140.873L107.739 135.174H109.519L107.1 142.168H105.997L106.086 140.873Z" fill="#3D5281"/>
<path d="M113.449 142.289C112.961 142.298 112.475 142.21 112.021 142.03C111.607 141.873 111.231 141.629 110.919 141.314C110.622 140.995 110.391 140.62 110.241 140.211C110.082 139.787 110.002 139.336 110.004 138.883V138.624C109.998 138.126 110.076 137.63 110.236 137.158C110.38 136.738 110.605 136.351 110.897 136.017C111.18 135.701 111.528 135.449 111.917 135.279C112.332 135.105 112.778 135.018 113.228 135.025C113.678 135.016 114.125 135.101 114.54 135.273C114.907 135.428 115.232 135.668 115.488 135.973C115.744 136.299 115.932 136.674 116.039 137.075C116.172 137.528 116.237 137.998 116.232 138.47V139.186H110.754V138.007H114.551V137.88C114.544 137.625 114.492 137.373 114.397 137.136C114.307 136.913 114.154 136.721 113.956 136.585C113.727 136.442 113.46 136.371 113.19 136.381C112.958 136.375 112.73 136.432 112.528 136.546C112.335 136.66 112.174 136.821 112.06 137.015C111.929 137.235 111.836 137.475 111.784 137.726C111.722 138.027 111.693 138.333 111.696 138.641V138.9C111.693 139.176 111.734 139.452 111.818 139.715C111.89 139.954 112.01 140.175 112.17 140.366C112.322 140.545 112.51 140.689 112.721 140.79C112.961 140.894 113.22 140.947 113.482 140.944C113.817 140.949 114.149 140.878 114.452 140.735C114.75 140.586 115.01 140.371 115.213 140.107L116.072 140.999C115.907 141.235 115.708 141.444 115.483 141.622C115.213 141.833 114.909 141.995 114.584 142.102C114.218 142.224 113.835 142.287 113.449 142.289Z" fill="#3D5281"/>
<path d="M119.131 136.602V142.168H117.428V135.174H119.043L119.131 136.602ZM121.258 135.13V136.717L120.939 136.679C120.823 136.679 120.713 136.679 120.608 136.679C120.374 136.673 120.141 136.709 119.919 136.784C119.732 136.846 119.562 136.952 119.423 137.092C119.288 137.23 119.184 137.395 119.12 137.577C119.05 137.787 119.011 138.006 119.004 138.228L118.64 138.183C118.637 137.768 118.681 137.354 118.773 136.949C118.852 136.598 118.986 136.261 119.169 135.951C119.328 135.682 119.549 135.456 119.814 135.29C120.089 135.133 120.401 135.053 120.718 135.058C120.821 135.051 120.924 135.051 121.027 135.058C121.107 135.072 121.184 135.096 121.258 135.13Z" fill="#3D5281"/>
<path d="M122.166 133.35C122.163 133.232 122.186 133.114 122.231 133.005C122.277 132.896 122.345 132.797 122.431 132.716C122.526 132.631 122.638 132.565 122.759 132.522C122.88 132.479 123.008 132.461 123.136 132.468C123.264 132.461 123.393 132.479 123.514 132.522C123.635 132.565 123.746 132.631 123.842 132.716C123.928 132.797 123.996 132.896 124.041 133.005C124.087 133.114 124.109 133.232 124.106 133.35C124.109 133.468 124.087 133.584 124.042 133.693C123.996 133.801 123.928 133.899 123.842 133.978C123.747 134.065 123.635 134.132 123.514 134.176C123.393 134.219 123.265 134.238 123.136 134.232C123.008 134.238 122.879 134.219 122.758 134.176C122.637 134.132 122.526 134.065 122.431 133.978C122.345 133.899 122.276 133.801 122.231 133.693C122.185 133.584 122.163 133.468 122.166 133.35ZM123.996 135.18V142.168H122.282V135.174L123.996 135.18Z" fill="#3D5281"/>
<path d="M129.254 135.174V136.403H125.07V135.174H129.254ZM127.859 142.168H126.14V134.529C126.123 134.068 126.227 133.61 126.443 133.201C126.64 132.846 126.942 132.562 127.308 132.385C127.721 132.19 128.174 132.093 128.631 132.104C128.793 132.104 128.955 132.115 129.116 132.137C129.268 132.161 129.419 132.192 129.568 132.231L129.535 133.526C129.448 133.502 129.36 133.487 129.27 133.482C129.164 133.476 129.057 133.476 128.95 133.482C128.745 133.476 128.541 133.517 128.355 133.603C128.196 133.679 128.066 133.805 127.986 133.962C127.898 134.132 127.855 134.321 127.859 134.513V142.168Z" fill="#3D5281"/>
<path d="M131.46 135.174L133.042 140.322L133.323 142.124L132.143 142.339L129.619 135.174H131.46ZM132.386 141.385L134.26 135.174H136.084L133.284 143.221C133.218 143.393 133.135 143.577 133.036 143.772C132.928 143.983 132.791 144.178 132.628 144.35C132.452 144.541 132.238 144.692 132 144.797C131.711 144.92 131.399 144.98 131.085 144.973C130.947 144.974 130.808 144.963 130.672 144.94L130.292 144.857V143.579H130.446H130.595C130.806 143.586 131.017 143.556 131.217 143.491C131.373 143.438 131.51 143.342 131.614 143.215C131.727 143.066 131.813 142.898 131.868 142.719L132.386 141.385Z" fill="#3D5281"/>
</g>
<defs>
<linearGradient id="paint0_linear_386_14575" x1="90.571" y1="220" x2="90.571" y2="131.63" gradientUnits="userSpaceOnUse">
<stop stop-color="#9AA7C8"/>
<stop offset="0.32" stop-color="#7383AD"/>
<stop offset="0.5" stop-color="#5B6D9C"/>
</linearGradient>
<linearGradient id="paint1_linear_386_14575" x1="0" y1="141.462" x2="33.9615" y2="141.462" gradientUnits="userSpaceOnUse">
<stop stop-color="#FFB200"/>
<stop offset="0.2" stop-color="#FFB800"/>
<stop offset="0.35" stop-color="#F3AB00"/>
<stop offset="0.61" stop-color="#D38A00"/>
<stop offset="0.79" stop-color="#BA7000"/>
</linearGradient>
<linearGradient id="paint2_linear_386_14575" x1="0" y1="117.179" x2="33.967" y2="117.179" gradientUnits="userSpaceOnUse">
<stop stop-color="#FFB000"/>
<stop offset="0.04" stop-color="#FFC227"/>
<stop offset="0.09" stop-color="#FFD654"/>
<stop offset="0.14" stop-color="#FFE574"/>
<stop offset="0.18" stop-color="#FFEE88"/>
<stop offset="0.2" stop-color="#FFF18F"/>
<stop offset="0.24" stop-color="#FFEF82"/>
<stop offset="0.3" stop-color="#FFE961"/>
<stop offset="0.39" stop-color="#FFE02B"/>
<stop offset="0.41" stop-color="#FFDE1D"/>
<stop offset="0.57" stop-color="#ECB60E"/>
<stop offset="0.71" stop-color="#DF9C04"/>
<stop offset="0.79" stop-color="#DA9200"/>
</linearGradient>
<linearGradient id="paint3_linear_386_14575" x1="0" y1="164.583" x2="33.9615" y2="164.583" gradientUnits="userSpaceOnUse">
<stop stop-color="#D48400"/>
<stop offset="0.05" stop-color="#DA9000"/>
<stop offset="0.15" stop-color="#E3A400"/>
<stop offset="0.22" stop-color="#E6AB00"/>
<stop offset="0.27" stop-color="#DCA000"/>
<stop offset="0.5" stop-color="#B87500"/>
<stop offset="0.68" stop-color="#A15B00"/>
<stop offset="0.79" stop-color="#995100"/>
</linearGradient>
<linearGradient id="paint4_linear_386_14575" x1="181.145" y1="141.462" x2="147.184" y2="141.462" gradientUnits="userSpaceOnUse">
<stop stop-color="#FFB200"/>
<stop offset="0.2" stop-color="#FFB800"/>
<stop offset="0.35" stop-color="#F3AB00"/>
<stop offset="0.61" stop-color="#D38A00"/>
<stop offset="0.79" stop-color="#BA7000"/>
</linearGradient>
<linearGradient id="paint5_linear_386_14575" x1="181.151" y1="117.179" x2="147.189" y2="117.179" gradientUnits="userSpaceOnUse">
<stop stop-color="#FFB000"/>
<stop offset="0.04" stop-color="#FFC227"/>
<stop offset="0.09" stop-color="#FFD654"/>
<stop offset="0.14" stop-color="#FFE574"/>
<stop offset="0.18" stop-color="#FFEE88"/>
<stop offset="0.2" stop-color="#FFF18F"/>
<stop offset="0.24" stop-color="#FFEF82"/>
<stop offset="0.3" stop-color="#FFE961"/>
<stop offset="0.39" stop-color="#FFE02B"/>
<stop offset="0.41" stop-color="#FFDE1D"/>
<stop offset="0.57" stop-color="#ECB60E"/>
<stop offset="0.71" stop-color="#DF9C04"/>
<stop offset="0.79" stop-color="#DA9200"/>
</linearGradient>
<linearGradient id="paint6_linear_386_14575" x1="181.145" y1="164.774" x2="147.184" y2="164.774" gradientUnits="userSpaceOnUse">
<stop stop-color="#D48400"/>
<stop offset="0.05" stop-color="#DA9000"/>
<stop offset="0.15" stop-color="#E3A400"/>
<stop offset="0.22" stop-color="#E6AB00"/>
<stop offset="0.27" stop-color="#DCA000"/>
<stop offset="0.5" stop-color="#B87500"/>
<stop offset="0.68" stop-color="#A15B00"/>
<stop offset="0.79" stop-color="#995100"/>
</linearGradient>
<linearGradient id="paint7_linear_386_14575" x1="21.8594" y1="160.052" x2="43.591" y2="160.052" gradientUnits="userSpaceOnUse">
<stop stop-color="#995100"/>
<stop offset="0.28" stop-color="#BB7000"/>
<stop offset="0.52" stop-color="#D58800"/>
<stop offset="0.74" stop-color="#D68A00"/>
<stop offset="0.82" stop-color="#DB9100"/>
<stop offset="0.87" stop-color="#E49C00"/>
<stop offset="0.91" stop-color="#F0AD00"/>
<stop offset="0.95" stop-color="#FFC100"/>
<stop offset="0.96" stop-color="#F0AC00"/>
<stop offset="0.99" stop-color="#DC9200"/>
<stop offset="1" stop-color="#D58800"/>
</linearGradient>
<linearGradient id="paint8_linear_386_14575" x1="159.286" y1="160.052" x2="137.555" y2="160.052" gradientUnits="userSpaceOnUse">
<stop stop-color="#995100"/>
<stop offset="0.28" stop-color="#BB7000"/>
<stop offset="0.52" stop-color="#D58800"/>
<stop offset="0.74" stop-color="#D68A00"/>
<stop offset="0.82" stop-color="#DB9100"/>
<stop offset="0.87" stop-color="#E49C00"/>
<stop offset="0.91" stop-color="#F0AD00"/>
<stop offset="0.95" stop-color="#FFC100"/>
<stop offset="0.96" stop-color="#F0AC00"/>
<stop offset="0.99" stop-color="#DC9200"/>
<stop offset="1" stop-color="#D58800"/>
</linearGradient>
<linearGradient id="paint9_linear_386_14575" x1="55.1262" y1="25.3249" x2="128.401" y2="182.461" gradientUnits="userSpaceOnUse">
<stop stop-color="#CED6E7"/>
<stop offset="0.66" stop-color="#C1CBDD"/>
<stop offset="1" stop-color="#B9C3D7"/>
</linearGradient>
<linearGradient id="paint10_linear_386_14575" x1="51.9744" y1="17.1907" x2="131.824" y2="188.426" gradientUnits="userSpaceOnUse">
<stop stop-color="#9AA7C6"/>
<stop offset="0.44" stop-color="#7383A9"/>
<stop offset="1" stop-color="#3D5281"/>
</linearGradient>
<linearGradient id="paint11_linear_386_14575" x1="54.3383" y1="23.291" x2="129.255" y2="183.955" gradientUnits="userSpaceOnUse">
<stop stop-color="#5B6D9C"/>
<stop offset="0.36" stop-color="#7383AD"/>
<stop offset="1" stop-color="#9AA7C8"/>
</linearGradient>
<linearGradient id="paint12_linear_386_14575" x1="51.9744" y1="17.1907" x2="131.824" y2="188.426" gradientUnits="userSpaceOnUse">
<stop stop-color="#B7C2D9"/>
<stop offset="0.18" stop-color="#909EBD"/>
<stop offset="0.53" stop-color="#3D5281"/>
<stop offset="1" stop-color="#2E3E67"/>
</linearGradient>
<linearGradient id="paint13_linear_386_14575" x1="90.5761" y1="64.5556" x2="90.5761" y2="34.8545" gradientUnits="userSpaceOnUse">
<stop stop-color="#9AA7C6" stop-opacity="0"/>
<stop offset="0.39" stop-color="#9AA7C6" stop-opacity="0.01"/>
<stop offset="0.53" stop-color="#9AA7C6" stop-opacity="0.04"/>
<stop offset="0.63" stop-color="#9AA7C6" stop-opacity="0.1"/>
<stop offset="0.72" stop-color="#9AA7C6" stop-opacity="0.19"/>
<stop offset="0.79" stop-color="#9AA7C6" stop-opacity="0.3"/>
<stop offset="0.85" stop-color="#9AA7C6" stop-opacity="0.44"/>
<stop offset="0.9" stop-color="#9AA7C6" stop-opacity="0.6"/>
<stop offset="0.95" stop-color="#9AA7C6" stop-opacity="0.78"/>
<stop offset="1" stop-color="#9AA7C6"/>
</linearGradient>
<linearGradient id="paint14_linear_386_14575" x1="90.5749" y1="151.708" x2="90.5749" y2="137.753" gradientUnits="userSpaceOnUse">
<stop stop-color="#BA7000" stop-opacity="0"/>
<stop offset="0.21" stop-color="#BA7000" stop-opacity="0.02"/>
<stop offset="0.36" stop-color="#BA7000" stop-opacity="0.07"/>
<stop offset="0.49" stop-color="#BA7000" stop-opacity="0.15"/>
<stop offset="0.61" stop-color="#BA7000" stop-opacity="0.27"/>
<stop offset="0.72" stop-color="#BA7000" stop-opacity="0.42"/>
<stop offset="0.83" stop-color="#BA7000" stop-opacity="0.61"/>
<stop offset="0.93" stop-color="#BA7000" stop-opacity="0.83"/>
<stop offset="1" stop-color="#BA7000"/>
</linearGradient>
<linearGradient id="paint15_linear_386_14575" x1="85.9575" y1="173.969" x2="93.8224" y2="190.834" gradientUnits="userSpaceOnUse">
<stop stop-color="white"/>
<stop offset="1" stop-color="#E1E8F1"/>
</linearGradient>
<linearGradient id="paint16_linear_386_14575" x1="67.7144" y1="172.222" x2="73.055" y2="183.663" gradientUnits="userSpaceOnUse">
<stop stop-color="white"/>
<stop offset="1" stop-color="#E1E8F1"/>
</linearGradient>
<linearGradient id="paint17_linear_386_14575" x1="107.165" y1="172.222" x2="112.5" y2="183.663" gradientUnits="userSpaceOnUse">
<stop stop-color="white"/>
<stop offset="1" stop-color="#E1E8F1"/>
</linearGradient>
<linearGradient id="paint18_linear_386_14575" x1="68.4919" y1="0.964502" x2="112.655" y2="95.673" gradientUnits="userSpaceOnUse">
<stop stop-color="#CED6E7"/>
<stop offset="0.66" stop-color="#C1CBDD"/>
<stop offset="1" stop-color="#B9C3D7"/>
</linearGradient>
<linearGradient id="paint19_linear_386_14575" x1="73.4796" y1="11.6571" x2="107.673" y2="84.9813" gradientUnits="userSpaceOnUse">
<stop offset="0.11" stop-color="white"/>
<stop offset="0.49" stop-color="#FAFBFD"/>
<stop offset="0.95" stop-color="#EBF0F6"/>
<stop offset="1" stop-color="#E9EEF5"/>
</linearGradient>
<linearGradient id="paint20_linear_386_14575" x1="68.4919" y1="0.964502" x2="112.655" y2="95.673" gradientUnits="userSpaceOnUse">
<stop stop-color="#9AA7C6"/>
<stop offset="0.44" stop-color="#7383A9"/>
<stop offset="1" stop-color="#3D5281"/>
</linearGradient>
<linearGradient id="paint21_linear_386_14575" x1="70.7345" y1="5.77643" x2="110.411" y2="90.862" gradientUnits="userSpaceOnUse">
<stop stop-color="#5B6D9C"/>
<stop offset="0.36" stop-color="#7383AD"/>
<stop offset="1" stop-color="#9AA7C8"/>
</linearGradient>
<linearGradient id="paint22_linear_386_14575" x1="68.4919" y1="0.964502" x2="112.655" y2="95.673" gradientUnits="userSpaceOnUse">
<stop stop-color="#B7C2D9"/>
<stop offset="0.18" stop-color="#909EBD"/>
<stop offset="0.53" stop-color="#3D5281"/>
<stop offset="1" stop-color="#2E3E67"/>
</linearGradient>
<linearGradient id="paint23_linear_386_14575" x1="66.5762" y1="48.3213" x2="114.576" y2="48.3213" gradientUnits="userSpaceOnUse">
<stop stop-color="#007ECF"/>
<stop offset="1" stop-color="#40C4FF"/>
</linearGradient>
<radialGradient id="paint24_radial_386_14575" cx="0" cy="0" r="1" gradientUnits="userSpaceOnUse" gradientTransform="translate(91.4947 51.4094) scale(18.6203 18.6204)">
<stop offset="0.43"/>
<stop offset="0.53" stop-color="#030303"/>
<stop offset="0.61" stop-color="#0C0C0C"/>
<stop offset="0.68" stop-color="#1C1C1C"/>
<stop offset="0.74" stop-color="#333333"/>
<stop offset="0.8" stop-color="#505050"/>
<stop offset="0.85" stop-color="#747474"/>
<stop offset="0.91" stop-color="#9F9F9F"/>
<stop offset="0.96" stop-color="#CFCFCF"/>
<stop offset="1" stop-color="white"/>
</radialGradient>
<linearGradient id="paint25_linear_386_14575" x1="80.3513" y1="35.0692" x2="103.095" y2="64.2413" gradientUnits="userSpaceOnUse">
<stop stop-color="white"/>
<stop offset="0.44" stop-color="#DDE7F1"/>
<stop offset="0.6" stop-color="#DBE4EF"/>
<stop offset="0.7" stop-color="#D3DCEA"/>
<stop offset="0.79" stop-color="#C6CDE0"/>
<stop offset="0.87" stop-color="#B3B8D2"/>
<stop offset="0.94" stop-color="#9C9DC1"/>
<stop offset="1" stop-color="#807EAD"/>
</linearGradient>
<linearGradient id="paint26_linear_386_14575" x1="78.5682" y1="56.3688" x2="99.5045" y2="41.8155" gradientUnits="userSpaceOnUse">
<stop stop-color="#007ECF"/>
<stop offset="1" stop-color="#40C4FF"/>
</linearGradient>
<linearGradient id="paint27_linear_386_14575" x1="21.8594" y1="131.471" x2="159.287" y2="131.471" gradientUnits="userSpaceOnUse">
<stop stop-color="#D58800"/>
<stop offset="0.01" stop-color="#DD9A0E"/>
<stop offset="0.03" stop-color="#F0C22C"/>
<stop offset="0.04" stop-color="#FBDA3F"/>
<stop offset="0.05" stop-color="#FFE346"/>
<stop offset="0.1" stop-color="#FFB200"/>
<stop offset="0.9" stop-color="#FFB200"/>
<stop offset="0.95" stop-color="#FFE346"/>
<stop offset="0.96" stop-color="#FBDA3F"/>
<stop offset="0.97" stop-color="#F0C22C"/>
<stop offset="0.99" stop-color="#DD9A0E"/>
<stop offset="1" stop-color="#D58800"/>
</linearGradient>
<linearGradient id="paint28_linear_386_14575" x1="21.8594" y1="155.792" x2="159.287" y2="155.792" gradientUnits="userSpaceOnUse">
<stop stop-color="#CF7400"/>
<stop offset="0.02" stop-color="#E89818"/>
<stop offset="0.04" stop-color="#F9B028"/>
<stop offset="0.05" stop-color="#FFB92E"/>
<stop offset="0.1" stop-color="#DA9200"/>
<stop offset="0.9" stop-color="#DA9200"/>
<stop offset="0.95" stop-color="#FFB92E"/>
<stop offset="0.96" stop-color="#F9B028"/>
<stop offset="0.98" stop-color="#E89818"/>
<stop offset="1" stop-color="#CF7400"/>
</linearGradient>
<linearGradient id="paint29_linear_386_14575" x1="21.8594" y1="107.149" x2="159.287" y2="107.149" gradientUnits="userSpaceOnUse">
<stop stop-color="#FFB710"/>
<stop offset="0.02" stop-color="#FFD046"/>
<stop offset="0.03" stop-color="#FFE26E"/>
<stop offset="0.04" stop-color="#FFED86"/>
<stop offset="0.05" stop-color="#FFF18F"/>
<stop offset="0.1" stop-color="#FFDE1D"/>
<stop offset="0.9" stop-color="#FFDE1D"/>
<stop offset="0.95" stop-color="#FFF18F"/>
<stop offset="0.96" stop-color="#FFED86"/>
<stop offset="0.97" stop-color="#FFE26E"/>
<stop offset="0.98" stop-color="#FFD046"/>
<stop offset="1" stop-color="#FFB000"/>
</linearGradient>
<clipPath id="clip0_386_14575">
<rect width="181.15" height="220" fill="white"/>
</clipPath>
<clipPath id="clip1_386_14575">
<rect width="48" height="48" fill="white" transform="translate(66.5762 24.3213)"/>
</clipPath>
</defs>
</svg>